/* XPM */
static char * C1_xpm[] = {
"50 50 167 2",
"  	c #BDBFCF",
". 	c #BBBDCC",
"+ 	c #BABCCC",
"@ 	c #BBBDCD",
"# 	c #BCBECE",
"$ 	c #BCBECD",
"% 	c #BBBECD",
"& 	c #B9BBCB",
"* 	c #BABDCC",
"= 	c #B4BEC5",
"- 	c #4BB853",
"; 	c #3DB943",
"> 	c #75DB79",
", 	c #85E489",
"' 	c #62C46A",
") 	c #55BA5D",
"! 	c #4CB954",
"~ 	c #58C45E",
"{ 	c #88E28E",
"] 	c #76DA7B",
"^ 	c #36B83C",
"/ 	c #4AB952",
"( 	c #B1BDC2",
"_ 	c #BBBFCD",
": 	c #65BA6F",
"< 	c #01B801",
"[ 	c #40CA40",
"} 	c #76EA75",
"| 	c #70E76F",
"1 	c #0BBA0B",
"2 	c #01B901",
"3 	c #0ABA0A",
"4 	c #70E670",
"5 	c #76EA76",
"6 	c #40C941",
"7 	c #4AB852",
"8 	c #B2BCC3",
"9 	c #BCBFCE",
"0 	c #7DBB8A",
"a 	c #02B902",
"b 	c #0CBA0D",
"c 	c #6BE36B",
"d 	c #5DDA5D",
"e 	c #02B802",
"f 	c #5FDA5F",
"g 	c #6CE36C",
"h 	c #0CBA0C",
"i 	c #54B65D",
"j 	c #B7BCC9",
"k 	c #8CBC99",
"l 	c #07B909",
"m 	c #4ECF4E",
"n 	c #45CB45",
"o 	c #4CD04C",
"p 	c #72B77D",
"q 	c #92BBA0",
"r 	c #0CB90E",
"s 	c #1ABC1B",
"t 	c #70E770",
"u 	c #74E973",
"v 	c #1BBC1C",
"w 	c #18BC19",
"x 	c #0AB90C",
"y 	c #8FBA9D",
"z 	c #A3BDB3",
"A 	c #1AB91D",
"B 	c #58D558",
"C 	c #65DF64",
"D 	c #03B803",
"E 	c #65DF65",
"F 	c #57D557",
"G 	c #16B919",
"H 	c #9DBBAC",
"I 	c #B0BEC1",
"J 	c #3CB943",
"K 	c #2BC02B",
"L 	c #75E974",
"M 	c #4FD04F",
"N 	c #4FD14F",
"O 	c #74E975",
"P 	c #2BC12C",
"Q 	c #27B92B",
"R 	c #A5BBB5",
"S 	c #8DC59A",
"T 	c #47D14A",
"U 	c #47D049",
"V 	c #6ADF6A",
"W 	c #87EE86",
"X 	c #86EE86",
"Y 	c #86ED86",
"Z 	c #73DF73",
"` 	c #6FDA6D",
" .	c #70DB6D",
"..	c #74DF72",
"+.	c #87EC85",
"@.	c #88ED86",
"#.	c #6ADF6B",
"$.	c #49D04C",
"%.	c #4AD04C",
"&.	c #4AD14C",
"*.	c #74C67E",
"=.	c #90D59D",
"-.	c #60E164",
";.	c #63E165",
">.	c #87EC87",
",.	c #91EF91",
"'.	c #8AEC89",
").	c #64E166",
"!.	c #88D393",
"~.	c #B8BECA",
"{.	c #A1CBB0",
"].	c #65E069",
"^.	c #61E164",
"/.	c #69E26B",
"(.	c #8DEE8D",
"_.	c #8EEE8E",
":.	c #6AE26C",
"<.	c #67E06C",
"[.	c #9ECDAC",
"}.	c #AEC6BE",
"|.	c #71DC76",
"1.	c #60E063",
"2.	c #70E572",
"3.	c #90EF90",
"4.	c #91EF90",
"5.	c #72E573",
"6.	c #61E064",
"7.	c #69DD6C",
"8.	c #ADC6BC",
"9.	c #B4C3C5",
"0.	c #7CD984",
"a.	c #60E163",
"b.	c #7BE87C",
"c.	c #7DE97D",
"d.	c #62E065",
"e.	c #85D78E",
"f.	c #B3C2C3",
"g.	c #B8C0CA",
"h.	c #80D48A",
"i.	c #5FE264",
"j.	c #83EB84",
"k.	c #85EB85",
"l.	c #63E166",
"m.	c #91D29D",
"n.	c #BCBFCD",
"o.	c #90CD9D",
"p.	c #65E268",
"q.	c #89ED8A",
"r.	c #8BED8B",
"s.	c #6FDF74",
"t.	c #A4CAB3",
"u.	c #A0C6AF",
"v.	c #6FE272",
"w.	c #8FEF8F",
"x.	c #78E07C",
"y.	c #B1C5C1",
"z.	c #ACC1BC",
"A.	c #7DDF81",
"B.	c #92EE8F",
"C.	c #91EF8F",
"D.	c #85E08B",
"E.	c #B2C3C3",
"F.	c #BDBECE",
"G.	c #B5C0C7",
"H.	c #96DF9D",
"I.	c #A2DBAC",
"J.	c #B9C0CA",
"                                                                                                    ",
"                                                                                                    ",
"                                                                                                    ",
"                                                                                                    ",
"                                                                                                    ",
"                                                                                                    ",
"                                                                                                    ",
"                                                                                                    ",
"                                                                                                    ",
"                                                                                                    ",
"                                                                                                    ",
"                                                                                                    ",
"                                                                                                    ",
"                                                                                                    ",
"                                                                                                    ",
"                                                                                                    ",
"                                                                                                    ",
"                                                                                                    ",
"                                      . + @ # # # $ %   % & *                                       ",
"                                    = - ; > , ' ) ! ~ { ] ^ / (                                     ",
"                                  _ : < [ } | 1 2 2 3 4 5 6 2 7 8                                   ",
"                                9 0 a b c } d e 2 2 2 f } g h 2 i j                                 ",
"                                k l 2 m } 5 n 2 2 2 2 n } 5 o 2 2 p #                               ",
"                              q r 2 s t } u v 2 2 2 2 w u } 4 s 2 x y                               ",
"                            z A 2 2 B } } C D 2 2 2 2 e E } } F 2 2 G H                             ",
"                          I J 2 2 K L } 5 M 2 2 2 2 2 2 N 5 5 O P 2 2 Q R                           ",
"                          S T U U V W X Y Z `  . . . . ...Y +.@.#.$.%.&.*.#                         ",
"                          9 =.-.-.;.>.,.,.,.,.,.,.,.,.,.,.,.,.'.).-.-.!.~.                          ",
"                            9 {.].^./.(.,.,.,.,.,.,.,.,.,.,._.:.^.<.[.#                             ",
"                                }.|.1.2.3.,.,.,.,.,.,.,.,.4.5.6.7.8.                                ",
"                                  9.0.a.b.4.,.,.,.,.,.,.,.c.d.e.f.                                  ",
"                                    g.h.i.j.,.,.,.,.,.,.k.l.m.n.                                    ",
"                                      % o.p.q.,.,.,.,.r.s.t.                                        ",
"                                          u.v.w.4.,.w.x.y.                                          ",
"                                            z.A.B.C.D.E.                                            ",
"                                      F.      G.H.I.J.                                              ",
"                                                9                                                   ",
"                                                                                                    ",
"                                                                                                    ",
"                                                                                                    ",
"                                                                                                    ",
"                                                                                                    ",
"                                                                                                    ",
"                                                                                                    ",
"                                                                                                    ",
"                                                                                                    ",
"                                                                                                    ",
"                                                                                                    ",
"                                                                                                    ",
"                                                                                                    "};
