/* XPM */
static char * C_xpm[] = {
"50 50 706 2",
"  	c #95B9BE",
". 	c #95B8BD",
"+ 	c #94B8BD",
"@ 	c #94B7BC",
"# 	c #93B7BB",
"$ 	c #91B5BA",
"% 	c #91B4B9",
"& 	c #93B6BB",
"* 	c #94B8BC",
"= 	c #92B6BB",
"- 	c #91B5B9",
"; 	c #90B3B8",
"> 	c #90B3B7",
", 	c #8FB2B7",
"' 	c #93B7BC",
") 	c #92B5BA",
"! 	c #92B4B9",
"~ 	c #9FBEC3",
"{ 	c #BACFD3",
"] 	c #B9CED2",
"^ 	c #B2CACE",
"/ 	c #B3CBCF",
"( 	c #A9C5C9",
"_ 	c #99BBC0",
": 	c #9ABCC1",
"< 	c #C7D7DA",
"[ 	c #F5F8F8",
"} 	c #F3F6F7",
"| 	c #F0F4F5",
"1 	c #F5F7F8",
"2 	c #E3EBEC",
"3 	c #A9C4C8",
"4 	c #96B9BE",
"5 	c #96B9BD",
"6 	c #98B9BD",
"7 	c #97B9BD",
"8 	c #97B9BE",
"9 	c #97BABF",
"0 	c #B1CACC",
"a 	c #E4EBEA",
"b 	c #F2F5F4",
"c 	c #E6ECE9",
"d 	c #F9FBFB",
"e 	c #FEFEFE",
"f 	c #EFF3F4",
"g 	c #ADC7CB",
"h 	c #9BBCC0",
"i 	c #ADC6C8",
"j 	c #B9CDCA",
"k 	c #BBCDC4",
"l 	c #C5D3C9",
"m 	c #C5D3C6",
"n 	c #C8D5C9",
"o 	c #C9D4CA",
"p 	c #C7D4CC",
"q 	c #C2D2CD",
"r 	c #B6CBCA",
"s 	c #B9CECF",
"t 	c #AEC7C9",
"u 	c #9DBCC0",
"v 	c #A5C2C5",
"w 	c #D5E0DD",
"x 	c #EEF1EB",
"y 	c #DDDFC4",
"z 	c #CDD2AD",
"A 	c #D0DBD1",
"B 	c #D9E4E3",
"C 	c #BACFD2",
"D 	c #9CBDBF",
"E 	c #B4CAC8",
"F 	c #D1DCD6",
"G 	c #E5EAE3",
"H 	c #F1F2EB",
"I 	c #F0F0E2",
"J 	c #F9F8F0",
"K 	c #F7F6EB",
"L 	c #F9F9F2",
"M 	c #FAF9F2",
"N 	c #F9F9F3",
"O 	c #F8F8F2",
"P 	c #EFF0E6",
"Q 	c #F4F5F0",
"R 	c #E8ECE4",
"S 	c #D1DACD",
"T 	c #C6D3C9",
"U 	c #B4C9C4",
"V 	c #9FBDBD",
"W 	c #CEDBD9",
"X 	c #F6F7F3",
"Y 	c #E7E3BD",
"Z 	c #E6D766",
"` 	c #E0D364",
" .	c #BEC69C",
"..	c #A1BDB8",
"+.	c #A3C1C4",
"@.	c #BFD1CF",
"#.	c #FAFAF7",
"$.	c #F2F1DF",
"%.	c #F0EAC4",
"&.	c #F6EFCA",
"*.	c #F3E8AA",
"=.	c #F4E8AD",
"-.	c #F2E59E",
";.	c #F2E49A",
">.	c #F1E49B",
",.	c #F1E6A9",
"'.	c #F6F1D6",
").	c #FAF8EB",
"!.	c #F6F3DF",
"~.	c #FAF9F1",
"{.	c #F9F8EE",
"].	c #EEEEDE",
"^.	c #D6DCC5",
"/.	c #C0CEC1",
"(.	c #CEDAD6",
"_.	c #F5F7F3",
":.	c #F8F7ED",
"<.	c #EFE294",
"[.	c #ECD839",
"}.	c #DED366",
"|.	c #BAC59F",
"1.	c #9DBBB9",
"2.	c #B1C9CC",
"3.	c #D2DEDC",
"4.	c #EBEFEA",
"5.	c #DEDEBB",
"6.	c #EEE4A9",
"7.	c #EEE083",
"8.	c #EFDD62",
"9.	c #F0DE69",
"0.	c #F0DB46",
"a.	c #F0DB48",
"b.	c #EFDA35",
"c.	c #EED92E",
"d.	c #EDD830",
"e.	c #EED941",
"f.	c #F1DF73",
"g.	c #F2E38C",
"h.	c #F2E182",
"i.	c #F5EAB1",
"j.	c #FBF8E7",
"k.	c #F9F4DC",
"l.	c #FBF9EE",
"m.	c #F5F4E5",
"n.	c #F5F6EE",
"o.	c #FCFCF8",
"p.	c #F4EBBC",
"q.	c #EFDB50",
"r.	c #EDD92F",
"s.	c #DBD16D",
"t.	c #B2C2A6",
"u.	c #99BABB",
"v.	c #8DAFB4",
"w.	c #AAC5C9",
"x.	c #DEE6E5",
"y.	c #E5E5C9",
"z.	c #E0D780",
"A.	c #EAD746",
"B.	c #EDD933",
"C.	c #EED92B",
"D.	c #EFD929",
"E.	c #EFD925",
"F.	c #EED826",
"G.	c #EAD523",
"H.	c #D6C423",
"I.	c #C6B523",
"J.	c #C2B122",
"K.	c #C3B222",
"L.	c #CAB726",
"M.	c #D6C225",
"N.	c #E3CF4C",
"O.	c #EDDE87",
"P.	c #F2E181",
"Q.	c #F6EBB5",
"R.	c #FDFAF1",
"S.	c #F4EBBB",
"T.	c #F0DD5C",
"U.	c #EFD928",
"V.	c #E9D747",
"W.	c #CBCB89",
"X.	c #A5BEB2",
"Y.	c #89AAAF",
"Z.	c #AEC6C5",
"`.	c #DFE5DA",
" +	c #E1DEB0",
".+	c #EADB6C",
"++	c #EDD834",
"@+	c #EED929",
"#+	c #EFD926",
"$+	c #EFD927",
"%+	c #E5D02C",
"&+	c #C1AF29",
"*+	c #A0932A",
"=+	c #655E22",
"-+	c #433F18",
";+	c #3D3915",
">+	c #433F17",
",+	c #544E1B",
"'+	c #706823",
")+	c #8D822A",
"!+	c #B6A831",
"~+	c #E4D02C",
"{+	c #F0DC54",
"]+	c #F4E598",
"^+	c #F3E491",
"/+	c #F0DC4F",
"(+	c #DBD16E",
"_+	c #B6C3A4",
":+	c #9ABBBA",
"<+	c #86A7AB",
"[+	c #97BABD",
"}+	c #ACC1B2",
"|+	c #D2D29B",
"1+	c #E8D75A",
"2+	c #EED92D",
"3+	c #EDD931",
"4+	c #EFD924",
"5+	c #EED92C",
"6+	c #DDCC46",
"7+	c #938B42",
"8+	c #36331A",
"9+	c #19190E",
"0+	c #181911",
"a+	c #2E3227",
"b+	c #22251D",
"c+	c #2E3127",
"d+	c #434637",
"e+	c #3B3E2E",
"f+	c #353725",
"g+	c #67653D",
"h+	c #BCB050",
"i+	c #E1CE40",
"j+	c #EFD92C",
"k+	c #E2D45B",
"l+	c #C1C797",
"m+	c #A1BDB6",
"n+	c #85A5AA",
"o+	c #9CBBB9",
"p+	c #B9C5A0",
"q+	c #E0D362",
"r+	c #EED92A",
"s+	c #EBD629",
"t+	c #D7C74B",
"u+	c #9A9964",
"v+	c #272B23",
"w+	c #121613",
"x+	c #2A3230",
"y+	c #364243",
"z+	c #526668",
"A+	c #70898B",
"B+	c #799596",
"C+	c #809C9E",
"D+	c #7D9899",
"E+	c #7C9694",
"F+	c #83978D",
"G+	c #656B54",
"H+	c #AEA85C",
"I+	c #E4D33E",
"J+	c #E8D749",
"K+	c #CCCB88",
"L+	c #A6BEB1",
"M+	c #97BABC",
"N+	c #85A6AA",
"O+	c #97B9BC",
"P+	c #A8BFB0",
"Q+	c #CCCC88",
"R+	c #E8D64A",
"S+	c #EED928",
"T+	c #DDCC41",
"U+	c #99965E",
"V+	c #6C796D",
"W+	c #3F4F4F",
"X+	c #576C6F",
"Y+	c #789599",
"Z+	c #81A1A5",
"`+	c #8AABB0",
" @	c #85A4A7",
".@	c #566055",
"+@	c #A6A15C",
"@@	c #E5D236",
"#@	c #B4C3A5",
"$@	c #86A7AC",
"%@	c #A2BDB5",
"&@	c #C3C895",
"*@	c #E2D45D",
"=@	c #DCD162",
"-@	c #ADB997",
";@	c #8DABAA",
">@	c #84A4A8",
",@	c #8EB1B5",
"'@	c #87A4A5",
")@	c #596152",
"!@	c #AAA254",
"~@	c #E6D231",
"{@	c #ECD832",
"]@	c #E5D554",
"^@	c #C6C991",
"/@	c #A3BDB4",
"(@	c #87A8AC",
"_@	c #9ABABB",
":@	c #B8C4A1",
"<@	c #DFD365",
"[@	c #EED927",
"}@	c #EAD742",
"|@	c #CFCD83",
"1@	c #7C9797",
"2@	c #52594B",
"3@	c #99934E",
"4@	c #CABA38",
"5@	c #C7BB53",
"6@	c #B7B77B",
"7@	c #AABCA9",
"8@	c #87A8AD",
"9@	c #A6BEB2",
"0@	c #D2CE7F",
"a@	c #ECD836",
"b@	c #E0D361",
"c@	c #BCC59D",
"d@	c #9DBBB8",
"e@	c #83A3A8",
"f@	c #4C5F60",
"g@	c #353E39",
"h@	c #555944",
"i@	c #666542",
"j@	c #60644C",
"k@	c #5E6A5F",
"l@	c #8DAAAA",
"m@	c #87A7AC",
"n@	c #95B9BD",
"o@	c #E4D556",
"p@	c #EFDA23",
"q@	c #EBD83C",
"r@	c #D5CF7A",
"s@	c #ADC0AB",
"t@	c #98BABC",
"u@	c #749195",
"v@	c #39484A",
"w@	c #536766",
"x@	c #768B85",
"y@	c #7F9389",
"z@	c #7B928D",
"A@	c #7B9697",
"B@	c #86A6AB",
"C@	c #D5CF79",
"D@	c #EED92F",
"E@	c #EFD923",
"F@	c #E9D746",
"G@	c #CECC87",
"H@	c #8DB0B4",
"I@	c #7F9EA3",
"J@	c #88A9AE",
"K@	c #90B2B6",
"L@	c #92B3B7",
"M@	c #91B3B8",
"N@	c #88A9AD",
"O@	c #B6C3A3",
"P@	c #E5D553",
"Q@	c #EAD740",
"R@	c #CFCC83",
"S@	c #8CAEB2",
"T@	c #C2C896",
"U@	c #EBD83E",
"V@	c #D0CD81",
"W@	c #AABFAF",
"X@	c #96BABF",
"Y@	c #C9CA8C",
"Z@	c #ECD835",
"`@	c #D3CE7E",
" #	c #ABC0AD",
".#	c #9DBEC2",
"+#	c #BBD0D3",
"@#	c #C4D6D8",
"##	c #B7CDD0",
"$#	c #B3CBCE",
"%#	c #B5CCCF",
"&#	c #B7CDD1",
"*#	c #93B5BA",
"=#	c #94ADA7",
"-#	c #CCC97E",
";#	c #ECD945",
">#	c #DCD58D",
",#	c #BAC9B6",
"'#	c #9ABCBF",
")#	c #BFD3D6",
"!#	c #FAFBFB",
"~#	c #F1F5F6",
"{#	c #F1F5F5",
"]#	c #F2F5F6",
"^#	c #F6F8F9",
"/#	c #B8CED1",
"(#	c #809EA2",
"_#	c #5E6B64",
":#	c #C2BB6A",
"<#	c #EFD92A",
"[#	c #EFEAC6",
"}#	c #DFE4D8",
"|#	c #A9C4C5",
"1#	c #A3C1C6",
"2#	c #DEE7E8",
"3#	c #FCFDFD",
"4#	c #FCFCFC",
"5#	c #FBFCFB",
"6#	c #FDFEFE",
"7#	c #5C7375",
"8#	c #5D675A",
"9#	c #C7BC58",
"0#	c #F1DF71",
"a#	c #F6F0D3",
"b#	c #EDEFE5",
"c#	c #B5CAC9",
"d#	c #9CBDC1",
"e#	c #D0DEE0",
"f#	c #F3F6F6",
"g#	c #F2F5F2",
"h#	c #E4E6D4",
"i#	c #EDEDDA",
"j#	c #EAECE1",
"k#	c #E4EAE7",
"l#	c #DFE8E8",
"m#	c #D2DFE1",
"n#	c #BCD0D3",
"o#	c #83A3A7",
"p#	c #455657",
"q#	c #545A48",
"r#	c #CABC46",
"s#	c #EED924",
"t#	c #F0DB42",
"u#	c #F3E7A9",
"v#	c #F8F8F1",
"w#	c #C6D5CE",
"x#	c #99BBBE",
"y#	c #A3C1C5",
"z#	c #D0DDE0",
"A#	c #FBFCFC",
"B#	c #F8FAFA",
"C#	c #F9F9F6",
"D#	c #E9E4B9",
"E#	c #E9D963",
"F#	c #ECDB5C",
"G#	c #DED581",
"H#	c #BAC8AE",
"I#	c #A3BFC0",
"J#	c #98BBC0",
"K#	c #586D6D",
"L#	c #777B5C",
"M#	c #D7C63E",
"N#	c #F1E289",
"O#	c #F8F5E7",
"P#	c #E1E6DC",
"Q#	c #B6CCCC",
"R#	c #A1C0C4",
"S#	c #9FBFC3",
"T#	c #A6C3C7",
"U#	c #C2D4D7",
"V#	c #FDFEFD",
"W#	c #FAFAF8",
"X#	c #EEE7BA",
"Y#	c #EFDC53",
"Z#	c #DFD366",
"`#	c #B5C3A5",
" $	c #4D5E5E",
".$	c #989B6D",
"+$	c #E3D139",
"@$	c #F4EDC5",
"#$	c #E8EDE8",
"$$	c #D2DEDD",
"%$	c #CEDBDC",
"&$	c #CEDCDC",
"*$	c #DCE6E6",
"=$	c #FCFDFC",
"-$	c #F8F9F4",
";$	c #EEE8BD",
">$	c #EFDA24",
",$	c #B3C3A6",
"'$	c #98B9BC",
")$	c #809FA3",
"!$	c #3E4B4A",
"~$	c #ACAB72",
"{$	c #EAD635",
"]$	c #EFDA32",
"^$	c #F1E285",
"/$	c #F6F1D7",
"($	c #F1EFDE",
"_$	c #F3F4EB",
":$	c #F3F4ED",
"<$	c #F6F7F1",
"[$	c #FCFDFB",
"}$	c #F7F8F4",
"|$	c #ECEEE4",
"1$	c #E4E2C3",
"2$	c #EBE19B",
"3$	c #DCD26A",
"4$	c #AEC1AB",
"5$	c #7C999D",
"6$	c #394542",
"7$	c #AEAD6E",
"8$	c #EFDA3D",
"9$	c #F0DF6E",
"0$	c #F0DF7B",
"a$	c #F1E28C",
"b$	c #F0E28F",
"c$	c #F0E290",
"d$	c #F0E499",
"e$	c #F3E8AF",
"f$	c #ECE196",
"g$	c #E7D973",
"h$	c #EAD84B",
"i$	c #E9D745",
"j$	c #C8CB8D",
"k$	c #688083",
"l$	c #202625",
"m$	c #999965",
"n$	c #E9D63B",
"o$	c #EFDA28",
"p$	c #EFDA2D",
"q$	c #EBD83D",
"r$	c #D2CD7E",
"s$	c #AEC0AB",
"t$	c #596F71",
"u$	c #090D0C",
"v$	c #70714F",
"w$	c #DECE44",
"x$	c #E1D45F",
"y$	c #9BBABA",
"z$	c #678084",
"A$	c #0C1010",
"B$	c #424331",
"C$	c #C7B948",
"D$	c #EDD82C",
"E$	c #D0C96B",
"F$	c #9DAF9E",
"G$	c #94B5B9",
"H$	c #759295",
"I$	c #1C2424",
"J$	c #1E2119",
"K$	c #A29848",
"L$	c #EBD62C",
"M$	c #DCCD4F",
"N$	c #959970",
"O$	c #5C6D6A",
"P$	c #89A9AE",
"Q$	c #485A5C",
"R$	c #262B26",
"S$	c #6E6C43",
"T$	c #D4C33D",
"U$	c #E9D633",
"V$	c #D4C75B",
"W$	c #ACAF7C",
"X$	c #59655D",
"Y$	c #718C8D",
"Z$	c #8FB2B6",
"`$	c #667F81",
" %	c #252E2C",
".%	c #454939",
"+%	c #9B9348",
"@%	c #DFCB31",
"#%	c #EDD82A",
"$%	c #E7D230",
"%%	c #B4AF5E",
"&%	c #767F69",
"*%	c #6F827E",
"=%	c #4F6263",
"-%	c #82A2A7",
";%	c #232D2E",
">%	c #3C4641",
",%	c #43452F",
"'%	c #A0953D",
")%	c #E3CF2B",
"!%	c #EAD62D",
"~%	c #B3AA57",
"{%	c #494F42",
"]%	c #3A4848",
"^%	c #4A5D5F",
"/%	c #718D91",
"(%	c #7F9EA2",
"_%	c #303F3F",
":%	c #273132",
"<%	c #222723",
"[%	c #3C3C29",
"}%	c #A39A49",
"|%	c #D7C645",
"1%	c #E9D535",
"2%	c #EEDA23",
"3%	c #EBD626",
"4%	c #DCC831",
"5%	c #AFA656",
"6%	c #5E6552",
"7%	c #1F2727",
"8%	c #2F3D3F",
"9%	c #769397",
"0%	c #8FB1B6",
"a%	c #89ABAF",
"b%	c #566B6F",
"c%	c #38474A",
"d%	c #323F3F",
"e%	c #141917",
"f%	c #3F453A",
"g%	c #7A7C5A",
"h%	c #B0AB5F",
"i%	c #CDBD3D",
"j%	c #D9C423",
"k%	c #D0BC1F",
"l%	c #D2BE1F",
"m%	c #E2CE24",
"n%	c #DCCA26",
"o%	c #D4C127",
"p%	c #C1B025",
"q%	c #B1A222",
"r%	c #D0BC26",
"s%	c #D8C422",
"t%	c #C5B321",
"u%	c #AC9E32",
"v%	c #7A7745",
"w%	c #40463A",
"x%	c #3A4646",
"y%	c #3B4B4D",
"z%	c #728E92",
"A%	c #435558",
"B%	c #435657",
"C%	c #1E2728",
"D%	c #252F2F",
"E%	c #374342",
"F%	c #343A31",
"G%	c #4F4E31",
"H%	c #665F1F",
"I%	c #4D4507",
"J%	c #5E5609",
"K%	c #8F841A",
"L%	c #807619",
"M%	c #6D6316",
"N%	c #423C09",
"O%	c #221F02",
"P%	c #665B0C",
"Q%	c #786E13",
"R%	c #4A4416",
"S%	c #282817",
"T%	c #2C322B",
"U%	c #516363",
"V%	c #6D878B",
"W%	c #809FA4",
"X%	c #5F777B",
"Y%	c #4B5D61",
"Z%	c #20292A",
"`%	c #060A0A",
" &	c #020404",
".&	c #0A0F0F",
"+&	c #151816",
"@&	c #0F1009",
"#&	c #050501",
"$&	c #252209",
"%&	c #2E2A08",
"&&	c #2D2806",
"*&	c #383309",
"=&	c #47410A",
"-&	c #494208",
";&	c #453F11",
">&	c #3C3918",
",&	c #606043",
"'&	c #707E6E",
")&	c #789291",
"!&	c #88A8AB",
"~&	c #4B5E61",
"{&	c #3C4C4E",
"]&	c #253032",
"^&	c #111919",
"/&	c #0F1617",
"(&	c #1D2424",
"_&	c #161B19",
":&	c #141611",
"<&	c #1F2117",
"[&	c #3F3F27",
"}&	c #504E2F",
"|&	c #5A5731",
"1&	c #79743C",
"2&	c #847F43",
"3&	c #909062",
"4&	c #929C80",
"5&	c #93A99F",
"6&	c #94B3B4",
"7&	c #7A999D",
"8&	c #495C5F",
"9&	c #47595B",
"0&	c #405153",
"a&	c #212C2D",
"b&	c #1B2426",
"c&	c #293434",
"d&	c #4E5F5B",
"e&	c #788A82",
"f&	c #92A495",
"g&	c #9BAC98",
"h&	c #A3B39B",
"i&	c #A2B49F",
"j&	c #A0B8AD",
"k&	c #9ABAB9",
"l&	c #7F9FA4",
"m&	c #627B7F",
"n&	c #5C7578",
"o&	c #506467",
"p&	c #435557",
"q&	c #6A8589",
"r&	c #7B999D",
"s&	c #91B3B7",
"t&	c #96B8BC",
"u&	c #8CADB2",
"v&	c #86A8AC",
"w&	c #8BADB2",
"                                                            . + + + + + + + . . . + + + + @ # $ % & ",
"                                  .                     * = - % % % % % % % % % % % ; > , , , % @   ",
"            . + + + + . + + + + + + + + .         . + + ' = ) ) ) ) ) ) ) ) ) ) ) ) ! % % ) & +     ",
"                                                                            ~ { ] ^ / ( _           ",
"                                                                          : < [ } | 1 2 3           ",
"                                      4 5 6 6 6 6 7 8   4               9 0 a b c d e f g 4         ",
"                                  h i j k l m n o p q r s t u 7         v w x y z A B C :         + ",
"                              D E F G H I J K L M N O P Q R S T U V 7 ~ W X Y Z `  ...7           ' ",
"                          9 +.@.G #.$.%.&.*.=.-.;.>.,.'.).!.~.{.].^./.(._.:.<.[.}.|.1.            % ",
"                        _ 2.3.4.5.6.7.8.9.0.a.b.c.d.e.f.g.h.i.j.k.l.m.n.o.p.q.r.s.t.u.            v.",
"                        w.x.x y.z.A.B.C.D.E.F.G.H.I.J.K.L.M.N.O.P.Q.R.l.S.T.U.V.W.X.5           + Y.",
"                        Z.`. +.+A.++@+#+$+%+&+*+=+-+;+>+,+'+)+!+~+{+]+^+/+$+B.(+_+:+            + <+",
"      .               [+}+|+1+2+3+E.4+5+6+7+8+9+0+a+b+c+d+e+f+g+h+i+++j+4+2+k+l+m+4             + n+",
"      +               o+p+q+C.r+r+E.s+t+u+v+w+x+y+z+A+B+C+D+E+F+G+H+I+$+$+J+K+L+M+              + N+",
"      +             O+P+Q+R+r+@+S+#+T+U+V+W+X+Y+Z+`+&       +  @.@+@@@S+B.(+#@u.                + $@",
"    . ' +         5 %@&@*@3+C.$+#+C.=@-@;@>@,@+               '@)@!@~@{@]@^@/@5                 + (@",
"    ' ) +         _@:@<@r.4+@+[@U.}@|@P+5                   ) 1@2@3@4@5@6@7@u.                  + 8@",
"+ + ) $ +       5 9@0@a@4+4+$+@+c.b@c@d@                  + e@f@g@h@i@j@k@l@5                   + m@",
"+ + % ) n@      _@c@o@#+p@4+E.C.q@r@s@t@                  ) u@v@w@x@y@z@A@,                     + B@",
"+ ' % '       4 L+C@D@p@p@E@4+@+F@G@P+5                   + H@I@J@K@L@M@% +                     + N@",
"+ ' - +       M+O@P@4+p@p@E@4+r+Q@R@P+7                       .                                 + S@",
"+ ' - +       _@T@U@p@p@p@p@4+@+U@V@W@7                       4 X@4 4 4 4 4 4 4                   , ",
". = % +       1.Y@Z@p@p@p@p@4+@+q@`@ #[+                    .#+#@###$#$#$#%#+#&#.#                = ",
"  & ) +     *#=#-#r.p@p@p@p@4+S+;#>#,#'#                  9 )#[ !#~#{#]#]#} ^#| /#4               @ ",
"  ' '     & (#_#:#r+p@p@p@p@4+<#9.[#}#|#                4 1#2#3#4#5#6#e e e 6#} /#4               + ",
"+ & +     `+7#8#9##+p@p@p@p@#+D.0#a#b#c#4             d#$#e#f#!#g#h#i#j#k#l#m#n#.#                  ",
"' ) +     o#p#q#r#s#p@p@p@p@E.$+t#u#v#w#x#        X@y#z#~#A#B#C#D#E#F#G#H#I#J#4                     ",
") $ +     8@K#L#M#4+p@p@p@E@4+#+<#N#O#P#Q#R#S#S#T#U#2 A#e V#W#X#Y##+2+Z#`#u.                        ",
"$ ) .     >@ $.$+$p@p@p@p@E@p@4+#+T.@$N #$$$%$&$*$B#e e =$-$;$Y#>$p@$+q+,$'$                        ",
"% =       )$!$~${$p@p@p@p@E@p@p@#+]$^$/$($_$:$:$<$[$}$|$1$2$q.E.p@>$@+3$4$[+                        ",
"$ '     + 5$6$7${@p@p@p@p@p@p@p@4+S+8$9$0$a$b$c$d$e$f$g$h$c.>$p@4+E.i$j$/@4                         ",
") @     $ k$l$m$n$4+p@p@p@p@E@p@p@4+4+$+#+o$o$o$o$p$D.$+4+4+p@p@4+q$r$s$_@                          ",
"& +     % t$u$v$w$E.p@p@p@p@p@E@p@p@p@p@p@p@p@p@p@p@4+4+4+4+p@4+@+x$p+y$                            ",
"'       + z$A$B$C$@+4+p@p@p@p@p@p@p@p@p@p@p@p@p@p@E@E@E@p@p@E@4+D$E$F$G$                            ",
"@         H$I$J$K$L$C.4+p@p@p@p@p@p@p@p@p@p@p@E@E@E@E@p@p@p@4+@+M$N$O$P$                            ",
"+         m@Q$R$S$T${@$+p@p@p@p@p@p@p@p@p@p@4+4+E@p@p@p@p@4+U$V$W$X$Y$Z$                            ",
"+         ; `$ %.%+%@%#%E.p@p@p@p@p@p@p@p@p@p@p@p@p@p@p@4+$%%%&%*%=%-%+                             ",
".         + H$;%>%,%'%)%E.4+p@p@p@p@p@p@p@p@p@p@p@p@p@E@!%~%{%]%^%/%Z$                              ",
".           (%_%:%<%[%}%|%1%E.4+2%p@p@p@p@p@s#4+4+4+3%4%5%6%7%8%9%0%+                               ",
"            a%b%c%d%e%f%g%h%i%j%k%l%m%n%o%p%q%r%s%t%u%v%w%x%y%z%%                                   ",
"            ; /%A%B%C%D%E%F%G%H%I%J%K%L%M%N%O%P%Q%R%S%T%U%V%W%%                                     ",
"            + N@X%Y%Z%`% &.&+&@&#&$&%&&&*&=&-&;&>&,&'&)&!&; +                                       ",
"              & )$~&{&]&^&/&(&_&:&<&[&}&|&1&2&3&4&5&6&+                                             ",
"                ) 7&8&9&0&a&C%b&c&d&e&f&g&h&i&j&k&5                                                 ",
"                  ) l&m&n&o&p&q&r&J@s&t&[+M+M+5                                             +       ",
"                    & v.u&`+v&)                                                             +       ",
"                                                                                            +       ",
"                                                                                            +       ",
"+       + + + + + + + + + + . . . . . . . . . . . .                       . .           + ' '       ",
"% +       . . . . . n@                                                              + ) v.w&$       "};
