/* XPM */
static char * E_xpm[] = {
"50 50 770 2",
"  	c #95B9BE",
". 	c #95B8BD",
"+ 	c #94B8BD",
"@ 	c #93B7BC",
"# 	c #94B7BC",
"$ 	c #91B4B9",
"% 	c #92B5BA",
"& 	c #93B6BB",
"* 	c #94B9BE",
"= 	c #93B9BE",
"- 	c #94B8BE",
"; 	c #90B7BD",
"> 	c #8EB7BD",
", 	c #8DB7BD",
"' 	c #8FB7BD",
") 	c #91B8BD",
"! 	c #99BDC2",
"~ 	c #AECACF",
"{ 	c #9EC2C8",
"] 	c #83B6BD",
"^ 	c #7CB2BB",
"/ 	c #81B4BC",
"( 	c #8EB7BB",
"_ 	c #9FBCB3",
": 	c #9DBCB8",
"< 	c #97BABD",
"[ 	c #92B8BE",
"} 	c #97BCC2",
"| 	c #BFD5D9",
"1 	c #E7EFF1",
"2 	c #CFE0E4",
"3 	c #80B8C2",
"4 	c #5AABB8",
"5 	c #6BAEB9",
"6 	c #95B9B0",
"7 	c #C9CA88",
"8 	c #C3C893",
"9 	c #B5C3A4",
"0 	c #9CBBB9",
"a 	c #92BBC1",
"b 	c #BFD6DA",
"c 	c #EAF1F3",
"d 	c #DAE8EB",
"e 	c #94C3CC",
"f 	c #4EAAB9",
"g 	c #38A7B6",
"h 	c #54AAB7",
"i 	c #90B7B0",
"j 	c #CDCC81",
"k 	c #DFD364",
"l 	c #E5D554",
"m 	c #C4C893",
"n 	c #9EBCB8",
"o 	c #91B5B9",
"p 	c #8CB6BD",
"q 	c #89B8BF",
"r 	c #B9D3D8",
"s 	c #ECF3F4",
"t 	c #EAF2F4",
"u 	c #A2CAD2",
"v 	c #46AAB9",
"w 	c #30A6B6",
"x 	c #41A7B6",
"y 	c #5FACB8",
"z 	c #81B3B9",
"A 	c #A1BDB0",
"B 	c #BAC59E",
"C 	c #DDD269",
"D 	c #E5D553",
"E 	c #BCC69C",
"F 	c #99BABB",
"G 	c #8CB7BD",
"H 	c #87B6BF",
"I 	c #95C0C7",
"J 	c #B1D0D6",
"K 	c #E4EEF0",
"L 	c #EDF3F5",
"M 	c #B2D2D9",
"N 	c #51ACBB",
"O 	c #2DA6B6",
"P 	c #37A6B6",
"Q 	c #51AAB7",
"R 	c #6FAFB9",
"S 	c #84B5BC",
"T 	c #99BBBA",
"U 	c #B6C3A3",
"V 	c #D6CF77",
"W 	c #D4CE7C",
"X 	c #A7BFB1",
"Y 	c #85B5BC",
"Z 	c #82B6BE",
"` 	c #A5C9D0",
" .	c #D3E3E7",
"..	c #ABCFD7",
"+.	c #93C3CE",
"@.	c #54ADBB",
"#.	c #2CA5B5",
"$.	c #2EA6B6",
"%.	c #3FA7B6",
"&.	c #7BB2BB",
"*.	c #8BB6BD",
"=.	c #A0BCB6",
"-.	c #C8CA8E",
";.	c #B4C3A5",
">.	c #96B9BE",
",.	c #8FB8BD",
"'.	c #86B6BC",
").	c #85B7C0",
"!.	c #A0C6CE",
"~.	c #B2D1D7",
"{.	c #DFEBEE",
"].	c #CEE2E6",
"^.	c #9DC8D1",
"/.	c #50ACBA",
"(.	c #2AA5B5",
"_.	c #2AA5B6",
":.	c #2CA6B6",
"<.	c #44A8B6",
"[.	c #6BAEBA",
"}.	c #85B4BC",
"|.	c #A8BFB0",
"1.	c #C2C895",
"2.	c #E2D45C",
"3.	c #E6D651",
"4.	c #B2C2A7",
"5.	c #91B8BE",
"6.	c #8BB7BD",
"7.	c #8EBBC3",
"8.	c #A1C7CE",
"9.	c #B6D3D9",
"0.	c #E9F1F3",
"a.	c #EDF4F6",
"b.	c #BBD7DD",
"c.	c #7DBAC6",
"d.	c #42A9B8",
"e.	c #2CA5B6",
"f.	c #32A6B6",
"g.	c #5DACB8",
"h.	c #7EB3BA",
"i.	c #97BAB7",
"j.	c #A7BFB0",
"k.	c #BAC59F",
"l.	c #D3CE7D",
"m.	c #E5D555",
"n.	c #E1D45E",
"o.	c #C1C797",
"p.	c #94B8BC",
"q.	c #9ABCC1",
"r.	c #A6C4C8",
"s.	c #A6C5C9",
"t.	c #A8C9CE",
"u.	c #ADCDD3",
"v.	c #C6DCE1",
"w.	c #EAF2F3",
"x.	c #E8F1F3",
"y.	c #AFD1D8",
"z.	c #62B1BE",
"A.	c #35A7B6",
"B.	c #2BA5B6",
"C.	c #3BA7B6",
"D.	c #51AAB6",
"E.	c #74B1B3",
"F.	c #93B8AE",
"G.	c #ABC0A5",
"H.	c #C2C893",
"I.	c #D4CE7B",
"J.	c #E3D459",
"K.	c #BCC59D",
"L.	c #B1C2A8",
"M.	c #99BCC0",
"N.	c #AAC5C9",
"O.	c #B5CCD0",
"P.	c #BAD0D3",
"Q.	c #C0D4D8",
"R.	c #D7E4E6",
"S.	c #DAE7E9",
"T.	c #EFF5F6",
"U.	c #C1DADF",
"V.	c #93C3CD",
"W.	c #4FACBA",
"X.	c #2BA5B5",
"Y.	c #2FA6B6",
"Z.	c #4FAAB6",
"`.	c #70B0B2",
" +	c #95B8A9",
".+	c #BAC593",
"++	c #D0CD7C",
"@+	c #DDD266",
"#+	c #DED267",
"$+	c #D2CE7F",
"%+	c #A5BEB0",
"&+	c #98BAB9",
"*+	c #A0BCB5",
"=+	c #96B9BC",
"-+	c #96BABF",
";+	c #A0C0C5",
">+	c #DCE6E8",
",+	c #EBF1F2",
"'+	c #F2F6F7",
")+	c #F0F5F6",
"!+	c #D9E7EA",
"~+	c #D0E2E6",
"{+	c #B6D4DB",
"]+	c #9CC7D0",
"^+	c #8FC2CC",
"/+	c #8DC1CB",
"(+	c #60B0BE",
"_+	c #37A7B6",
":+	c #56AAB4",
"<+	c #82B3AB",
"[+	c #A3BD9F",
"}+	c #BBC591",
"|+	c #DCD269",
"1+	c #D2CE7D",
"2+	c #C3C894",
"3+	c #B2C2A6",
"4+	c #A4BDB1",
"5+	c #91B8BA",
"6+	c #88B5BC",
"7+	c #9ABAB1",
"8+	c #C5C98B",
"9+	c #A9BFA9",
"0+	c #95B8BA",
"a+	c #9EC0C4",
"b+	c #CADBDE",
"c+	c #E6EEF0",
"d+	c #D9E6E8",
"e+	c #C0D7DC",
"f+	c #A8CBD2",
"g+	c #9BC6CE",
"h+	c #80BBC6",
"i+	c #72B6C3",
"j+	c #56AEBC",
"k+	c #2DA6B5",
"l+	c #2FA6B5",
"m+	c #43A8B5",
"n+	c #64ADB1",
"o+	c #85B5AA",
"p+	c #A9BF9B",
"q+	c #CECC7B",
"r+	c #E3D456",
"s+	c #DED265",
"t+	c #D1CD7F",
"u+	c #B7C4A2",
"v+	c #A8C0B1",
"w+	c #A0BFBB",
"x+	c #83B4BC",
"y+	c #7AB2BB",
"z+	c #72B0BA",
"A+	c #87B6AE",
"B+	c #C4C882",
"C+	c #C9CA80",
"D+	c #B1C29F",
"E+	c #99BAB8",
"F+	c #99BCC1",
"G+	c #BDD3D6",
"H+	c #E3ECEE",
"I+	c #C0D8DD",
"J+	c #8BBEC8",
"K+	c #61B0BD",
"L+	c #40A8B7",
"M+	c #32A7B6",
"N+	c #2EA5B5",
"O+	c #3DA7B6",
"P+	c #59ABB4",
"Q+	c #8AB6A9",
"R+	c #B6C392",
"S+	c #D0CD7A",
"T+	c #E2D459",
"U+	c #D2CD7C",
"V+	c #B0C1A9",
"W+	c #A5BEB1",
"X+	c #98BBBC",
"Y+	c #A8C6CB",
"Z+	c #B9D2D6",
"`+	c #89B9C1",
" @	c #69AEB9",
".@	c #5CACB8",
"+@	c #4FA9B7",
"@@	c #52AAB5",
"#@	c #88B5A3",
"$@	c #C8CA7B",
"%@	c #E0D35C",
"&@	c #B9C49C",
"*@	c #9FBCB6",
"=@	c #96B9BD",
"-@	c #AEC8CC",
";@	c #B5D1D7",
">@	c #67B2BE",
",@	c #3AA8B7",
"'@	c #29A5B5",
")@	c #39A7B6",
"!@	c #56ABB5",
"~@	c #83B4AC",
"{@	c #A6BE9F",
"]@	c #CDCC7D",
"^@	c #DBD269",
"/@	c #97BABB",
"(@	c #91B7BD",
"_@	c #8DB7BE",
":@	c #A0C3C9",
"<@	c #D4E3E6",
"[@	c #E0EBED",
"}@	c #48A8B7",
"|@	c #34A6B6",
"1@	c #44A8B4",
"2@	c #80B3AB",
"3@	c #B1C29A",
"4@	c #D8D071",
"5@	c #C5C990",
"6@	c #A1BCB6",
"7@	c #98BBC0",
"8@	c #BDD2D5",
"9@	c #96C3CC",
"0@	c #37A7B7",
"a@	c #2BA6B6",
"b@	c #33A6B6",
"c@	c #45A8B7",
"d@	c #62ADB6",
"e@	c #98BAA7",
"f@	c #CDCB7D",
"g@	c #DCD169",
"h@	c #B6C4A2",
"i@	c #A7BEB1",
"j@	c #85B6BE",
"k@	c #99C2C9",
"l@	c #BBD5DA",
"m@	c #CADFE3",
"n@	c #99C5CE",
"o@	c #4FABBA",
"p@	c #35A6B6",
"q@	c #46A8B7",
"r@	c #66ADB9",
"s@	c #89B5B7",
"t@	c #BCC599",
"u@	c #E4D558",
"v@	c #B3C2A7",
"w@	c #9DBEC2",
"x@	c #CDDDDF",
"y@	c #D5E3E6",
"z@	c #7FBAC4",
"A@	c #31A6B6",
"B@	c #62ACB8",
"C@	c #8DB7B2",
"D@	c #D3CE7C",
"E@	c #ABC0AE",
"F@	c #98BABB",
"G@	c #90B8BD",
"H@	c #8AB6BD",
"I@	c #94BFC7",
"J@	c #ACCDD4",
"K@	c #D1E2E6",
"L@	c #DEEBED",
"M@	c #94C4CD",
"N@	c #44AAB9",
"O@	c #64ADB9",
"P@	c #78B1BB",
"Q@	c #8AB6BB",
"R@	c #B6C4A1",
"S@	c #91B4B8",
"T@	c #95B9BD",
"U@	c #A2C1C5",
"V@	c #DBE6E7",
"W@	c #C1D8DD",
"X@	c #62B0BE",
"Y@	c #4DA9B7",
"Z@	c #6EAFB9",
"`@	c #95B9B4",
" #	c #94B9BD",
".#	c #86B6BE",
"+#	c #92BFC6",
"@#	c #A6CAD1",
"##	c #D2E3E7",
"$#	c #ECF3F5",
"%#	c #D0E3E7",
"&#	c #96C4CE",
"*#	c #4AABB9",
"=#	c #47A8B7",
"-#	c #5BABB8",
";#	c #6DAFBA",
">#	c #9BBCB6",
",#	c #C7CA8F",
"'#	c #E1D360",
")#	c #A6C3C7",
"!#	c #E3ECEC",
"~#	c #54ACBA",
"{#	c #41A8B7",
"]#	c #83B4B9",
"^#	c #9BBBB5",
"/#	c #91B8BC",
"(#	c #8BB8BF",
"_#	c #96BFC6",
":#	c #E2EDEF",
"<#	c #A1C9D2",
"[#	c #75B7C3",
"}#	c #41A9B8",
"|#	c #75B1BA",
"1#	c #BBC59D",
"2#	c #DCD26B",
"3#	c #9DBEC3",
"4#	c #C8D9DB",
"5#	c #AFCAC7",
"6#	c #80B4AE",
"7#	c #44A8B3",
"8#	c #4AA9B7",
"9#	c #84B4BC",
"0#	c #8EB9BF",
"a#	c #9CC1C8",
"b#	c #B0CED4",
"c#	c #D2E3E6",
"d#	c #2DA5B5",
"e#	c #56ABB8",
"f#	c #76B1B9",
"g#	c #93B8B6",
"h#	c #DED266",
"i#	c #E0D361",
"j#	c #D5CF7A",
"k#	c #A6C1BE",
"l#	c #C4C995",
"m#	c #C7C97E",
"n#	c #7CB2AA",
"o#	c #3CA7B6",
"p#	c #2AA6B6",
"q#	c #5CACBA",
"r#	c #87BAC3",
"s#	c #A0C5CD",
"t#	c #D4E3E7",
"u#	c #D3E4E8",
"v#	c #7FBBC6",
"w#	c #38A6B6",
"x#	c #4BA9B6",
"y#	c #6DAFB2",
"z#	c #8FB7AD",
"A#	c #AAC0A5",
"B#	c #C1C893",
"C#	c #C2C894",
"D#	c #98BABC",
"E#	c #9FBCB7",
"F#	c #C5C98D",
"G#	c #CDCC7C",
"H#	c #A5BE9E",
"I#	c #73B0B1",
"J#	c #48A9B6",
"K#	c #2DA5B6",
"L#	c #64B2BE",
"M#	c #C2DADF",
"N#	c #C9DEE3",
"O#	c #A1CAD2",
"P#	c #77B8C4",
"Q#	c #55ABB4",
"R#	c #81B3AB",
"S#	c #A1BC9F",
"T#	c #BAC591",
"U#	c #B6C49E",
"V#	c #A0BDAE",
"W#	c #92B8B7",
"X#	c #8AB6BC",
"Y#	c #96B9BA",
"Z#	c #97BABC",
"`#	c #A3BDB4",
" $	c #B2C2A3",
".$	c #D6CF71",
"+$	c #BCC58E",
"@$	c #79B1B0",
"#$	c #49ABBA",
"$$	c #84BDC8",
"%$	c #89BFC9",
"&$	c #44A8B5",
"*$	c #86B5AA",
"=$	c #A8BF9C",
"-$	c #E2D456",
";$	c #D2CE7C",
">$	c #AEC1A6",
",$	c #9FBFB4",
"'$	c #A4C6C9",
")$	c #7BB4BE",
"!$	c #6BAFB9",
"~$	c #70B0BA",
"{$	c #85B5B7",
"]$	c #ADC0A5",
"^$	c #C6C98F",
"/$	c #A0BCB7",
"($	c #9ABBBA",
"_$	c #BCC59B",
":$	c #E1D45B",
"<$	c #ABC09D",
"[$	c #64AEB5",
"}$	c #3AA7B6",
"|$	c #40A8B9",
"1$	c #40A8B8",
"2$	c #5BACB4",
"3$	c #8BB6A8",
"4$	c #D1CD7C",
"5$	c #AFC1A9",
"6$	c #A4BEB0",
"7$	c #94B9B7",
"8$	c #8CBBC2",
"9$	c #B0CFD5",
"0$	c #E7F0F2",
"a$	c #8BBFC9",
"b$	c #46A9B6",
"c$	c #7DB2B1",
"d$	c #C5C988",
"e$	c #E3D557",
"f$	c #DED365",
"g$	c #D0CD7B",
"h$	c #91B7AD",
"i$	c #53AAB7",
"j$	c #6EAFB3",
"k$	c #A8BF9D",
"l$	c #CDCC7E",
"m$	c #D1CD7E",
"n$	c #B9C49F",
"o$	c #87B9C2",
"p$	c #BED8DD",
"q$	c #DCE9EC",
"r$	c #A4CBD3",
"s$	c #50ACBB",
"t$	c #59AAB6",
"u$	c #92B8AF",
"v$	c #B4C39F",
"w$	c #DAD170",
"x$	c #9DBBB9",
"y$	c #B3C29D",
"z$	c #71B1B7",
"A$	c #44A8B7",
"B$	c #73B1B6",
"C$	c #ABC0A0",
"D$	c #E0D35D",
"E$	c #7FB3BB",
"F$	c #7AB4BE",
"G$	c #B0D0D7",
"H$	c #A4CCD4",
"I$	c #4DABBA",
"J$	c #5CACB9",
"K$	c #7DB3BB",
"L$	c #90B8BC",
"M$	c #9EBCB6",
"N$	c #BDC69B",
"O$	c #E3D45B",
"P$	c #C7C990",
"Q$	c #AFC1AB",
"R$	c #9CBBBA",
"S$	c #97BAAE",
"T$	c #6DAEB9",
"U$	c #98BAB1",
"V$	c #C9CA8A",
"W$	c #B9C59F",
"X$	c #7DB2BB",
"Y$	c #73B2BD",
"Z$	c #A8CDD4",
"`$	c #E8F0F2",
" %	c #A9CED6",
".%	c #52AAB7",
"+%	c #71B0BA",
"@%	c #E0D362",
"#%	c #E9D744",
"$%	c #DDD26A",
"%%	c #E1D45F",
"&%	c #AEC1AB",
"*%	c #74B1B7",
"=%	c #53AAB8",
"-%	c #75B0BA",
";%	c #9DBBB2",
">%	c #A5BEB2",
",%	c #93B8BE",
"'%	c #81B5BD",
")%	c #8BBDC6",
"!%	c #ACCED6",
"~%	c #DBE9EC",
"{%	c #A4CBD4",
"]%	c #6DAFB9",
"^%	c #B6C3A4",
"/%	c #D5CF79",
"(%	c #E9D745",
"_%	c #ECD83A",
":%	c #B8C4A1",
"<%	c #A9BFB0",
"[%	c #D0CD7E",
"}%	c #93B9AE",
"|%	c #58ABB8",
"1%	c #6CAFB9",
"2%	c #87B5BA",
"3%	c #9EBCB4",
"4%	c #8FB9BF",
"5%	c #95BFC6",
"6%	c #9DC5CD",
"7%	c #D1E3E7",
"8%	c #EBF2F4",
"9%	c #B8D5DC",
"0%	c #5FB0BE",
"a%	c #40A7B6",
"b%	c #59ABB8",
"c%	c #87B5BB",
"d%	c #99BBB7",
"e%	c #ABC0AD",
"f%	c #C5C991",
"g%	c #DCD26C",
"h%	c #D2CE7E",
"i%	c #C0C798",
"j%	c #6DAFB8",
"k%	c #76B1BA",
"l%	c #A0C1C6",
"m%	c #B0CBCF",
"n%	c #B2CED3",
"o%	c #CFE1E5",
"p%	c #CBE0E4",
"q%	c #9EC8D1",
"r%	c #61B1BE",
"s%	c #34A6B7",
"t%	c #5EACB8",
"u%	c #79B1BA",
"v%	c #8DB6BA",
"w%	c #A9BFAE",
"x%	c #C3C895",
"y%	c #B3C2A6",
"z%	c #C0C793",
"A%	c #85B4B5",
"B%	c #67AEB9",
"C%	c #8CB9C0",
"D%	c #B9D0D3",
"E%	c #D6E3E5",
"F%	c #EDF3F4",
"G%	c #D4E5E8",
"H%	c #CADFE4",
"I%	c #88BFC9",
"J%	c #43A9B8",
"K%	c #47A9B7",
"L%	c #63ADB9",
"M%	c #82B3B8",
"N%	c #A1BCAF",
"O%	c #D2CD7F",
"P%	c #97B9BD",
"Q%	c #A6BEB1",
"R%	c #D3CE7A",
"S%	c #9BBBAE",
"T%	c #67ADB9",
"U%	c #43A8B7",
"V%	c #59ACB8",
"W%	c #A3C7CD",
"X%	c #ECF2F3",
"Y%	c #F5F8F9",
"Z%	c #C0DADF",
"`%	c #6EB5C1",
" &	c #40A9B9",
".&	c #36A6B6",
"+&	c #4CA9B7",
"@&	c #6DAFB7",
"#&	c #98BAAF",
"$&	c #B4C39D",
"%&	c #79B2B7",
"&&	c #50AAB7",
"*&	c #8CBDC6",
"=&	c #D2E2E5",
"-&	c #B7D3D9",
";&	c #96C4CD",
">&	c #61B1BF",
",&	c #76B0B5",
"'&	c #AABFA3",
")&	c #D1CD7D",
"!&	c #95B9AE",
"~&	c #5BACB9",
"{&	c #78B6C2",
"]&	c #53ACBA",
"^&	c #33A7B6",
"/&	c #5FACB5",
"(&	c #8EB7AC",
"_&	c #B6C499",
":&	c #DAD16D",
"<&	c #6FB0B8",
"[&	c #5CACB4",
"}&	c #9ABBA5",
"|&	c #CECC7D",
"1&	c #E2D45B",
"2&	c #B5C3A5",
"3&	c #C7CA8A",
"4&	c #8AB5B3",
"5&	c #60ADB3",
"6&	c #A2BC9F",
"7&	c #CDCC7F",
"8&	c #CFCD81",
"9&	c #B8C4A0",
"0&	c #A1BDB6",
"a&	c #A6BEA6",
"b&	c #68AEB9",
"c&	c #5CACB3",
"d&	c #A5BE9C",
"e&	c #D9D06B",
"f&	c #D6CF75",
"g&	c #93B7BB",
"h&	c #CACB8B",
"i&	c #ACC0A6",
"j&	c #54AAB8",
"k&	c #4FAAB4",
"l&	c #9CBA9F",
"m&	c #D7D06D",
"n&	c #C4C88F",
"o&	c #9ABABB",
"p&	c #92B6BB",
"q&	c #B9C4A1",
"r&	c #B6C3A0",
"s&	c #83B4BA",
"t&	c #61ADB9",
"u&	c #3EA7B6",
"v&	c #3FA7B5",
"w&	c #87B5A8",
"x&	c #CBCB7E",
"y&	c #CFCC7F",
"z&	c #AAC0AE",
"A&	c #90B3B8",
"B&	c #98BABD",
"C&	c #E4D556",
"D&	c #C4C892",
"E&	c #90B7B7",
"F&	c #6EAFBA",
"G&	c #49A9B7",
"H&	c #68AEB0",
"I&	c #B9C58E",
"J&	c #DAD16B",
"K&	c #B4C3A4",
"L&	c #8DAFB3",
"M&	c #CECC85",
"N&	c #9ABAB6",
"O&	c #39A6B6",
"P&	c #47A9B6",
"Q&	c #98BAA3",
"R&	c #DAD167",
"S&	c #C4C890",
"T&	c #8BADB2",
"U&	c #E9D747",
"V&	c #D9D072",
"W&	c #B1C1A7",
"X&	c #9DBBB0",
"Y&	c #8EB7AD",
"Z&	c #7EB3AB",
"`&	c #74B0A9",
" *	c #75B1AA",
".*	c #72AFAA",
"+*	c #63ACB1",
"@*	c #7BB3B0",
"#*	c #C2C889",
"$*	c #DFD360",
"%*	c #8DAFB4",
"&*	c #B6C4A3",
"**	c #E5D552",
"=*	c #DAD16F",
"-*	c #D1CE7C",
";*	c #CFCC7B",
">*	c #CCCB7A",
",*	c #CACA7A",
"'*	c #C9CA7A",
")*	c #C8CA7D",
"!*	c #B8C490",
"~*	c #BDC691",
"{*	c #E0D35F",
"]*	c #E0D360",
"^*	c #D0CD82",
"/*	c #CFCD7C",
"(*	c #D2CE79",
"_*	c #E4D555",
":*	c #D9D171",
"<*	c #BBC59E",
"[*	c #A5BEB3",
"}*	c #A5BFB1",
"|*	c #A7BFAF",
"1*	c #CACB8A",
"2*	c #99BABC",
"3*	c #A2BDB5",
"4*	c #92B6BA",
"5*	c #91B5BA",
"                                    . + @ #                     $ %                               + ",
"                                                                + & + . . . . + .                   ",
"                                                        * = * *                                     ",
"                                                    - ; > , ' ) *                                   ",
"#                                               * ! ~ { ] ^ / ( _ : <                               ",
"&                                             [ } | 1 2 3 4 5 6 7 8 9 0                             ",
"%                                         = ' a b c d e f g h i j k l m n                           ",
"o                                     * ) p q r s t u v w x y z A B C D E F                         ",
"$                                   [ G H I J K L M N O P Q R S ' T U V W X                         ",
"%                               = > Y Z `  .t ..+.@.#.$.%.y &.*.=   =.-.l ;.>.                      ",
"@                           * ,.'.).!.~.{.].^./.w (._.:.<.[.}.[ F |.1.2.3.4.>.                      ",
"+                         5.6.7.8.9.0.a.b.c.d.(._.e.f.%.g.h.i.j.k.l.m.n.o.0                         ",
"# p.            >.>.q.r.s.t.u.v.w.0.x.y.z.A._.B.$.C.D.E.F.G.H.I.J.l.K.L.0                           ",
"+ +         M.N.O.P.Q.R.S.1 T.x.0.U.V.W.X.B.Y.C.Z.`. +.+++@+#+$+k.%+&+*+=+*                         ",
"  .     -+;+P.>+,+'+)+!+~+{+]+^+/+(+_+B.w C.:+<+[+}+++|+1+2+3+4+5+6+7+8+9+0+*                       ",
"      * a+b+c+d+e+f+g+h+i+j+_+k+l+e.w m+n+o+p+q+r+s+t+u+v+w+,.x+y+z+A+B+C+D+E+*                     ",
"      F+G+H+I+J+K+L+M+N+#.(.(.X.Y.O+P+Q+R+S+T+U+B V+W+X+Y+Z+`+ @.@+@@@#@$@%@&@*@=@                  ",
"      -@,+;@>@,@e.(.(.'@(.(.$.)@!@~@{@]@^@t+k.|./@(@_@:@<@[@J+}@C.|@Y.1@2@3@4@5@6@                  ",
"  . 7@8@c+9@0@(.'@'@'@(.a@b@c@d@e@f@g@t+h@i@/@; *.j@k@l@m@n@o@Y.O O p@q@r@s@t@u@v@>.              + ",
"  + w@x@y@z@w (.'@'@'@(.A@c@B@C@8+D@8 E@F@G@H@j@I@J@K@L@M@N@X.O f.O++@O@P@Q@R@l 9 >.              S@",
"T@+ U@V@W@X@:._._.(.(.(.f.Y@Z@`@2+U 6@ #, .#+#@###$#%#&#*#(.e.p@=#-#;#^ 6+>#,#'#4.>.              @ ",
"    )#!#l@~#X.(.a@e.#.(.$.{#O@]#^#T /#(#_#f+~+:#].<#[#}#(._.B.O+g.|#S 5+4+1#2#n.4.                  ",
"    3#4#5#6#7#B._.a@:.:._.w 8#;#9#0#a#b#c#:#%#M c.d.d#_.B.O )@e#f#g#%+k.$+h#i#j#|.                  ",
"    -+k#l#m#n#o#w a@p#_.(.B.A.q#r#s#t#$#u#M v#j+A._.B.$.w#x#y#z#A#B#I.J.I.C#3+W+D#                  ",
"      E#F#G#H#I#J#w _.'@'@(.K#L#9.M#N#O#P#j+A.B.B.w C.Q#R#S#T#++@+#+t+U#V#W#X#' Y#: Z#              ",
"      D#`# $.$+$@${#O (.'@(.X.#$$$%$i+d.d#X.e.f.&$n+*$=$q+-$s+;$C#>$,$'$)$!$~${$]$^$;./$=@          ",
"          ($_$:$<$[$}$X.'@'@'@l+|$1$A@(._.Y.o#2$3$R+S+T+4$B 5$6$7$8$9$0$a$b$8#c$d$e$f$m =.          ",
"            |.l.g$h$i$b@(.'@'@'@'@(.(.e.p@}@j$k$l$g@m$n$j.F@; x+o$p$q$r$s$O Y.t$u$v$^$w$K.x$  >.    ",
"            F k.J.y$z$A$:.'@'@'@'@(.e.}$i$B$C$D$1+h@i@F * , E$F$G$0.H$I$(.e.}$J$K$L$M$N$O$P$Q$V+R$  ",
"              |.l.U+S$4 |@(.'@'@'@_.f.Y@T$U$V$W$|.F   = *.X$Y$Z$`$ %N (.e.w#.%+%Y G@F u+@%#%$%%%&%>.",
"              F k.J.y$*%A$:.(.(._.p#A.=%-%;%-.>%>.  ,%H@'%)%!%~%{%N X.O C.=%]%x+/#E#^%/%(%_%w$:%0   ",
"                <%I.[%}%|%p@X.(.B.p#w 8#1%2%3%D#* ,%4%5%6%7%8%9%0%B.Y.a%b%z+c%d%e%f%g%h%o.i%E@F     ",
"                n 2+#+A#j%A$$.X.O O O }$4 k%H@-+l%m%n%o%##p%q%r%s%A@A$t%u%v%w%x%l.g%f%E@F =@        ",
"                < y%#+z%A%e#P e.O w O Y.c@B%C%D%E%F%`$G%H%I%J%e.f.K%L%M%N%W$$+C O%^%/$P%            ",
"                  Q%$+R%S%T%U%$.O A@Y.B._+V%W%X%Y%L Z%$$`% &$..&+&@&#&U#l.J.l.u+i@F                 ",
"  +               F k.J.$&%&&&b@e.w f.O Y.}@*&=&-&;&>&A.#.K#C.h ,&'&)&J.l.k.|.F                     ",
"  .                 <%I.[%!&y o#:.$.b@Y.:.g ~&{&]&^&X.(.e.)@/&(&_&:&$+k.|.F                         ",
"+                   n 2+#+A#<&8#A@e.A@A@:.w o#O+Y.(.(.e.P [&}&|&1&,#E@F                             ",
"+                   < 2&i#3&4&b%g X.Y.A@:.:.Y.O (.(.B.p@5&6&7&8&9&0&P%                              ",
"#                   >.L.n.n.a&b&A$$.:.Y.O _.(.(.(._.A@c&d&e&f&4.F                                   ",
"g&                    6@h&%%i&-%j&|@_.:.B.(.'@(._.O k&l&m&n&&%o&                                    ",
"p&  .                 < q&l r&s&t&u&:._.(.(.'@(.a@v&w&x&y&z&<                                       ",
"A&+                   B&k.C&D&E&F&G&$.(.(.(.(.(.A@H&I&J&K&F                                         ",
"L&+                   R$-.(%M&N&&.-#O&K#d#Y.O $.P&Q&R&S&/$                                          ",
"T&#                   0 -.U&V&W&X&Y&Z&`&`& *.*+*@*#*$*K&<                                           ",
"%*+                   < &***=*D@-*;*>*,*'*,*)*!*~*{*]*V+>.                                          ",
"$ .                     0 :%^*l.l.1+4$++/*++(*s+_*:*<*0                                     .       ",
"@                         F [*X X X X }*}*}*|*5$B 1*>%                                              ",
"+                                             >.2*3*D#            + & p.+                           ",
"                                                                  4*5*+ +                           "};
