/* XPM */
static char * E_xpm[] = {
"50 50 735 2",
"  	c #BDBFCF",
". 	c #BEBFCF",
"+ 	c #BEC0D0",
"@ 	c #BDBFCE",
"# 	c #C4C2CD",
"$ 	c #D4D0D5",
"% 	c #D7D2D7",
"& 	c #C1BCC4",
"* 	c #BDBECD",
"= 	c #BEBFCD",
"- 	c #C4C3CF",
"; 	c #CCCAD3",
"> 	c #D4CFD4",
", 	c #CFC8CA",
"' 	c #BCB5B9",
") 	c #B8B3BB",
"! 	c #BCBCCA",
"~ 	c #B9B4BD",
"{ 	c #DFD8D7",
"] 	c #DFD8D8",
"^ 	c #CFC7C7",
"/ 	c #AB9FA0",
"( 	c #BAB6BD",
"_ 	c #CCC7CB",
": 	c #C3BBBF",
"< 	c #D8D2D4",
"[ 	c #DCD6D9",
"} 	c #DFD9DB",
"| 	c #E3DDDD",
"1 	c #E6E0DF",
"2 	c #E6E1E0",
"3 	c #D5CDCD",
"4 	c #B6AAAA",
"5 	c #B6ADB0",
"6 	c #C6C5CF",
"7 	c #CAC8D1",
"8 	c #C6C2CA",
"9 	c #C1B7B7",
"0 	c #B4A8A9",
"a 	c #ABA0A2",
"b 	c #AFAAB3",
"c 	c #BCBBC7",
"d 	c #C9C1C3",
"e 	c #BBAFB0",
"f 	c #BCB1B2",
"g 	c #C4BABA",
"h 	c #CCC2C3",
"i 	c #D3CACA",
"j 	c #D8D0D0",
"k 	c #DBD4D4",
"l 	c #DDD6D6",
"m 	c #D9D2D1",
"n 	c #CFC6C6",
"o 	c #BAAFAF",
"p 	c #B6ACAE",
"q 	c #BBBAC6",
"r 	c #BDBECE",
"s 	c #BCBDCD",
"t 	c #BEBFCE",
"u 	c #BFC0D0",
"v 	c #E4DDDD",
"w 	c #DCD6D6",
"x 	c #DBD5D5",
"y 	c #D9D3D3",
"z 	c #D6D0D0",
"A 	c #D4CDCD",
"B 	c #CFC8C8",
"C 	c #B8ACAE",
"D 	c #C5BDBE",
"E 	c #C4BABC",
"F 	c #C0B6B7",
"G 	c #BEB4B5",
"H 	c #BFB4B5",
"I 	c #C3BABA",
"J 	c #C7BEBE",
"K 	c #D2CBCB",
"L 	c #D5CFD1",
"M 	c #D8D3D3",
"N 	c #DAD4D4",
"O 	c #D7D0D1",
"P 	c #C6C3CB",
"Q 	c #BEC0CF",
"R 	c #C0C0CC",
"S 	c #DED8D8",
"T 	c #E5E0DF",
"U 	c #E0D9D9",
"V 	c #DFD9D8",
"W 	c #DDD7D7",
"X 	c #DCD7D6",
"Y 	c #DFD9D9",
"Z 	c #D7D0D0",
"` 	c #DCD5D5",
" .	c #E1DADA",
"..	c #BFBFCC",
"+.	c #C5C3CD",
"@.	c #E6E0E0",
"#.	c #D7D2D2",
"$.	c #B3A9AD",
"%.	c #BAB1B3",
"&.	c #C8C0C1",
"*.	c #CEC7C8",
"=.	c #D5CFCF",
"-.	c #E4DEDE",
";.	c #E3DEDE",
">.	c #E4DFDF",
",.	c #E5DFDF",
"'.	c #E5E0E0",
").	c #E8E3E2",
"!.	c #E9E4E4",
"~.	c #E7E1E1",
"{.	c #E9E4E3",
"].	c #CAC6CE",
"^.	c #C6C4CC",
"/.	c #95858B",
"(.	c #63515A",
"_.	c #5D464B",
":.	c #5B4347",
"<.	c #61494E",
"[.	c #69535B",
"}.	c #705C65",
"|.	c #745F68",
"1.	c #75606A",
"2.	c #77616B",
"3.	c #7A646E",
"4.	c #7E6972",
"5.	c #826E76",
"6.	c #837078",
"7.	c #847179",
"8.	c #826D76",
"9.	c #7E6A73",
"0.	c #7F6872",
"a.	c #97868C",
"b.	c #E7E2E1",
"c.	c #D0CBD0",
"d.	c #C8C5CB",
"e.	c #79646D",
"f.	c #5F3E3F",
"g.	c #802F13",
"h.	c #833216",
"i.	c #7D2F14",
"j.	c #762A0F",
"k.	c #712B13",
"l.	c #6D2F21",
"m.	c #673128",
"n.	c #66332C",
"o.	c #633632",
"p.	c #633835",
"q.	c #623836",
"r.	c #623936",
"s.	c #643631",
"t.	c #623937",
"u.	c #65525B",
"v.	c #826B75",
"w.	c #D5CECF",
"x.	c #C0C1D0",
"y.	c #BFC1D0",
"z.	c #CECACF",
"A.	c #76616A",
"B.	c #683A36",
"C.	c #B56534",
"D.	c #CD8144",
"E.	c #C16D3A",
"F.	c #A4502B",
"G.	c #B25A31",
"H.	c #B45C31",
"I.	c #B25B31",
"J.	c #A44C27",
"K.	c #AA552E",
"L.	c #AC552E",
"M.	c #AD562E",
"N.	c #9E4723",
"O.	c #AD5730",
"P.	c #B15A31",
"Q.	c #AF572E",
"R.	c #8C3719",
"S.	c #5E474C",
"T.	c #7E6872",
"U.	c #D0C9CA",
"V.	c #BEBFCC",
"W.	c #C1C2D1",
"X.	c #D2D0D8",
"Y.	c #E1DBDB",
"Z.	c #DFDAD9",
"`.	c #715D66",
" +	c #6C352E",
".+	c #D38949",
"++	c #DE9750",
"@+	c #CA7B40",
"#+	c #AA5A31",
"$+	c #CA7B41",
"%+	c #D28747",
"&+	c #D48C4A",
"*+	c #AD562C",
"=+	c #C77C43",
"-+	c #DA924E",
";+	c #AF5B2F",
">+	c #D08A4B",
",+	c #D68D4B",
"'+	c #B96133",
")+	c #974120",
"!+	c #5C4549",
"~+	c #7E6771",
"{+	c #CBC3C5",
"]+	c #C0BFCB",
"^+	c #C1C3D2",
"/+	c #D9D4D7",
"(+	c #D4CCCD",
"_+	c #BBB1B3",
":+	c #6F5B65",
"<+	c #733326",
"[+	c #D78C4B",
"}+	c #DC964F",
"|+	c #CB7D42",
"1+	c #BF7B45",
"2+	c #DD964F",
"3+	c #D9914C",
"4+	c #AD552C",
"5+	c #D69150",
"6+	c #D7914D",
"7+	c #E0A259",
"8+	c #B46836",
"9+	c #D08A4A",
"0+	c #DC954F",
"a+	c #C06B39",
"b+	c #A44F2A",
"c+	c #5B4447",
"d+	c #7C6670",
"e+	c #C3C2CC",
"f+	c #C0C2D1",
"g+	c #E0DADA",
"h+	c #C6BEBF",
"i+	c #6B5862",
"j+	c #7E3820",
"k+	c #D68B4A",
"l+	c #DA934D",
"m+	c #C17B44",
"n+	c #DC944F",
"o+	c #D68C49",
"p+	c #AF5A2E",
"q+	c #D28C4C",
"r+	c #DC9B54",
"s+	c #E0A35A",
"t+	c #BC743F",
"u+	c #D08B4C",
"v+	c #D9914D",
"w+	c #C4713C",
"x+	c #A8532D",
"y+	c #5C4246",
"z+	c #7A656E",
"A+	c #BCB2B5",
"B+	c #E2DDDC",
"C+	c #C2C3D0",
"D+	c #C2C2CE",
"E+	c #BBB2B4",
"F+	c #68555E",
"G+	c #84391C",
"H+	c #D58B4A",
"I+	c #D78F4B",
"J+	c #CB7E42",
"K+	c #BF7842",
"L+	c #D9934F",
"M+	c #DA9751",
"N+	c #DB9650",
"O+	c #B15D30",
"P+	c #D18A4C",
"Q+	c #E0A258",
"R+	c #DFA258",
"S+	c #C07B42",
"T+	c #D08B4D",
"U+	c #D48A49",
"V+	c #C97B41",
"W+	c #AB552F",
"X+	c #5E4246",
"Y+	c #79636D",
"Z+	c #AA9DA1",
"`+	c #C9C6CD",
" @	c #C4C3CE",
".@	c #DCD7D7",
"+@	c #B6ACAF",
"@@	c #655159",
"#@	c #7A3926",
"$@	c #B5794E",
"%@	c #B37B57",
"&@	c #CA7F44",
"*@	c #C07943",
"=@	c #D99651",
"-@	c #DD9D55",
";@	c #DD9D56",
">@	c #B06B42",
",@	c #C2864E",
"'@	c #DC9C55",
")@	c #DE9F55",
"!@	c #C68144",
"~@	c #CE894C",
"{@	c #DD9C54",
"]@	c #C87B41",
"^@	c #A9532D",
"/@	c #604245",
"(@	c #77626C",
"_@	c #B1A7AA",
":@	c #D0CBCF",
"<@	c #C1C0CC",
"[@	c #B3A8AB",
"}@	c #614E55",
"|@	c #594044",
"1@	c #625159",
"2@	c #63535B",
"3@	c #8F583B",
"4@	c #C17A44",
"5@	c #DA9851",
"6@	c #DD9F59",
"7@	c #957455",
"8@	c #52424A",
"9@	c #42343C",
"0@	c #9A7650",
"a@	c #DEA058",
"b@	c #CA8245",
"c@	c #CE8B4C",
"d@	c #E0A058",
"e@	c #C87A41",
"f@	c #AA542E",
"g@	c #5F4144",
"h@	c #77626B",
"i@	c #A79A9F",
"j@	c #E2DCDC",
"k@	c #D4CECF",
"l@	c #BFBEC9",
"m@	c #AC9FA3",
"n@	c #5F4B53",
"o@	c #904221",
"p@	c #CD8849",
"q@	c #CA8C4D",
"r@	c #D38E4C",
"s@	c #DB9953",
"t@	c #B3885E",
"u@	c #3E3036",
"v@	c #55444C",
"w@	c #473840",
"x@	c #372931",
"y@	c #B98A58",
"z@	c #CA8244",
"A@	c #CF8B4B",
"B@	c #DE9F56",
"C@	c #CE8446",
"D@	c #AA552F",
"E@	c #5F4143",
"F@	c #76616B",
"G@	c #9F9096",
"H@	c #E3DEDD",
"I@	c #BFBECB",
"J@	c #A6999D",
"K@	c #5F4A51",
"L@	c #934322",
"M@	c #D99550",
"N@	c #DB9852",
"O@	c #BD7542",
"P@	c #DA9B57",
"Q@	c #6B5755",
"R@	c #403139",
"S@	c #54444C",
"T@	c #3C2E35",
"U@	c #6C5549",
"V@	c #CD884B",
"W@	c #D18D4D",
"X@	c #DC9A54",
"Y@	c #A9552E",
"Z@	c #5E4042",
"`@	c #97878D",
" #	c #BEBECB",
".#	c #BFC0CE",
"+#	c #D7D1D1",
"@#	c #A29599",
"##	c #5D4950",
"$#	c #903F1F",
"%#	c #DB9851",
"&#	c #DA9750",
"*#	c #D9954F",
"=#	c #C17A45",
"-#	c #C38F59",
";#	c #514148",
">#	c #403239",
",#	c #55454C",
"'#	c #47383F",
")#	c #43353D",
"!#	c #BB804D",
"~#	c #D38F4F",
"{#	c #DA9651",
"]#	c #D48F4C",
"^#	c #A6532D",
"/#	c #5D4144",
"(#	c #8E7B83",
"_#	c #E8E3E3",
":#	c #BDBECB",
"<#	c #D1CDD2",
"[#	c #A29399",
"}#	c #5E494F",
"|#	c #8D3C1C",
"1#	c #DB9952",
"2#	c #D6924D",
"3#	c #C78249",
"4#	c #B58961",
"5#	c #4A3B41",
"6#	c #3F3138",
"7#	c #52434A",
"8#	c #43353C",
"9#	c #3F3239",
"0#	c #A9764B",
"a#	c #D4904F",
"b#	c #D48E4B",
"c#	c #A5522C",
"d#	c #5C4145",
"e#	c #856F79",
"f#	c #EBE6E5",
"g#	c #D3CED0",
"h#	c #DAD4D6",
"i#	c #99898F",
"j#	c #5F4A50",
"k#	c #8A391A",
"l#	c #D9964F",
"m#	c #D7934E",
"n#	c #CA8449",
"o#	c #CA915A",
"p#	c #90715A",
"q#	c #8A6C54",
"r#	c #856553",
"s#	c #7D5D46",
"t#	c #84684B",
"u#	c #8B6C4F",
"v#	c #C4894F",
"w#	c #D59351",
"x#	c #D99650",
"y#	c #D7924D",
"z#	c #A24E2A",
"A#	c #5D4246",
"B#	c #826A74",
"C#	c #E3DDDC",
"D#	c #D5D3D8",
"E#	c #DAD3D3",
"F#	c #A3969B",
"G#	c #614B52",
"H#	c #853518",
"I#	c #DA9650",
"J#	c #D58F4B",
"K#	c #CB8449",
"L#	c #D7934D",
"M#	c #C87C41",
"N#	c #CB8044",
"O#	c #D8934D",
"P#	c #CF8646",
"Q#	c #D89653",
"R#	c #D6904C",
"S#	c #D8934E",
"T#	c #9F4B27",
"U#	c #5C4346",
"V#	c #816A74",
"W#	c #C7BFC0",
"X#	c #D9D1D2",
"Y#	c #E4DEDD",
"Z#	c #A89C9F",
"`#	c #624D55",
" $	c #7F3015",
".$	c #D68F4C",
"+$	c #D48C49",
"@$	c #D48D4A",
"#$	c #CB844A",
"$$	c #D68F4B",
"%$	c #CA7E42",
"&$	c #CD8244",
"*$	c #D58E4B",
"=$	c #CF8445",
"-$	c #D89552",
";$	c #D38C49",
">$	c #9B4B26",
",$	c #CDC9CF",
"'$	c #BFBFCB",
")$	c #AFA3A7",
"!$	c #792D12",
"~$	c #D18948",
"{$	c #D38A49",
"]$	c #D58D4A",
"^$	c #CD854C",
"/$	c #D38B49",
"($	c #D58E4A",
"_$	c #CD8044",
":$	c #CF8446",
"<$	c #D68E4B",
"[$	c #CE8344",
"}$	c #D89350",
"|$	c #D38A48",
"1$	c #974823",
"2$	c #5C4448",
"3$	c #E2DEDD",
"4$	c #CFCBD1",
"5$	c #BFBECA",
"6$	c #B5ABAE",
"7$	c #742A10",
"8$	c #D78E4B",
"9$	c #CA834B",
"0$	c #D28848",
"a$	c #D08546",
"b$	c #D58C4A",
"c$	c #D6914E",
"d$	c #934421",
"e$	c #5D454A",
"f$	c #78636D",
"g$	c #E1DCDC",
"h$	c #CFCCD1",
"i$	c #BDBDCC",
"j$	c #E2DCDB",
"k$	c #B9B0B2",
"l$	c #6C5962",
"m$	c #6B2C1C",
"n$	c #BF6F3A",
"o$	c #D58A49",
"p$	c #C47A47",
"q$	c #D68C4D",
"r$	c #D38748",
"s$	c #D48848",
"t$	c #CE7F44",
"u$	c #D18446",
"v$	c #D28547",
"w$	c #D38848",
"x$	c #CD7F43",
"y$	c #D4894A",
"z$	c #D58A4A",
"A$	c #D68E4C",
"B$	c #89391A",
"C$	c #5E484E",
"D$	c #DDD7D6",
"E$	c #CFCACF",
"F$	c #D5CFD0",
"G$	c #B7ACAF",
"H$	c #6F5C65",
"I$	c #673028",
"J$	c #B66434",
"K$	c #BB6D3B",
"L$	c #D79050",
"M$	c #D18546",
"N$	c #D08245",
"O$	c #D38747",
"P$	c #D08346",
"Q$	c #D48949",
"R$	c #7F2F13",
"S$	c #7B656F",
"T$	c #CFCBCE",
"U$	c #D9D4D5",
"V$	c #5C3838",
"W$	c #90513E",
"X$	c #A06F58",
"Y$	c #A97356",
"Z$	c #B46434",
"`$	c #D58C4E",
" %	c #D08345",
".%	c #D38648",
"+%	c #CC7C41",
"@%	c #D08246",
"#%	c #CF8144",
"$%	c #7B2C11",
"%%	c #5F4C53",
"&%	c #7D6771",
"*%	c #C8C5CC",
"=%	c #78626C",
"-%	c #563E42",
";%	c #64454A",
">%	c #5E4A52",
",%	c #664849",
"'%	c #9A4E2B",
")%	c #D3894E",
"!%	c #CF8044",
"~%	c #D28646",
"{%	c #C97740",
"]%	c #C3723D",
"^%	c #76290E",
"/%	c #604E56",
"(%	c #E0DBDA",
"_%	c #594145",
":%	c #8E3819",
"<%	c #C36939",
"[%	c #C9763F",
"}%	c #B15E30",
"|%	c #D08349",
"1%	c #CE7E43",
"2%	c #D08145",
"3%	c #BF6C38",
"4%	c #CD7C42",
"5%	c #CB7A41",
"6%	c #CD7D43",
"7%	c #CF7F43",
"8%	c #BA6235",
"9%	c #6E280E",
"0%	c #625059",
"a%	c #806973",
"b%	c #D1CCCF",
"c%	c #D8D1D2",
"d%	c #826C75",
"e%	c #813014",
"f%	c #BE6336",
"g%	c #C46A39",
"h%	c #B1592E",
"i%	c #CC7F48",
"j%	c #CD7B42",
"k%	c #CF7C43",
"l%	c #B86334",
"m%	c #CC7C42",
"n%	c #CC7941",
"o%	c #C06C39",
"p%	c #C36938",
"q%	c #C46939",
"r%	c #B65C31",
"s%	c #6B2D1D",
"t%	c #62515A",
"u%	c #D4CED0",
"v%	c #E9E3E3",
"w%	c #907D85",
"x%	c #67545C",
"y%	c #722A10",
"z%	c #B3592F",
"A%	c #C36737",
"B%	c #B0542C",
"C%	c #C67B46",
"D%	c #CB7941",
"E%	c #CC7B41",
"F%	c #CB7E46",
"G%	c #B66033",
"H%	c #C26C3A",
"I%	c #C26737",
"J%	c #693026",
"K%	c #64535C",
"L%	c #8D7A82",
"M%	c #E7E2E2",
"N%	c #D7D1D3",
"O%	c #D3CDCF",
"P%	c #9F9196",
"Q%	c #6A3024",
"R%	c #9E4122",
"S%	c #B4572F",
"T%	c #A94C28",
"U%	c #B96739",
"V%	c #C26938",
"W%	c #AB502A",
"X%	c #C97D47",
"Y%	c #C7713D",
"Z%	c #C66F3C",
"`%	c #B0572D",
" &	c #C27340",
".&	c #C06436",
"+&	c #A95029",
"@&	c #62342E",
"#&	c #67555D",
"$&	c #9D8E93",
"%&	c #BDBECC",
"&&	c #CDC8CC",
"*&	c #B6ABAE",
"=&	c #633A37",
"-&	c #95391C",
";&	c #A34223",
">&	c #A14122",
",&	c #A44E2C",
"'&	c #AC4E2A",
")&	c #B2542D",
"!&	c #9E4222",
"~&	c #BD6F3F",
"{&	c #B95C31",
"]&	c #BB5F33",
"^&	c #AB562F",
"/&	c #AF532C",
"(&	c #9A401F",
"_&	c #5E3837",
":&	c #6B5861",
"<&	c #917E85",
"[&	c #B1A5A8",
"}&	c #C3C1CA",
"|&	c #867779",
"1&	c #907674",
"2&	c #886966",
"3&	c #835A56",
"4&	c #7B504E",
"5&	c #804E49",
"6&	c #804C46",
"7&	c #7A4843",
"8&	c #804D45",
"9&	c #804A43",
"0&	c #814D48",
"a&	c #7E514E",
"b&	c #7F5856",
"c&	c #836263",
"d&	c #84686C",
"e&	c #88767A",
"f&	c #B5ACAD",
"g&	c #D8D2D1",
"h&	c #D1C9C9",
"i&	c #C8BFBF",
"j&	c #C9C7D0",
"k&	c #D5D1D6",
"l&	c #DAD5D8",
"m&	c #E1E0E4",
"n&	c #CCC9D0",
"o&	c #C7C2C8",
"p&	c #C6C0C6",
"q&	c #C6C0C5",
"r&	c #C8C0C3",
"s&	c #BFB3B4",
"t&	c #BBAFB1",
"u&	c #BAADB0",
"v&	c #B6AAAD",
"w&	c #B3A6AB",
"x&	c #B1A4A9",
"y&	c #AEA2A7",
"z&	c #AC9FA6",
"A&	c #AA9DA5",
"B&	c #A99CA4",
"C&	c #A2949A",
"D&	c #B7ACAC",
"E&	c #B6ABAB",
"F&	c #C6BDBD",
"G&	c #BFB6B6",
"H&	c #E8E5E5",
"I&	c #C5C6D4",
"J&	c #C2C3D1",
"K&	c #C6C4CF",
"L&	c #C5C1CB",
"M&	c #C7C2CA",
"N&	c #C7C1C8",
"O&	c #C4BFC5",
"P&	c #C5BFC6",
"Q&	c #C4BFC7",
"R&	c #C4C0C8",
"S&	c #C1BDC5",
"T&	c #AEA4A9",
"U&	c #B4AAAE",
"V&	c #B2A8AA",
"W&	c #BDB5BA",
"X&	c #C3BFC7",
"Y&	c #BDBBC6",
"Z&	c #BBBCCB",
"                                                                                                    ",
"                                                                                                    ",
"                                                                                                    ",
"                                                                                                    ",
"                                                                                                    ",
"                                                                                                    ",
"          .                           + +                 .                                         ",
"                          @ # $ % &       +     * = - ; > , ' ) !                                   ",
"                          ~ { ] ^ / ( _ : < [ } | 1 2 2 2 2 3 4 5 .                                 ",
"                      6 7 8 9 0 a b c d e f g h i j k l m n o p q r s t     u                       ",
"                    * v | w w w w x y z A B C D E F G H F I J K L M N O P     Q                     ",
"                    R S | T U V W W X w x Y Z x x x x x x w W ` x x w |  ...                        ",
"                    +.x w @.#.$.%.&.*.=.w Y | -.;.>.,.T '.).!.).1 ~.{.Y w ].                        ",
".                   ^.x x 2 /.(._.:.<.[.}.|.1.2.3.4.5.6.7.8.9.3.0.a.b.l x c.                        ",
"+                   d.x x 2 e.f.g.h.i.j.k.l.m.n.o.p.q.r.p.s.n.t.u.v.y w x w.x.                      ",
"y.                  z.x x Y A.B.C.D.E.F.G.H.I.J.K.L.M.N.O.P.Q.R.S.T.U.x x y V.                      ",
"W.                  X.Y.Z.z `. +.+++@+#+$+%+&+*+=+&+-+;+>+,+'+)+!+~+{+x x W ]+                      ",
"^+                y./+x (+_+:+<+[+}+|+1+2+3+-+4+5+6+7+8+9+0+a+b+c+d+D w x ] e+                      ",
"f+                = g+x S h+i+j+k+l+|+m+n+o+3+p+q+r+s+t+u+v+w+x+y+z+A+B+g+S C+                      ",
"f+                D+W x w E+F+G+H+I+J+K+L+M+N+O+P+Q+R+S+T+U+V+W+X+Y+Z+b.S ` `+                      ",
"f+                 @x x .@+@@@#@$@%@&@*@=@-@;@>@,@'@)@!@~@{@]@^@/@(@_@Y.x x :@  .                   ",
"y.                <@x x W [@}@|@1@2@3@4@5@6@7@8@9@0@a@b@c@d@e@f@g@h@i@j@x x k@. Q                   ",
"+                 l@` x S m@n@o@p@q@r@*@s@t@u@v@w@x@y@z@A@B@C@D@E@F@G@H@x x y *                     ",
"+                 I@N x ] J@K@L@M@N@M+O@P@Q@R@S@w@T@U@V@W@X@r@Y@Z@A.`@>.x x `  #                    ",
"Q                 .#+#x g+@###$#%#&#*#=#-#;#>#,#'#T@)#!#~#{#]#^#/#A.(#_#x x x :#                    ",
"Q                   <#x | [#}#|#1#&#2#3#4#5#6#7#8#T@9#0#a#M+b#c#d#A.e#f#W S g#Q .                   ",
".                 t h#U  .i#j#k#1#l#m#n#o#p#q#r#s#t#u#v#w#x#y#z#A#F@B#'.C#1 D#+                     ",
"                  ..E#x -.F#G#H#I#J#y#K#y#J#L#M#N#O#O#P#Q#R#S#T#U#F@V#W#X#g+ .#                     ",
"                  ..N x Y#Z#`# $.$+$@$#$&+&+$$%$&$J#*$=$-$J#;$>$:.h@V#;.w x W ,$                    ",
"                  '$x x | )$@@!$~${$]$^$]$/$($_$:$<$<$[$}$|$<$1$2$(@V#3$w x W 4$                    ",
"              Q   5$` x B+6$F+7$]@U+8$9$&+0$&+_$a$b$]$[$c$/$*$d$e$f$v.g$W x l h$                    ",
"              Q   i$N x j$k$l$m$n$o$[+p$q$r$s$t$u$v$w$x$y$z$A$B$C$3.v.j@D$x x E$                    ",
"                  t F$x Y.G$H$I$J$w$U+K$L$u$M$t$u$N$O$P$M$Q$y$R$K@S$v.j@w x x T$                    ",
"                  Q U$N  .D |.V$W$X$Y$Z$`$ %.%+%@%#%v$N$u$O$D.$%%%&%v.g$S w N *%                    ",
"                   #` x Y.=.=%-%;%>%,%'%)%!%~%{%#%!%M$!%N$u$]%^%/%T.V#'.T S x 7                     ",
"                  I@w x Y (%d+_%:%<%[%}%|%1%2%3%2%1%4%5%6%7%8%9%0%a%V#T x x x b%Q                   ",
"                  .#c%x S ).d%C$e%f%g%h%i%j%k%l%m%j%n%o%p%q%r%s%t%v.d%).x x x u%+                   ",
"                  y.k@x W v%w%x%y%z%A%B%C%D%E%h%F%D%D%G%H%I%h%J%K%v.L%M%x x x N%                    ",
"                    O%w x 2 P%}.Q%R%S%T%U%V%q%W%X%Y%Z%`% &.&+&@&#&v.$&-.x x x w %&                  ",
"                    &&S W 1 *&=%=&-&;&>&,&'&)&!&~&{&]&J.^&/&(&_&:&<&[&Y.x x x V I@                  ",
"                    }&-.2 2 +#0.|&1&2&3&4&5&6&7&8&9&0&a&b&c&d&e&f&g&h&i&x x x g+D+  Q               ",
"                    @ j&k&l&m&n&o&p&q&r&E s&t&u&v&w&x&y&z&A&B&C&D&E&F&G&-.H@b.H&I&                  ",
"                                        + J&K&L&M&N&O&O&P&Q&R&S&T&U&V&W&*%X&Y&Z&                    ",
"                                                                .   +                               ",
"          .                                                                     + .                 ",
"          + +                                           Q + +   Q +         . .                     ",
"                                                                                                    ",
"                                                                                                    ",
"                                                                                                    ",
"                                                                                                    "};
