/* XPM */
static char * plrD_xpm[] = {
"50 50 854 2",
"  	c #FFFFFF",
". 	c #F0EEEE",
"+ 	c #9D9293",
"@ 	c #462425",
"# 	c #3F090E",
"$ 	c #492626",
"% 	c #948586",
"& 	c #999294",
"* 	c #A6A0A2",
"= 	c #EEECEC",
"- 	c #FDFDFD",
"; 	c #A9A1A1",
"> 	c #8F8283",
", 	c #552828",
"' 	c #503D3F",
") 	c #E0DEDF",
"! 	c #EFEDED",
"~ 	c #9C9292",
"{ 	c #4A2426",
"] 	c #591015",
"^ 	c #571014",
"/ 	c #511216",
"( 	c #3C0E12",
"_ 	c #47282A",
": 	c #918687",
"< 	c #9F9798",
"[ 	c #908586",
"} 	c #472829",
"| 	c #3E0D11",
"1 	c #5B1115",
"2 	c #602B2C",
"3 	c #A09696",
"4 	c #ABA4A4",
"5 	c #8B8183",
"6 	c #3A2426",
"7 	c #530E13",
"8 	c #6D171A",
"9 	c #631418",
"0 	c #540E13",
"a 	c #430A0F",
"b 	c #350B0F",
"c 	c #2D0B0F",
"d 	c #380C10",
"e 	c #520E13",
"f 	c #621317",
"g 	c #671519",
"h 	c #6C171B",
"i 	c #632E2F",
"j 	c #A19697",
"k 	c #EEEDED",
"l 	c #ACA4A5",
"m 	c #49282A",
"n 	c #450F13",
"o 	c #4C0D11",
"p 	c #641418",
"q 	c #71181C",
"r 	c #73191C",
"s 	c #560F14",
"t 	c #500D12",
"u 	c #3B070C",
"v 	c #480B10",
"w 	c #6F171B",
"x 	c #7C1C1E",
"y 	c #6B161A",
"z 	c #74191C",
"A 	c #761B1D",
"B 	c #592C2D",
"C 	c #928788",
"D 	c #A99B9C",
"E 	c #B6A9A8",
"F 	c #F1F0F0",
"G 	c #F0EFEF",
"H 	c #9F9696",
"I 	c #49292A",
"J 	c #481013",
"K 	c #651518",
"L 	c #7E1D1F",
"M 	c #851F21",
"N 	c #8C2123",
"O 	c #7D1C1F",
"P 	c #8A2122",
"Q 	c #761A1D",
"R 	c #691519",
"S 	c #6D171B",
"T 	c #4D0D12",
"U 	c #6F181B",
"V 	c #7E1C1E",
"W 	c #791B1E",
"X 	c #571015",
"Y 	c #4E1215",
"Z 	c #5F171A",
"` 	c #6C4644",
" .	c #E6E2E3",
"..	c #4A2829",
"+.	c #510E13",
"@.	c #651418",
"#.	c #771B1D",
"$.	c #801D20",
"%.	c #7E1C1F",
"&.	c #942425",
"*.	c #7A1B1E",
"=.	c #781A1D",
"-.	c #75191D",
";.	c #611317",
">.	c #7C1C1F",
",.	c #841F20",
"'.	c #8C2223",
").	c #821E20",
"!.	c #771A1D",
"~.	c #781B1D",
"{.	c #614344",
"].	c #E4E1E1",
"^.	c #472425",
"/.	c #440A0F",
"(.	c #540F13",
"_.	c #801E20",
":.	c #882022",
"<.	c #962526",
"[.	c #801D1F",
"}.	c #912324",
"|.	c #9D2728",
"1.	c #7F1D1F",
"2.	c #982626",
"3.	c #902324",
"4.	c #942525",
"5.	c #9C2728",
"6.	c #8A2123",
"7.	c #5A292B",
"8.	c #9F9597",
"9.	c #F0EFEE",
"0.	c #9E9393",
"a.	c #512729",
"b.	c #581014",
"c.	c #9E2828",
"d.	c #A02929",
"e.	c #882122",
"f.	c #A12929",
"g.	c #972526",
"h.	c #8F2324",
"i.	c #892122",
"j.	c #9B2727",
"k.	c #72191B",
"l.	c #533D3F",
"m.	c #DFDEDF",
"n.	c #9E9595",
"o.	c #4D282A",
"p.	c #5F1317",
"q.	c #9F2828",
"r.	c #9C2727",
"s.	c #8B2123",
"t.	c #75191C",
"u.	c #992627",
"v.	c #771A1E",
"w.	c #982627",
"x.	c #9A2727",
"y.	c #543D3F",
"z.	c #E1DEDF",
"A.	c #4C0C11",
"B.	c #530F13",
"C.	c #932425",
"D.	c #841F21",
"E.	c #7C1D1F",
"F.	c #450A0F",
"G.	c #5A1115",
"H.	c #7B1C1E",
"I.	c #791B1D",
"J.	c #861F21",
"K.	c #E3E0E1",
"L.	c #524143",
"M.	c #470B10",
"N.	c #681619",
"O.	c #892022",
"P.	c #76191D",
"Q.	c #72181C",
"R.	c #4D0F12",
"S.	c #71191B",
"T.	c #340A0E",
"U.	c #3E0C10",
"V.	c #71181B",
"W.	c #8D2223",
"X.	c #831E21",
"Y.	c #490C11",
"Z.	c #6C171A",
"`.	c #564042",
" +	c #E3E0E0",
".+	c #9E9495",
"++	c #482526",
"@+	c #6A1619",
"#+	c #631317",
"$+	c #5C1115",
"%+	c #69161A",
"&+	c #592322",
"*+	c #845D50",
"=+	c #4F2221",
"-+	c #831F21",
";+	c #5B2221",
">+	c #926F60",
",+	c #937061",
"'+	c #5F1316",
")+	c #604142",
"!+	c #E2DFE0",
"~+	c #FEFEFE",
"{+	c #E0DDDD",
"]+	c #550F14",
"^+	c #3E080D",
"/+	c #542321",
"(+	c #A17B6A",
"_+	c #DDB69D",
":+	c #A07B6A",
"<+	c #572120",
"[+	c #573531",
"}+	c #E1BAA0",
"|+	c #EDC6AA",
"1+	c #5B2422",
"2+	c #35060B",
"3+	c #3C080D",
"4+	c #681519",
"5+	c #692E2D",
"6+	c #A09697",
"7+	c #4F2829",
"8+	c #420A0E",
"9+	c #33060B",
"0+	c #2B0509",
"a+	c #4B0C11",
"b+	c #542221",
"c+	c #FCD4B6",
"d+	c #543531",
"e+	c #58241F",
"f+	c #EEC7AB",
"g+	c #FDD5B7",
"h+	c #572321",
"i+	c #621417",
"j+	c #31060B",
"k+	c #2C0E11",
"l+	c #4A0E12",
"m+	c #651519",
"n+	c #604344",
"o+	c #482829",
"p+	c #450C11",
"q+	c #541C1C",
"r+	c #2E070B",
"s+	c #32060A",
"t+	c #502120",
"u+	c #A17B6B",
"v+	c #A07B6B",
"w+	c #633F39",
"x+	c #FDD6B9",
"y+	c #ECC2A7",
"z+	c #976453",
"A+	c #4D1D18",
"B+	c #31090C",
"C+	c #542524",
"D+	c #361517",
"E+	c #4F0D12",
"F+	c #724745",
"G+	c #300C10",
"H+	c #301213",
"I+	c #531E1D",
"J+	c #39090D",
"K+	c #421A14",
"L+	c #966453",
"M+	c #EBC4AB",
"N+	c #FADDC9",
"O+	c #FBDECA",
"P+	c #FDD6BA",
"Q+	c #B8927F",
"R+	c #FADECB",
"S+	c #FADBC5",
"T+	c #F1BB99",
"U+	c #DA9977",
"V+	c #925D47",
"W+	c #522A25",
"X+	c #A1705F",
"Y+	c #492D2C",
"Z+	c #390D11",
"`+	c #6E4645",
" @	c #8E8687",
".@	c #4C3A3A",
"+@	c #825D51",
"@@	c #522A24",
"#@	c #935E47",
"$@	c #D89775",
"%@	c #E0A88B",
"&@	c #D3A596",
"*@	c #D6A796",
"=@	c #EEBC9C",
"-@	c #FBD3B5",
";@	c #FDD7BC",
">@	c #FCD4B7",
",@	c #FBD2B3",
"'@	c #D3A190",
")@	c #E59E76",
"!@	c #D18C69",
"~@	c #A7725C",
"{@	c #CEA791",
"]@	c #5D4A49",
"^@	c #7C7172",
"/@	c #684D4E",
"(@	c #E2E0E1",
"_@	c #6D5C5D",
":@	c #CEAB95",
"<@	c #B08875",
"[@	c #D5906C",
"}@	c #DBA07E",
"|@	c #A19893",
"1@	c #6F4847",
"2@	c #704B48",
"3@	c #ADA89C",
"4@	c #EBC1A3",
"5@	c #FCD2B4",
"6@	c #FCD2B3",
"7@	c #ACA79E",
"8@	c #744A49",
"9@	c #724847",
"0@	c #9C9692",
"a@	c #D99C7D",
"b@	c #DA916E",
"c@	c #EFB894",
"d@	c #DFB9A0",
"e@	c #6D5C5E",
"f@	c #D1CDCE",
"g@	c #B8B1B1",
"h@	c #AAA4A3",
"i@	c #A78F82",
"j@	c #E5BB9F",
"k@	c #D99271",
"l@	c #DFA98B",
"m@	c #A8C0C5",
"n@	c #444750",
"o@	c #516B7B",
"p@	c #A5CAD1",
"q@	c #E9C4AC",
"r@	c #E7BDA0",
"s@	c #A88F82",
"t@	c #FEFDFD",
"u@	c #A7A1A0",
"v@	c #937A71",
"w@	c #956755",
"x@	c #DDA281",
"y@	c #E1C3AE",
"z@	c #58575C",
"A@	c #637885",
"B@	c #DEDFDF",
"C@	c #FBD9C0",
"D@	c #FBDAC2",
"E@	c #966755",
"F@	c #997D71",
"G@	c #EDEDED",
"H@	c #A5A2A5",
"I@	c #868385",
"J@	c #403032",
"K@	c #50322F",
"L@	c #CC8E6F",
"M@	c #E8C0A5",
"N@	c #AC9A8D",
"O@	c #AD9B90",
"P@	c #EBD4C5",
"Q@	c #FCD8BD",
"R@	c #58484A",
"S@	c #9A9698",
"T@	c #4B4345",
"U@	c #2B2127",
"V@	c #301515",
"W@	c #4E2924",
"X@	c #AF6954",
"Y@	c #EBB494",
"Z@	c #F9D0B1",
"`@	c #FBD3B6",
" #	c #4D2C24",
".#	c #5C4344",
"+#	c #EFEEEF",
"@#	c #999598",
"##	c #4D4448",
"$#	c #6C6466",
"%#	c #655A5D",
"&#	c #3F2423",
"*#	c #583420",
"=#	c #763B2E",
"-#	c #BA715A",
";#	c #D4957C",
">#	c #EFBA99",
",#	c #FBD1B2",
"'#	c #472C2A",
")#	c #8A8486",
"!#	c #A6A3A5",
"~#	c #484347",
"{#	c #655E61",
"]#	c #7F777B",
"^#	c #8D8583",
"/#	c #4F332F",
"(#	c #6A4628",
"_#	c #6A4526",
":#	c #693126",
"<#	c #7C3930",
"[#	c #BA725A",
"}#	c #CF8F78",
"|#	c #CF917D",
"1#	c #3C1F1A",
"2#	c #33282C",
"3#	c #4E4447",
"4#	c #999597",
"5#	c #4A4348",
"6#	c #746D71",
"7#	c #847C7F",
"8#	c #877C7E",
"9#	c #4C302C",
"0#	c #724D2B",
"a#	c #8C6434",
"b#	c #6D4929",
"c#	c #5A3622",
"d#	c #683026",
"e#	c #6E2D28",
"f#	c #6F2D28",
"g#	c #6E4A28",
"h#	c #8D6434",
"i#	c #452925",
"j#	c #6B5F61",
"k#	c #6E6567",
"l#	c #4D4548",
"m#	c #E1E0E0",
"n#	c #474247",
"o#	c #5B5255",
"p#	c #665D61",
"q#	c #7B7072",
"r#	c #594F52",
"s#	c #422520",
"t#	c #956A36",
"u#	c #976D37",
"v#	c #825C31",
"w#	c #5D3A22",
"x#	c #573520",
"y#	c #4F322F",
"z#	c #8A8181",
"A#	c #7B7377",
"B#	c #655D60",
"C#	c #474347",
"D#	c #464045",
"E#	c #544C51",
"F#	c #554D52",
"G#	c #5A5154",
"H#	c #382D31",
"I#	c #956B36",
"J#	c #9A6F37",
"K#	c #986D37",
"L#	c #8A6234",
"M#	c #875F32",
"N#	c #4D302C",
"O#	c #867E80",
"P#	c #7A7276",
"Q#	c #4B4549",
"R#	c #999698",
"S#	c #483F42",
"T#	c #5C5357",
"U#	c #423B40",
"V#	c #433535",
"W#	c #3E211C",
"X#	c #462A26",
"Y#	c #71686A",
"Z#	c #8F8C8A",
"`#	c #756D6F",
" $	c #5E5659",
".$	c #474246",
"+$	c #E0E0E0",
"@$	c #454144",
"#$	c #493E42",
"$$	c #51484C",
"%$	c #534B4E",
"&$	c #2D252B",
"*$	c #2E2227",
"=$	c #3C1F19",
"-$	c #704B2A",
";$	c #896133",
">$	c #996F39",
",$	c #9F773F",
"'$	c #9C7139",
")$	c #442823",
"!$	c #63595D",
"~$	c #756C6F",
"{$	c #675D60",
"]$	c #544C4F",
"^$	c #444043",
"/$	c #E0DFE0",
"($	c #413D40",
"_$	c #261A1E",
":$	c #393034",
"<$	c #322427",
"[$	c #4D2221",
"}$	c #291316",
"|$	c #341915",
"1$	c #5A3820",
"2$	c #75502B",
"3$	c #8A6233",
"4$	c #9F7740",
"5$	c #A17941",
"6$	c #A07941",
"7$	c #412623",
"8$	c #5D5255",
"9$	c #595155",
"0$	c #6D6469",
"a$	c #453E44",
"b$	c #423E42",
"c$	c #E3E1E1",
"d$	c #53474A",
"e$	c #805643",
"f$	c #8D5F47",
"g$	c #916048",
"h$	c #A85D4B",
"i$	c #6E332C",
"j$	c #3B1714",
"k$	c #472415",
"l$	c #5E3A20",
"m$	c #684324",
"n$	c #865F32",
"o$	c #A17A43",
"p$	c #A17943",
"q$	c #A07944",
"r$	c #9D7641",
"s$	c #381E1C",
"t$	c #54484A",
"u$	c #5E5458",
"v$	c #6F676A",
"w$	c #443F43",
"x$	c #E4E1E2",
"y$	c #685455",
"z$	c #CE9271",
"A$	c #E8A276",
"B$	c #E6A076",
"C$	c #D58B69",
"D$	c #9A4A3E",
"E$	c #431B18",
"F$	c #351E1B",
"G$	c #483632",
"H$	c #503C36",
"I$	c #634026",
"J$	c #76512C",
"K$	c #8E683C",
"L$	c #916C3F",
"M$	c #301617",
"N$	c #392D32",
"O$	c #706566",
"P$	c #817A7B",
"Q$	c #635B5F",
"R$	c #464044",
"S$	c #685354",
"T$	c #C88564",
"U$	c #E8A177",
"V$	c #EAA377",
"W$	c #E29B73",
"X$	c #AA624E",
"Y$	c #47231D",
"Z$	c #281C23",
"`$	c #3A3943",
" %	c #3F3D46",
".%	c #423232",
"+%	c #4E3E3A",
"@%	c #67554D",
"#%	c #868272",
"$%	c #8E8C77",
"%%	c #403D44",
"&%	c #2D1618",
"*%	c #392C2F",
"=%	c #6C6365",
"-%	c #908688",
";%	c #756D70",
">%	c #E4E2E3",
",%	c #635052",
"'%	c #AA634F",
")%	c #E39C73",
"!%	c #E49D74",
"~%	c #CB7E60",
"{%	c #A75D4A",
"]%	c #23171E",
"^%	c #2A232C",
"/%	c #312C37",
"(%	c #35323D",
"_%	c #3C3F4A",
":%	c #525459",
"<%	c #8EA29A",
"[%	c #7B8680",
"}%	c #33313C",
"|%	c #2A252F",
"1%	c #27212A",
"2%	c #22171E",
"3%	c #2B1416",
"4%	c #2C1E20",
"5%	c #393136",
"6%	c #4E464A",
"7%	c #504649",
"8%	c #444044",
"9%	c #A59B9D",
"0%	c #7D5049",
"a%	c #D08D6B",
"b%	c #E9AF8D",
"c%	c #CE8C74",
"d%	c #99493F",
"e%	c #351C1A",
"f%	c #351F1D",
"g%	c #2A2129",
"h%	c #28232E",
"i%	c #393A43",
"j%	c #768287",
"k%	c #5E585F",
"l%	c #768286",
"m%	c #3A3A41",
"n%	c #21171F",
"o%	c #271419",
"p%	c #281417",
"q%	c #3C2221",
"r%	c #825C4D",
"s%	c #95786A",
"t%	c #8E8480",
"u%	c #887166",
"v%	c #544A4D",
"w%	c #A9A1A0",
"x%	c #8A6458",
"y%	c #9E7F70",
"z%	c #997769",
"A%	c #6A3B37",
"B%	c #3A1615",
"C%	c #3D1C14",
"D%	c #3B1E15",
"E%	c #2A1518",
"F%	c #281518",
"G%	c #2E191A",
"H%	c #4A302B",
"I%	c #5C4A49",
"J%	c #5A4A4C",
"K%	c #57484B",
"L%	c #534442",
"M%	c #36221E",
"N%	c #2F1913",
"O%	c #311914",
"P%	c #391B15",
"Q%	c #3A1C19",
"R%	c #794539",
"S%	c #E0AC8F",
"T%	c #FAD2B6",
"U%	c #F9D8C1",
"V%	c #D8AD91",
"W%	c #6A5758",
"X%	c #AFAAAC",
"Y%	c #A39D9F",
"Z%	c #918A8C",
"`%	c #35292C",
" &	c #382527",
".&	c #4B3A3C",
"+&	c #4A3A3C",
"@&	c #4C3E41",
"#&	c #483536",
"$&	c #543224",
"%&	c #402014",
"&&	c #391A13",
"*&	c #56351B",
"=&	c #5D3A1D",
"-&	c #5C3A1D",
";&	c #58351A",
">&	c #4C2812",
",&	c #452414",
"'&	c #4B2C29",
")&	c #BB7961",
"!&	c #F4C9AD",
"~&	c #FCDDC8",
"{&	c #FAD1B4",
"]&	c #CF9A7D",
"^&	c #695556",
"/&	c #DFDEDE",
"(&	c #423D41",
"_&	c #3E373A",
":&	c #695E60",
"<&	c #595055",
"[&	c #6D6568",
"}&	c #544B50",
"|&	c #574948",
"1&	c #4E3126",
"2&	c #371814",
"3&	c #3D1D15",
"4&	c #6B4627",
"5&	c #78522D",
"6&	c #734D2A",
"7&	c #603D21",
"8&	c #4C2916",
"9&	c #3C1F16",
"0&	c #513835",
"a&	c #D09D82",
"b&	c #DAA28B",
"c&	c #F6D5C0",
"d&	c #F7CFB3",
"e&	c #433E42",
"f&	c #453D43",
"g&	c #62595C",
"h&	c #5D5459",
"i&	c #777074",
"j&	c #5F575B",
"k&	c #6B6063",
"l&	c #544445",
"m&	c #402E31",
"n&	c #381B19",
"o&	c #50301F",
"p&	c #563521",
"q&	c #513020",
"r&	c #422315",
"s&	c #3F2117",
"t&	c #3E2C2C",
"u&	c #4A3030",
"v&	c #B37561",
"w&	c #B76757",
"x&	c #F0C3AA",
"y&	c #F1C3A7",
"z&	c #B26F5A",
"A&	c #454145",
"B&	c #594F53",
"C&	c #5A5256",
"D&	c #7C7375",
"E&	c #736C6F",
"F&	c #71696C",
"G&	c #5B5256",
"H&	c #534A4E",
"I&	c #554748",
"J&	c #412F30",
"K&	c #3D2C2E",
"L&	c #463635",
"M&	c #281819",
"N&	c #2E262B",
"O&	c #B16C56",
"P&	c #D4977D",
"Q&	c #F2C4A6",
"R&	c #D8A487",
"S&	c #7F534B",
"T&	c #574445",
"U&	c #41383C",
"V&	c #50484D",
"W&	c #857D7C",
"X&	c #746C70",
"Y&	c #5A5155",
"Z&	c #6D6467",
"`&	c #564F53",
" *	c #6B6062",
".*	c #52494D",
"+*	c #52494E",
"@*	c #3A2F33",
"#*	c #433739",
"$*	c #23161B",
"%*	c #1D1217",
"&*	c #422A2A",
"**	c #875E50",
"=*	c #9E7E70",
"-*	c #9F8071",
";*	c #8B6559",
">*	c #A59997",
",*	c #3D2829",
"'*	c #2C2328",
")*	c #4E454A",
"!*	c #4B4349",
"~*	c #413A3F",
"{*	c #3C3439",
"]*	c #3F373B",
"^*	c #373135",
"/*	c #40383C",
"(*	c #3E363A",
"_*	c #2B1F24",
":*	c #2A1B1D",
"<*	c #3F2627",
"[*	c #412728",
"}*	c #3F2626",
"|*	c #342120",
"1*	c #403336",
"2*	c #938B8E",
"3*	c #574648",
"4*	c #1E0F15",
"5*	c #1C1016",
"6*	c #1C0F16",
"7*	c #332A2E",
"8*	c #888587",
"9*	c #989698",
"0*	c #898588",
"a*	c #3A3135",
"b*	c #291A1C",
"c*	c #452A29",
"d*	c #66403C",
"e*	c #6D433F",
"f*	c #67403C",
"g*	c #452B29",
"h*	c #53494D",
"i*	c #A19B9C",
"j*	c #443639",
"k*	c #2C1B1D",
"l*	c #3D2526",
"m*	c #3E2527",
"n*	c #332022",
"o*	c #E2E0E0",
"p*	c #54494D",
"q*	c #442A29",
"r*	c #6A433E",
"s*	c #80514C",
"t*	c #82534E",
"u*	c #67413D",
"v*	c #443536",
"w*	c #A09A9C",
"x*	c #554B4F",
"y*	c #301E1D",
"z*	c #2B1B1C",
"A*	c #4F302F",
"B*	c #54332F",
"C*	c #482A28",
"D*	c #54494E",
"E*	c #574C50",
"F*	c #583533",
"G*	c #7B4E49",
"H*	c #83534E",
"I*	c #7C4F4A",
"J*	c #583835",
"K*	c #574D51",
"L*	c #453638",
"M*	c #422623",
"N*	c #593734",
"O*	c #6A423F",
"P*	c #6A423C",
"Q*	c #533431",
"R*	c #483839",
"S*	c #A29B9D",
"T*	c #594141",
"U*	c #7C514B",
"V*	c #895751",
"W*	c #80524D",
"X*	c #67403D",
"Y*	c #594E51",
"Z*	c #372221",
"`*	c #593732",
" =	c #68433D",
".=	c #3A2524",
"+=	c #A39C9E",
"@=	c #664B4C",
"#=	c #65403F",
"$=	c #66403F",
"%=	c #5B3B39",
"&=	c #533E3F",
"*=	c #544A4E",
"==	c #69433E",
"-=	c #84544F",
";=	c #764C46",
">=	c #35211F",
",=	c #A39C9F",
"'=	c #564B4F",
")=	c #573633",
"!=	c #603C39",
"~=	c #623D3A",
"{=	c #553532",
"]=	c #2D1D1B",
"^=	c #544B4F",
"/=	c #9E9899",
"(=	c #3B3032",
"_=	c #25191B",
":=	c #25191A",
"<=	c #3A3032",
"                      . + @ # $ % & * = - = ; > , ' )                                               ",
"                      ! ~ { ] ^ / ( _ : < [ } | 1 2 3 !                                             ",
"                  - ! 4 5 6 7 8 9 0 a b c d e f g h i j k - -                                       ",
"                ! l [ m n o p q r p s t u v w x y z A B C D E F                                     ",
"              G H I J K L M N O P Q R S s T U V W V r X Y Z `  .                                    ",
"              G H ..+.@.r #.$.%.&.*.=.P -.;.>.,.'.).!.~.L S {.].                                    ",
"                k ~ ^./.(.R _.:.<.[.}.|.}.1.2.&.3.3.4.5.6.7.8.9.                                    ",
"                ! 0.a.b.-.}.c.d.5.e.5.f.g.r h.|.&.i.5.j.k.l.m.                                      ",
"              ! n.o.p.!.}.q.r.i.N [.j.q.s.^ t.j.u.v.w.x.k.y.z.                                      ",
"            9.n...A.B.6.5.C.D.Q w @.g.5.E.F.G.'.u.H.I.s.J.7.3 9.                                    ",
"            K.L.# M.N.O.M P.Q.S R.+.s.w.S.T.U.V.W.X.Y.K J.Z.`. +                                    ",
"            9..+++^ !.@+#+$+%+&+*+=+V.-+;+>+,+&+Q h.'+# f Q.)+!+                                    ",
"            ~+{+l.p ]+^+t e /+(+_+:+<+9 [+}+|+(+1+*.z 2+3+4+5+6+9.                                  ",
"            ! 3 7+8+9+0+a+b+(+|+c+}+d+e+(+f+g+|+(+h+i+j+k+l+m+n+].                                  ",
"          9.n.o+p+q+r+s+t+u+|+g+g+f+v+w+}+g+x+g+y+z+A+B+C+D+E+F+ .                                  ",
"          K.L.G+H+I+J+K+L+M+N+O+P+g+|+Q+f+P+R+S+T+U+V+W+X+Y+Z+`+ .                                  ",
"          9.l  @.@+@@@#@$@%@&@*@=@-@;@>@,@=@*@'@U+)@!@~@{@]@^@/@].                                  ",
"            - (@_@:@<@[@}@|@1@2@3@4@5@6@4@7@8@9@0@a@b@c@d@e@f@g@9.                                  ",
"              F h@i@j@k@l@m@n@o@p@q@6@6@q@p@o@n@m@l@k@r@s@h@F t@                                    ",
"              ~+k u@v@w@x@y@z@A@B@C@g+g+D@B@A@z@y@x@E@F@h@G                                         ",
"              G@H@I@J@K@L@M@N@O@P@Q@g+g+Q@P@O@N@M@L@K@R@K.                                          ",
"            G@S@T@U@V@W@X@Y@Z@`@g+g+g+g+g+g+`@Z@Y@X@ #.#!+-                                         ",
"          +#@###$#%#&#*#=#-#;#>#,#c+c+c+c+,#>#;#-#=#*#'#)#!#G@                                      ",
"          ) ~#{#]#^#/#(#_#:#<#[#}#|#|#|#|#}#[#<#:#_#(#1#2#3#S@G@                                    ",
"        +#4#5#6#7#8#9#0#a#b#c#d#e#f#f#f#f#e#d#c#g#h#0#i#j#k#l#@#+#                                  ",
"        m#n#o#p#q#r#s#0#t#u#v#w#x#x#x#x#x#x#w#v#u#t#0#y#z#A#B#C#m.                                  ",
"        z.D#E#F#G#H#1#0#I#J#K#L#M#M#M#M#M#M#L#K#J#I#0#N#8#O#P#Q#4#+#                                ",
"      +#R#T@S#T#U#V#W#0#t#J#J#J#J#J#J#J#J#J#J#J#J#t#0#X#Y#Z#`# $.$+$                                ",
"      +$@$#$$$%$&$*$=$-$;$>$,$'$J#J#J#J#J#J#'$,$>$;$-$)$!$~${$]$^$/$                                ",
"      /$($_$:$<$[$}$|$1$2$3$4$5$'$J#J#J#J#'$6$4$3$2$1$7$8$9$0$a$b$/$                                ",
"      c$d$e$f$g$h$i$j$k$l$m$n$4$o$p$p$p$p$q$r$n$m$l$k$s$t$u$v$%$w$/$                                ",
"      x$y$z$A$B$C$D$E$F$G$H$I$J$K$L$L$L$L$K$J$I$H$G$F$M$N$O$P$Q$R$/$                                ",
"      x$S$T$U$V$W$X$Y$Z$`$ %.%+%@%#%$%$%#%@%+%.%%%`$Z$&%*%=%-%;%C#/$                                ",
"      >%,%'%)%!%~%{%Y$]%^%/%(%_%:%<%[%[%<%:%_%}%|%1%2%3%4%5%6%7%8%/$                                ",
"      F 9%0%a%b%c%d%E$e%f%g%h%h%i%j%k%k%l%m%h%1%n%o%p%q%r%s%t%u%v%c$                                ",
"        G w%x%y%z%A%B%C%D%E%F%G%H%I%J%K%L%M%N%N%O%P%Q%R%S%T%U%V%W%x$                                ",
"          G X%Y%Y%Z%`% &.&+&@&#&$&*#%&&&*&=&-&;&>&,&'&)&!&~&{&]&^&x$                                ",
"            - - - /&(&_&:&<&[&}&|&1&2&3&4&5&6&7&8&9&0&a&b&c&d&L@S$x$                                ",
"                  /$e&f&g&h&i&j&k&l&m&n&o&p&q&r&s&t&u&v&w&x&y&z&,%>%                                ",
"                  /$A&B&C&D&E&F&G&[&H&I&J&l&K&L&M&N&Y+O&P&Q&R&S&9%F                                 ",
"                  K.T&U&V&W&X&F&Y&Z&`& *.*+*@*#*$*%*&***=*-*;*w%G                                   ",
"                  F >*,*'*)*!*~*{*]*^*/*(*_*:*<*[*}*|*1*2*Y%X%G                                     ",
"                  ~+z.3*4*5*5*6*7*8*9*0*a*b*c*d*e*f*g*h*z.- -                                       ",
"                  F i*j*k*l*m*n*h*o*- o*p*q*r*s*t*s*u*v*w*F                                         ",
"                  K.x*y*z*A*B*C*D*K.  >%E*F*G*H*H*H*I*J*K*>%                                        ",
"                F i*L*M*N*O*P*Q*R*i*F F S*T*U*V*V*V*W*X*Y*>%                                        ",
"                >%x*Z*`*G*H*s* =.=x*>%  G +=@=#=$=#=%=&=S*F                                         ",
"                x$*=q*==-=V*V*;=>=.*x$    G X%,=,=,=,=X%G                                           ",
"                >%'=7$)=!=~=!={=]=^=>%      - - - - - -                                             ",
"                F /=(=_=_=_=_=:=<=/=F                                                               "};
