/* XPM */
static char * plrL_xpm[] = {
"50 50 748 2",
"  	c #FFFFFF",
". 	c #FBFAFA",
"+ 	c #D3CECF",
"@ 	c #796667",
"# 	c #CDC9CA",
"$ 	c #E0DFE0",
"% 	c #E3E0E0",
"& 	c #E6E4E4",
"* 	c #D3CECE",
"= 	c #6B5455",
"- 	c #6C2424",
"; 	c #57383A",
"> 	c #503D3F",
", 	c #523D3F",
"' 	c #695859",
") 	c #CEC9CA",
"! 	c #D2CECE",
"~ 	c #635354",
"{ 	c #531518",
"] 	c #882022",
"^ 	c #771A1D",
"/ 	c #540E13",
"( 	c #560F14",
"_ 	c #4E1316",
": 	c #543738",
"< 	c #563E40",
"[ 	c #533D40",
"} 	c #685859",
"| 	c #380F13",
"1 	c #641418",
"2 	c #872021",
"3 	c #922325",
"4 	c #801D1F",
"5 	c #751A1C",
"6 	c #7C1C1E",
"7 	c #6E171B",
"8 	c #5E1216",
"9 	c #520E13",
"0 	c #401114",
"a 	c #4D3637",
"b 	c #D0CBCC",
"c 	c #E7E4E4",
"d 	c #491215",
"e 	c #621317",
"f 	c #841F21",
"g 	c #972526",
"h 	c #912324",
"i 	c #992627",
"j 	c #70181B",
"k 	c #601216",
"l 	c #500D12",
"m 	c #38070C",
"n 	c #3E080D",
"o 	c #441215",
"p 	c #5E3C3C",
"q 	c #7E6F70",
"r 	c #EAE8E8",
"s 	c #605355",
"t 	c #3B1014",
"u 	c #671518",
"v 	c #851F21",
"w 	c #9B2727",
"x 	c #A02829",
"y 	c #9F2828",
"z 	c #9B2728",
"A 	c #8A2122",
"B 	c #9A2627",
"C 	c #821E1F",
"D 	c #5A1015",
"E 	c #6A161A",
"F 	c #631417",
"G 	c #4E0D12",
"H 	c #4F0D12",
"I 	c #4B2E2F",
"J 	c #B7AFB0",
"K 	c #F6F5F5",
"L 	c #942425",
"M 	c #9F2829",
"N 	c #9B2627",
"O 	c #6C161A",
"P 	c #952526",
"Q 	c #6E171A",
"R 	c #5F1216",
"S 	c #811E20",
"T 	c #691519",
"U 	c #40090E",
"V 	c #431114",
"W 	c #665354",
"X 	c #4B1316",
"Y 	c #691619",
"Z 	c #821E20",
"` 	c #7B1C1E",
" .	c #73191C",
"..	c #8F2224",
"+.	c #962526",
"@.	c #70181C",
"#.	c #71181B",
"$.	c #6A171A",
"%.	c #5D1116",
"&.	c #421114",
"*.	c #69595A",
"=.	c #7B6E70",
"-.	c #4C383A",
";.	c #411114",
">.	c #611217",
",.	c #922425",
"'.	c #5D1115",
").	c #7D1D1F",
"!.	c #8D2223",
"~.	c #480C10",
"{.	c #8E2223",
"].	c #912325",
"^.	c #6B171A",
"/.	c #7F1D1F",
"(.	c #661519",
"_.	c #3C080C",
":.	c #5D4141",
"<.	c #E4E1E2",
"[.	c #2E0E11",
"}.	c #932425",
"|.	c #5C1115",
"1.	c #791B1D",
"2.	c #570F14",
"3.	c #611317",
"4.	c #631317",
"5.	c #6F181B",
"6.	c #651418",
"7.	c #6D171A",
"8.	c #550F13",
"9.	c #533F41",
"0.	c #473638",
"a.	c #430A0F",
"b.	c #591518",
"c.	c #4B2623",
"d.	c #461517",
"e.	c #582725",
"f.	c #821F21",
"g.	c #671519",
"h.	c #861F21",
"i.	c #7E1D1F",
"j.	c #74191C",
"k.	c #641318",
"l.	c #621619",
"m.	c #6B433D",
"n.	c #B18C7A",
"o.	c #5E3E3A",
"p.	c #B18C7B",
"q.	c #6D433D",
"r.	c #4B1215",
"s.	c #6A1619",
"t.	c #781B1D",
"u.	c #6D1619",
"v.	c #523638",
"w.	c #502C2A",
"x.	c #CDA891",
"y.	c #DFB99F",
"z.	c #815C53",
"A.	c #D1AB94",
"B.	c #67433D",
"C.	c #4F1315",
"D.	c #902324",
"E.	c #681519",
"F.	c #430A0E",
"G.	c #7F1E20",
"H.	c #4C3738",
"I.	c #664640",
"J.	c #E5BEA4",
"K.	c #F8D0B3",
"L.	c #E9C1A6",
"M.	c #4E2C2A",
"N.	c #661518",
"O.	c #8B2122",
"P.	c #75191B",
"Q.	c #8B2123",
"R.	c #38070B",
"S.	c #9A2728",
"T.	c #771B1D",
"U.	c #614B4A",
"V.	c #FDD5B7",
"W.	c #FCD7BC",
"X.	c #E4C2AC",
"Y.	c #694842",
"Z.	c #3F090D",
"`.	c #6E1E1F",
" +	c #4E2523",
".+	c #310B0E",
"++	c #6B1B1E",
"@+	c #6B595A",
"#+	c #66504F",
"$+	c #DFB79B",
"%+	c #F8CFB2",
"&+	c #F1D4C4",
"*+	c #EDCFBF",
"=+	c #C7A38F",
"-+	c #643D32",
";+	c #551214",
">+	c #350B0E",
",+	c #451F17",
"'+	c #62322D",
")+	c #B18875",
"!+	c #472B29",
"~+	c #4B0C10",
"{+	c #72181B",
"]+	c #653B3C",
"^+	c #E7E6E6",
"/+	c #7A6A6B",
"(+	c #C99477",
"_+	c #F7CEAF",
":+	c #D4997A",
"<+	c #A66C5E",
"[+	c #A47A6F",
"}+	c #C6957D",
"|+	c #BD8466",
"1+	c #623D33",
"2+	c #582824",
"3+	c #B0745A",
"4+	c #7D564B",
"5+	c #C8A28C",
"6+	c #5F3D37",
"7+	c #32080C",
"8+	c #530E13",
"9+	c #543F41",
"0+	c #FBFAFB",
"a+	c #D2CFCF",
"b+	c #7C625F",
"c+	c #E6C0A6",
"d+	c #6E5453",
"e+	c #484248",
"f+	c #75B7C4",
"g+	c #92C3CB",
"h+	c #DAAF94",
"i+	c #CEA58C",
"j+	c #7B5347",
"k+	c #DFAE90",
"l+	c #E8C0A5",
"m+	c #E8B99C",
"n+	c #A86F58",
"o+	c #411B17",
"p+	c #6A5C5E",
"q+	c #E3BFA6",
"r+	c #E6C6AE",
"s+	c #647987",
"t+	c #4E5059",
"u+	c #C8D7DA",
"v+	c #E3E9E6",
"w+	c #F6D1B8",
"x+	c #F3C4A4",
"y+	c #DA9B78",
"z+	c #E9AB83",
"A+	c #EAB699",
"B+	c #CB8C6E",
"C+	c #945041",
"D+	c #584446",
"E+	c #68595A",
"F+	c #6A5A5C",
"G+	c #E0B99E",
"H+	c #E7C6AE",
"I+	c #737373",
"J+	c #707072",
"K+	c #E0D8D3",
"L+	c #FBDCC7",
"M+	c #FBD1B3",
"N+	c #EFB591",
"O+	c #E9A983",
"P+	c #DE9B76",
"Q+	c #B86A57",
"R+	c #8D4439",
"S+	c #5F4648",
"T+	c #CCC7C9",
"U+	c #E8E6E6",
"V+	c #7C6B6C",
"W+	c #C59275",
"X+	c #F3C4A6",
"Y+	c #E5C3AA",
"Z+	c #E5C3AB",
"`+	c #F7D3BB",
" @	c #FDD6B9",
".@	c #FACEAF",
"+@	c #F3C09D",
"@@	c #E09F7A",
"#@	c #B46D54",
"$@	c #502B29",
"%@	c #42383C",
"&@	c #CAC6C7",
"*@	c #E8E5E6",
"=@	c #D6D4D4",
"-@	c #87706D",
";@	c #BC866F",
">@	c #EBBB9E",
",@	c #F9CEAF",
"'@	c #F8C9A8",
")@	c #E5A681",
"!@	c #C77C5E",
"~@	c #934B3D",
"{@	c #421F1E",
"]@	c #382221",
"^@	c #564141",
"/@	c #706162",
"(@	c #D3D0D0",
"_@	c #FAFAFA",
":@	c #F7F6F6",
"<@	c #BCB7B7",
"[@	c #694E4A",
"}@	c #9F5E4D",
"|@	c #DB9A7A",
"1@	c #EFBD9F",
"2@	c #F0C1A5",
"3@	c #DD9F7C",
"4@	c #C77B5E",
"5@	c #954A3C",
"6@	c #501F1D",
"7@	c #3E2727",
"8@	c #645659",
"9@	c #5F5459",
"0@	c #5A5356",
"a@	c #5C575B",
"b@	c #CFCDCE",
"c@	c #D6D1D1",
"d@	c #6D5D5A",
"e@	c #543520",
"f@	c #643624",
"g@	c #92483C",
"h@	c #A05449",
"i@	c #A0554A",
"j@	c #9B4C3F",
"k@	c #8C4136",
"l@	c #371918",
"m@	c #52464A",
"n@	c #948D90",
"o@	c #80787B",
"p@	c #8F888B",
"q@	c #454046",
"r@	c #5B575B",
"s@	c #E4E4E4",
"t@	c #70605F",
"u@	c #583823",
"v@	c #835B30",
"w@	c #734E2A",
"x@	c #512B1C",
"y@	c #4C221B",
"z@	c #4D231B",
"A@	c #4E261C",
"B@	c #422118",
"C@	c #422724",
"D@	c #776E71",
"E@	c #91898B",
"F@	c #908A8B",
"G@	c #8F8688",
"H@	c #5C5256",
"I@	c #3F393E",
"J@	c #CAC8CA",
"K@	c #5E4847",
"L@	c #6D4929",
"M@	c #946A36",
"N@	c #916736",
"O@	c #76512C",
"P@	c #6C4829",
"Q@	c #74502B",
"R@	c #896132",
"S@	c #80592D",
"T@	c #523430",
"U@	c #878183",
"V@	c #7B7478",
"W@	c #9E9597",
"X@	c #8A8183",
"Y@	c #827779",
"Z@	c #3A3237",
"`@	c #5B565A",
" #	c #5F4847",
".#	c #724D2B",
"+#	c #956B36",
"@#	c #9A6F37",
"##	c #926936",
"$#	c #7E5830",
"%#	c #7B552F",
"&#	c #8D6432",
"*#	c #4E2F27",
"=#	c #746A6C",
"-#	c #837A7B",
";#	c #847D80",
">#	c #8A8284",
",#	c #786F73",
"'#	c #53494D",
")#	c #966B36",
"!#	c #966C37",
"~#	c #46281B",
"{#	c #4A3230",
"]#	c #706062",
"^#	c #6F666A",
"/#	c #918A8C",
"(#	c #787074",
"_#	c #6F6467",
":#	c #362C32",
"<#	c #976D38",
"[#	c #825C32",
"}#	c #916835",
"|#	c #8A6231",
"1#	c #5A391D",
"2#	c #3A1D16",
"3#	c #462B2B",
"4#	c #62575B",
"5#	c #787073",
"6#	c #877E81",
"7#	c #756D70",
"8#	c #463E42",
"9#	c #423E42",
"0#	c #704D2B",
"a#	c #9E7845",
"b#	c #9E743E",
"c#	c #9C723A",
"d#	c #9E743D",
"e#	c #9D7643",
"f#	c #7D5831",
"g#	c #78532D",
"h#	c #79542D",
"i#	c #76512B",
"j#	c #4E2E17",
"k#	c #381E1D",
"l#	c #504347",
"m#	c #5D5358",
"n#	c #898082",
"o#	c #71676B",
"p#	c #625A5E",
"q#	c #464145",
"r#	c #5C4647",
"s#	c #59391F",
"t#	c #997342",
"u#	c #A47E48",
"v#	c #A7824C",
"w#	c #A8824D",
"x#	c #A37C46",
"y#	c #956C3A",
"z#	c #6E4A29",
"A#	c #56351A",
"B#	c #533218",
"C#	c #472814",
"D#	c #361B1B",
"E#	c #41363A",
"F#	c #4F4448",
"G#	c #82797B",
"H#	c #5D565A",
"I#	c #444044",
"J#	c #D1CCCD",
"K#	c #543D3D",
"L#	c #4B2C19",
"M#	c #775431",
"N#	c #966D3B",
"O#	c #A17B48",
"P#	c #A27D4A",
"Q#	c #936B3A",
"R#	c #78532C",
"S#	c #6D4928",
"T#	c #55351A",
"U#	c #482814",
"V#	c #462714",
"W#	c #412416",
"X#	c #533D3D",
"Y#	c #ABA5A7",
"Z#	c #433D41",
"`#	c #584E52",
" $	c #898183",
".$	c #61585C",
"+$	c #D5D1D2",
"@$	c #6D5E60",
"#$	c #31181A",
"$$	c #371F1D",
"%$	c #524442",
"&$	c #74543B",
"*$	c #826549",
"=$	c #88674A",
"-$	c #745238",
";$	c #593925",
">$	c #523624",
",$	c #492D21",
"'$	c #361E1B",
")$	c #291B20",
"!$	c #261A20",
"~$	c #4E464B",
"{$	c #BFBBBD",
"]$	c #433E42",
"^$	c #4C4245",
"/$	c #70686C",
"($	c #696063",
"_$	c #453E43",
":$	c #CDCBCC",
"<$	c #746567",
"[$	c #864038",
"}$	c #803630",
"|$	c #401B1B",
"1$	c #353139",
"2$	c #59585C",
"3$	c #909D93",
"4$	c #91A194",
"5$	c #5D5B5E",
"6$	c #48464B",
"7$	c #48464A",
"8$	c #444349",
"9$	c #322E38",
"0$	c #2B2835",
"a$	c #292532",
"b$	c #4E464C",
"c$	c #BDBABD",
"d$	c #413D41",
"e$	c #3B2524",
"f$	c #463738",
"g$	c #443739",
"h$	c #30272F",
"i$	c #6A6266",
"j$	c #655052",
"k$	c #AE664F",
"l$	c #964439",
"m$	c #421A1A",
"n$	c #261D26",
"o$	c #45464C",
"p$	c #859592",
"q$	c #696769",
"r$	c #46484F",
"s$	c #33333E",
"t$	c #32303A",
"u$	c #2A1F26",
"v$	c #271B21",
"w$	c #221820",
"x$	c #ABA6A8",
"y$	c #644E4A",
"z$	c #C08D70",
"A$	c #DCB59B",
"B$	c #CCA893",
"C$	c #584644",
"D$	c #544A4F",
"E$	c #665254",
"F$	c #B66F55",
"G$	c #99483C",
"H$	c #501E1D",
"I$	c #27161C",
"J$	c #362D32",
"K$	c #676168",
"L$	c #666169",
"M$	c #676169",
"N$	c #33292E",
"O$	c #251920",
"P$	c #29191E",
"Q$	c #3F2215",
"R$	c #2D1111",
"S$	c #1C1219",
"T$	c #5C4746",
"U$	c #C28C6F",
"V$	c #F3C5A7",
"W$	c #F8D1B5",
"X$	c #C8A18B",
"Y$	c #645558",
"Z$	c #A2483D",
"`$	c #82332F",
" %	c #441D1A",
".%	c #523422",
"+%	c #472D21",
"@%	c #482C24",
"#%	c #4D2F21",
"$%	c #442716",
"%%	c #442511",
"&%	c #41220D",
"*%	c #452513",
"=%	c #371913",
"-%	c #2D0F0F",
";%	c #13060C",
">%	c #492F2D",
",%	c #CB8F71",
"'%	c #F8CCAE",
")%	c #FDD7BB",
"!%	c #F4D8C7",
"~%	c #C7917B",
"{%	c #894038",
"]%	c #913C36",
"^%	c #81332F",
"/%	c #3D1816",
"(%	c #371B15",
"_%	c #3D1E14",
":%	c #5B3A23",
"<%	c #644024",
"[%	c #654123",
"}%	c #644023",
"|%	c #523117",
"1%	c #4B2A13",
"2%	c #442513",
"3%	c #351613",
"4%	c #14060C",
"5%	c #3D2222",
"6%	c #A76051",
"7%	c #F0BFA0",
"8%	c #FCD4B6",
"9%	c #EDC3A8",
"0%	c #B67E66",
"a%	c #736467",
"b%	c #5F4D4F",
"c%	c #534245",
"d%	c #1D1319",
"e%	c #29191D",
"f%	c #321717",
"g%	c #412522",
"h%	c #492F2A",
"i%	c #412119",
"j%	c #4E2E18",
"k%	c #5C3A23",
"l%	c #4A2B16",
"m%	c #361812",
"n%	c #331411",
"o%	c #1A0F15",
"p%	c #503C3E",
"q%	c #8F493E",
"r%	c #CA9173",
"s%	c #DCB094",
"t%	c #BB866F",
"u%	c #856E6D",
"v%	c #423638",
"w%	c #200B11",
"x%	c #402123",
"y%	c #64494C",
"z%	c #7C6D6F",
"A%	c #462D2C",
"B%	c #361C19",
"C%	c #381F1A",
"D%	c #361B18",
"E%	c #331917",
"F%	c #331715",
"G%	c #3C3438",
"H%	c #B1ACAE",
"I%	c #675354",
"J%	c #69585A",
"K%	c #7B6A6C",
"L%	c #614141",
"M%	c #5E1113",
"N%	c #9D2121",
"O%	c #A3302F",
"P%	c #764E51",
"Q%	c #463A3E",
"R%	c #392A2B",
"S%	c #382B2C",
"T%	c #392B2B",
"U%	c #3C2D2F",
"V%	c #2E2328",
"W%	c #2D2329",
"X%	c #DBDADB",
"Y%	c #644141",
"Z%	c #641315",
"`%	c #9D1D1E",
" &	c #A61F21",
".&	c #912122",
"+&	c #361419",
"@&	c #1E141A",
"#&	c #3E3237",
"$&	c #282026",
"%&	c #3D2F31",
"&&	c #251B21",
"*&	c #413539",
"=&	c #5E595D",
"-&	c #5C4344",
";&	c #35181A",
">&	c #482124",
",&	c #541E22",
"'&	c #7A191B",
")&	c #530E12",
"!&	c #1D070C",
"~&	c #190E14",
"{&	c #110810",
"]&	c #191015",
"^&	c #23171C",
"/&	c #3E3538",
"(&	c #B7B2B3",
"_&	c #CCC8C9",
":&	c #4E4142",
"<&	c #372222",
"[&	c #66403E",
"}&	c #553230",
"|&	c #401A1D",
"1&	c #3F0F11",
"2&	c #330F0F",
"3&	c #25161A",
"4&	c #23161B",
"5&	c #26181B",
"6&	c #352220",
"7&	c #3A2423",
"8&	c #765F5D",
"9&	c #6F676B",
"0&	c #594C50",
"a&	c #54464A",
"b&	c #3E2929",
"c&	c #583834",
"d&	c #764C45",
"e&	c #5D3B35",
"f&	c #2F1C1B",
"g&	c #2A171B",
"h&	c #2B191D",
"i&	c #281A1E",
"j&	c #261A19",
"k&	c #231916",
"l&	c #271A19",
"m&	c #362320",
"n&	c #524343",
"o&	c #D1CDCE",
"p&	c #603E3D",
"q&	c #744C47",
"r&	c #7A4F4B",
"s&	c #7D514A",
"t&	c #82534D",
"u&	c #734A44",
"v&	c #382322",
"w&	c #2A1B1F",
"x&	c #2C1B21",
"y&	c #2E1C21",
"z&	c #261A17",
"A&	c #231915",
"B&	c #392928",
"C&	c #6B6266",
"D&	c #402C29",
"E&	c #714945",
"F&	c #8C5B55",
"G&	c #875851",
"H&	c #855650",
"I&	c #7C4F4A",
"J&	c #573734",
"K&	c #321F22",
"L&	c #382423",
"M&	c #3A2523",
"N&	c #372422",
"O&	c #281B19",
"P&	c #D4D1D2",
"Q&	c #665D61",
"R&	c #412C29",
"S&	c #83554E",
"T&	c #84564F",
"U&	c #704A40",
"V&	c #372327",
"W&	c #392523",
"X&	c #362322",
"Y&	c #3A2928",
"Z&	c #6C6366",
"`&	c #534549",
" *	c #452E2D",
".*	c #704945",
"+*	c #724845",
"@*	c #5A3A38",
"#*	c #524447",
"$*	c #54494E",
"%*	c #54494D",
"&*	c #52494D",
"**	c #4D4247",
"=*	c #362227",
"-*	c #372227",
";*	c #CDC8C9",
"                                                  . + @ # $ % & .                                   ",
"                                                . * = - ; > , ' ) % % % & .                         ",
"                                              . ! ~ { ] ^ / ( _ : < [ , } ) & .                     ",
"                                            . * ~ | 1 2 3 4 5 6 ^ 7 8 9 0 a ' b c .                 ",
"                                          . ! ~ d e f g h i g i ] j k l m n o p q r                 ",
"                                        . ! s t u v w x y z A i B C D E F G H I J K                 ",
"                                      . * ~ t ^ L i B M N g O 2 B P Q R S T U V W * .               ",
"                                  . & ) W X Y L P Z ` h  ...+.i h B 3 @.#.S $.%.&.*.c               ",
"                                  r =.-.;.>.,.i Q '.).!.~.'.{.i g A ].A ^.e /.(._.:.<.              ",
"                                  . ! s [.l }.!./ |.1.{.2.3.4.5.{.e R 7  .6.8 7.8.9.%               ",
"                                    . ) 0.a.S b.c.d.e.f.g.` ] 6.h.i.).1.k j.k.8.d } &               ",
"                                      % [ 3.l.m.n.o.p.q.r.s...6 e ` }.i.e t.#.u.v.) .               ",
"                                      & ' o w.x.y.z.y.A.B.C.i.D.E.e {.u F.G.3 t.< %                 ",
"                                      . ) H.I.J.K.L.K.K.x.M.N.O.Y P.Q.l R.2 S.T.< %                 ",
"                                        % U.x.K.V.V.V.W.X.Y.C.Q Z.G `. +.+u !.++@+&                 ",
"                                        % #+$+V.V.V.%+&+*+=+-+;+>+,+'+)+!+~+{+]+b .                 ",
"                                        ^+/+(+_+V._+:+<+[+}+|+1+2+3+4+5+6+7+8+9+%                   ",
"                                        0+a+b+c+V.c+d+e+f+g+h+i+j+k+l+m+n+o+0 } &                   ",
"                                          <.p+q+V.r+s+t+u+v+w+x+y+z+A+B+C+D+E+* .                   ",
"                                          <.F+G+V.H+I+J+K+L+M+N+O+P+Q+R+S+T+c .                     ",
"                                          U+V+W+X+K.Y+Z+`+ @V..@+@@@#@$@%@&@*@.                     ",
"                                          0+=@-@;@>@,@V.V.V.V.'@)@!@~@{@]@^@/@(@_@                  ",
"                                            :@<@[@}@|@1@2@2@1@3@4@5@6@7@8@9@0@a@b@_@                ",
"                                          . c@d@e@f@g@h@i@i@h@j@k@6@l@m@n@o@p@q@r@s@                ",
"                                          *@t@u@v@w@x@y@y@y@y@z@A@B@C@D@E@F@G@H@I@J@_@              ",
"                                          <.K@L@M@N@O@P@P@P@P@Q@R@S@T@U@V@W@X@Y@Z@`@s@              ",
"                                          <. #.#+#@###$#%#%#$###@#&#*#=#-#;#>#,#'#I@J@_@            ",
"                                          <. #.#+#@#@#)#+#+#)#!#@#&#~#{#]#^#/#(#_#:#`@s@            ",
"                                          <. #.#<#@#@#@#@#@#<#[#}#|#1#2#3#4#5#6#7#8#9#$             ",
"                                          <.K@0#a#b#c#c#c#d#e#f#g#h#i#j#k#l#m#n#o#p#q#$             ",
"                                          <.r#s#t#u#v#w#v#x#y#h#z#A#B#C#D#E#F#o#G#H#I#$             ",
"                                        0+J#K#L#M#N#O#P#O#Q#R#S#T#U#V#W#X#Y#Z#`# $.$I#$             ",
"                                      0++$@$#$$$%$&$*$=$*$-$;$>$,$'$)$!$~${$]$^$/$($_$:$0+          ",
"                                      U+<$[$}$|$1$2$3$4$3$5$6$7$8$9$0$a$b$c$d$e$f$g$h$i$U+          ",
"                                      <.j$k$l$m$n$o$p$q$p$r$s$s$t$u$v$w$_$x$y$z$A$B$C$D$<.          ",
"                                      <.E$F$G$H$I$J$K$L$M$N$O$O$P$W#Q$R$S$T$U$V$V.W$X$Y$<.          ",
"                                      <.j$k$Z$`$ %.%+%@%#%$%%%&%&%*%=%-%;%>%,%'%)%!%~%E$<.          ",
"                                      U+<${%]%^%/%(%_%:%<%[%}%|%1%2%3%-%4%5%6%7%8%9%0%/+U+          ",
"                                      0++$a%b%c%d%e%f%g%h%i%j%k%l%m%n%-%o%p%q%r%s%t%u%=@0+          ",
"                                        0+U+<.&@v%w%x%y%z%A%B%C%D%E%F%R$G%H%<$I%J%K%=@0+            ",
"                                              <.L%M%N%O%P%Q%R%S%T%U%V%W%d$X%U+<.<.U+0+              ",
"                                              <.Y%Z%`% &.&+&@&#&$&%&&&*&=&s@                        ",
"                                              <.-&;&>&,&'&)&!&~&{&]&^&/&(&K                         ",
"                                        0+U+<._&:&<&[&}&|&1&2&3&4&5&6&7&8&*@                        ",
"                                        U+9&0&a&b&c&d&e&f&g&h&i&j&k&l&m&n&o&0+                      ",
"                                        <.0&p&q&r&s&t&u&v&w&x&y&6&z&A&z&B&C&U+                      ",
"                                        U+C&D&E&F&G&H&I&J&K&L&M&N&l&A&A&O&'#<.                      ",
"                                        0+P&Q&R&E&S&F&T&U&V&L&W&X&l&A&z&Y&Z&U+                      ",
"                                          0+P&C&`& *.*+*@*#*$*$*%*'#&*'#Z&+$0+                      ",
"                                            0+U+_&**=*-*#*;*<.<.<.<.<.<.U+0+                        "};
