/* XPM */
static char * plrR_xpm[] = {
"50 50 725 2",
"  	c #FFFFFF",
". 	c #FDFDFD",
"+ 	c #EEECED",
"@ 	c #B5AEAE",
"# 	c #EFEDED",
"$ 	c #ACA4A5",
"% 	c #9F9798",
"& 	c #948687",
"* 	c #683E3E",
"= 	c #A29696",
"- 	c #908586",
"; 	c #4A292A",
"> 	c #410F13",
", 	c #3E0F13",
"' 	c #5B1518",
") 	c #7C1D1F",
"! 	c #542A2B",
"~ 	c #9E9495",
"{ 	c #49292A",
"] 	c #441014",
"^ 	c #4B1115",
"/ 	c #561418",
"( 	c #641418",
"_ 	c #661518",
": 	c #6C1619",
"< 	c #8C2123",
"[ 	c #892122",
"} 	c #5A1115",
"| 	c #3F282A",
"1 	c #9D9596",
"2 	c #F0EFEF",
"3 	c #AEA5A6",
"4 	c #988889",
"5 	c #48292A",
"6 	c #340B0F",
"7 	c #38070C",
"8 	c #520E12",
"9 	c #631317",
"0 	c #73191C",
"a 	c #831E20",
"b 	c #902324",
"c 	c #8B2123",
"d 	c #932425",
"e 	c #8F2224",
"f 	c #4A0C11",
"g 	c #4A2829",
"h 	c #F0EEEE",
"i 	c #9D9293",
"j 	c #4A2727",
"k 	c #4B0D12",
"l 	c #460B10",
"m 	c #4A0C10",
"n 	c #5E1216",
"o 	c #5C1115",
"p 	c #761A1D",
"q 	c #912325",
"r 	c #9C2728",
"s 	c #972526",
"t 	c #982627",
"u 	c #751A1C",
"v 	c #540F13",
"w 	c #9C9192",
"x 	c #472425",
"y 	c #440A0F",
"z 	c #5B1115",
"A 	c #781B1E",
"B 	c #671518",
"C 	c #611317",
"D 	c #8D2223",
"E 	c #74191C",
"F 	c #992627",
"G 	c #A02929",
"H 	c #A12929",
"I 	c #9E2828",
"J 	c #821E20",
"K 	c #581115",
"L 	c #9F9595",
"M 	c #4B2829",
"N 	c #4F0E12",
"O 	c #520E13",
"P 	c #7B1C1E",
"Q 	c #7D1C1F",
"R 	c #9B2727",
"S 	c #962526",
"T 	c #801D20",
"U 	c #972626",
"V 	c #8C2223",
"W 	c #9A2627",
"X 	c #500E13",
"Y 	c #E4E1E1",
"Z 	c #5B4242",
"` 	c #3B090D",
" .	c #751A1D",
"..	c #6A161A",
"+.	c #9A2727",
"@.	c #952426",
"#.	c #952526",
"$.	c #771A1D",
"%.	c #8E2224",
"&.	c #791B1E",
"*.	c #6D171A",
"=.	c #851F21",
"-.	c #581015",
";.	c #ADA5A6",
">.	c #E3E1E1",
",.	c #5B4040",
"'.	c #490C10",
").	c #71181B",
"!.	c #5F1216",
"~.	c #72181B",
"{.	c #872022",
"].	c #560F13",
"^.	c #4B0C11",
"/.	c #8F2324",
"(.	c #811E20",
"_.	c #5D1115",
":.	c #36070C",
"<.	c #3D2A2C",
"[.	c #9E9597",
"}.	c #E3E0E0",
"|.	c #533F41",
"1.	c #601217",
"2.	c #691619",
"3.	c #70181B",
"4.	c #691519",
"5.	c #6E171A",
"6.	c #651418",
"7.	c #72191B",
"8.	c #6F181B",
"9.	c #641619",
"0.	c #500F13",
"a.	c #430C10",
"b.	c #741A1C",
"c.	c #450B0F",
"d.	c #382427",
"e.	c #9D9495",
"f.	c #4B2526",
"g.	c #781B1D",
"h.	c #621317",
"i.	c #7F1D1F",
"j.	c #831F21",
"k.	c #6F171B",
"l.	c #5B1116",
"m.	c #692424",
"n.	c #805B51",
"o.	c #522C29",
"p.	c #7E5C51",
"q.	c #522321",
"r.	c #550F13",
"s.	c #503D3F",
"t.	c #DFDEDF",
"u.	c #E1DEDF",
"v.	c #563D3F",
"w.	c #811D20",
"x.	c #791B1D",
"y.	c #942425",
"z.	c #6C161A",
"A.	c #8A2122",
"B.	c #8A2123",
"C.	c #4B2220",
"D.	c #9E7B6B",
"E.	c #CFA891",
"F.	c #654742",
"G.	c #9F7A6A",
"H.	c #561F1F",
"I.	c #561014",
"J.	c #543F41",
"K.	c #E2E0E0",
"L.	c #563E40",
"M.	c #7C1C1F",
"N.	c #3C080D",
"O.	c #4D201F",
"P.	c #9E7A6B",
"Q.	c #EDC5AA",
"R.	c #EEC6AA",
"S.	c #B8927F",
"T.	c #E0BAA0",
"U.	c #4E332F",
"V.	c #442526",
"W.	c #564042",
"X.	c #72191C",
"Y.	c #34070B",
"Z.	c #801E20",
"`.	c #801D1F",
" +	c #591115",
".+	c #513330",
"++	c #E0BAA1",
"@+	c #FDD5B7",
"#+	c #FCD4B6",
"$+	c #EEC7AB",
"%+	c #9D7A6B",
"&+	c #584344",
"*+	c #A19696",
"=+	c #682B2B",
"-+	c #581014",
";+	c #3C1C1B",
">+	c #845A4F",
",+	c #642724",
"'+	c #3A0A0D",
")+	c #32060B",
"!+	c #601317",
"~+	c #4F2220",
"{+	c #9D7F71",
"]+	c #ECD2C0",
"^+	c #FBDECB",
"/+	c #FDD6BA",
"(+	c #E0B99F",
"_+	c #654E4D",
":+	c #E2DFDF",
"<+	c #604040",
"[+	c #4D322E",
"}+	c #C19A85",
"|+	c #623C35",
"1+	c #794737",
"2+	c #441A19",
"3+	c #4F1E1A",
"4+	c #99624D",
"5+	c #D09F84",
"6+	c #D2A595",
"7+	c #D5A796",
"8+	c #EFBB9B",
"9+	c #FBD3B6",
"0+	c #FCD2B3",
"a+	c #D9AA8D",
"b+	c #6A5554",
"c+	c #391011",
"d+	c #8C5A4B",
"e+	c #DCB197",
"f+	c #B6907B",
"g+	c #CE9678",
"h+	c #643A33",
"i+	c #9A7462",
"j+	c #D49D7D",
"k+	c #A2A8A2",
"l+	c #818D94",
"m+	c #734B46",
"n+	c #A06F5B",
"o+	c #FDD6B8",
"p+	c #A17868",
"q+	c #A9A1A1",
"r+	c #F1F0F0",
"s+	c #46292A",
"t+	c #43231F",
"u+	c #AC6753",
"v+	c #E5AB8B",
"w+	c #F6C9AA",
"x+	c #E4B291",
"y+	c #AF7C63",
"z+	c #EAC0A2",
"A+	c #EAC4AA",
"B+	c #B5DEE4",
"C+	c #9BCFD8",
"D+	c #444850",
"E+	c #606772",
"F+	c #E5C3AA",
"G+	c #E2BFA6",
"H+	c #6E5C5D",
"I+	c #E3E0E1",
"J+	c #ACA5A6",
"K+	c #958C8D",
"L+	c #764642",
"M+	c #B46855",
"N+	c #CF8F79",
"O+	c #E5A17A",
"P+	c #E7A67F",
"Q+	c #F1BB98",
"R+	c #FBD4B9",
"S+	c #F7E6D9",
"T+	c #DAD9D8",
"U+	c #575A60",
"V+	c #62707D",
"W+	c #E7C6AE",
"X+	c #E2BEA5",
"Y+	c #6C5C5C",
"Z+	c #E4E1E2",
"`+	c #574A4D",
" @	c #6F3731",
".@	c #B76954",
"+@	c #E09C78",
"@@	c #EDB593",
"#@	c #F2BF9E",
"$@	c #FCD2B4",
"%@	c #FCD8BD",
"&@	c #EBD4C6",
"*@	c #AE9B90",
"=@	c #AE9B8D",
"-@	c #EECBB2",
";@	c #FBD1B3",
">@	c #6C595A",
",@	c #E4E2E2",
"'@	c #A39999",
")@	c #432F31",
"!@	c #462520",
"~@	c #A9604B",
"{@	c #D8916E",
"]@	c #F0B995",
"^@	c #FBD1B2",
"/@	c #FBD4B6",
"(@	c #F9CFB1",
"_@	c #DFAA8E",
":@	c #A07666",
"<@	c #A9A2A2",
"[@	c #EEEDED",
"}@	c #9A9698",
"|@	c #4F4143",
"1@	c #4D3B3D",
"2@	c #453132",
"3@	c #723630",
"4@	c #B2644F",
"5@	c #D9926F",
"6@	c #F1B995",
"7@	c #EFBA9A",
"8@	c #CA9078",
"9@	c #90655B",
"0@	c #A79F9F",
"a@	c #EFEEEF",
"b@	c #EFEEEE",
"c@	c #9A9799",
"d@	c #534E52",
"e@	c #5F5A5F",
"f@	c #847C7F",
"g@	c #635B5F",
"h@	c #584242",
"i@	c #753931",
"j@	c #B1634F",
"k@	c #C57B60",
"l@	c #CF8F78",
"m@	c #CF917D",
"n@	c #BA7059",
"o@	c #773C30",
"p@	c #523A36",
"q@	c #A19796",
"r@	c #FBFBFB",
"s@	c #C7C4C5",
"t@	c #4F494D",
"u@	c #696165",
"v@	c #81797D",
"w@	c #9D9396",
"x@	c #837A7D",
"y@	c #6E6466",
"z@	c #452625",
"A@	c #6C2B27",
"B@	c #6D2C28",
"C@	c #682E26",
"D@	c #653D22",
"E@	c #6B4725",
"F@	c #583C33",
"G@	c #A49999",
"H@	c #ECECEC",
"I@	c #817D7E",
"J@	c #5A5254",
"K@	c #72696D",
"L@	c #968F92",
"M@	c #8D8486",
"N@	c #938A8E",
"O@	c #6B6266",
"P@	c #412724",
"Q@	c #5F3D23",
"R@	c #593721",
"S@	c #563420",
"T@	c #5C3B22",
"U@	c #835C31",
"V@	c #906735",
"W@	c #623F26",
"X@	c #5D4948",
"Y@	c #E0E0E0",
"Z@	c #454144",
"`@	c #534A4D",
" #	c #7D7476",
".#	c #938C8F",
"+#	c #857C7F",
"@#	c #877F82",
"##	c #4F4144",
"$#	c #44251B",
"%#	c #8A6131",
"&#	c #875F33",
"*#	c #77512D",
"=#	c #75502D",
"-#	c #976D37",
";#	c #956B36",
">#	c #724D2B",
",#	c #5F4947",
"'#	c #E0DFE0",
")#	c #433F43",
"!#	c #595155",
"~#	c #8D8488",
"{#	c #7B7377",
"]#	c #8B8386",
"^#	c #60585C",
"/#	c #39201F",
"(#	c #432417",
"_#	c #8D6432",
":#	c #8A6234",
"<#	c #886033",
"[#	c #986D37",
"}#	c #9A6F37",
"|#	c #474246",
"1#	c #70686B",
"2#	c #8B8285",
"3#	c #7E7578",
"4#	c #7F777A",
"5#	c #372E33",
"6#	c #311514",
"7#	c #4C2D1A",
"8#	c #8B6231",
"9#	c #8C6435",
"0#	c #6D6365",
"a#	c #797074",
"b#	c #948A8D",
"c#	c #736B6F",
"d#	c #221A20",
"e#	c #391B13",
"f#	c #6C4827",
"g#	c #815A2F",
"h#	c #7E5831",
"i#	c #9B733F",
"j#	c #9C713A",
"k#	c #734F2C",
"l#	c #454145",
"m#	c #7B7275",
"n#	c #91888C",
"o#	c #7A7175",
"p#	c #393338",
"q#	c #3C2019",
"r#	c #6A4626",
"s#	c #75502C",
"t#	c #7C5630",
"u#	c #9C7441",
"v#	c #A27A43",
"w#	c #A27A44",
"x#	c #A37B45",
"y#	c #9F7A47",
"z#	c #654328",
"A#	c #5C4746",
"B#	c #979396",
"C#	c #413A40",
"D#	c #736B6E",
"E#	c #797175",
"F#	c #8C8386",
"G#	c #5A5154",
"H#	c #371E1E",
"I#	c #41251C",
"J#	c #5B3B23",
"K#	c #724E2B",
"L#	c #886134",
"M#	c #9F7743",
"N#	c #A8834D",
"O#	c #A9844F",
"P#	c #9F7843",
"Q#	c #8B6437",
"R#	c #53321C",
"S#	c #5C4847",
"T#	c #E2DFE0",
"U#	c #4D474A",
"V#	c #494144",
"W#	c #736A6E",
"X#	c #8F878A",
"Y#	c #756C6F",
"Z#	c #452725",
"`#	c #5B2B27",
" $	c #462921",
".$	c #503326",
"+$	c #5D3D28",
"@$	c #825C32",
"#$	c #906B3E",
"$$	c #906B3F",
"%$	c #856037",
"&$	c #664B3C",
"*$	c #533932",
"=$	c #A49998",
"-$	c #9E999B",
";$	c #362F33",
">$	c #706668",
",$	c #6D6669",
"'$	c #8C8283",
")$	c #6C4E4B",
"!$	c #AD6C57",
"~$	c #9F6956",
"{$	c #8B5A4A",
"]$	c #7F5142",
"^$	c #5F4434",
"/$	c #867F6E",
"($	c #8E8B78",
"_$	c #878270",
":$	c #67544E",
"<$	c #403C42",
"[$	c #594848",
"}$	c #423E41",
"|$	c #40383D",
"1$	c #4F464B",
"2$	c #776D70",
"3$	c #AC9689",
"4$	c #E9B89B",
"5$	c #F1C6AB",
"6$	c #E6BBA5",
"7$	c #D59E84",
"8$	c #7B4D44",
"9$	c #6C6B68",
"0$	c #78827C",
"a$	c #8CA49C",
"b$	c #505459",
"c$	c #2F292F",
"d$	c #584647",
"e$	c #413D41",
"f$	c #292127",
"g$	c #30292E",
"h$	c #493839",
"i$	c #D2A187",
"j$	c #F8D3B9",
"k$	c #FBE6D8",
"l$	c #FBDFCC",
"m$	c #F2C6AA",
"n$	c #B16E59",
"o$	c #482E30",
"p$	c #58545B",
"q$	c #748085",
"r$	c #3C393F",
"s$	c #24181E",
"t$	c #584546",
"u$	c #403539",
"v$	c #29171A",
"w$	c #362323",
"x$	c #885B4F",
"y$	c #DDAB8E",
"z$	c #FAD8C0",
"A$	c #FDD7BB",
"B$	c #F8CCAE",
"C$	c #C98D71",
"D$	c #4F3332",
"E$	c #4E4145",
"F$	c #594646",
"G$	c #4A322B",
"H$	c #39201B",
"I$	c #554A4C",
"J$	c #3F2625",
"K$	c #553828",
"L$	c #593929",
"M$	c #8E614F",
"N$	c #DCA98D",
"O$	c #ECB593",
"P$	c #B6735B",
"Q$	c #452828",
"R$	c #351917",
"S$	c #513222",
"T$	c #4E2E21",
"U$	c #3E1F16",
"V$	c #594545",
"W$	c #463E40",
"X$	c #3B211E",
"Y$	c #55351E",
"Z$	c #6B4829",
"`$	c #5D3C2B",
" %	c #83584B",
".%	c #9D7A69",
"+%	c #916250",
"@%	c #68332E",
"#%	c #39191C",
"$%	c #361815",
"%%	c #4D2F25",
"&%	c #493536",
"*%	c #423132",
"=%	c #44383B",
"-%	c #413D40",
";%	c #30262A",
">%	c #544546",
",%	c #3E231F",
"'%	c #513120",
")%	c #503020",
"!%	c #361C1A",
"~%	c #30191C",
"{%	c #2F181A",
"]%	c #341E20",
"^%	c #4B393A",
"/%	c #3A272B",
"(%	c #55484A",
"_%	c #4A4346",
":%	c #3E3539",
"<%	c #261D23",
"[%	c #4B4144",
"}%	c #514041",
"|%	c #2A2025",
"1%	c #655A5E",
"2%	c #625254",
"3%	c #584A4C",
"4%	c #473234",
"5%	c #402E31",
"6%	c #412E2F",
"7%	c #413033",
"8%	c #5C5154",
"9%	c #484044",
"0%	c #63595C",
"a%	c #41383D",
"b%	c #442123",
"c%	c #2F0B10",
"d%	c #A29A9C",
"e%	c #4A2C2D",
"f%	c #4C1316",
"g%	c #3C3034",
"h%	c #4F474B",
"i%	c #51484D",
"j%	c #61575A",
"k%	c #514649",
"l%	c #585156",
"m%	c #473F42",
"n%	c #50484A",
"o%	c #453E42",
"p%	c #332C32",
"q%	c #392B2F",
"r%	c #412326",
"s%	c #561B1C",
"t%	c #3B181A",
"u%	c #453537",
"v%	c #A19B9D",
"w%	c #A29C9E",
"x%	c #46383B",
"y%	c #311A1C",
"z%	c #4E171A",
"A%	c #2C1114",
"B%	c #3C0C11",
"C%	c #1C0F14",
"D%	c #392F32",
"E%	c #2F272C",
"F%	c #3D373A",
"G%	c #292126",
"H%	c #3A3236",
"I%	c #383238",
"J%	c #776F72",
"K%	c #3D292A",
"L%	c #3A1214",
"M%	c #401518",
"N%	c #2D1919",
"O%	c #2F201E",
"P%	c #46383A",
"Q%	c #948C8E",
"R%	c #A39D9E",
"S%	c #AFAAAC",
"T%	c #32221F",
"U%	c #3A2421",
"V%	c #291A1A",
"W%	c #2D1819",
"X%	c #461619",
"Y%	c #3A2E32",
"Z%	c #898688",
"`%	c #9B9698",
" &	c #989698",
".&	c #A6A4A5",
"+&	c #DFDCDD",
"@&	c #A59797",
"#&	c #413236",
"$&	c #301F1F",
"%&	c #251817",
"&&	c #241815",
"*&	c #30201D",
"=&	c #452D2C",
"-&	c #5B3C3B",
";&	c #543F40",
">&	c #A39C9E",
",&	c #564C4F",
"'&	c #32211F",
")&	c #422A28",
"!&	c #5C3936",
"~&	c #241816",
"{&	c #3E3135",
"]&	c #9E989A",
"^&	c #EDECED",
"/&	c #FDFCFC",
"(&	c #FEFEFE",
"_&	c #544A4D",
":&	c #342222",
"<&	c #271A18",
"[&	c #231815",
"}&	c #2F1F1D",
"|&	c #65403B",
"1&	c #6D4640",
"2&	c #4B302E",
"3&	c #584E51",
"4&	c #E4E2E3",
"5&	c #544B4F",
"6&	c #2A1C1A",
"7&	c #583632",
"8&	c #744B45",
"9&	c #593835",
"0&	c #422927",
"a&	c #463637",
"b&	c #91898B",
"c&	c #AFA9AB",
"d&	c #2D1E1C",
"e&	c #261A17",
"f&	c #432A27",
"g&	c #613D38",
"h&	c #4D312D",
"i&	c #493A3B",
"j&	c #A19C9E",
"k&	c #403536",
"l&	c #452B29",
"m&	c #7A4E47",
"n&	c #805248",
"o&	c #6E4640",
"p&	c #63403C",
"q&	c #553838",
"r&	c #443739",
"s&	c #281B19",
"t&	c #412926",
"u&	c #42292A",
"v&	c #48393C",
"w&	c #433638",
"x&	c #543533",
"y&	c #6E4740",
"z&	c #86574F",
"A&	c #895B54",
"B&	c #7D534C",
"C&	c #482D2C",
"D&	c #3E3436",
"E&	c #291D1E",
"F&	c #2C1F1F",
"G&	c #46393B",
"H&	c #413637",
"I&	c #442D2C",
"J&	c #603E3D",
"K&	c #64413E",
"L&	c #554041",
"M&	c #ACA7A9",
"N&	c #9F989A",
"O&	c #9F999A",
"P&	c #ADA7A9",
"                                                        . . . + @ #                                 ",
"                                              . . . . # $ % % & * = #                               ",
"                                          . # $ % % % - ; > , ' ) ! ~ #                             ",
"                                      . # $ - { ] ^ / ' ( _ : < [ } | 1 #                           ",
"                                    2 3 4 5 6 7 8 9 0 a b c b d e 0 f g ~ #                         ",
"                                    h i j k l m n o p q r s r t r q u v | 1 #                       ",
"                                    # w x y z A B C D r b E F G H I d J K | 1 #                     ",
"                                  2 L M N O P Q 9 J R S e T U V W V d r c X g ~ # .                 ",
"                                  Y Z ` 9 P  ...J +.@.#.I +.$.} %.&.*.=.W J -.M - ;.2               ",
"                                  >.,.'.*.).!.~.T $.).#.{.E ].^./.(._.C #.s o :.<.[.2               ",
"                                  }.|.N 1.o *.2.3.4.5.%.6.7.8.( V 9.0.a.b.D c.d.e.#                 ",
"                                  2 ~ f.n 2.g.h.i.q j.u k.d $.l.m.n.o.p.q.7.r.s.t.                  ",
"                                    u.v.u w.x.v u y.z.C A.B.z C.D.E.F.E.G.H.I.J.K.                  ",
"                                    }.L.M.W {.N.z %.*.5.d 0 O.P.Q.R.S.R.T.U.V.~ 2                   ",
"                                    }.W.X.t P Y.a.Z.B I.`. +.+++@+@+#+@+$+%+&+u.                    ",
"                                    2 *+=+J -+;+>+,+'+)+!+~+{+]+^+/+@+@+@+(+_+}.                    ",
"                                      :+<+h.N.[+}+|+1+2+3+4+5+6+7+8+9+@+0+a+b+Y                     ",
"                                      }.|.l c+d+e+f+g+h+i+j+k+l+m+n+Q.o+R.p+q+r+                    ",
"                                      2 L s+t+u+v+w+x+y+z+A+B+C+D+E+F+@+G+H+I+                      ",
"                                        # J+K+L+M+N+O+P+Q+R+S+T+U+V+W+@+X+Y+Z+                      ",
"                                          . u.`+ @.@+@@@#@$@%@&@*@=@-@;@a+>@,@                      ",
"                                          h '@)@!@~@{@]@^@@+@+@+/@9+(@_@:@<@r+                      ",
"                                        [@}@|@1@2@3@4@5@6@^@#+#+^@7@8@9@0@a@                        ",
"                                      b@c@d@e@f@g@h@i@j@k@l@m@m@l@n@o@p@q@h                         ",
"                                    r@s@t@u@v@w@x@y@z@,+A@B@B@B@B@C@D@E@F@G@r+                      ",
"                                    H@I@J@K@L@M@N@O@P@Q@R@S@S@S@S@T@U@V@W@X@,@                      ",
"                                    Y@Z@`@ #.#+#@###$#%#&#*#=#=#*#&#-#;#>#,#Z+                      ",
"                                    '#)#!#~#{#]#^#/#(#_#-#:#<#<#:#[#}#;#>#,#Z+                      ",
"                                    '#|#1#2#3#4#5#6#7#8#9#[#}#}#}#}#}#;#>#,#Z+                      ",
"                                    '#|#0#a#b#c#d#e#f#g#h#i#j#}#}#}#j#i#k#,#Z+                      ",
"                                    Y@l#`@m#n#o#p#q#r#s#t#u#v#v#w#v#x#y#z#A#Z+                      ",
"                                    a@B#C#D#E#F#G#H#I#J#K#L#M#N#O#N#P#Q#R#S#,@                      ",
"                                      T#U#V#W#X#Y#Z#`# $.$+$@$#$$$#$%$&$*$=$r+                      ",
"                                      r+-$;$>$,$'$)$!$~${$]$^$/$($_$:$<$[$}.                        ",
"                                        t.}$|$1$2$3$4$5$6$7$8$9$0$a$b$c$d$Z+                        ",
"                                        '#e$f$g$h$i$j$k$l$m$n$o$p$q$r$s$t$Z+                        ",
"                                        '#)#u$v$w$x$y$z$A$B$C$D$E$F$G$H$F$Z+                        ",
"                                        '#Z@I$J$K$L$M$N$B$O$P$Q$R$S$T$U$V$K.                        ",
"                                        '#)#W$X$Y$Z$`$ %.%+%@%#%$%%%&%*%=%}@a@                      ",
"                                        '#-%;%>%,%'%)%!%~%{%]%^%/%(%_%:%<%[%I+                      ",
"                                        u.}%|%1%2%3%}%4%5%6%7%8%9%0%a%b%c%>%T#                      ",
"                                      2 d%e%f%g%h%i%j%k%l%m%n%o%p%q%r%s%t%u%v%a@. .                 ",
"                                    2 w%x%y%z%A%B%C%D%E%F%G%H%I%J%K%L%M%N%O%P%Q%R%S%2               ",
"                                  r+w%x%T%U%V%W%X%Y%Z%}@}@`% &.&+&@&#&$&%&&&*&=&-&;&>&r+            ",
"                                  ,@,&'&)&!&*&~&{&]&^&/&. . . . (&}._&:&<&[&}&|&1&2&3&4&            ",
"                                  ,@5&6&7&8&9&0&a&b&c&2           Z+_&d&&&e&f&g&h&i&w%r+            ",
"                                  r+j&k&l&m&n&o&p&q&r&j&r+        ,@5&~&[&s&t&u&v&w%2               ",
"                                    2 v%w&x&y&z&A&B&C&3&4&        r+j&D&E&F&G&Q%S%2                 ",
"                                      2 v%H&I&J&K&J&L&>&r+          2 S%>&>&S%a@.                   ",
"                                        a@M&N&O&O&O&P&a@              . . . .                       "};
