/* XPM */
static char * prs0_xpm[] = {
"50 50 694 2",
"  	c #95B9BE",
". 	c #94B8BD",
"+ 	c #93B7BC",
"@ 	c #92B6BB",
"# 	c #8FB2B7",
"$ 	c #8DAFB4",
"% 	c #8BADB1",
"& 	c #8AACB0",
"* 	c #91B4B9",
"= 	c #93B6BB",
"- 	c #8CAFB3",
"; 	c #95B9BD",
"> 	c #94B8BC",
", 	c #95B8BD",
"' 	c #92B5BA",
") 	c #90B2B7",
"! 	c #8CAEB3",
"~ 	c #8BACB1",
"{ 	c #8AABB1",
"] 	c #90B2B8",
"^ 	c #90B3B7",
"/ 	c #94B7BC",
"( 	c #8DAEB4",
"_ 	c #83A0A8",
": 	c #5D6A8B",
"< 	c #545A83",
"[ 	c #4C4D7D",
"} 	c #49487B",
"| 	c #49477B",
"1 	c #7C959F",
"2 	c #90B3B8",
"3 	c #96BABF",
"4 	c #758B97",
"5 	c #62718C",
"6 	c #494C86",
"7 	c #464C92",
"8 	c #414592",
"9 	c #404291",
"0 	c #3F4191",
"a 	c #3D4191",
"b 	c #633574",
"c 	c #A02441",
"d 	c #AE6B73",
"e 	c #A98F95",
"f 	c #6F8290",
"g 	c #42458D",
"h 	c #404290",
"i 	c #3F4291",
"j 	c #533F8C",
"k 	c #A92E57",
"l 	c #BB273A",
"m 	c #BE2633",
"n 	c #BD2D38",
"o 	c #A89196",
"p 	c #8AAAB1",
"q 	c #596385",
"r 	c #3F408F",
"s 	c #573F8B",
"t 	c #A72F5A",
"u 	c #B42534",
"v 	c #95346B",
"w 	c #953061",
"x 	c #976D77",
"y 	c #96B3B8",
"z 	c #7C95A0",
"A 	c #3E377E",
"B 	c #633C84",
"C 	c #AA2434",
"D 	c #7D3571",
"E 	c #3D4091",
"F 	c #B77491",
"G 	c #3E3F8D",
"H 	c #572B68",
"I 	c #8FABB2",
"J 	c #3E3271",
"K 	c #404191",
"L 	c #444090",
"M 	c #564891",
"N 	c #C17991",
"O 	c #ED9E9B",
"P 	c #766A9A",
"Q 	c #47416C",
"R 	c #95BABF",
"S 	c #3B2C70",
"T 	c #414191",
"U 	c #C37A91",
"V 	c #F1A6A0",
"W 	c #F8D1C0",
"X 	c #D6BAB7",
"Y 	c #413366",
"Z 	c #819DA6",
"` 	c #657387",
" .	c #3E3D8A",
"..	c #3E4191",
"+.	c #BA7691",
"@.	c #F0A29D",
"#.	c #F8D0BF",
"$.	c #F9D6C4",
"%.	c #E89D9C",
"&.	c #996591",
"*.	c #3E3B85",
"=.	c #677586",
"-.	c #4E4D6E",
";.	c #3E367D",
">.	c #3B2155",
",.	c #BA717B",
"'.	c #E3BFB2",
").	c #F8D5C4",
"!.	c #B56D78",
"~.	c #40367A",
"{.	c #3D3579",
"].	c #3D3A83",
"^.	c #883962",
"/.	c #893960",
"(.	c #883960",
"_.	c #6B3D5F",
":.	c #DAADA5",
"<.	c #A96072",
"[.	c #894072",
"}.	c #51418C",
"|.	c #4E4D6F",
"1.	c #3D3478",
"2.	c #552959",
"3.	c #A4476D",
"4.	c #704488",
"5.	c #3E4090",
"6.	c #5A3244",
"7.	c #683042",
"8.	c #742F45",
"9.	c #B3757F",
"0.	c #EECDBD",
"a.	c #F8D5C3",
"b.	c #AC5266",
"c.	c #65273A",
"d.	c #2D1D44",
"e.	c #677686",
"f.	c #6D808E",
"g.	c #3D3173",
"h.	c #392055",
"i.	c #B55A71",
"j.	c #F1A19C",
"k.	c #9C6691",
"l.	c #5B428C",
"m.	c #8C8391",
"n.	c #CDE6F2",
"o.	c #98ACB6",
"p.	c #090605",
"q.	c #BD9D92",
"r.	c #F9D7C5",
"s.	c #F7D6C4",
"t.	c #8C8184",
"u.	c #000000",
"v.	c #371E4E",
"w.	c #8AA9B0",
"x.	c #575C74",
"y.	c #3C2155",
"z.	c #B66778",
"A.	c #F7CDBD",
"B.	c #D5B0B0",
"C.	c #4A4A93",
"D.	c #834480",
"E.	c #EBDCDF",
"F.	c #FFFFFF",
"G.	c #BEBEBE",
"H.	c #090706",
"I.	c #F8D6C4",
"J.	c #F9D8C7",
"K.	c #D9D9D9",
"L.	c #87A7AC",
"M.	c #4C4C78",
"N.	c #3D2F6F",
"O.	c #B36576",
"P.	c #F7D4C2",
"Q.	c #F8D4C3",
"R.	c #D08594",
"S.	c #AA6B8E",
"T.	c #F4C9BE",
"U.	c #FFFDFC",
"V.	c #C1BFBE",
"W.	c #CBAFA0",
"X.	c #EFC1C1",
"Y.	c #A8A4A4",
"Z.	c #391E4E",
"`.	c #83A3A8",
" +	c #819CA6",
".+	c #3C3075",
"++	c #3D2C6A",
"@+	c #4C2556",
"#+	c #953A61",
"$+	c #B76776",
"%+	c #CB7981",
"&+	c #E5878B",
"*+	c #F3B5AB",
"=+	c #F6C5B7",
"-+	c #D1707D",
";+	c #5F325C",
">+	c #7A929D",
",+	c #82A1A6",
"'+	c #545772",
")+	c #3E3880",
"!+	c #3C2055",
"~+	c #4C2457",
"{+	c #AA566D",
"]+	c #E5888B",
"^+	c #F7CEBE",
"/+	c #EBB1AA",
"(+	c #F5D0C0",
"_+	c #E9A29E",
":+	c #52395F",
"<+	c #88A9AE",
"[+	c #758C98",
"}+	c #414187",
"|+	c #3C2156",
"1+	c #3C2359",
"2+	c #4F455C",
"3+	c #626164",
"4+	c #57545C",
"5+	c #83395F",
"6+	c #B7516D",
"7+	c #EDA5A0",
"8+	c #F8D3C2",
"9+	c #F7D0C0",
"0+	c #F2C9BB",
"a+	c #C48389",
"b+	c #9F4967",
"c+	c #492456",
"d+	c #4D4968",
"e+	c #708491",
"f+	c #3E3478",
"g+	c #515782",
"h+	c #6B7C8B",
"i+	c #443861",
"j+	c #3D3071",
"k+	c #4A3F58",
"l+	c #77747C",
"m+	c #9E9E9E",
"n+	c #797979",
"o+	c #7C5861",
"p+	c #AA4B68",
"q+	c #BA556F",
"r+	c #D97A82",
"s+	c #DEA4A0",
"t+	c #CA717C",
"u+	c #964E63",
"v+	c #582F58",
"w+	c #3A2155",
"x+	c #585E75",
"y+	c #90B1B7",
"z+	c #92B6BA",
"A+	c #88A7AE",
"B+	c #85A3AB",
"C+	c #4D4A68",
"D+	c #3B1C54",
"E+	c #493F57",
"F+	c #915C94",
"G+	c #8A6B8C",
"H+	c #929292",
"I+	c #9A9A9A",
"J+	c #777777",
"K+	c #7C5961",
"L+	c #B04869",
"M+	c #9E4F66",
"N+	c #865762",
"O+	c #A58E93",
"P+	c #878887",
"Q+	c #443457",
"R+	c #555972",
"S+	c #768D99",
"T+	c #8BAAB1",
"U+	c #7F9199",
"V+	c #8E5F90",
"W+	c #AEA6AE",
"X+	c #BCBABC",
"Y+	c #969696",
"Z+	c #858585",
"`+	c #5E5E5E",
" @	c #B6536D",
".@	c #905464",
"+@	c #9A5F9C",
"@@	c #8B618C",
"#@	c #817184",
"$@	c #8EAFB4",
"%@	c #849BA1",
"&@	c #906791",
"*@	c #9F91A0",
"=@	c #BBBBBB",
"-@	c #939393",
";@	c #656565",
">@	c #767676",
",@	c #5D5E5E",
"'@	c #E68A8C",
")@	c #A4676E",
"!@	c #9B5D9D",
"~@	c #7E7D7E",
"{@	c #8B5B8D",
"]@	c #CDC4CE",
"^@	c #728284",
"/@	c #849FA3",
"(@	c #69636C",
"_@	c #A379A5",
":@	c #9D9D9D",
"<@	c #A1A1A1",
"[@	c #C8C8C8",
"}@	c #8C8D8E",
"|@	c #4B4E50",
"1@	c #5D5E5D",
"2@	c #A27372",
"3@	c #876969",
"4@	c #755B76",
"5@	c #5D5C5D",
"6@	c #715D72",
"7@	c #8B878F",
"8@	c #728385",
"9@	c #95BABE",
"0@	c #97B5BA",
"a@	c #898FB0",
"b@	c #6C77B3",
"c@	c #7B7984",
"d@	c #959595",
"e@	c #B4B4B4",
"f@	c #9D9EA2",
"g@	c #66709E",
"h@	c #3E4865",
"i@	c #59515D",
"j@	c #965998",
"k@	c #A074A2",
"l@	c #9B9B9B",
"m@	c #B3B3B3",
"n@	c #C3C3C3",
"o@	c #A7A7A7",
"p@	c #5A5567",
"q@	c #513776",
"r@	c #767FB2",
"s@	c #889FC3",
"t@	c #94B7BF",
"u@	c #A09AA4",
"v@	c #B48894",
"w@	c #C05B71",
"x@	c #93669A",
"y@	c #6876AD",
"z@	c #646C92",
"A@	c #636B92",
"B@	c #5E6893",
"C@	c #455073",
"D@	c #4E5053",
"E@	c #865B87",
"F@	c #A373A5",
"G@	c #B2B2B2",
"H@	c #B9B9B9",
"I@	c #707072",
"J@	c #5E5D89",
"K@	c #4C2372",
"L@	c #4F2F77",
"M@	c #8190C6",
"N@	c #8DA9C1",
"O@	c #A09BA5",
"P@	c #D67F87",
"Q@	c #E4868A",
"R@	c #CE6F7C",
"S@	c #B04A6C",
"T@	c #8E699F",
"U@	c #6B7BBB",
"V@	c #6878B6",
"W@	c #444F71",
"X@	c #343C43",
"Y@	c #685C69",
"Z@	c #9D58A0",
"`@	c #A08CA1",
" #	c #BABABA",
".#	c #D0D0D0",
"+#	c #878EB0",
"@#	c #636AA9",
"##	c #503078",
"$#	c #8191C6",
"%#	c #A898A1",
"&#	c #DA7D85",
"*#	c #EE9191",
"=#	c #E78C8F",
"-#	c #C36679",
";#	c #AC6A7F",
">#	c #997A9B",
",#	c #758BBC",
"'#	c #8BACB6",
")#	c #403C55",
"!#	c #655265",
"~#	c #A357A6",
"{#	c #A27DA4",
"]#	c #9F9F9F",
"^#	c #ADADAD",
"/#	c #999998",
"(#	c #7B6FA0",
"_#	c #9F436D",
":#	c #5C2871",
"<#	c #645E97",
"[#	c #8190C5",
"}#	c #93B5BF",
"|#	c #96B7BD",
"1#	c #C76577",
"2#	c #EF9191",
"3#	c #C27485",
"4#	c #9C5B7D",
"5#	c #752C6E",
"6#	c #94B0B7",
"7#	c #90AFB5",
"8#	c #682241",
"9#	c #883C74",
"0#	c #914585",
"a#	c #8E6081",
"b#	c #8B777D",
"c#	c #927E84",
"d#	c #98868B",
"e#	c #9C8F93",
"f#	c #60667E",
"g#	c #A55174",
"h#	c #A7446A",
"i#	c #6F2F70",
"j#	c #635D96",
"k#	c #95B8BE",
"l#	c #7F96A6",
"m#	c #67688B",
"n#	c #7C3E74",
"o#	c #90537B",
"p#	c #5852A7",
"q#	c #4E2371",
"r#	c #728098",
"s#	c #93B6BC",
"t#	c #788DB3",
"u#	c #655358",
"v#	c #703D50",
"w#	c #752A49",
"x#	c #752949",
"y#	c #694C56",
"z#	c #665E75",
"A#	c #646E95",
"B#	c #A34F6E",
"C#	c #81356E",
"D#	c #9F416B",
"E#	c #602971",
"F#	c #8DB0B5",
"G#	c #8AA8B2",
"H#	c #563C77",
"I#	c #838096",
"J#	c #9599A9",
"K#	c #7485C4",
"L#	c #5C72C3",
"M#	c #935494",
"N#	c #AA7486",
"O#	c #9EA0A9",
"P#	c #91B2B7",
"Q#	c #7F818F",
"R#	c #62616D",
"S#	c #6874A9",
"T#	c #6874A8",
"U#	c #656F9A",
"V#	c #A24D67",
"W#	c #77326F",
"X#	c #B24869",
"Y#	c #662C71",
"Z#	c #66688B",
"`#	c #87818F",
" $	c #979AA8",
".$	c #7080C0",
"+$	c #415EC2",
"@$	c #6280C1",
"#$	c #7798C0",
"$$	c #93B7BB",
"%$	c #818092",
"&$	c #99749B",
"*$	c #66636E",
"=$	c #626883",
"-$	c #7C5B7E",
";$	c #838283",
">$	c #838383",
",$	c #A6A6A6",
"'$	c #ABABAB",
")$	c #80426B",
"!$	c #6D2A6A",
"~$	c #933863",
"{$	c #5A2771",
"]$	c #85A5A9",
"^$	c #8CABB5",
"/$	c #8793BD",
"($	c #7482BC",
"_$	c #4B65C0",
":$	c #607EC1",
"<$	c #8FB3BE",
"[$	c #788189",
"}$	c #9D749E",
"|$	c #A8A3A8",
"1$	c #706467",
"2$	c #824F63",
"3$	c #6C5D6C",
"4$	c #9D9C9D",
"5$	c #A3A3A3",
"6$	c #AAAAAA",
"7$	c #B6B6B6",
"8$	c #B5B5B5",
"9$	c #5F5D5D",
"0$	c #51366E",
"a$	c #51236F",
"b$	c #54236E",
"c$	c #97B1B5",
"d$	c #96A6B0",
"e$	c #7C89BE",
"f$	c #687BC4",
"g$	c #5572C1",
"h$	c #8DAFBF",
"i$	c #798E90",
"j$	c #9D759F",
"k$	c #A1A2A1",
"l$	c #877778",
"m$	c #95293E",
"n$	c #93233F",
"o$	c #87454B",
"p$	c #6B5D6A",
"q$	c #955997",
"r$	c #9D7F9E",
"s$	c #B0B0B0",
"t$	c #80474C",
"u$	c #632369",
"v$	c #83A4A9",
"w$	c #9A9CA3",
"x$	c #7D89BC",
"y$	c #4C66C2",
"z$	c #5370C1",
"A$	c #88AABF",
"B$	c #788E91",
"C$	c #A0A0A0",
"D$	c #897678",
"E$	c #95323E",
"F$	c #C56C72",
"G$	c #CB7074",
"H$	c #CF7073",
"I$	c #88474E",
"J$	c #774551",
"K$	c #81557A",
"L$	c #887F89",
"M$	c #A08EA1",
"N$	c #908889",
"O$	c #713654",
"P$	c #818FC5",
"Q$	c #86A6AA",
"R$	c #97AEB3",
"S$	c #9BA1A5",
"T$	c #7C8ABF",
"U$	c #4963C2",
"V$	c #4764C2",
"W$	c #8EB1BF",
"X$	c #968288",
"Y$	c #7C6768",
"Z$	c #9C313E",
"`$	c #CE6E71",
" %	c #ED9090",
".%	c #EB8E8E",
"+%	c #E08385",
"@%	c #BF676F",
"#%	c #883149",
"$%	c #8F3E4C",
"%%	c #70636C",
"&%	c #6F6A6A",
"*%	c #755557",
"=%	c #7B2F5F",
"-%	c #4C2472",
";%	c #646099",
">%	c #8BA5C2",
",%	c #88A8AD",
"'%	c #97B3B7",
")%	c #96ACB4",
"!%	c #7F8CBE",
"~%	c #7081C4",
"{%	c #4C69C2",
"]%	c #6887C1",
"^%	c #8CAEBF",
"/%	c #99989D",
"(%	c #9F3643",
"_%	c #C36266",
":%	c #D37577",
"<%	c #9D1F33",
"[%	c #9E2134",
"}%	c #BB585D",
"|%	c #A94B55",
"1%	c #9F2436",
"2%	c #9F2336",
"3%	c #9F2537",
"4%	c #9A8B91",
"5%	c #77889D",
"6%	c #4C2272",
"7%	c #615A94",
"8%	c #8496C5",
"9%	c #90AFC0",
"0%	c #8EB0B5",
"a%	c #91A6B9",
"b%	c #757FB4",
"c%	c #768BB9",
"d%	c #7A9BC0",
"e%	c #80A2BF",
"f%	c #99979D",
"g%	c #AB9CA1",
"h%	c #C58689",
"i%	c #A32D3C",
"j%	c #902439",
"k%	c #D07275",
"l%	c #D17275",
"m%	c #D17376",
"n%	c #96B9BE",
"o%	c #76879D",
"p%	c #4B1F70",
"q%	c #7A85BA",
"r%	c #88A0C3",
"s%	c #97B4B9",
"t%	c #798DB9",
"u%	c #8CAFBF",
"v%	c #91B5BE",
"w%	c #94AEB3",
"x%	c #7D4C5E",
"y%	c #7E3A50",
"z%	c #9A2539",
"A%	c #9C2438",
"B%	c #9E2437",
"C%	c #BA565C",
"D%	c #E78C8D",
"E%	c #E89394",
"F%	c #92B4BB",
"G%	c #65668A",
"H%	c #55427A",
"I%	c #6D72A3",
"J%	c #8394C3",
"K%	c #94B6BF",
"L%	c #9E4B55",
"M%	c #A02436",
"N%	c #892640",
"O%	c #7F2744",
"P%	c #872641",
"Q%	c #93253C",
"R%	c #97243A",
"S%	c #732445",
"T%	c #8CA3A9",
"U%	c #9E4D56",
"V%	c #992539",
"W%	c #7C5685",
"X%	c #76344E",
"Y%	c #7D4E51",
"Z%	c #842742",
"`%	c #752445",
" &	c #8DA2A9",
".&	c #9E4751",
"+&	c #9D2D44",
"@&	c #736B9E",
"#&	c #5E5E5D",
"$&	c #605B5C",
"%&	c #7C8E92",
"&&	c #9A858B",
"*&	c #9F2134",
"=&	c #9D676F",
"-&	c #96B0B5",
";&	c #9D656C",
">&	c #9B2C39",
",&	c #754C52",
"'&	c #694C55",
")&	c #7D9397",
"!&	c #95B7BC",
"~&	c #99999F",
"{&	c #96AEB3",
"]&	c #97ADB2",
"^&	c #8D636E",
"/&	c #862742",
"(&	c #7E2744",
"_&	c #752847",
":&	c #735F68",
"<&	c #8DADB2",
"[&	c #93B3B9",
"}&	c #7F6E7A",
"|&	c #752746",
"1&	c #93B4B9",
"2&	c #889299",
"3&	c #71394D",
"4&	c #7E767F",
"5&	c #93B2B8",
"6&	c #7B5968",
"7&	c #6B4752",
"8&	c #87A4A8",
"9&	c #92B1B7",
"0&	c #794D5F",
"a&	c #715280",
"b&	c #6C79B6",
"c&	c #8EB0BD",
"d&	c #8FA7AD",
"e&	c #752747",
"f&	c #725180",
"g&	c #79799C",
"h&	c #90ABB1",
"i&	c #8EA3A9",
"j&	c #8FA8AE",
"k&	c #8EB1B5",
"                                          . + @ # $ % & $ # * @ .       = - # +                   . ",
"        ; . . . . > . ,               . + ' ) # ! ! ~ { $ ]             . ^ * = .                   ",
"      . . . . . / / / . ,           , . / = ( _ : < [ } | } 1 1 2                 , ,               ",
"      .                                 3 4 5 6 7 8 9 0 0 a b c d e                                 ",
"      .                                 f g h i 0 0 0 0 j k l m m n o                               ",
"                                      p q r 0 0 0 0 0 s t u v v v w x y                             ",
"                                      z A 0 0 0 0 0 0 B C D 0 E F G H I                             ",
"                                    2 J 0 0 0 0 0 0 0 K L K M N O P 0 Q R                           ",
"                                    2 S 0 0 0 0 0 0 0 0 0 T U V W X 0 Y Z                           ",
"                                  R `  .0 0 0 0 0 0 0 0 ..+.@.#.$.%.&.*.=.                          ",
"                                  3 -.0 0 0 0 0 0 0 0 ;.>.,.'.#.).!.~.r =.                          ",
"                                  3 -.0 0 {.].0 0 0 0 ^./.(._.:.).<.[.}.=.                          ",
"                                    |.0 1.2.3.4.0 0 5.6.7.8.9.0.a.b.c.d.e.                    .     ",
". .                               f.A g.h.i.j.k.0 l.m.n.o.p.q.r.s.t.u.v.e.                    .     ",
"# '                             w.x.y.y.h.z.A.B.C.D.E.F.G.H.I.r.J.K.u.v.e.                    + ;   ",
"L.'                           = M.N.y.y.h.O.P.Q.R.S.T.U.V.W.r.r.$.X.Y.Z.e.                    + .   ",
"`..                            +.+++y.y.y.@+#+$+%+&+*+$.r.r.r.r.r.=+-+;+>+                    = .   ",
",+                          3 '+)+y.y.y.y.y.!+!+~+{+]+$.r.r.^+/+(+_+{+:+R                     = .   ",
"<+                          [+}+)+y.|+1+y.y.2+3+4+5+6+7+8+$.9+0+a+b+c+d+R                     ' /   ",
"%                           e+f+g+h+i+j+!+k+l+m+n+o+p+q+r+s+t+u+v+w+x+y+                      z++   ",
"2                           A+z B+3 C+D+E+F+G+H+I+J+K+L+M+N+O+P+Q+R+p                         + +   ",
".                                 S+T+U+V+W+X+H+Y+Z+`+ @.@+@H+@@#@$@                          + =   ",
"                                  3 %@&@*@m+=@-@;@>@,@'@)@!@~@{@]@^@                            @ . ",
"                                  /@(@_@:@<@[@}@|@`+1@2@3@4@5@6@7@8@9@                          @ . ",
"                                0@a@b@c@d@e@f@g@h@i@j@k@l@m@n@o@`+p@q@r@s@t@                    = . ",
"                              u@v@w@x@y@z@A@B@C@D@E@F@:@:@:@G@H@I@J@K@L@M@N@                    @ / ",
"                            O@P@Q@R@S@T@U@V@W@X@Y@Z@`@:@:@:@ #.#+#@#K@##$#N@                    + / ",
"                          %#&#*#=#-#;#>#,#'#)#!#~#{#:@:@]#^# #/#(#_#:#K@<#[#}#                    + ",
"                        |#1#2#3#4#5#6#    7#8#9#0#a#b#b#c#d#e#f#g#h#i#K@j#[#}#                    = ",
"/                   k#l#m#n#o#p#q#r#s#    t#u#v#w#w#w#w#x#y#z#A#B#C#D#E#j#[#}#                    @ ",
"F#                G#H#I#J#K#L#M#N#O#  P#Q#R#S#T#T#T#T#T#T#T#U#,@V#W#X#Y#j#[#}#                  , @ ",
"~                 Z#`# $.$+$@$#$    $$%$&$*$=$-$;$>$>$d@,$'$:@`+)$!$~${$j#[#}#                  = ' ",
"]$                ^$/$($_$:$<$      [$}$|$1$2$3$k@4$:@5$6$7$8$9$0$a$b$K@j#[#}#                  . + ",
"`.            c$d$e$f$g$h$        i$j$k$l$m$n$o$p$q$r$:@:@:@s$t$u$K@K@K@j#[#}#                    ; ",
"v$            w$x$y$z$A$          B$C$D$E$F$G$H$I$J$K$L$M$:@N$O$b$K@K@K@j#P$}#                      ",
"Q$        R$S$T$U$V$W$            X$Y$Z$`$ %.%.%+%@%#%$%%%&%*%=%K@K@K@-%;%>%k#                      ",
",%.   '%)%!%~%{%]%^%              /%(%_%*#:%<%[%[%}%|%1%2%3%4%5%K@K@6%7%8%9%                        ",
"0%=   a%b%c%d%e%                    f%g%h%i%1%1%1%1%j%k%l%m%n%o%6%K@p%q%r%                          ",
"/ + s%t%u%v%                        w%x%y%z%A%B%1%1%1%C%D%E%n%F%G%H%I%J%K%                          ",
"  .   9@                          R L%1%M%N%O%P%Q%1%1%R%S%T%    9@3 9@                              ",
"  ,                               R U%1%1%1%V%W%X%Y%Y%Z%`% &                                        ",
"  ,                               R U%1%2%.&2%+&@&#&`+$&%&/                                 ,       ",
"  . .                               &&*&=&-&;&1%>&,&'&`+)&                                  .       ",
"  . .                               !&~&{&  ]&^&/&(&_&:&<&                                          ",
"    .                                       [&}&_&_&|&1&                                            ",
"                                            2&|&_&3&4&,                                             ",
"                                          5&6&_&_&7&8&                                              ",
"              , . . . . / + + /           9&0&_&_&a&b&c&                                          , ",
"                          , . / ' +         d&6&e&|&f&g&                                      . = ' ",
"                                + '           h&i&i&i&j&                            . + + $$' k&0%2 "};
