/* XPM */
static char * p1_xpm[] = {
"50 50 311 2",
"  	c #BCBECD",
". 	c #C8BBBA",
"+ 	c #B9ADAA",
"@ 	c #BCADA6",
"# 	c #C6BBBB",
"$ 	c #BDBECC",
"% 	c #DAAB65",
"& 	c #DFA739",
"* 	c #E3AA3A",
"= 	c #D39D36",
"- 	c #C3BCC0",
"; 	c #D9BA9A",
"> 	c #BCBECC",
", 	c #867977",
"' 	c #E2A782",
") 	c #DCA78D",
"! 	c #93756C",
"~ 	c #B6B2BA",
"{ 	c #B69163",
"] 	c #B4B6C5",
"^ 	c #655149",
"/ 	c #F8BC9C",
"( 	c #E0AA8D",
"_ 	c #C9A8A0",
": 	c #A3A5B1",
"< 	c #7A7A84",
"[ 	c #868893",
"} 	c #745341",
"| 	c #5E463A",
"1 	c #1A1513",
"2 	c #777982",
"3 	c #7F7F89",
"4 	c #A3A4B1",
"5 	c #BDBBCA",
"6 	c #BD6369",
"7 	c #DE705D",
"8 	c #B06853",
"9 	c #601B1B",
"0 	c #A86D75",
"a 	c #423A3D",
"b 	c #AEAFBD",
"c 	c #BDBCCB",
"d 	c #D37A83",
"e 	c #DA3B3B",
"f 	c #C93737",
"g 	c #BF3434",
"h 	c #AD2F2F",
"i 	c #B73232",
"j 	c #9A3C3B",
"k 	c #A799A4",
"l 	c #CA7A82",
"m 	c #C14848",
"n 	c #C89292",
"o 	c #C99292",
"p 	c #B67A7A",
"q 	c #804F4D",
"r 	c #BF9292",
"s 	c #C59BA7",
"t 	c #C6A4AD",
"u 	c #DEC3C4",
"v 	c #BEB6BE",
"w 	c #9495AA",
"x 	c #7D809D",
"y 	c #7F7D96",
"z 	c #885E60",
"A 	c #5F4A5F",
"B 	c #9D9DB0",
"C 	c #E1C2C3",
"D 	c #BFB1BE",
"E 	c #A9AABC",
"F 	c #767A9A",
"G 	c #646B95",
"H 	c #686F99",
"I 	c #7A4551",
"J 	c #5B3647",
"K 	c #555C85",
"L 	c #5F6790",
"M 	c #8D8FA7",
"N 	c #B8B9C8",
"O 	c #BBBDCC",
"P 	c #71779D",
"Q 	c #626993",
"R 	c #525A83",
"S 	c #735974",
"T 	c #6B373E",
"U 	c #595C82",
"V 	c #5F577D",
"W 	c #615479",
"X 	c #ACAFC2",
"Y 	c #A7AABE",
"Z 	c #676E98",
"` 	c #5E4C71",
" .	c #4C4E77",
"..	c #6D668B",
"+.	c #703A41",
"@.	c #54587E",
"#.	c #656C96",
"$.	c #683D5C",
"%.	c #6C3956",
"&.	c #646B94",
"*.	c #868BAA",
"=.	c #999CB5",
"-.	c #636A94",
";.	c #773147",
">.	c #4E4A71",
",.	c #696387",
"'.	c #773D42",
").	c #564866",
"!.	c #666D97",
"~.	c #5B628B",
"{.	c #7B2E41",
"].	c #862429",
"^.	c #51527A",
"/.	c #69709A",
"(.	c #878CAA",
"_.	c #58577F",
":.	c #84262F",
"<.	c #74364B",
"[.	c #75383A",
"}.	c #564967",
"|.	c #656C97",
"1.	c #626A94",
"2.	c #49517A",
"3.	c #862328",
"4.	c #882121",
"5.	c #6A4363",
"6.	c #676E97",
"7.	c #B4B6C7",
"8.	c #B5B8C7",
"9.	c #666E92",
"0.	c #6C3E5C",
"a.	c #802E2C",
"b.	c #5A435D",
"c.	c #8F5B49",
"d.	c #BF914B",
"e.	c #B17D46",
"f.	c #783A3E",
"g.	c #872223",
"h.	c #816678",
"i.	c #5A6486",
"j.	c #9DA1B3",
"k.	c #425258",
"l.	c #6A303C",
"m.	c #7E3732",
"n.	c #7D3833",
"o.	c #8D5733",
"p.	c #C69239",
"q.	c #B17E37",
"r.	c #573344",
"s.	c #97808A",
"t.	c #3D4B4D",
"u.	c #9A9FAB",
"v.	c #415053",
"w.	c #6C2A2B",
"x.	c #513E5A",
"y.	c #473A58",
"z.	c #44415F",
"A.	c #5E4F54",
"B.	c #524D67",
"C.	c #87272D",
"D.	c #99838D",
"E.	c #404B4E",
"F.	c #394648",
"G.	c #7D2526",
"H.	c #882020",
"I.	c #696B93",
"J.	c #4F5780",
"K.	c #2F3657",
"L.	c #1D2339",
"M.	c #262C4A",
"N.	c #5C638D",
"O.	c #7F455D",
"P.	c #882425",
"Q.	c #B1ADBA",
"R.	c #5F676D",
"S.	c #949AA5",
"T.	c #374244",
"U.	c #692B2C",
"V.	c #833748",
"W.	c #696D97",
"X.	c #5F658C",
"Y.	c #252C44",
"Z.	c #2C354D",
"`.	c #21273F",
" +	c #4F567E",
".+	c #755C7D",
"++	c #882526",
"@+	c #8B8B96",
"#+	c #3A4648",
"$+	c #ABADBA",
"%+	c #59393B",
"&+	c #742829",
"*+	c #7B506D",
"=+	c #464C6C",
"-+	c #273047",
";+	c #20273E",
">+	c #232B41",
",+	c #4C5379",
"'+	c #6E678D",
")+	c #B6B7C6",
"!+	c #80848D",
"~+	c #A4A7B4",
"{+	c #B7B5C3",
"]+	c #881E1E",
"^+	c #726185",
"/+	c #60678E",
"(+	c #2A324A",
"_+	c #412336",
":+	c #6B1E27",
"<+	c #424867",
"[+	c #6E668D",
"}+	c #BBBCCA",
"|+	c #832327",
"1+	c #46415C",
"2+	c #343B56",
"3+	c #283047",
"4+	c #721F27",
"5+	c #781F25",
"6+	c #292E45",
"7+	c #2A334A",
"8+	c #51415B",
"9+	c #7E252C",
"0+	c #2B354D",
"a+	c #2B344B",
"b+	c #402033",
"c+	c #862121",
"d+	c #2F2B41",
"e+	c #3B344A",
"f+	c #82282D",
"g+	c #652D3D",
"h+	c #242B42",
"i+	c #541B2A",
"j+	c #2D283D",
"k+	c #7B2A33",
"l+	c #722E37",
"m+	c #2D3047",
"n+	c #1C1B31",
"o+	c #761F25",
"p+	c #4A1C2B",
"q+	c #56323E",
"r+	c #65373F",
"s+	c #852B2B",
"t+	c #B9B8C6",
"u+	c #8E4449",
"v+	c #57292E",
"w+	c #391C2B",
"x+	c #842121",
"y+	c #4E2026",
"z+	c #713330",
"A+	c #862B2A",
"B+	c #A6858C",
"C+	c #803C38",
"D+	c #763531",
"E+	c #3F2127",
"F+	c #7A2123",
"G+	c #4E2529",
"H+	c #7C3833",
"I+	c #7A3732",
"J+	c #852A2A",
"K+	c #CCCDD8",
"L+	c #7B4F50",
"M+	c #783632",
"N+	c #5A4346",
"O+	c #B79999",
"P+	c #A16C6C",
"Q+	c #871C1C",
"R+	c #452026",
"S+	c #54282B",
"T+	c #8E797A",
"U+	c #D2C4C6",
"V+	c #BDBECD",
"W+	c #928792",
"X+	c #51272A",
"Y+	c #7D7983",
"Z+	c #C2C3D1",
"`+	c #DAD7DE",
" @	c #D8D3DB",
".@	c #9E9AA0",
"+@	c #582A2B",
"@@	c #B7A9AF",
"#@	c #C0C1CF",
"$@	c #9E8D97",
"%@	c #4D2629",
"&@	c #92919C",
"*@	c #AFB0BF",
"=@	c #6B302E",
"-@	c #A597A2",
";@	c #B3B0BE",
">@	c #7D494A",
",@	c #3A1E25",
"'@	c #B5B6C4",
")@	c #B6B8C6",
"!@	c #715359",
"~@	c #865557",
"{@	c #B6B4C2",
"]@	c #A495A0",
"^@	c #B7B8C7",
"/@	c #B8BAC8",
"(@	c #665860",
"_@	c #A99FAA",
":@	c #8E7F88",
"<@	c #5E5058",
"[@	c #5A4F57",
"}@	c #BDBECE",
"|@	c #BDBFCF",
"1@	c #B1B2C0",
"2@	c #6C5359",
"3@	c #7F5C61",
"4@	c #B3AFBD",
"5@	c #BDBFCE",
"6@	c #BCBECE",
"                                                                                                    ",
"                                                                                                    ",
"                                                                                                    ",
"                                                                                                    ",
"                                                                                                    ",
"                                                                                                    ",
"                                                                                                    ",
"                                                                                                    ",
"                                                                                                    ",
"                                                                                                    ",
"                                                                                                    ",
"                                                                                                    ",
"                                                                                                    ",
"                                                . + @ # $                                           ",
"                                                % & * = - ; >                                       ",
"                                                , ' ) ! ~ { $                                       ",
"                                              ] ^ / ( _ : <                                         ",
"                                              [ } | 1 2 3 4                                         ",
"                                            5 6 7 8 9 0 a b                                         ",
"                                          c d e f g h i j k                                         ",
"                                        5 l m n o o o p q r s                                       ",
"                                        t u v w x x y z A B C D                                     ",
"                                        E F G H H H I J K L M N                                     ",
"                                      O P Q R H H S T U V W H X                                     ",
"                                      Y Z `  .H ..+.@.#.$.%.&.*.                                    ",
"                                      =.-.;.>.,.'.).!.~.{.].^./.O                                   ",
"                                      (._.:.<.[.}.|.1.2.3.4.5.6.7.                                  ",
"                                    8.9.0.4.a.b.c.d.e.f.g.4.h.i.j.                                  ",
"                                    ] k.l.4.m.n.o.p.q.r.g.4.s.t.u.                                  ",
"                                    ] v.w.4.x.y.z.A.B.~.C.4.D.E.u.                                  ",
"                                    ] F.G.H.I.J.K.L.M.N.O.P.Q.R.u.                                  ",
"                                    S.T.U.V.W.X.Y.Z.`. +.+++@+#+u.                                  ",
"                                    $+%+&+*+H =+-+;+>+,+'+++)+!+~+                                  ",
"                                    {+]+4.^+/+(+_+:+(+<+[+++}+                                      ",
"                                    {+]+|+1+2+3+4+5+6+7+8+++}+                                      ",
"                                    {+]+9+0+a+b+c+4.d+Z.e+f+}+                                      ",
"                                    {+]+g+Z.h+i+4.4.j+Z.Z.k+}+                                      ",
"                                    {+]+l+m+n+o+4.4.p+q+r+s+}+                                      ",
"                                    t+u+m.v+w+x+4.4.y+z+n.A+}+                                      ",
"                                      B+C+D+E+F+4.4.G+H+I+J+}+                                      ",
"                                      K+L+M+N+O+P+Q+R+S+T+U+V+                                      ",
"                                        W+X+Y+Z+`+ @.@+@@@#@                                        ",
"                                        $@%@&@      *@=@-@                                          ",
"                                      ;@>@,@'@      )@!@~@{@                                        ",
"                                      ]@z+,@^@      /@(@H+_@                                        ",
"                                      :@<@[@N }@|@  1@[@2@3@4@                                      ",
"                                    5@5@|@|@5@|@|@5@5@|@|@|@6@                                      ",
"                              5@5@6@|@|@|@|@|@|@|@|@|@|@|@|@|@|@                                    ",
"                              |@|@|@|@|@|@|@|@|@|@|@|@|@|@|@|@|@|@|@|@5@                            ",
"                                  6@|@|@|@|@|@|@|@|@|@|@|@|@|@|@|@|@5@                              "};
