/* XPM */
static char * prs1_xpm[] = {
"50 50 684 2",
"  	c #95B9BE",
". 	c #96BABF",
"+ 	c #697A89",
"@ 	c #677586",
"# 	c #677686",
"$ 	c #95BABF",
"% 	c #8CACB3",
"& 	c #738A98",
"* 	c #443B69",
"= 	c #3F408D",
"- 	c #3F408F",
"; 	c #533D87",
"> 	c #743856",
", 	c #A43744",
"' 	c #9E9CA1",
") 	c #9AB0B5",
"! 	c #84A1A9",
"~ 	c #433E78",
"{ 	c #3D3882",
"] 	c #3F4191",
"^ 	c #5F3C83",
"/ 	c #A22A4A",
"( 	c #B32534",
"_ 	c #BE2633",
": 	c #BE2331",
"< 	c #B8565D",
"[ 	c #9FA7AC",
"} 	c #6A7B8A",
"| 	c #3F3F8D",
"1 	c #563E88",
"2 	c #A12A4D",
"3 	c #BC2633",
"4 	c #AA2535",
"5 	c #A92535",
"6 	c #9F8E94",
"7 	c #7C96A0",
"8 	c #3F3A7E",
"9 	c #693C84",
"0 	c #B82533",
"a 	c #9D2B4E",
"b 	c #45408F",
"c 	c #434090",
"d 	c #785490",
"e 	c #413575",
"f 	c #8BABB2",
"g 	c #93B6BB",
"h 	c #63728B",
"i 	c #3E3C88",
"j 	c #513F8B",
"k 	c #7C346E",
"l 	c #543E89",
"m 	c #895D91",
"n 	c #E18A91",
"o 	c #3D4091",
"p 	c #3E3983",
"q 	c #708494",
"r 	c #90B2B8",
"s 	c #3B2C70",
"t 	c #7E5891",
"u 	c #F4BEB2",
"v 	c #BDA5AE",
"w 	c #443B6A",
"x 	c #83A0A9",
"y 	c #3C327A",
"z 	c #714E8D",
"A 	c #ED9695",
"B 	c #F5C1B4",
"C 	c #F9D7C5",
"D 	c #DFBDB7",
"E 	c #6A5091",
"F 	c #444A92",
"G 	c #4E4D6E",
"H 	c #3F4192",
"I 	c #3D3478",
"J 	c #3D3377",
"K 	c #8B4E6D",
"L 	c #F1A7A1",
"M 	c #E6BFB2",
"N 	c #845786",
"O 	c #667586",
"P 	c #3E2C6A",
"Q 	c #44367A",
"R 	c #414191",
"S 	c #3D3275",
"T 	c #913C62",
"U 	c #422255",
"V 	c #432356",
"W 	c #A66B77",
"X 	c #F4C0B3",
"Y 	c #F7D5C4",
"Z 	c #7A6070",
"` 	c #41357A",
" .	c #4A4978",
"..	c #3C3071",
"+.	c #78335D",
"@.	c #B24869",
"#.	c #784485",
"$.	c #412E69",
"%.	c #953B58",
"&.	c #9A3E5B",
"*.	c #9D3F5D",
"=.	c #664A60",
"-.	c #D2B4AA",
";.	c #F8D5C4",
">.	c #C26E75",
",.	c #743B6E",
"'.	c #3C387F",
").	c #5C6579",
"!.	c #8DAEB5",
"~.	c #778F9A",
"{.	c #708491",
"].	c #586184",
"^.	c #3E3C87",
"/.	c #3A2863",
"(.	c #B04D6B",
"_.	c #D57680",
":.	c #8C588B",
"<.	c #6B4388",
"[.	c #59254E",
"}.	c #84A5B4",
"|.	c #6A7C88",
"1.	c #3F1724",
"2.	c #B37D7F",
"3.	c #F7D6C5",
"4.	c #7F8F9E",
"5.	c #280C14",
"6.	c #371E4E",
"7.	c #3C2155",
"8.	c #79919C",
"9.	c #424286",
"0.	c #3F3D89",
"a.	c #3F3F8E",
"b.	c #3F3E8C",
"c.	c #3C255D",
"d.	c #392055",
"e.	c #B66476",
"f.	c #F4B9AE",
"g.	c #BD979A",
"h.	c #4F4890",
"i.	c #834481",
"j.	c #ABB0C1",
"k.	c #F3F9FC",
"l.	c #B6BABC",
"m.	c #150F0D",
"n.	c #F1CBBC",
"o.	c #F9D8C7",
"p.	c #D0D5D7",
"q.	c #000000",
"r.	c #3C245B",
"s.	c #B46075",
"t.	c #F1C3B6",
"u.	c #F8D1C0",
"v.	c #C26D80",
"w.	c #A35780",
"x.	c #ECBEB2",
"y.	c #FDF4F0",
"z.	c #C1BEBF",
"A.	c #8B766C",
"B.	c #F8D6C5",
"C.	c #F9D7C6",
"D.	c #E3CFD0",
"E.	c #6F6F6F",
"F.	c #87A5AD",
"G.	c #4A4B7C",
"H.	c #3D3173",
"I.	c #3B2155",
"J.	c #863E62",
"K.	c #C86E7E",
"L.	c #D28E90",
"M.	c #D77B81",
"N.	c #D0717D",
"O.	c #F6C6B8",
"P.	c #FADBCB",
"Q.	c #E5CDC3",
"R.	c #EECCBC",
"S.	c #F9D6C5",
"T.	c #F5C1B9",
"U.	c #C59398",
"V.	c #4F2554",
"W.	c #88A7AF",
"X.	c #3C2F73",
"Y.	c #3F408E",
"Z.	c #3D2862",
"`.	c #402255",
" +	c #562858",
".+	c #572C58",
"++	c #7F5B63",
"@+	c #B54E6C",
"#+	c #DE888B",
"$+	c #F8D2C1",
"%+	c #F8D3C2",
"&+	c #F9D5C3",
"*+	c #F4C1B4",
"=+	c #CB6E7B",
"-+	c #5B2A58",
";+	c #728794",
">+	c #5E6986",
",+	c #3E377E",
"'+	c #3D2B67",
")+	c #433257",
"!+	c #58565C",
"~+	c #6A5C5F",
"{+	c #A44D67",
"]+	c #B04769",
"^+	c #DE8C8E",
"/+	c #F7CCBC",
"(+	c #F2B0A8",
"_+	c #F4B8AD",
":+	c #C66B79",
"<+	c #6C2E5B",
"[+	c #50506C",
"}+	c #85A2AA",
"|+	c #8DAEB4",
"1+	c #47457A",
"2+	c #3E377F",
"3+	c #4D4358",
"4+	c #5E5E5E",
"5+	c #5D5D5D",
"6+	c #784F5A",
"7+	c #894E5F",
"8+	c #B6526D",
"9+	c #CE8389",
"0+	c #EBABA4",
"a+	c #F3B1A8",
"b+	c #F1A29D",
"c+	c #D3747F",
"d+	c #6C2F5B",
"e+	c #402C59",
"f+	c #86A3AB",
"g+	c #4D4A6B",
"h+	c #463B5E",
"i+	c #563A71",
"j+	c #6A6B9E",
"k+	c #5D5D67",
"l+	c #909090",
"m+	c #646262",
"n+	c #5E5D5D",
"o+	c #B04969",
"p+	c #AE4968",
"q+	c #89656C",
"r+	c #936777",
"s+	c #857378",
"t+	c #8F7E89",
"u+	c #3A2152",
"v+	c #453A60",
"w+	c #8EAFB3",
"x+	c #827A8F",
"y+	c #A45DA7",
"z+	c #A791A8",
"A+	c #9B9B9B",
"B+	c #8B8B8B",
"C+	c #9D9D9D",
"D+	c #757676",
"E+	c #C66878",
"F+	c #905364",
"G+	c #9B5D9E",
"H+	c #895A8B",
"I+	c #A759AA",
"J+	c #535C62",
"K+	c #85A3AB",
"L+	c #81778D",
"M+	c #9F57A1",
"N+	c #A089A1",
"O+	c #A0A0A0",
"P+	c #BABABA",
"Q+	c #6B6B6B",
"R+	c #A4A4A3",
"S+	c #8A8A8A",
"T+	c #E98C8E",
"U+	c #AE7074",
"V+	c #775D78",
"W+	c #857786",
"X+	c #AA69AC",
"Y+	c #728385",
"Z+	c #95BABE",
"`+	c #8BA5C2",
" @	c #88A0C3",
".@	c #90AFC0",
"+@	c #6B7683",
"@@	c #836484",
"#@	c #A38BA4",
"$@	c #A2A2A2",
"%@	c #B2B2B2",
"&@	c #666876",
"*@	c #6A77AF",
"=@	c #64687F",
"-@	c #796071",
";@	c #73666F",
">@	c #777777",
",@	c #797979",
"'@	c #717171",
")@	c #8D898D",
"!@	c #935C96",
"~@	c #59506F",
"{@	c #53397C",
"]@	c #7D8ABF",
"^@	c #8191C5",
"/@	c #93B5BF",
"(@	c #9DA5AD",
"_@	c #B086A7",
":@	c #71778D",
"<@	c #949494",
"[@	c #A1A1A1",
"}@	c #B0B0B0",
"|@	c #7A7A7A",
"1@	c #4C5058",
"2@	c #4D5364",
"3@	c #7B5C7C",
"4@	c #A561A8",
"5@	c #A08EA1",
"6@	c #AFAFAF",
"7@	c #B6B6B6",
"8@	c #716F71",
"9@	c #7A5487",
"0@	c #51416D",
"a@	c #4C2372",
"b@	c #594886",
"c@	c #7983B8",
"d@	c #8CA7C1",
"e@	c #9CA6AE",
"f@	c #C97D88",
"g@	c #E78C8F",
"h@	c #8C6595",
"i@	c #70758B",
"j@	c #787878",
"k@	c #797878",
"l@	c #4F5153",
"m@	c #39445D",
"n@	c #6F4D78",
"o@	c #A158A4",
"p@	c #A46BA7",
"q@	c #ADADAD",
"r@	c #C2C2C2",
"s@	c #B4B4B4",
"t@	c #535A85",
"u@	c #57518F",
"v@	c #6E72A8",
"w@	c #8394C4",
"x@	c #96B6BB",
"y@	c #C86A79",
"z@	c #EE9191",
"A@	c #E18388",
"B@	c #B0486A",
"C@	c #946497",
"D@	c #6E7CB8",
"E@	c #7689B7",
"F@	c #5E6782",
"G@	c #4C4A54",
"H@	c #8D5A8F",
"I@	c #A657A9",
"J@	c #9D9B9E",
"K@	c #A8A8A8",
"L@	c #B7B7B6",
"M@	c #8088AE",
"N@	c #79689D",
"O@	c #623C6E",
"P@	c #4E2E71",
"Q@	c #4C2C72",
"R@	c #4C2473",
"S@	c #7C89BE",
"T@	c #8AA2C2",
"U@	c #A497A1",
"V@	c #DC7E85",
"W@	c #EF9291",
"X@	c #BA556F",
"Y@	c #AC6A7F",
"Z@	c #A58D99",
"`@	c #87A0BA",
" #	c #7B979C",
".#	c #494D51",
"+#	c #7C4F7E",
"@#	c #A051A3",
"##	c #A375A5",
"$#	c #9D9C9D",
"%#	c #919191",
"&#	c #8D8D8D",
"*#	c #969696",
"=#	c #878787",
"-#	c #875662",
";#	c #B14869",
">#	c #953958",
",#	c #663C5C",
"'#	c #5B3766",
")#	c #4B2071",
"!#	c #7C88BD",
"~#	c #89A2C2",
"{#	c #A098A3",
"]#	c #D88188",
"^#	c #D37F8A",
"/#	c #8F537B",
"(#	c #763671",
"_#	c #817E95",
":#	c #7B96A0",
"<#	c #634258",
"[#	c #7A305F",
"}#	c #7F3466",
"|#	c #825268",
"1#	c #815B67",
"2#	c #794E5C",
"3#	c #6F3C4E",
"4#	c #665057",
"5#	c #A34D67",
"6#	c #AA4565",
"7#	c #7E2D4C",
"8#	c #692659",
"9#	c #8AA8B2",
"0#	c #7F91A2",
"a#	c #645688",
"b#	c #60538E",
"c#	c #594B8E",
"d#	c #63347D",
"e#	c #754878",
"f#	c #87A6B8",
"g#	c #5B6085",
"h#	c #62667F",
"i#	c #56575A",
"j#	c #5A5A5B",
"k#	c #725E73",
"l#	c #7A657B",
"m#	c #7B7B7B",
"n#	c #888888",
"o#	c #898787",
"p#	c #A14E66",
"q#	c #AA4B68",
"r#	c #8E3658",
"s#	c #8EAEB6",
"t#	c #77889D",
"u#	c #7C7A8E",
"v#	c #848198",
"w#	c #8893BD",
"x#	c #808FC5",
"y#	c #5B71C3",
"z#	c #8F5297",
"A#	c #AF5872",
"B#	c #87A4A7",
"C#	c #667195",
"D#	c #646D95",
"E#	c #656D95",
"F#	c #525E88",
"G#	c #4B4E50",
"H#	c #8E5490",
"I#	c #A161A4",
"J#	c #B08FB1",
"K#	c #B1A9B1",
"L#	c #C1C1C1",
"M#	c #C0C0C0",
"N#	c #A5A6A6",
"O#	c #998187",
"P#	c #883D6C",
"Q#	c #4B2372",
"R#	c #5F5691",
"S#	c #7F8CC1",
"T#	c #87A3AF",
"U#	c #4E2B74",
"V#	c #908E96",
"W#	c #9599AB",
"X#	c #8190C5",
"Y#	c #5C72C3",
"Z#	c #4562C2",
"`#	c #8090B8",
" $	c #9BAAB1",
".$	c #87A3A7",
"+$	c #8B6791",
"@$	c #99649B",
"#$	c #82889E",
"$$	c #626780",
"%$	c #6472AB",
"&$	c #3E3F44",
"*$	c #615261",
"=$	c #8C3E8E",
"-$	c #934595",
";$	c #945D95",
">$	c #AD77AF",
",$	c #AE97B0",
"'$	c #B7B7B7",
")$	c #BBBBBB",
"!$	c #726E78",
"~$	c #4C2272",
"{$	c #8293C5",
"]$	c #96B7BC",
"^$	c #97A6B0",
"/$	c #8692C0",
"($	c #7D8CC5",
"_$	c #4865C2",
":$	c #96BABE",
"<$	c #92B4B9",
"[$	c #805981",
"}$	c #A656A9",
"|$	c #9E999E",
"1$	c #8A90AB",
"2$	c #626988",
"3$	c #806194",
"4$	c #8D2141",
"5$	c #892244",
"6$	c #AF5763",
"7$	c #9B4456",
"8$	c #7F2343",
"9$	c #605156",
"0$	c #5F5156",
"a$	c #716F6F",
"b$	c #5C5A60",
"c$	c #595164",
"d$	c #585065",
"e$	c #98AEB2",
"f$	c #9AA7A9",
"g$	c #9096B3",
"h$	c #6381C1",
"i$	c #799AC0",
"j$	c #7D6D7E",
"k$	c #A283A3",
"l$	c #9E9B9E",
"m$	c #898B99",
"n$	c #7B566B",
"o$	c #9E2637",
"p$	c #94213C",
"q$	c #B75F69",
"r$	c #E6898A",
"s$	c #AD5058",
"t$	c #88243B",
"u$	c #88233B",
"v$	c #98656B",
"w$	c #51506C",
"x$	c #4C3272",
"y$	c #95B8BD",
"z$	c #9BA4A6",
"A$	c #9C9C9F",
"B$	c #8E95B4",
"C$	c #91B4BE",
"D$	c #676666",
"E$	c #6F6A6A",
"F$	c #6E6A6B",
"G$	c #78575E",
"H$	c #892845",
"I$	c #B04850",
"J$	c #E38788",
"K$	c #E88C8C",
"L$	c #AE444D",
"M$	c #9F2436",
"N$	c #843A55",
"O$	c #4C3C72",
"P$	c #4C2472",
"Q$	c #4D2874",
"R$	c #6F73AA",
"S$	c #90B0C0",
"T$	c #5B70C3",
"U$	c #98A3A9",
"V$	c #9E505A",
"W$	c #92223F",
"X$	c #892144",
"Y$	c #A74E5C",
"Z$	c #EC8F90",
"`$	c #E48787",
" %	c #B24A52",
".%	c #933047",
"+%	c #60496A",
"@%	c #4D3E74",
"#%	c #6F72A9",
"$%	c #8599C4",
"%%	c #94B6BF",
"&%	c #9AA8A9",
"*%	c #969AA9",
"=%	c #8E96B5",
"-%	c #90B3BE",
";%	c #97A3A8",
">%	c #CD7679",
",%	c #CC7378",
"'%	c #E38789",
")%	c #E18485",
"!%	c #B0464E",
"~%	c #9F1E32",
"{%	c #9F2134",
"]%	c #9F2233",
"^%	c #993B5A",
"/%	c #846296",
"(%	c #805164",
"_%	c #7F4C50",
":%	c #7E7C85",
"<%	c #7D98A4",
"[%	c #8DA9C1",
"}%	c #92B2BF",
"|%	c #9AA9AB",
"1%	c #8591C0",
"2%	c #6B7DC1",
"3%	c #546EC2",
"4%	c #8EB1BF",
"5%	c #92B5BE",
"6%	c #8C5362",
"7%	c #8B4154",
"8%	c #CD787D",
"9%	c #E78C8D",
"0%	c #B4A5A9",
"a%	c #96AEB3",
"b%	c #877E86",
"c%	c #766398",
"d%	c #7672AD",
"e%	c #686D96",
"f%	c #5E5F62",
"g%	c #7F989B",
"h%	c #96B4B9",
"i%	c #95A0AF",
"j%	c #677AC3",
"k%	c #5876C1",
"l%	c #8CAFBF",
"m%	c #8EA5AC",
"n%	c #773B52",
"o%	c #752847",
"p%	c #742646",
"q%	c #732546",
"r%	c #795A69",
"s%	c #8FA9AF",
"t%	c #9A888E",
"u%	c #9F1F33",
"v%	c #9F2232",
"w%	c #8F3D44",
"x%	c #655B5B",
"y%	c #96B7BB",
"z%	c #95A0B0",
"A%	c #707FC0",
"B%	c #7C9DC0",
"C%	c #89ACBF",
"D%	c #837C86",
"E%	c #78475B",
"F%	c #8FA8AE",
"G%	c #999298",
"H%	c #9F2939",
"I%	c #8F3F47",
"J%	c #839EA1",
"K%	c #8DADB2",
"L%	c #939EAA",
"M%	c #5973C0",
"N%	c #82A3BF",
"O%	c #742D48",
"P%	c #722F48",
"Q%	c #92B0B5",
"R%	c #9F303E",
"S%	c #9C2A39",
"T%	c #992F3C",
"U%	c #9A3944",
"V%	c #9E4C56",
"W%	c #98A4A9",
"X%	c #6C4552",
"Y%	c #9A8E94",
"Z%	c #8C5683",
"`%	c #7A628A",
" &	c #5F636E",
".&	c #819B9F",
"+&	c #8EA3AA",
"@&	c #7A5263",
"#&	c #72344B",
"$&	c #6D3D4D",
"%&	c #93B5BA",
"&&	c #895B8B",
"*&	c #6A7CBC",
"=&	c #7F98AB",
"-&	c #8A969D",
";&	c #742E49",
">&	c #89989F",
",&	c #99969C",
"'&	c #9F3946",
")&	c #9F2639",
"!&	c #9C4758",
"~&	c #97A7AD",
"{&	c #94B6BB",
"]&	c #81737E",
"^&	c #85A1A5",
"/&	c #99979D",
"(&	c #9B848A",
"_&	c #98A1A6",
":&	c #93B3B8",
"<&	c #752344",
"[&	c #72334A",
"}&	c #899CA2",
"|&	c #724F7D",
"1&	c #6E71AA",
"2&	c #7681AE",
"3&	c #868890",
"4&	c #7C5D6B",
"5&	c #752747",
"6&	c #752746",
"7&	c #752645",
"8&	c #7B5767",
"9&	c #91ACB2",
"0&	c #8EA3A9",
"a&	c #8FA7AD",
"                                                                                                    ",
"                                                                                                    ",
"                                                                                                    ",
"                                              . + @ @ @ @ #   $                                     ",
"                                          % & * = - - - - ; > , ' )                                 ",
"                                        ! ~ { ] ] ] ] ] ^ / ( _ : < [                               ",
"                                        } | ] ] ] ] ] 1 2 3 4 5 5 5 6                               ",
"                                      7 8 ] ] ] ] ] ] 9 0 a b c d c e f                             ",
"                                    g h i ] ] ] ] ] ] j k l ] m n o p q                             ",
"                                    r s ] ] ] ] ] ] ] ] ] ] t n u v ] w $                           ",
"                                    x y ] ] ] ] ] ] ] ] ] z A B C D E F f                           ",
"                                  . G H ] ] ] ] ] ] ] I J K L C C M N - O                           ",
"                                  . G ] ] P Q R ] ] S T U V W X Y Z ` - @                           ",
"                                  f  .] ..+.@.#.] ] $.%.&.*.=.-.;.>.,.'.).!.                        ",
"                            $ ~.{.].- ^./.(._.:.] <.[.}.|.1.2.C 3.4.5.6.7.8.                        ",
"                            ~.9.0.a.b.c.d.e.f.g.h.i.j.k.l.m.n.C o.p.q.6.7.8.                        ",
"                            {.0.] i r.7.d.s.t.u.v.w.x.y.z.A.B.C C.D.E.6.7.8.                        ",
"                            F.G.H H.7.7.I.J.K.L.M.N.O.P.Q.R.C C S.T.U.V.7.8.                        ",
"                              W.X.Y.Z.7.7.`. +.+++@+#+$+C C %+&+C *+=+-+7.8.                        ",
"                              ;+>+,+| '+7.7.)+!+~+{+]+^+/+C (+_+u :+<+7.[+}+                        ",
"                                |+7 1+2+7.7.3+4+5+6+7+8+9+0+a+b+c+d+7.e+f+                          ",
"                                    |+g+h+i+j+k+l+m+n+o+p+q+r+s+t+u+v+W.                            ",
"                                      w+x+y+z+A+B+C+D+E+F+l+G+H+I+J+K+                              ",
"                                    g L+M+N+O+P+Q+R+S+T+U+l+V+W+X+Y+Z+`+ @.@                        ",
"                                  $ +@@@#@C+$@%@&@*@=@-@;@>@,@'@)@!@~@{@]@^@/@                      ",
"                                  (@_@:@<@[@}@|@1@2@3@4@5@6@P+7@8@9@0@a@b@c@d@                      ",
"                                e@f@g@h@i@j@k@l@m@n@o@p@C+C+q@r@s@t@u@a@a@v@w@                      ",
"                              x@y@z@A@B@C@D@E@F@G@H@I@J@C+O+K@L@M@N@O@P@Q@R@S@T@                    ",
"                              U@V@W@X@Y@Z@`@ #.#+#@###$#%#&#*#=#-#;#>#,#'#)#!#~#                    ",
"                            {#]#^#/#(#_#    :#<#[#}#|#1#2#3#3#4#5#;#6#7#8#)#!#~#                    ",
"                        9#0#a#b#c#d#e#    f#g#h#i#j#k#l#m#m#n#n#o#p#q#r#a@)#!#~#                    ",
"                    s#t#u#v#w#x#y#z#A#$ B#C#D#E#F#G#H#I#J#K#L#L#M#N#O#P#Q#R#S#~#                    ",
"                    T#U#V#W#X#Y#Z#`# $.$+$@$#$$$%$&$*$=$-$;$>$,$}@'$)$!$~$v@{$/@                    ",
"                    ]$^$/$($y#_$:$  <$[$}$|$1$2$3$4$5$6$7$8$9$0$a$b$c$d$~$v@w@                      ",
"                  e$f$g$X#y#h$i$    <$j$k$l$m$n$o$p$q$r$s$t$t$u$v$w$x$a@a@v@w@                      ",
"                y$z$A$B$Y#h$C$      <$D$E$F$G$H$I$J$K$L$M$M$M$M$M$N$O$P$Q$R$S$                      ",
"              ]$f$C+($T$h$            U$V$W$X$Y$Z$`$ %M$M$M$M$M$M$.%+%@%#%$%%%                      ",
"              &%*%=%T$h$-%              ;%>%,%'%z@)%!%~%{%]%^%/%(%_%:%<%[%}%                        ",
"            |%1%2%3%4%5%                $ 6%7%8%9%9%0%a%b%c%d%e%f%4+g%                              ",
"          h%i%j%k%l%                    m%n%o%p%q%r%s%t%u%]%v%w%x%4+g%                              ",
"        y%z%A%B%C%                      D%o%o%o%E%F%G%H%M$M$M$M$I%J%K%                              ",
"        L%M%N%                          D%o%O%P%Q%G%R%M$S%T%U%V%W%                                  ",
"          :$                            D%o%X%5+g Y%M$Z%`% &.&$                                     ",
"                                      +&@&o%#&$&%&Y%M$&&*&=&                                        ",
"                                      -&o%o%;&>&  ,&'&)&!&~&                                        ",
"                                    {&]&o%o%X%^&    /&(&_&                                          ",
"                                    :&<&o%o%[&}&                                                    ",
"                                    :&<&o%o%|&1&2&                                                  ",
"                                    {&3&4&5&6&7&8&$                                                 ",
"                                        9&0&0&0&a&                                                  "};
