/* XPM */
static char * prs1_xpm[] = {
"50 50 684 2",
"  	c #95B9BE",
". 	c #95BABF",
"+ 	c #677686",
"@ 	c #677586",
"# 	c #697A89",
"$ 	c #96BABF",
"% 	c #9AB0B5",
"& 	c #9E9CA1",
"* 	c #A43744",
"= 	c #743856",
"- 	c #533D87",
"; 	c #3F408F",
"> 	c #3F408D",
", 	c #443B69",
"' 	c #738A98",
") 	c #8CACB3",
"! 	c #9FA7AC",
"~ 	c #B8565D",
"{ 	c #BE2331",
"] 	c #BE2633",
"^ 	c #B32534",
"/ 	c #A22A4A",
"( 	c #5F3C83",
"_ 	c #3F4191",
": 	c #3D3882",
"< 	c #433E78",
"[ 	c #84A1A9",
"} 	c #9F8E94",
"| 	c #A92535",
"1 	c #AA2535",
"2 	c #BC2633",
"3 	c #A12A4D",
"4 	c #563E88",
"5 	c #3F3F8D",
"6 	c #6A7B8A",
"7 	c #8BABB2",
"8 	c #413575",
"9 	c #434090",
"0 	c #785490",
"a 	c #45408F",
"b 	c #9D2B4E",
"c 	c #B82533",
"d 	c #693C84",
"e 	c #3F3A7E",
"f 	c #7C96A0",
"g 	c #708494",
"h 	c #3E3983",
"i 	c #3D4091",
"j 	c #E18A91",
"k 	c #895D91",
"l 	c #543E89",
"m 	c #7C346E",
"n 	c #513F8B",
"o 	c #3E3C88",
"p 	c #63728B",
"q 	c #93B6BB",
"r 	c #443B6A",
"s 	c #BDA5AE",
"t 	c #F4BEB2",
"u 	c #7E5891",
"v 	c #3B2C70",
"w 	c #90B2B8",
"x 	c #444A92",
"y 	c #6A5091",
"z 	c #DFBDB7",
"A 	c #F9D7C5",
"B 	c #F5C1B4",
"C 	c #ED9695",
"D 	c #714E8D",
"E 	c #3C327A",
"F 	c #83A0A9",
"G 	c #667586",
"H 	c #845786",
"I 	c #E6BFB2",
"J 	c #F1A7A1",
"K 	c #8B4E6D",
"L 	c #3D3377",
"M 	c #3D3478",
"N 	c #3F4192",
"O 	c #4E4D6E",
"P 	c #41357A",
"Q 	c #7A6070",
"R 	c #F7D5C4",
"S 	c #F4C0B3",
"T 	c #A66B77",
"U 	c #432356",
"V 	c #422255",
"W 	c #913C62",
"X 	c #3D3275",
"Y 	c #414191",
"Z 	c #44367A",
"` 	c #3E2C6A",
" .	c #8DAEB5",
"..	c #5C6579",
"+.	c #3C387F",
"@.	c #743B6E",
"#.	c #C26E75",
"$.	c #F8D5C4",
"%.	c #D2B4AA",
"&.	c #664A60",
"*.	c #9D3F5D",
"=.	c #9A3E5B",
"-.	c #953B58",
";.	c #412E69",
">.	c #784485",
",.	c #B24869",
"'.	c #78335D",
").	c #3C3071",
"!.	c #4A4978",
"~.	c #79919C",
"{.	c #3C2155",
"].	c #371E4E",
"^.	c #280C14",
"/.	c #7F8F9E",
"(.	c #F7D6C5",
"_.	c #B37D7F",
":.	c #3F1724",
"<.	c #6A7C88",
"[.	c #84A5B4",
"}.	c #59254E",
"|.	c #6B4388",
"1.	c #8C588B",
"2.	c #D57680",
"3.	c #B04D6B",
"4.	c #3A2863",
"5.	c #3E3C87",
"6.	c #586184",
"7.	c #708491",
"8.	c #778F9A",
"9.	c #000000",
"0.	c #D0D5D7",
"a.	c #F9D8C7",
"b.	c #F1CBBC",
"c.	c #150F0D",
"d.	c #B6BABC",
"e.	c #F3F9FC",
"f.	c #ABB0C1",
"g.	c #834481",
"h.	c #4F4890",
"i.	c #BD979A",
"j.	c #F4B9AE",
"k.	c #B66476",
"l.	c #392055",
"m.	c #3C255D",
"n.	c #3F3E8C",
"o.	c #3F3F8E",
"p.	c #3F3D89",
"q.	c #424286",
"r.	c #6F6F6F",
"s.	c #E3CFD0",
"t.	c #F9D7C6",
"u.	c #F8D6C5",
"v.	c #8B766C",
"w.	c #C1BEBF",
"x.	c #FDF4F0",
"y.	c #ECBEB2",
"z.	c #A35780",
"A.	c #C26D80",
"B.	c #F8D1C0",
"C.	c #F1C3B6",
"D.	c #B46075",
"E.	c #3C245B",
"F.	c #4F2554",
"G.	c #C59398",
"H.	c #F5C1B9",
"I.	c #F9D6C5",
"J.	c #EECCBC",
"K.	c #E5CDC3",
"L.	c #FADBCB",
"M.	c #F6C6B8",
"N.	c #D0717D",
"O.	c #D77B81",
"P.	c #D28E90",
"Q.	c #C86E7E",
"R.	c #863E62",
"S.	c #3B2155",
"T.	c #3D3173",
"U.	c #4A4B7C",
"V.	c #87A5AD",
"W.	c #5B2A58",
"X.	c #CB6E7B",
"Y.	c #F4C1B4",
"Z.	c #F9D5C3",
"`.	c #F8D3C2",
" +	c #F8D2C1",
".+	c #DE888B",
"++	c #B54E6C",
"@+	c #7F5B63",
"#+	c #572C58",
"$+	c #562858",
"%+	c #402255",
"&+	c #3D2862",
"*+	c #3F408E",
"=+	c #3C2F73",
"-+	c #88A7AF",
";+	c #85A2AA",
">+	c #50506C",
",+	c #6C2E5B",
"'+	c #C66B79",
")+	c #F4B8AD",
"!+	c #F2B0A8",
"~+	c #F7CCBC",
"{+	c #DE8C8E",
"]+	c #B04769",
"^+	c #A44D67",
"/+	c #6A5C5F",
"(+	c #58565C",
"_+	c #433257",
":+	c #3D2B67",
"<+	c #3E377E",
"[+	c #5E6986",
"}+	c #728794",
"|+	c #86A3AB",
"1+	c #402C59",
"2+	c #6C2F5B",
"3+	c #D3747F",
"4+	c #F1A29D",
"5+	c #F3B1A8",
"6+	c #EBABA4",
"7+	c #CE8389",
"8+	c #B6526D",
"9+	c #894E5F",
"0+	c #784F5A",
"a+	c #5D5D5D",
"b+	c #5E5E5E",
"c+	c #4D4358",
"d+	c #3E377F",
"e+	c #47457A",
"f+	c #8DAEB4",
"g+	c #453A60",
"h+	c #3A2152",
"i+	c #8F7E89",
"j+	c #857378",
"k+	c #936777",
"l+	c #89656C",
"m+	c #AE4968",
"n+	c #B04969",
"o+	c #5E5D5D",
"p+	c #646262",
"q+	c #909090",
"r+	c #5D5D67",
"s+	c #6A6B9E",
"t+	c #563A71",
"u+	c #463B5E",
"v+	c #4D4A6B",
"w+	c #85A3AB",
"x+	c #535C62",
"y+	c #A759AA",
"z+	c #895A8B",
"A+	c #9B5D9E",
"B+	c #905364",
"C+	c #C66878",
"D+	c #757676",
"E+	c #9D9D9D",
"F+	c #8B8B8B",
"G+	c #9B9B9B",
"H+	c #A791A8",
"I+	c #A45DA7",
"J+	c #827A8F",
"K+	c #8EAFB3",
"L+	c #90AFC0",
"M+	c #88A0C3",
"N+	c #8BA5C2",
"O+	c #95BABE",
"P+	c #728385",
"Q+	c #AA69AC",
"R+	c #857786",
"S+	c #775D78",
"T+	c #AE7074",
"U+	c #E98C8E",
"V+	c #8A8A8A",
"W+	c #A4A4A3",
"X+	c #6B6B6B",
"Y+	c #BABABA",
"Z+	c #A0A0A0",
"`+	c #A089A1",
" @	c #9F57A1",
".@	c #81778D",
"+@	c #93B5BF",
"@@	c #8191C5",
"#@	c #7D8ABF",
"$@	c #53397C",
"%@	c #59506F",
"&@	c #935C96",
"*@	c #8D898D",
"=@	c #717171",
"-@	c #797979",
";@	c #777777",
">@	c #73666F",
",@	c #796071",
"'@	c #64687F",
")@	c #6A77AF",
"!@	c #666876",
"~@	c #B2B2B2",
"{@	c #A2A2A2",
"]@	c #A38BA4",
"^@	c #836484",
"/@	c #6B7683",
"(@	c #8CA7C1",
"_@	c #7983B8",
":@	c #594886",
"<@	c #4C2372",
"[@	c #51416D",
"}@	c #7A5487",
"|@	c #716F71",
"1@	c #B6B6B6",
"2@	c #AFAFAF",
"3@	c #A08EA1",
"4@	c #A561A8",
"5@	c #7B5C7C",
"6@	c #4D5364",
"7@	c #4C5058",
"8@	c #7A7A7A",
"9@	c #B0B0B0",
"0@	c #A1A1A1",
"a@	c #949494",
"b@	c #71778D",
"c@	c #B086A7",
"d@	c #9DA5AD",
"e@	c #8394C4",
"f@	c #6E72A8",
"g@	c #57518F",
"h@	c #535A85",
"i@	c #B4B4B4",
"j@	c #C2C2C2",
"k@	c #ADADAD",
"l@	c #A46BA7",
"m@	c #A158A4",
"n@	c #6F4D78",
"o@	c #39445D",
"p@	c #4F5153",
"q@	c #797878",
"r@	c #787878",
"s@	c #70758B",
"t@	c #8C6595",
"u@	c #E78C8F",
"v@	c #C97D88",
"w@	c #9CA6AE",
"x@	c #8AA2C2",
"y@	c #7C89BE",
"z@	c #4C2473",
"A@	c #4C2C72",
"B@	c #4E2E71",
"C@	c #623C6E",
"D@	c #79689D",
"E@	c #8088AE",
"F@	c #B7B7B6",
"G@	c #A8A8A8",
"H@	c #9D9B9E",
"I@	c #A657A9",
"J@	c #8D5A8F",
"K@	c #4C4A54",
"L@	c #5E6782",
"M@	c #7689B7",
"N@	c #6E7CB8",
"O@	c #946497",
"P@	c #B0486A",
"Q@	c #E18388",
"R@	c #EE9191",
"S@	c #C86A79",
"T@	c #96B6BB",
"U@	c #89A2C2",
"V@	c #7C88BD",
"W@	c #4B2071",
"X@	c #5B3766",
"Y@	c #663C5C",
"Z@	c #953958",
"`@	c #B14869",
" #	c #875662",
".#	c #878787",
"+#	c #969696",
"@#	c #8D8D8D",
"##	c #919191",
"$#	c #9D9C9D",
"%#	c #A375A5",
"&#	c #A051A3",
"*#	c #7C4F7E",
"=#	c #494D51",
"-#	c #7B979C",
";#	c #87A0BA",
">#	c #A58D99",
",#	c #AC6A7F",
"'#	c #BA556F",
")#	c #EF9291",
"!#	c #DC7E85",
"~#	c #A497A1",
"{#	c #692659",
"]#	c #7E2D4C",
"^#	c #AA4565",
"/#	c #A34D67",
"(#	c #665057",
"_#	c #6F3C4E",
":#	c #794E5C",
"<#	c #815B67",
"[#	c #825268",
"}#	c #7F3466",
"|#	c #7A305F",
"1#	c #634258",
"2#	c #7B96A0",
"3#	c #817E95",
"4#	c #763671",
"5#	c #8F537B",
"6#	c #D37F8A",
"7#	c #D88188",
"8#	c #A098A3",
"9#	c #8E3658",
"0#	c #AA4B68",
"a#	c #A14E66",
"b#	c #898787",
"c#	c #888888",
"d#	c #7B7B7B",
"e#	c #7A657B",
"f#	c #725E73",
"g#	c #5A5A5B",
"h#	c #56575A",
"i#	c #62667F",
"j#	c #5B6085",
"k#	c #87A6B8",
"l#	c #754878",
"m#	c #63347D",
"n#	c #594B8E",
"o#	c #60538E",
"p#	c #645688",
"q#	c #7F91A2",
"r#	c #8AA8B2",
"s#	c #7F8CC1",
"t#	c #5F5691",
"u#	c #4B2372",
"v#	c #883D6C",
"w#	c #998187",
"x#	c #A5A6A6",
"y#	c #C0C0C0",
"z#	c #C1C1C1",
"A#	c #B1A9B1",
"B#	c #B08FB1",
"C#	c #A161A4",
"D#	c #8E5490",
"E#	c #4B4E50",
"F#	c #525E88",
"G#	c #656D95",
"H#	c #646D95",
"I#	c #667195",
"J#	c #87A4A7",
"K#	c #AF5872",
"L#	c #8F5297",
"M#	c #5B71C3",
"N#	c #808FC5",
"O#	c #8893BD",
"P#	c #848198",
"Q#	c #7C7A8E",
"R#	c #77889D",
"S#	c #8EAEB6",
"T#	c #8293C5",
"U#	c #4C2272",
"V#	c #726E78",
"W#	c #BBBBBB",
"X#	c #B7B7B7",
"Y#	c #AE97B0",
"Z#	c #AD77AF",
"`#	c #945D95",
" $	c #934595",
".$	c #8C3E8E",
"+$	c #615261",
"@$	c #3E3F44",
"#$	c #6472AB",
"$$	c #626780",
"%$	c #82889E",
"&$	c #99649B",
"*$	c #8B6791",
"=$	c #87A3A7",
"-$	c #9BAAB1",
";$	c #8090B8",
">$	c #4562C2",
",$	c #5C72C3",
"'$	c #8190C5",
")$	c #9599AB",
"!$	c #908E96",
"~$	c #4E2B74",
"{$	c #87A3AF",
"]$	c #585065",
"^$	c #595164",
"/$	c #5C5A60",
"($	c #716F6F",
"_$	c #5F5156",
":$	c #605156",
"<$	c #7F2343",
"[$	c #9B4456",
"}$	c #AF5763",
"|$	c #892244",
"1$	c #8D2141",
"2$	c #806194",
"3$	c #626988",
"4$	c #8A90AB",
"5$	c #9E999E",
"6$	c #A656A9",
"7$	c #805981",
"8$	c #92B4B9",
"9$	c #96BABE",
"0$	c #4865C2",
"a$	c #7D8CC5",
"b$	c #8692C0",
"c$	c #97A6B0",
"d$	c #96B7BC",
"e$	c #4C3272",
"f$	c #51506C",
"g$	c #98656B",
"h$	c #88233B",
"i$	c #88243B",
"j$	c #AD5058",
"k$	c #E6898A",
"l$	c #B75F69",
"m$	c #94213C",
"n$	c #9E2637",
"o$	c #7B566B",
"p$	c #898B99",
"q$	c #9E9B9E",
"r$	c #A283A3",
"s$	c #7D6D7E",
"t$	c #799AC0",
"u$	c #6381C1",
"v$	c #9096B3",
"w$	c #9AA7A9",
"x$	c #98AEB2",
"y$	c #90B0C0",
"z$	c #6F73AA",
"A$	c #4D2874",
"B$	c #4C2472",
"C$	c #4C3C72",
"D$	c #843A55",
"E$	c #9F2436",
"F$	c #AE444D",
"G$	c #E88C8C",
"H$	c #E38788",
"I$	c #B04850",
"J$	c #892845",
"K$	c #78575E",
"L$	c #6E6A6B",
"M$	c #6F6A6A",
"N$	c #676666",
"O$	c #91B4BE",
"P$	c #8E95B4",
"Q$	c #9C9C9F",
"R$	c #9BA4A6",
"S$	c #95B8BD",
"T$	c #94B6BF",
"U$	c #8599C4",
"V$	c #6F72A9",
"W$	c #4D3E74",
"X$	c #60496A",
"Y$	c #933047",
"Z$	c #B24A52",
"`$	c #E48787",
" %	c #EC8F90",
".%	c #A74E5C",
"+%	c #892144",
"@%	c #92223F",
"#%	c #9E505A",
"$%	c #98A3A9",
"%%	c #5B70C3",
"&%	c #92B2BF",
"*%	c #8DA9C1",
"=%	c #7D98A4",
"-%	c #7E7C85",
";%	c #7F4C50",
">%	c #805164",
",%	c #846296",
"'%	c #993B5A",
")%	c #9F2233",
"!%	c #9F2134",
"~%	c #9F1E32",
"{%	c #B0464E",
"]%	c #E18485",
"^%	c #E38789",
"/%	c #CC7378",
"(%	c #CD7679",
"_%	c #97A3A8",
":%	c #90B3BE",
"<%	c #8E96B5",
"[%	c #969AA9",
"}%	c #9AA8A9",
"|%	c #7F989B",
"1%	c #5E5F62",
"2%	c #686D96",
"3%	c #7672AD",
"4%	c #766398",
"5%	c #877E86",
"6%	c #96AEB3",
"7%	c #B4A5A9",
"8%	c #E78C8D",
"9%	c #CD787D",
"0%	c #8B4154",
"a%	c #8C5362",
"b%	c #92B5BE",
"c%	c #8EB1BF",
"d%	c #546EC2",
"e%	c #6B7DC1",
"f%	c #8591C0",
"g%	c #9AA9AB",
"h%	c #655B5B",
"i%	c #8F3D44",
"j%	c #9F2232",
"k%	c #9F1F33",
"l%	c #9A888E",
"m%	c #8FA9AF",
"n%	c #795A69",
"o%	c #732546",
"p%	c #742646",
"q%	c #752847",
"r%	c #773B52",
"s%	c #8EA5AC",
"t%	c #8CAFBF",
"u%	c #5876C1",
"v%	c #677AC3",
"w%	c #95A0AF",
"x%	c #96B4B9",
"y%	c #8DADB2",
"z%	c #839EA1",
"A%	c #8F3F47",
"B%	c #9F2939",
"C%	c #999298",
"D%	c #8FA8AE",
"E%	c #78475B",
"F%	c #837C86",
"G%	c #89ACBF",
"H%	c #7C9DC0",
"I%	c #707FC0",
"J%	c #95A0B0",
"K%	c #96B7BB",
"L%	c #98A4A9",
"M%	c #9E4C56",
"N%	c #9A3944",
"O%	c #992F3C",
"P%	c #9C2A39",
"Q%	c #9F303E",
"R%	c #92B0B5",
"S%	c #722F48",
"T%	c #742D48",
"U%	c #82A3BF",
"V%	c #5973C0",
"W%	c #939EAA",
"X%	c #819B9F",
"Y%	c #5F636E",
"Z%	c #7A628A",
"`%	c #8C5683",
" &	c #9A8E94",
".&	c #6C4552",
"+&	c #7F98AB",
"@&	c #6A7CBC",
"#&	c #895B8B",
"$&	c #93B5BA",
"%&	c #6D3D4D",
"&&	c #72344B",
"*&	c #7A5263",
"=&	c #8EA3AA",
"-&	c #97A7AD",
";&	c #9C4758",
">&	c #9F2639",
",&	c #9F3946",
"'&	c #99969C",
")&	c #89989F",
"!&	c #742E49",
"~&	c #8A969D",
"{&	c #98A1A6",
"]&	c #9B848A",
"^&	c #99979D",
"/&	c #85A1A5",
"(&	c #81737E",
"_&	c #94B6BB",
":&	c #899CA2",
"<&	c #72334A",
"[&	c #752344",
"}&	c #93B3B8",
"|&	c #7681AE",
"1&	c #6E71AA",
"2&	c #724F7D",
"3&	c #7B5767",
"4&	c #752645",
"5&	c #752746",
"6&	c #752747",
"7&	c #7C5D6B",
"8&	c #868890",
"9&	c #8FA7AD",
"0&	c #8EA3A9",
"a&	c #91ACB2",
"                                                                                                    ",
"                                                                                                    ",
"                                                                                                    ",
"                                    .   + @ @ @ @ # $                                               ",
"                                % & * = - ; ; ; ; > , ' )                                           ",
"                              ! ~ { ] ^ / ( _ _ _ _ _ : < [                                         ",
"                              } | | | 1 2 3 4 _ _ _ _ _ 5 6                                         ",
"                            7 8 9 0 9 a b c d _ _ _ _ _ _ e f                                       ",
"                            g h i j k _ l m n _ _ _ _ _ _ o p q                                     ",
"                          . r _ s t j u _ _ _ _ _ _ _ _ _ _ v w                                     ",
"                          7 x y z A B C D _ _ _ _ _ _ _ _ _ E F                                     ",
"                          G ; H I A A J K L M _ _ _ _ _ _ _ N O $                                   ",
"                          @ ; P Q R S T U V W X _ _ Y Z ` _ _ O $                                   ",
"                         ...+.@.#.$.%.&.*.=.-.;._ _ >.,.'.)._ !.7                                   ",
"                        ~.{.].^./.(.A _.:.<.[.}.|._ 1.2.3.4.5.; 6.7.8..                             ",
"                        ~.{.].9.0.a.A b.c.d.e.f.g.h.i.j.k.l.m.n.o.p.q.8.                            ",
"                        ~.{.].r.s.t.A u.v.w.x.y.z.A.B.C.D.l.{.E.o _ p.7.                            ",
"                        ~.{.F.G.H.I.A A J.K.L.M.N.O.P.Q.R.S.{.{.T.N U.V.                            ",
"                        ~.{.W.X.Y.A Z.`.A A  +.+++@+#+$+%+{.{.&+*+=+-+                              ",
"                        ;+>+{.,+'+t )+!+A ~+{+]+^+/+(+_+{.{.:+5 <+[+}+                              ",
"                          |+1+{.2+3+4+5+6+7+8+9+0+a+b+c+{.{.d+e+f f+                                ",
"                            -+g+h+i+j+k+l+m+n+o+p+q+r+s+t+u+v+f+                                    ",
"                              w+x+y+z+A+q+B+C+D+E+F+G+H+I+J+K+                                      ",
"                        L+M+N+O+P+Q+R+S+q+T+U+V+W+X+Y+Z+`+ @.@q                                     ",
"                      +@@@#@$@%@&@*@=@-@;@>@,@'@)@!@~@{@E+]@^@/@.                                   ",
"                      (@_@:@<@[@}@|@1@Y+2@3@4@5@6@7@8@9@0@a@b@c@d@                                  ",
"                      e@f@<@<@g@h@i@j@k@E+E+l@m@n@o@p@q@r@s@t@u@v@w@                                ",
"                    x@y@z@A@B@C@D@E@F@G@Z+E+H@I@J@K@L@M@N@O@P@Q@R@S@T@                              ",
"                    U@V@W@X@Y@Z@`@ #.#+#@###$#%#&#*#=#-#;#>#,#'#)#!#~#                              ",
"                    U@V@W@{#]#^#`@/#(#_#_#:#<#[#}#|#1#2#    3#4#5#6#7#8#                            ",
"                    U@V@W@<@9#0#a#b#c#c#d#d#e#f#g#h#i#j#k#    l#m#n#o#p#q#r#                        ",
"                    U@s#t#u#v#w#x#y#z#z#A#B#C#D#E#F#G#H#I#J#. K#L#M#N#O#P#Q#R#S#                    ",
"                    +@T#f@U#V#W#X#9@Y#Z#`# $.$+$@$#$$$%$&$*$=$-$;$>$,$'$)$!$~${$                    ",
"                      e@f@U#]$^$/$($_$:$<$[$}$|$1$2$3$4$5$6$7$8$  9$0$M#a$b$c$d$                    ",
"                      e@f@<@<@e$f$g$h$i$i$j$k$l$m$n$o$p$q$r$s$8$    t$u$M#'$v$w$x$                  ",
"                      y$z$A$B$C$D$E$E$E$E$E$F$G$H$I$J$K$L$M$N$8$      O$u$,$P$Q$R$S$                ",
"                      T$U$V$W$X$Y$E$E$E$E$E$E$Z$`$ %.%+%@%#%$%            u$%%a$E+w$d$              ",
"                        &%*%=%-%;%>%,%'%)%!%~%{%]%R@^%/%(%_%              :%u$%%<%[%}%              ",
"                              |%b+1%2%3%4%5%6%7%8%8%9%0%a%.                 b%c%d%e%f%g%            ",
"                              |%b+h%i%j%)%k%l%m%n%o%p%q%r%s%                    t%u%v%w%x%          ",
"                              y%z%A%E$E$E$E$B%C%D%E%q%q%q%F%                      G%H%I%J%K%        ",
"                                  L%M%N%O%P%E$Q%C%R%S%T%q%F%                          U%V%W%        ",
"                                    . X%Y%Z%`%E$ &q a+.&q%F%                            9$          ",
"                                        +&@&#&E$ &$&%&&&q%*&=&                                      ",
"                                        -&;&>&,&'&  )&!&q%q%~&                                      ",
"                                          {&]&^&    /&.&q%q%(&_&                                    ",
"                                                    :&<&q%q%[&}&                                    ",
"                                                  |&1&2&q%q%[&}&                                    ",
"                                                . 3&4&5&6&7&8&_&                                    ",
"                                                  9&0&0&0&a&                                        "};
