/* XPM */
static char * wall1_xpm[] = {
"50 50 424 2",
"  	c None",
". 	c #473D37",
"+ 	c #0C0A08",
"@ 	c #594E46",
"# 	c #695C52",
"$ 	c #5F534A",
"% 	c #63564D",
"& 	c #665A50",
"* 	c #60544B",
"= 	c #3C342E",
"- 	c #594E45",
"; 	c #695D52",
"> 	c #6B5E54",
", 	c #665950",
"' 	c #65574F",
") 	c #5E5149",
"! 	c #4D433C",
"~ 	c #716459",
"{ 	c #716559",
"] 	c #6E6156",
"^ 	c #6F6257",
"/ 	c #685B51",
"( 	c #5A4E46",
"_ 	c #28221E",
": 	c #241F1C",
"< 	c #483E38",
"[ 	c #60554B",
"} 	c #63574E",
"| 	c #3C332D",
"1 	c #342B26",
"2 	c #453B34",
"3 	c #534841",
"4 	c #231F1C",
"5 	c #231E1B",
"6 	c #4C433B",
"7 	c #6C6055",
"8 	c #706358",
"9 	c #6D6156",
"0 	c #6C5F55",
"a 	c #554B43",
"b 	c #3F3731",
"c 	c #5C5148",
"d 	c #52473F",
"e 	c #443B34",
"f 	c #534941",
"g 	c #3E362F",
"h 	c #5B4F47",
"i 	c #796B60",
"j 	c #574C44",
"k 	c #5C5047",
"l 	c #796B5F",
"m 	c #554940",
"n 	c #4C4039",
"o 	c #675950",
"p 	c #6A5C53",
"q 	c #77685D",
"r 	c #6F6057",
"s 	c #5A4D46",
"t 	c #6D5E55",
"u 	c #4C423B",
"v 	c #675A50",
"w 	c #61554B",
"x 	c #564941",
"y 	c #685A51",
"z 	c #6E6057",
"A 	c #564B43",
"B 	c #74655B",
"C 	c #807265",
"D 	c #7E7063",
"E 	c #584B43",
"F 	c #4D423A",
"G 	c #63554D",
"H 	c #29231F",
"I 	c #473F38",
"J 	c #72655A",
"K 	c #695C51",
"L 	c #75665C",
"M 	c #6D5F55",
"N 	c #60534A",
"O 	c #5D5148",
"P 	c #76685D",
"Q 	c #4F443D",
"R 	c #6C5E55",
"S 	c #6D5F56",
"T 	c #706257",
"U 	c #322A25",
"V 	c #50463E",
"W 	c #53473F",
"X 	c #50453E",
"Y 	c #78695E",
"Z 	c #726559",
"` 	c #776A5E",
" .	c #72645A",
"..	c #594D45",
"+.	c #685951",
"@.	c #62544C",
"#.	c #695B52",
"$.	c #5A4D45",
"%.	c #4A3E37",
"&.	c #73645A",
"*.	c #4B3F38",
"=.	c #62554C",
"-.	c #7B6D61",
";.	c #6E5F56",
">.	c #493F38",
",.	c #7A6C60",
"'.	c #7A6B60",
").	c #6B5D54",
"!.	c #463C36",
"~.	c #4A4039",
"{.	c #716359",
"].	c #5F5149",
"^.	c #52463E",
"/.	c #574A42",
"(.	c #5F524A",
"_.	c #413731",
":.	c #463B34",
"<.	c #211B18",
"[.	c #443933",
"}.	c #362D28",
"|.	c #6F6157",
"1.	c #75675C",
"2.	c #716259",
"3.	c #594D46",
"4.	c #473E37",
"5.	c #544840",
"6.	c #433832",
"7.	c #64574E",
"8.	c #483D36",
"9.	c #5C4F47",
"0.	c #786A5F",
"a.	c #7F7164",
"b.	c #594C44",
"c.	c #5D5049",
"d.	c #3C322D",
"e.	c #39302A",
"f.	c #4F443C",
"g.	c #453C35",
"h.	c #3A302B",
"i.	c #493D36",
"j.	c #423731",
"k.	c #3D332D",
"l.	c #3F352F",
"m.	c #3D352F",
"n.	c #6C5D54",
"o.	c #675951",
"p.	c #7B6D60",
"q.	c #786A5E",
"r.	c #3A312B",
"s.	c #4D413A",
"t.	c #4A3F38",
"u.	c #3B322C",
"v.	c #6A5B52",
"w.	c #5B4E46",
"x.	c #2C2521",
"y.	c #554942",
"z.	c #332B26",
"A.	c #423832",
"B.	c #6B5D53",
"C.	c #73655A",
"D.	c #706258",
"E.	c #312924",
"F.	c #403630",
"G.	c #362E29",
"H.	c #3B312C",
"I.	c #5D5048",
"J.	c #6B5C53",
"K.	c #5E5048",
"L.	c #51453D",
"M.	c #594C45",
"N.	c #4E413A",
"O.	c #4E423B",
"P.	c #61534B",
"Q.	c #5D4F48",
"R.	c #50443D",
"S.	c #423831",
"T.	c #3F3630",
"U.	c #5E5249",
"V.	c #73665B",
"W.	c #413933",
"X.	c #352D28",
"Y.	c #796A5F",
"Z.	c #7F7165",
"`.	c #4E433C",
" +	c #2E2622",
".+	c #342C27",
"++	c #382F2A",
"@+	c #53463F",
"#+	c #564A42",
"$+	c #574B43",
"%+	c #4F433C",
"&+	c #3B312B",
"*+	c #66584F",
"=+	c #685C52",
"-+	c #65584F",
";+	c #3A322C",
">+	c #5D5149",
",+	c #51453E",
"'+	c #382F29",
")+	c #302824",
"!+	c #1E1A17",
"~+	c #473B35",
"{+	c #372E29",
"]+	c #544740",
"^+	c #4D443C",
"/+	c #675A51",
"(+	c #3A322D",
"_+	c #4E443D",
":+	c #4B4039",
"<+	c #77695D",
"[+	c #413630",
"}+	c #473C35",
"|+	c #3E342E",
"1+	c #5B4F46",
"2+	c #74665B",
"3+	c #493D37",
"4+	c #665A4F",
"5+	c #443A34",
"6+	c #77695E",
"7+	c #352E29",
"8+	c #6C5D55",
"9+	c #50443C",
"0+	c #554B42",
"a+	c #5D5248",
"b+	c #51463F",
"c+	c #706158",
"d+	c #6A5B53",
"e+	c #413832",
"f+	c #463D36",
"g+	c #544841",
"h+	c #51473F",
"i+	c #2D2621",
"j+	c #2D2622",
"k+	c #5F5249",
"l+	c #7E7064",
"m+	c #574A43",
"n+	c #534840",
"o+	c #7C6E62",
"p+	c #706157",
"q+	c #433933",
"r+	c #60524A",
"s+	c #493E37",
"t+	c #61544B",
"u+	c #4D423B",
"v+	c #3E3530",
"w+	c #342C26",
"x+	c #39302B",
"y+	c #362D27",
"z+	c #695A52",
"A+	c #7A6D60",
"B+	c #66594F",
"C+	c #403731",
"D+	c #62554D",
"E+	c #3A312C",
"F+	c #483C36",
"G+	c #4C4139",
"H+	c #372E28",
"I+	c #26201D",
"J+	c #352D27",
"K+	c #7D6F63",
"L+	c #5B4E47",
"M+	c #726459",
"N+	c #483E37",
"O+	c #453A33",
"P+	c #423833",
"Q+	c #26211D",
"R+	c #554941",
"S+	c #38302B",
"T+	c #61544C",
"U+	c #584C44",
"V+	c #2E2723",
"W+	c #3C332E",
"X+	c #483C35",
"Y+	c #453A34",
"Z+	c #423933",
"`+	c #76685C",
" @	c #473D36",
".@	c #2A231F",
"+@	c #2B2420",
"@@	c #7D6F62",
"#@	c #6E6056",
"$@	c #362E28",
"%@	c #7B6C61",
"&@	c #51463E",
"*@	c #443A33",
"=@	c #554841",
"-@	c #453B35",
";@	c #5E524A",
">@	c #3E352F",
",@	c #564A43",
"'@	c #3C322C",
")@	c #574B44",
"!@	c #665850",
"~@	c #473C36",
"{@	c #4C413A",
"]@	c #40352F",
"^@	c #312A25",
"/@	c #463A34",
"(@	c #75685C",
"_@	c #4C413B",
":@	c #60534B",
"<@	c #61554C",
"[@	c #403832",
"}@	c #39312B",
"|@	c #786B5F",
"1@	c #5D4F47",
"2@	c #564942",
"3@	c #3D342E",
"4@	c #4E433D",
"5@	c #63564E",
"6@	c #2C2622",
"7@	c #2E2824",
"8@	c #312B27",
"9@	c #4B413A",
"0@	c #5C5048",
"a@	c #51443D",
"b@	c #554A42",
"c@	c #76675C",
"d@	c #4F433B",
"e@	c #726359",
"f@	c #65574E",
"g@	c #29221E",
"h@	c #52463F",
"i@	c #241E1A",
"j@	c #221E1B",
"k@	c #493E38",
"l@	c #5A4E45",
"m@	c #40362F",
"n@	c #5C4E47",
"o@	c #211D1A",
"p@	c #584D45",
"q@	c #463B35",
"r@	c #5C4F48",
"s@	c #6B5C54",
"t@	c #2F2823",
"u@	c #51453F",
"v@	c #1D1715",
"w@	c #27221E",
"x@	c #27211D",
"y@	c #3C342F",
"z@	c #4A3F39",
"A@	c #312B26",
"B@	c #544A42",
"C@	c #493F39",
"D@	c #3B322D",
"E@	c #3F342F",
"F@	c #221C19",
"G@	c #4C4038",
"H@	c #2B231F",
"I@	c #302924",
"J@	c #6C5E54",
"K@	c #584C43",
"L@	c #73655B",
"M@	c #50443E",
"N@	c #463C35",
"O@	c #5D5047",
"P@	c #4B403A",
"Q@	c #584B44",
"R@	c #72635A",
"S@	c #675B51",
"T@	c #26201C",
"U@	c #443932",
"V@	c #594D44",
"W@	c #3B332D",
"X@	c #2F2723",
"Y@	c #3D332E",
"Z@	c #221E1A",
"`@	c #3F3631",
" #	c #3D342F",
".#	c #372F29",
"+#	c #65594F",
"@#	c #2E2722",
"##	c #483D37",
"$#	c #50453D",
"%#	c #5E5148",
"&#	c #76675D",
"*#	c #6C5F54",
"=#	c #64564D",
"-#	c #2F2C29",
";#	c #2B2725",
">#	c #322924",
",#	c #716358",
"'#	c #716258",
")#	c #7C6E61",
"!#	c #4C403A",
"~#	c #2A2624",
"{#	c #534740",
"]#	c #524740",
"^#	c #64564E",
"/#	c #433A34",
"(#	c #1D1815",
"_#	c #2C2621",
":#	c #322C28",
"<#	c #2C2722",
"[#	c #7C6F62",
"}#	c #685B52",
"|#	c #342D28",
"1#	c #3E342F",
"2#	c #6A5D53",
"3#	c #50433C",
"4#	c #4E433B",
"5#	c #6E6157",
"6#	c #27211E",
"7#	c #544941",
"8#	c #302A25",
"9#	c #392F2A",
"0#	c #4D423C",
"a#	c #3E332E",
"b#	c #332B25",
"c#	c #6D6056",
"d#	c #2E2823",
"e#	c #6A5C52",
"f#	c #302925",
"g#	c #38302A",
"h#	c #413730",
"i#	c #332A25",
"j#	c #322A26",
"k#	c #322925",
"l#	c #27201C",
"m#	c #28211D",
"n#	c #2D2520",
"o#	c #352C27",
"p#	c #2C2420",
"q#	c #241E1B",
"  . + @ # $ % & * = - ; > , ' )   ! ~ { ] ^ / ( _ : < [ } | 1 2 3   4 5 6 [ 7 8 9 0 a b c d e f g   ",
"h i j k l m n o p * q r r r s t u v l w x y z r d A B C D E F G y H I ^ J K L M N O # P ( Q R S T U ",
"V O W X Y Z `  ...q +.@.#.$.%.h ( &.# *.%.%.=.-.;.>.) ,.'.r ).!.~.{.q =.*.].r r &.p ^./.N (._.%.:.<.",
"  [.}.@.|.1.2.r 3.O *.%.%.%.%.4.;.5.%.%.%.5.1.C B ) 6.7.r p X 8.y r r R 9.t r r 0.a.1.(.b.#.c.d.e.f.",
"  g.h.%./.y p x n h.%.i.j.k.l.m.n.9.o.(.b.E p.C q.p r.%.s.t.u.%.v.y p r r r o.E w.|.&.r r G _.x._.l.",
"y.P g.8.%.%.*.%.%.z.A.X o B.y o A r r r r r C.P D.r A.E.F.G.H.%.I.J.I.x K.L.*.M.N.O.P.Q.R.S.T.U.V.W.",
"9.,.w._.%.%.%.%.%.X.@.r Y.Z.D.r `.@.r r o.) 5.*.R.b. +y i v .+++5.@+#.#+%.$+).R %+%.%.%.S.&+O.*+0.=+",
"A q R.-+F.%.%.i.r.;+r r -.C C.r >+_.,+R.%.%.i.k.'+)+!+5.a.v %.~+{+U 8.n %.E ;.]+%.%.6._.^+| %.%.#+/+",
"(+S ).,.7.F.X._+n :+r r q <+{.r % F.{+[+}+|+U O 1+~.g.*.2+P p ).' F r.H.3+R.O i.l.X.9 <+C 4+j.%.%.5+",
"  5.R l 6+t 7+` b.A 8+r ;.$+9+R.*.|+A.O 0+a+V.l b+v A ' v.c+r d+$.`.e+I.>..+f+3.g+h+~ F B #.i+6.3+j+",
"}.%.s.k+#.' h ^ l+#._.N m+%.%.3+z.n+o+,.&.&.p+#...C.q+d+r r r+s+{+>.2+a.D j t+p p u+;.;.G n v+3 <   ",
"w+%.%.%.%.%.) #+c+I.x+d.%.%.%.:.y+%+I.t z z+r+X A+o+f+O.*+7.s.1 x+n B+B+$+C+@.y D+E+O./.%.F.$.;.r Q ",
"  !.F+%.%.%._.k.G+%.F.x.H+x+e.}.I+i.%.O.s.8.J+-+K+Y.) j.%.%.| L+M+N+F+O+[.P+F+%.%.}+Q+O+j.F.%.R+$+Q ",
"S+T+}.%.%.%.E.E.%.i.e.R+^.L.U+w.V+W+S.%.3+.+X+,+t n.' Y+h.H.5+b+^ R+Z+=+o+`+ @%.[.`.P.X N+q+s+#.S 2 ",
"u.s+.@r.H.e.O+F.+@k.$ o+@@-.,.#@_.] 8 u+N+!.l.%.s.%.%.%.$@%.%.%.j.8.l C a.2+* r.) L D @@%@1.&@*@t..@",
"  +@Q @+=@k+n.-@~+# l+2+r r ;@>@9+@@P r r p ,@ +s+%.%.F+J+Z+[+6.'@%.#@/+s.%.%.)@G ( P.^ ,.D -.!@j+  ",
"  ~@M q.M+S r 2 *./+|.' b.{@]@F+k.Z+^@*@_.F.S./@k.k.W+3 (@1.t.R+s _@:@*.%.%.%.F.%.%.%.%.s...) @. @  ",
"e+; C C <@,+7.#+}+%.%.|+G.n+).o {@[@}@|.|@K+=.5.1@' #.y.P {.*+r =.u+y 2@%.%.%.x+x+3@4@}@{+}.h.'@:+  ",
"5@o+C A+s.%.9+B.6@G.7@8@#@l+@@R >@;. @ .C C &.B i 0.&.9@$+k ;.=. @0@,.J.w.a@}+x+9.#@Y b@t.%.i.t+2+N+",
">@p l B+%.%.%.y ~.i.%.u.p o+p+u+8.#.:+w.c@-.'.C C C q.h *@n d@j.X.D.C P r ;.g+/+'.a.K+h =.P.0 l+-.d ",
"  6.$.s.%.%.*.y :@j.k+R+5+D+! U %.D+s Y+G S p > C.6+e@c.x._.A.' A.N D.n.f@O.^@#.,.,.#@A B o+D c@(.  ",
"v+g@%.%.%.%.h@' ,+[+~ e@9+i@.._.%.(.;.e+%.%.%.%.%.R.#+y.j@% ,.D.k@%.%.%.l.V+}.l@:@h@e.s+G z #.$+T.  ",
"% T+>@3+%.%.%.m@z.5.o+q.k+[ C * [.5.n@:+++%.%.%.%.%.%.O.. 1.i n.A.i.%.}.o@h >.%.6.~@X _.%.O.t.s+l.  ",
"h z p q+8.X+'+q+P.o+a.R p@a.l+B.: q@%.%.u.U F+%.%.%.%.i.r@;.s@$.F.X.t@' X r d Y+7.1.i k |+%.[+u@y b+",
"T.K.@+O.v@}.X+%+s #.M y.L o+).!@w@x@'+k.b+y@5 '+e.'+H+j+q+*.%.%.%.l.0@1.z@p A.n.o+C o+r@A@B@# 1.r ..",
"  _.F+r.F.| _.%.%.%.5+) r t+n :+H.3+:+) D.;.C@I.t.%.%.[.D@s+%.%.E@U.o+-.N+n {@r &.&.r 3 P C Z.1.y   ",
"  F@e.*.5.%.O+d.6.%.l.O+%+%.Y+3@t.G@R L a.,.#.)@t -+(.7.R u+[.F.>@T Z.l A O+S.5.^.O.A.=.a.D # :+u.!.",
"H@[.w.2+C.y E n 6.E+g.{+r.j+I@=.]+%.J@a.C o+r U.K+l+ .P.).t e M :@q@).D 1.= Y+%.%.%.| ).|.9.k.s+] > ",
":+n.o+C -.r r S ( ) -.M+p >+{+J.K@%.!@L@,.'.r ( J@1.# %.s.) (.r M@^.c+D C <+X 6.%.F.]@*.:+e.{@t ,.] ",
"{+O a.Z.P r+s@z+N@|.a.|.#.8+u.7.5.%.O@r r r r P@n P.%+%.%.A.9.n u.%.Q@% D.P R@' . S@U+Z+w@|+L.' p z+",
"  T@% |.k+%.s+V+U@R.V@*.K.r @.e.s+%.%.R+x b.).W@.+i.%.Y+)+q+L.%.x.~+%.%.*.5.I.g+M L r S h@)+X+s+n >+",
"  Y+_.,+%.j.X@I@++s+%.%...) 9.X +@|+6.}+[.u.Y@X+}+e.e.Z@`@k.[+U  #.#~+%.%.%.%.:+t+n n t.Y+p@+#)@[.Y@",
"@#W ;@b+U+~ # j.9.q+O+i.O+{+z.r./@w.u+}._.F+%.%.%.%.~+Z+r y.t.) A r+k.'@| r.++.#i.F.u+& D a.Y S ..  ",
"  U@E L D C -.##$#P $ b+F.d.%.%.%#@@Q %.%.L.$+E 7.W :.h@D.,.1.{.n+ .9.*.2@/.R.D@l.2@N P.=.U.5.*.8.  ",
"  @#%.9.&#l B.A.*#a.,.r p q+*.=#{.D / l.Q@L l K+C T $.Y+(.1.C.r c Z.c+t 2+o+S | |+[.%.%.i./@j.l.D@  ",
"-#;#j.%.m+^.>#X+k+,#o $+].u+L.'#l &.D.Q R+B )#o+q '#>+i.%.n L.!#` l+c+C.C ,.y !.s@b@5+| X.]@&@=.y N+",
"~#.+l.[.%.[+n+[.%.%.%.i._.z.E r C.R {##.]#y.##,@^#7./#k.%.%.6.t.-.6+f@#.P &.k O+x n.r ( ,@Q ~@|+x+Z@",
"(#~@|.& l.a+a.& U@8.j.*@d._#a@#.w.R.%.L.O _@k+s+z.!.4@q+'+e.z.s+' I.%.k+y X 7@ +/@O.P.h@&.Z.o+/+:#<#",
"  8.O [#}#U.D 6+|#Z+).r n.c.l.*.*.%.%.%.N@S@L@9.T.#@'.t P.t+^#1#%.%.%.*.l.e+]#,@F.| X.q+r l 1.;.]#  ",
"  .#%...z h ).E Q r c+-.l p+P.O+%.%.}+2 2#C '#..u A.:@;.r '#B y.q@%.s+-@o.l a.D C.#.t q+3##+9.4#|   ",
"= 5#C+*.S ( y w.g+r &.l+C D c+-@'@w+6#L.2#M+7#G %+R.5+]+R q.a.q < {+I+k@z+ .,.-.B r r % H.%.m@u.2   ",
"d.a@>@,+t _., t ) t.9.R q.B R T.[.( S+i.%.%.S.G %.%.$+_.R+'#a.6+X 8#q+}@s+R+^#;.;.' ;.;.3@>@Y+x R   ",
".@F+X.n `.U }+t.q+_@l.t.^.w.t.d ' r |.A.i.%.:.f@s.%.O.,@i.I.f@$.W@) 1.$.X.s+%.%+O.%./.%+H.G J.L 2+-@",
"  X@|+n+-+#.) k@u 9.&@9#i.%.'+' o.#@2+0#]#N@}@$.#.w.R+h@}.a#}.G.[+w.<+c+,+e.%.%.%.%.i.b#) c@)#K+r @#",
"z.8.(.-.] s.m+).2 i.O c###U d#;.d@*+@.0 c@r ^#j.W R.%.q+%./@O.^#-@%.e#;.,@v ! h.Y+}+| @.c@C C 6+>+'@",
"l.%.' |.;.^ 8 2.4@Y@M+D L *+q+#.2@o U+D.# 5.o -@s+%.>@^#$.h@q.1.l.%.5.t.1#7.2+M X f#~.d+{.-.D :@++O+",
"r.%.s.( p o+C P ..|+( |.r ;.*+)@1@b._@R+%.%.*.w.g#.+9#G t e@a.0 h#%.%.J+:.%.*.^.) ( f#s.9.P.o {#'@i#",
"  j.%.%.*.9.p ) }@l.}+W (.%+F.{+5.%.1 l.%.%.%.}+3@%.r.%.*.x ) U+| %.O+}.%.%.%.%.%.W -@%.%.%.%.%.j#  ",
"    k#%.%.n _..+%.%.E.U@%.}+    [.%.l#  e.%.i.Y@#.2@1#%.%.%.%.%.'@S.X@  m@%.%.%.%.h#m#F.%.%.%.%.h#  ",
"      d.[.u.    ,@_@    l.n#              o#x.  u.{+.@H.^@++F.k.            p#z.q#      U H.k.d.++  "};
