/* XPM */
static char * C_xpm[] = {
"50 50 914 2",
"  	c #FFFFFF",
". 	c #FFFFFE",
"+ 	c #FEFFFF",
"@ 	c #FFFEFD",
"# 	c #FFFEFF",
"$ 	c #FEFDFB",
"% 	c #FCF8F4",
"& 	c #FCF9F4",
"* 	c #FDFEFC",
"= 	c #FEFEFD",
"- 	c #FDFEFE",
"; 	c #FEFCFC",
"> 	c #E6D3CC",
", 	c #D27D6D",
"' 	c #D0756A",
") 	c #E8D1CA",
"! 	c #FCFBF4",
"~ 	c #FDFFFE",
"{ 	c #FFFFFD",
"] 	c #FEFEFB",
"^ 	c #EEE5DD",
"/ 	c #C28A84",
"( 	c #C8584C",
"_ 	c #E5594F",
": 	c #DF513E",
"< 	c #D04F3C",
"[ 	c #CE8B80",
"} 	c #F2E0DB",
"| 	c #FDFDFA",
"1 	c #FEFEFC",
"2 	c #FEFDFD",
"3 	c #F8F2EE",
"4 	c #D0ABA1",
"5 	c #B14637",
"6 	c #C25347",
"7 	c #E67670",
"8 	c #E75B50",
"9 	c #E75346",
"0 	c #E75F54",
"a 	c #D04E38",
"b 	c #C14A34",
"c 	c #D6ADA2",
"d 	c #F8EDEA",
"e 	c #FEFCFB",
"f 	c #FCF8F5",
"g 	c #E0C3C2",
"h 	c #B7574C",
"i 	c #B73E2E",
"j 	c #C55042",
"k 	c #E28985",
"l 	c #EA6F68",
"m 	c #E7675B",
"n 	c #E96053",
"o 	c #E76054",
"p 	c #E56A5E",
"q 	c #D04C34",
"r 	c #CE442D",
"s 	c #C55A4C",
"t 	c #E1C1B4",
"u 	c #FBF5F7",
"v 	c #FDFFFF",
"w 	c #FEFFFE",
"x 	c #FEFDFA",
"y 	c #E8D9D2",
"z 	c #BF776B",
"A 	c #B84939",
"B 	c #BC493C",
"C 	c #C7584C",
"D 	c #DD8E85",
"E 	c #EC8581",
"F 	c #EF7775",
"G 	c #ED7169",
"H 	c #EA685D",
"I 	c #EC695C",
"J 	c #E97068",
"K 	c #E26861",
"L 	c #DA503A",
"M 	c #D24A2E",
"N 	c #CB462B",
"O 	c #C87868",
"P 	c #EBD3D1",
"Q 	c #FCFDFB",
"R 	c #FFFEFE",
"S 	c #F1E6DF",
"T 	c #C88F88",
"U 	c #B24333",
"V 	c #C14D3E",
"W 	c #CD5E50",
"X 	c #D06256",
"Y 	c #D0827B",
"Z 	c #EEA19B",
"` 	c #EF817E",
" .	c #F0817E",
"..	c #EF7672",
"+.	c #F1716B",
"@.	c #F1726D",
"#.	c #F0716B",
"$.	c #F07C76",
"%.	c #DF6556",
"&.	c #DE663D",
"*.	c #DC4F39",
"=.	c #D54D33",
"-.	c #D55342",
";.	c #D7978D",
">.	c #F2E6E0",
",.	c #FDFBF9",
"'.	c #FAF2EF",
").	c #D2AFA2",
"!.	c #B54E3C",
"~.	c #BF4435",
"{.	c #C74E3F",
"].	c #D06355",
"^.	c #D6806E",
"/.	c #DE9390",
"(.	c #EBB8B3",
"_.	c #EE8686",
":.	c #EE8786",
"<.	c #EE8483",
"[.	c #F07C7A",
"}.	c #EF7978",
"|.	c #EF7977",
"1.	c #EE7D78",
"2.	c #ED897A",
"3.	c #E45E4F",
"4.	c #E65846",
"5.	c #E76046",
"6.	c #E45644",
"7.	c #D44D33",
"8.	c #C64C39",
"9.	c #D5AB9E",
"0.	c #F9F5ED",
"a.	c #FEFFFD",
"b.	c #FEFEFE",
"c.	c #FCF9F7",
"d.	c #DCC9B8",
"e.	c #B35C4F",
"f.	c #B33E2E",
"g.	c #B64D3E",
"h.	c #C25A4C",
"i.	c #D36D61",
"j.	c #DB9188",
"k.	c #ECB9B6",
"l.	c #F5E1D8",
"m.	c #E7AEAE",
"n.	c #EF9495",
"o.	c #EF9292",
"p.	c #EF8F8F",
"q.	c #EF8788",
"r.	c #EF8786",
"s.	c #EF8685",
"t.	c #EF8586",
"u.	c #EF8486",
"v.	c #F28883",
"w.	c #EC866E",
"x.	c #ED7059",
"y.	c #E96658",
"z.	c #E15F46",
"A.	c #D74F35",
"B.	c #CE462B",
"C.	c #C3411C",
"D.	c #C35F50",
"E.	c #E1C2B9",
"F.	c #FDFAF5",
"G.	c #FDFEFD",
"H.	c #FBF5F0",
"I.	c #D88783",
"J.	c #D85F54",
"K.	c #E07863",
"L.	c #E38175",
"M.	c #E98680",
"N.	c #EC9088",
"O.	c #EC9893",
"P.	c #F1BDB7",
"Q.	c #F8EFEA",
"R.	c #F9E9E7",
"S.	c #E2A2A0",
"T.	c #CE7A71",
"U.	c #CE726A",
"V.	c #C76E5F",
"W.	c #C9635E",
"X.	c #C8605B",
"Y.	c #C65A56",
"Z.	c #C8514D",
"`.	c #C74E47",
" +	c #C44D4B",
".+	c #D76660",
"++	c #EC6D63",
"@+	c #EA5F69",
"#+	c #EE5C4E",
"$+	c #E65D41",
"%+	c #E64B3A",
"&+	c #DD472D",
"*+	c #DD4027",
"=+	c #D33E21",
"-+	c #D07E68",
";+	c #F8F3EB",
">+	c #F8EBEA",
",+	c #DD574A",
"'+	c #F2685A",
")+	c #F16F67",
"!+	c #EE695A",
"~+	c #F06B61",
"{+	c #F0695A",
"]+	c #ED7D77",
"^+	c #EA9F9B",
"/+	c #F6DAD5",
"(+	c #ECAEA6",
"_+	c #D16653",
":+	c #D0361E",
"<+	c #CD3418",
"[+	c #D13314",
"}+	c #CD3013",
"|+	c #C82E0F",
"1+	c #C92A11",
"2+	c #C0260B",
"3+	c #BF220B",
"4+	c #C0260D",
"5+	c #C13013",
"6+	c #E46255",
"7+	c #EF5143",
"8+	c #F14B39",
"9+	c #EB422F",
"0+	c #E63926",
"a+	c #E3361F",
"b+	c #E2341E",
"c+	c #E0351C",
"d+	c #CF301E",
"e+	c #F1E8E6",
"f+	c #F9EBEB",
"g+	c #CD5346",
"h+	c #F16B60",
"i+	c #F06253",
"j+	c #F26757",
"k+	c #F16858",
"l+	c #F2756E",
"m+	c #ED8E88",
"n+	c #E8AF9F",
"o+	c #E89D97",
"p+	c #E47A70",
"q+	c #E0685D",
"r+	c #D34735",
"s+	c #D7402D",
"t+	c #D5402A",
"u+	c #D13C23",
"v+	c #D23720",
"w+	c #CF3418",
"x+	c #C83211",
"y+	c #C53011",
"z+	c #C83617",
"A+	c #C63815",
"B+	c #CD4433",
"C+	c #EC5862",
"D+	c #F14D3C",
"E+	c #EE4633",
"F+	c #E83E2B",
"G+	c #E33721",
"H+	c #E0321E",
"I+	c #BE2819",
"J+	c #F0E7E5",
"K+	c #F8E8E9",
"L+	c #AF3B2E",
"M+	c #EE665B",
"N+	c #F16253",
"O+	c #F16656",
"P+	c #F27568",
"Q+	c #F1897A",
"R+	c #EA938F",
"S+	c #E7AAA4",
"T+	c #DE7976",
"U+	c #E47873",
"V+	c #E7776E",
"W+	c #DD6257",
"X+	c #DC5142",
"Y+	c #D64F3B",
"Z+	c #D44B35",
"`+	c #D24932",
" @	c #CE4229",
".@	c #CA3C22",
"+@	c #C93D22",
"@@	c #CB4023",
"#@	c #C93919",
"$@	c #C23212",
"%@	c #DF5547",
"&@	c #EE5448",
"*@	c #F14D3D",
"=@	c #ED4431",
"-@	c #E83D2A",
";@	c #E23522",
">@	c #A71D14",
",@	c #F1E6E5",
"'@	c #F6EAE8",
")@	c #AF3B30",
"!@	c #DC6154",
"~@	c #EF6657",
"{@	c #F27062",
"]@	c #F28874",
"^@	c #F08C89",
"/@	c #ECA49F",
"(@	c #E78A8C",
"_@	c #EB8083",
":@	c #EB7F7F",
"<@	c #E97F7E",
"[@	c #E77873",
"}@	c #DE6559",
"|@	c #DD5E51",
"1@	c #DE574B",
"2@	c #D6533F",
"3@	c #D44D38",
"4@	c #CF4A33",
"5@	c #D04932",
"6@	c #CE4429",
"7@	c #CD3B1A",
"8@	c #C93614",
"9@	c #CA3920",
"0@	c #E9565E",
"a@	c #EE5348",
"b@	c #EF4A39",
"c@	c #E63A25",
"d@	c #D33425",
"e@	c #9F1A14",
"f@	c #F1E7E3",
"g@	c #FFFFFC",
"h@	c #F7EBE3",
"i@	c #AF374A",
"j@	c #C74E49",
"k@	c #ED756B",
"l@	c #EF8075",
"m@	c #EF8A7F",
"n@	c #EE9694",
"o@	c #EB9FA2",
"p@	c #EA878B",
"q@	c #EA8990",
"r@	c #EC8891",
"s@	c #ED8788",
"t@	c #EB8283",
"u@	c #E67875",
"v@	c #E16D64",
"w@	c #E06357",
"x@	c #DD5C4C",
"y@	c #D85745",
"z@	c #D5533D",
"A@	c #D24E36",
"B@	c #CF492F",
"C@	c #CF462B",
"D@	c #CD462A",
"E@	c #CF4628",
"F@	c #E05548",
"G@	c #EE574C",
"H@	c #EF5042",
"I@	c #F04937",
"J@	c #EA4636",
"K@	c #BA241D",
"L@	c #9F1810",
"M@	c #F1E3E4",
"N@	c #F7EDDF",
"O@	c #B03939",
"P@	c #BD4237",
"Q@	c #E57C75",
"R@	c #EE8A7C",
"S@	c #EC918B",
"T@	c #EE9C9A",
"U@	c #EC8893",
"V@	c #EF8D94",
"W@	c #ED929E",
"X@	c #EE8F95",
"Y@	c #EB8C8C",
"Z@	c #EA807F",
"`@	c #EA786F",
" #	c #E3695B",
".#	c #DC5D4C",
"+#	c #D2533E",
"@#	c #D2503A",
"##	c #D14F38",
"$#	c #D34F37",
"%#	c #D45038",
"&#	c #D05234",
"*#	c #D34E36",
"=#	c #D24B38",
"-#	c #EA516D",
";#	c #EC4E59",
">#	c #DF4337",
",#	c #AF110D",
"'#	c #A31912",
")#	c #F1E7E4",
"!#	c #FCFEFC",
"~#	c #F7ECDE",
"{#	c #AE3943",
"]#	c #BE4436",
"^#	c #CF665D",
"/#	c #F08B89",
"(#	c #EE9B99",
"_#	c #EF9494",
":#	c #F09293",
"<#	c #EF959E",
"[#	c #EC99A7",
"}#	c #EE9DA6",
"|#	c #E68281",
"1#	c #DA695F",
"2#	c #CE5240",
"3#	c #CD4E38",
"4#	c #D14F39",
"5#	c #D4523C",
"6#	c #D5543E",
"7#	c #D55842",
"8#	c #D65745",
"9#	c #D65645",
"0#	c #D75542",
"a#	c #D75540",
"b#	c #D55340",
"c#	c #E25345",
"d#	c #ED564C",
"e#	c #CA342B",
"f#	c #AE100D",
"g#	c #A21A14",
"h#	c #F0E4E3",
"i#	c #FBFEFA",
"j#	c #F8EEDF",
"k#	c #AF3B39",
"l#	c #BD4035",
"m#	c #C14D41",
"n#	c #E9908E",
"o#	c #ED9A99",
"p#	c #EE8788",
"q#	c #EF9190",
"r#	c #E78785",
"s#	c #D77873",
"t#	c #D05C53",
"u#	c #CB4632",
"v#	c #CB462F",
"w#	c #CD4B34",
"x#	c #D0513A",
"y#	c #D5533C",
"z#	c #D65844",
"A#	c #D75947",
"B#	c #D85A4A",
"C#	c #D85D4E",
"D#	c #D95E50",
"E#	c #D85E4F",
"F#	c #DB5C4F",
"G#	c #DA5B4E",
"H#	c #D65948",
"I#	c #DB5748",
"J#	c #EA5B50",
"K#	c #EA574E",
"L#	c #B61B12",
"M#	c #B0120C",
"N#	c #A11A14",
"O#	c #F1E8E3",
"P#	c #F8EDE1",
"Q#	c #AF3543",
"R#	c #BE4143",
"S#	c #C74742",
"T#	c #E1A699",
"U#	c #DD8A7A",
"V#	c #C94A44",
"W#	c #C13624",
"X#	c #C53112",
"Y#	c #CA3816",
"Z#	c #CD401E",
"`#	c #CD4428",
" $	c #D14E33",
".$	c #D2543A",
"+$	c #D45743",
"@$	c #D75946",
"#$	c #D45540",
"$$	c #D75B4B",
"%$	c #DB5D50",
"&$	c #DC6052",
"*$	c #DD6255",
"=$	c #DD6457",
"-$	c #DC6457",
";$	c #DD6356",
">$	c #DA6052",
",$	c #D85F4F",
"'$	c #E15D52",
")$	c #D4463D",
"!$	c #BA1D11",
"~$	c #B0130B",
"{$	c #A21912",
"]$	c #F8EEE2",
"^$	c #AB373D",
"/$	c #BF3F41",
"($	c #C7493D",
"_$	c #DC8075",
":$	c #D16152",
"<$	c #B61807",
"[$	c #BD230A",
"}$	c #C92F15",
"|$	c #C8381B",
"1$	c #CB4225",
"2$	c #D0492F",
"3$	c #D35039",
"4$	c #D5553F",
"5$	c #D65D4A",
"6$	c #DA5E4E",
"7$	c #D85742",
"8$	c #D5533F",
"9$	c #DB5A4D",
"0$	c #DD5F54",
"a$	c #DF6359",
"b$	c #E06659",
"c$	c #DE685E",
"d$	c #DE695E",
"e$	c #E0675A",
"f$	c #DC6558",
"g$	c #DE5D4E",
"h$	c #D53D29",
"i$	c #AF120C",
"j$	c #A31A14",
"k$	c #F1E6E6",
"l$	c #FCFEFD",
"m$	c #F7EBE5",
"n$	c #AF3737",
"o$	c #C34035",
"p$	c #C95144",
"q$	c #D65144",
"r$	c #D85A3B",
"s$	c #BB2C1E",
"t$	c #BD220A",
"u$	c #C62F10",
"v$	c #C93A1F",
"w$	c #CE452A",
"x$	c #D04A31",
"y$	c #D65B49",
"z$	c #DA6151",
"A$	c #DE6557",
"B$	c #E3685C",
"C$	c #DA5D51",
"D$	c #DC6255",
"E$	c #E16A5E",
"F$	c #E36E64",
"G$	c #E47168",
"H$	c #E5726A",
"I$	c #E37269",
"J$	c #E17269",
"K$	c #E26C62",
"L$	c #D3532A",
"M$	c #D73F1E",
"N$	c #C12819",
"O$	c #A41A14",
"P$	c #FBFEFC",
"Q$	c #F7EEDE",
"R$	c #B0373E",
"S$	c #BF4232",
"T$	c #D25E50",
"U$	c #C73E23",
"V$	c #CD3D1D",
"W$	c #D35342",
"X$	c #B92108",
"Y$	c #C22F13",
"Z$	c #CB3A1D",
"`$	c #CE452B",
" %	c #D24E37",
".%	c #D85947",
"+%	c #DA5E50",
"@%	c #E0675C",
"#%	c #E46E64",
"$%	c #E46F67",
"%%	c #E06D63",
"&%	c #E4746E",
"*%	c #E47771",
"=%	c #E87875",
"-%	c #E67977",
";%	c #E77A78",
">%	c #E1776F",
",%	c #E16151",
"'%	c #CD380F",
")%	c #D23B0E",
"!%	c #D3351D",
"~%	c #F0E6E7",
"{%	c #F7EEE0",
"]%	c #AD3748",
"^%	c #C24234",
"/%	c #CE564C",
"(%	c #C53F26",
"_%	c #D13D1D",
":%	c #D44D34",
"<%	c #C63A2B",
"[%	c #C22D10",
"}%	c #D1442D",
"|%	c #D14E39",
"1%	c #D75847",
"2%	c #DB5F51",
"3%	c #DC6153",
"4%	c #E2685C",
"5%	c #E57169",
"6%	c #E6756E",
"7%	c #E57672",
"8%	c #E97C7D",
"9%	c #EC8385",
"0%	c #EB8282",
"a%	c #EA8384",
"b%	c #E77871",
"c%	c #D03F21",
"d%	c #D23A0E",
"e%	c #D13A0E",
"f%	c #DB3F18",
"g%	c #B2160E",
"h%	c #A61912",
"i%	c #F1E6E8",
"j%	c #FDFEFB",
"k%	c #F7EEDF",
"l%	c #AF3A3D",
"m%	c #CA5043",
"n%	c #BB3E2F",
"o%	c #C64025",
"p%	c #CD3F1D",
"q%	c #CD4021",
"r%	c #D94731",
"s%	c #C2280C",
"t%	c #C73618",
"u%	c #CE432C",
"v%	c #D34E39",
"w%	c #D95848",
"x%	c #DE5D4D",
"y%	c #E2675A",
"z%	c #E57168",
"A%	c #E97C78",
"B%	c #EB8486",
"C%	c #F0898B",
"D%	c #EC8894",
"E%	c #ED8F91",
"F%	c #ED878E",
"G%	c #DA584A",
"H%	c #CF370E",
"I%	c #D63D0D",
"J%	c #DD4210",
"K%	c #C72C15",
"L%	c #A51A14",
"M%	c #F2E6E9",
"N%	c #B1392D",
"O%	c #C64D3E",
"P%	c #B8422D",
"Q%	c #C53F25",
"R%	c #C73E22",
"S%	c #D1401D",
"T%	c #D74223",
"U%	c #CF3926",
"V%	c #CA3313",
"W%	c #CC3E26",
"X%	c #D34C36",
"Y%	c #D95342",
"Z%	c #D85342",
"`%	c #DD594B",
" &	c #E16456",
".&	c #E76B5F",
"+&	c #E7726A",
"@&	c #E87B79",
"#&	c #EE8889",
"$&	c #EB94A4",
"%&	c #EF959C",
"&&	c #EF989E",
"*&	c #EB807D",
"=&	c #CE3918",
"-&	c #D53E0E",
";&	c #D93F0D",
">&	c #DC430C",
",&	c #D43B13",
"'&	c #A51913",
")&	c #F3E9E8",
"!&	c #B24140",
"~&	c #B24131",
"{&	c #B6412C",
"]&	c #BF3F27",
"^&	c #C64120",
"/&	c #CC3F1F",
"(&	c #D33F19",
"_&	c #DC4830",
":&	c #C42D15",
"<&	c #CA391C",
"[&	c #D6472F",
"}&	c #D0442E",
"|&	c #D74834",
"1&	c #DF4E3C",
"2&	c #DE5848",
"3&	c #E66154",
"4&	c #E9705A",
"5&	c #EA7168",
"6&	c #EE7D7E",
"7&	c #F19B9B",
"8&	c #EA9EB2",
"9&	c #EF9CA3",
"0&	c #D65546",
"a&	c #D13B0E",
"b&	c #D53E0D",
"c&	c #D9410D",
"d&	c #DC420C",
"e&	c #E1440D",
"f&	c #B12516",
"g&	c #F3E5E7",
"h&	c #FDFFFD",
"i&	c #F7EEE5",
"j&	c #A63B3F",
"k&	c #A53F2B",
"l&	c #AB4529",
"m&	c #BB3F28",
"n&	c #C1461E",
"o&	c #CD401A",
"p&	c #D13E1C",
"q&	c #D63E21",
"r&	c #D43F2E",
"s&	c #C83217",
"t&	c #D1351C",
"u&	c #D4351C",
"v&	c #D73C21",
"w&	c #DA472C",
"x&	c #DD4C34",
"y&	c #E0533E",
"z&	c #E55A49",
"A&	c #EA6555",
"B&	c #EB7261",
"C&	c #EE8A91",
"D&	c #F0A8B7",
"E&	c #E28379",
"F&	c #CF3610",
"G&	c #D1380E",
"H&	c #D43D0E",
"I&	c #DE440C",
"J&	c #E2460B",
"K&	c #C63718",
"L&	c #F1E8E4",
"M&	c #F8F1ED",
"N&	c #9C4D44",
"O&	c #AB422D",
"P&	c #B1442B",
"Q&	c #BB3F2A",
"R&	c #C23E27",
"S&	c #CD421D",
"T&	c #CE4020",
"U&	c #D33F20",
"V&	c #D7442B",
"W&	c #CE381F",
"X&	c #C1260C",
"Y&	c #CD2C13",
"Z&	c #CD3111",
"`&	c #D63619",
" *	c #D8401E",
".*	c #E04928",
"+*	c #E34C31",
"@*	c #EA513D",
"#*	c #E96745",
"$*	c #E76D60",
"%*	c #EE9A99",
"&*	c #CE4A38",
"**	c #CE3B0F",
"=*	c #D33D0E",
"-*	c #D7400D",
";*	c #D9420D",
">*	c #DB430C",
",*	c #DF430C",
"'*	c #DF440C",
")*	c #D34721",
"!*	c #F4EDE5",
"~*	c #ECD8D6",
"{*	c #C77870",
"]*	c #C03824",
"^*	c #BF3928",
"/*	c #BF3825",
"(*	c #BE3928",
"_*	c #C03B26",
":*	c #C13B2A",
"<*	c #B83D2D",
"[*	c #C54E42",
"}*	c #BC3929",
"|*	c #C03422",
"1*	c #BD3826",
"2*	c #C13B27",
"3*	c #C13B24",
"4*	c #C53C23",
"5*	c #C23B22",
"6*	c #C43B22",
"7*	c #C23B26",
"8*	c #C43E2A",
"9*	c #BB3D31",
"0*	c #B9260B",
"a*	c #B4270B",
"b*	c #B9260D",
"c*	c #BC260D",
"d*	c #BC270D",
"e*	c #B6260D",
"f*	c #B1250E",
"g*	c #C4776A",
"h*	c #EBD6CC",
"i*	c #FBFBFA",
"j*	c #FCF8F7",
"k*	c #E2C4BB",
"l*	c #BE5A4B",
"m*	c #B32918",
"n*	c #B12B1C",
"o*	c #A82618",
"p*	c #9C2113",
"q*	c #921D0D",
"r*	c #8A2518",
"s*	c #B14133",
"t*	c #9D2713",
"u*	c #9D2612",
"v*	c #AD2B18",
"w*	c #AF2C19",
"x*	c #AF3119",
"y*	c #B03016",
"z*	c #AF2913",
"A*	c #AE2710",
"B*	c #A52009",
"C*	c #A81C04",
"D*	c #AC210A",
"E*	c #B0230D",
"F*	c #B2210C",
"G*	c #B6240E",
"H*	c #B4554A",
"I*	c #DEC1B9",
"J*	c #FCFBF3",
"K*	c #FCFDFD",
"L*	c #FEFDFE",
"M*	c #FDFEFA",
"N*	c #FAF3ED",
"O*	c #D4A5A6",
"P*	c #B33C33",
"Q*	c #AF2814",
"R*	c #A62813",
"S*	c #A02613",
"T*	c #972010",
"U*	c #AB3426",
"V*	c #B63523",
"W*	c #B22B13",
"X*	c #B62F19",
"Y*	c #BB311B",
"Z*	c #BB331C",
"`*	c #BA3119",
" =	c #BA3118",
".=	c #B63317",
"+=	c #A6230D",
"@=	c #A61D06",
"#=	c #A61F08",
"$=	c #AA220B",
"%=	c #AB230B",
"&=	c #AE3A2B",
"*=	c #D2A99C",
"==	c #F9F2E9",
"-=	c #FCFDF8",
";=	c #F3E6E2",
">=	c #C88F8C",
",=	c #B13222",
"'=	c #B12B17",
")=	c #AB2815",
"!=	c #A92213",
"~=	c #C53C2D",
"{=	c #BC311A",
"]=	c #C03319",
"^=	c #C3351B",
"/=	c #C53619",
"(=	c #C23417",
"_=	c #C03418",
":=	c #AE2911",
"<=	c #A41E07",
"[=	c #A3200A",
"}=	c #A51D06",
"|=	c #A82516",
"1=	c #C38A83",
"2=	c #F3E5E2",
"3=	c #FCFBFA",
"4=	c #FCF9FB",
"5=	c #EBD5D1",
"6=	c #C37063",
"7=	c #B62D1D",
"8=	c #B62B19",
"9=	c #B42C17",
"0=	c #CA3F28",
"a=	c #C83821",
"b=	c #C9371E",
"c=	c #CB371E",
"d=	c #CB381F",
"e=	c #BE351A",
"f=	c #A41E08",
"g=	c #A42009",
"h=	c #A31F0A",
"i=	c #B26F61",
"j=	c #E9D4CE",
"k=	c #FBF9FB",
"l=	c #FDFEF9",
"m=	c #FCF4F4",
"n=	c #E2C0B6",
"o=	c #BD5046",
"p=	c #B52D17",
"q=	c #C23522",
"r=	c #D23B27",
"s=	c #CF3B20",
"t=	c #D2381F",
"u=	c #CD3A20",
"v=	c #A7240E",
"w=	c #A0200B",
"x=	c #A55039",
"y=	c #DBBCBC",
"z=	c #F8F1EC",
"A=	c #D5A7A0",
"B=	c #BD3B2E",
"C=	c #D23826",
"D=	c #D53C23",
"E=	c #D53C20",
"F=	c #B32C13",
"G=	c #9D2C21",
"H=	c #CAA39D",
"I=	c #F5EEE7",
"J=	c #FEFDFC",
"K=	c #F1E3E0",
"L=	c #CF8A84",
"M=	c #D0402C",
"N=	c #C23C25",
"O=	c #B7887C",
"P=	c #EFE3DE",
"Q=	c #FDFBFB",
"R=	c #FCF9F8",
"S=	c #E9CFCD",
"T=	c #E6D2CB",
"U=	c #FEFEF9",
"                                        .                                                           ",
"                                                                                                    ",
"                                                                                                    ",
"                                                                                                    ",
"                                                                                                    ",
"                                                    .                                               ",
"                                            + + @                                                   ",
"                                            # $ % & * =   .                                         ",
"                                        . - ; > , ' ) ! ~ . { .                                     ",
"                                        ] ^ / ( _ : < [ } | 1 { .                                   ",
"                                    2 3 4 5 6 7 8 9 0 a b c d e =                                   ",
"                              . = f g h i j k l m n o p q r s t u =       .                         ",
"                          v w x y z A B C D E F G H I J K L M N O P Q R                             ",
"                          2 S T U V W X Y Z `  ...+.@.#.$.%.&.*.=.-.;.>.,.-                         ",
"                      . '.).!.~.{.].^./.(._.:.<.[.}.|.|.1.2.3.4.5.6.7.8.9.0.a.+ R   R               ",
"                  b.c.d.e.f.g.h.i.j.k.l.m.n.o.p.q.r.s.t.u.v.w.x.y.z.A.B.C.D.E.F.= G.                ",
"                + H.I.J.K.L.M.N.O.P.Q.R.S.T.U.V.W.X.Y.Z.`. +.+++@+#+$+%+&+*+=+-+;+                  ",
"              + - >+,+'+)+!+~+{+]+^+/+(+_+:+<+[+}+|+1+2+3+4+5+6+7+8+9+0+a+b+c+d+e+b.                ",
"              + - f+g+h+i+j+k+l+m+n+o+p+q+r+s+t+u+v+w+x+y+z+A+B+C+D+E+F+G+b+H+I+J+a.                ",
"            . { b.K+L+M+N+O+P+Q+R+S+T+U+V+W+X+Y+Z+`+ @.@+@@@#@$@%@&@*@=@-@b+;@>@,@=                 ",
"              { 1 '@)@!@~@{@]@^@/@(@_@:@<@[@}@|@1@2@3@4@5@6@7@8@9@0@a@b@9+c@d@e@f@b.                ",
"              g@1 h@i@j@k@l@m@n@o@p@q@r@s@t@u@v@w@x@y@z@A@B@C@D@E@F@G@H@I@J@K@L@M@                  ",
"            . { 1 N@O@P@Q@R@S@T@U@V@W@W@X@Y@Z@`@ #.#+#@###$#%#&#*#=#-#;#H@>#,#'#)#R                 ",
"            . . !#~#{#]#^#/#(#_#:#<#[#}#o.|#1#2#3#4#5#6#7#8#9#0#a#b#c#G@d#e#f#g#h#+                 ",
"            . R i#j#k#l#m#n#o#p#q#r#s#t#u#v#w#x#y#z#A#B#C#D#E#F#G#H#I#J#K#L#M#N#O#w                 ",
"                ~ P#Q#R#S#T#U#V#W#X#Y#Z#`# $.$+$@$#$$$%$&$*$=$-$;$>$,$'$)$!$~${$,@.                 ",
"                ~ ]$^$/$($_$:$<$[$}$|$1$2$3$4$5$6$7$8$9$0$a$b$c$d$e$f$g$h$i$f#j$k$                  ",
"              { l$m$n$o$p$q$r$s$t$u$v$w$x$z@y$z$A$B$C$D$E$F$G$H$I$J$K$L$M$N$f#O$k$                  ",
"              { P$Q$R$S$T$U$V$W$X$Y$Z$`$ %.%+%*$@%#%$%%%&%*%=%-%;%>%,%'%)%!%M#j$~%                  ",
"            . . * {%]%^%/%(%_%:%<%[%|$}%|%1%2%3%4%5%6%7%8%9%0%a%0%b%c%d%e%f%g%h%i%# . .             ",
"              { j%k%l%m%n%o%p%q%r%s%t%u%v%w%x%&$y%z%6%A%B%C%D%E%F%G%H%)%I%J%K%L%M%  . {             ",
"              { 1 N@N%O%P%Q%R%S%T%U%V%W%X%Y%Z%`% &.&+&@&#&$&%&&&*&=&d%-&;&>&,&'&)&# . .             ",
"            . { P$P#!&~&{&]&^&/&(&_&:&<&[&}&|&1&2&3&4&5&6&7&8&9&0&a&a&b&c&d&e&f&g&                  ",
"              { h&i&j&k&l&m&n&o&p&q&r&s&t&u&v&w&x&y&z&A&B&C&D&E&F&G&H&;&d&I&J&K&L&                  ",
"                  M&N&O&P&Q&R&S&T&U&V&W&X&Y&Z&`& *.*+*@*#*$*%*&***=*-*;*>*,*'*)*!*1                 ",
"                  2 ~*{*]*^*/*(*_*:*<*[*}*|*1*2*3*4*5*6*7*8*9*0*a*b*c*d*e*f*g*h*i*R                 ",
"                    j%j*k*l*m*n*o*p*q*r*s*t*u*v*v*w*x*y*z*A*B*C*D*E*F*G*H*I*J*K*L*#                 ",
"                  R M*= = N*O*P*Q*R*S*T*U*V*W*X*Y*Z*`* =.=+=@=#=$=%=&=*===-=2 L*b.#                 ",
"                    .       = ;=>=,='=)=!=~={=]=^=/=(=_=:=<=[=}=|=1=2=3=j%a.                        ",
"                            v ~ 4=5=6=7=8=9=0=a=b=c=d=e=f=g=h=i=j=k=1 l== #                         ",
"                              . ] ] m=n=o=p=q=r=s=t=u=v=w=x=y=u + = a..                             ",
"                              . { R = = z=A=B=C=D=E=F=G=H=I== +   w .     #                         ",
"                                  . .     J=K=L=M=N=O=P=Q=.                                         ",
"                                            R R=S=T=,.b.U=.                                         ",
"                                                b.] R                                               ",
"                                                  =                                                 ",
"                                                .                                                   ",
"                                                                                                    ",
"                                                                                                    ",
"                                                                                                    "};
