/* XPM */
static char * plrU_xpm[] = {
"50 50 800 2",
"  	c #FFFFFF",
". 	c #FDFDFD",
"+ 	c #EFEDED",
"@ 	c #AAA1A2",
"# 	c #A89697",
"$ 	c #B19797",
"% 	c #ACA1A2",
"& 	c #ACA4A5",
"* 	c #9F9799",
"= 	c #AB9A9B",
"- 	c #A48A8B",
"; 	c #502A2C",
"> 	c #571518",
", 	c #6C1B1D",
"' 	c #5C2D2E",
") 	c #A09799",
"! 	c #8E8587",
"~ 	c #3A2729",
"{ 	c #290B0F",
"] 	c #3A0E12",
"^ 	c #531317",
"/ 	c #5A1115",
"( 	c #75191C",
"_ 	c #8A2122",
": 	c #761A1D",
"< 	c #69191C",
"[ 	c #66191B",
"} 	c #5A1619",
"| 	c #582C2D",
"1 	c #98898A",
"2 	c #ADA5A6",
"3 	c #F0EFEF",
"4 	c #ACA5A6",
"5 	c #8E8486",
"6 	c #49282A",
"7 	c #470F13",
"8 	c #4F0F12",
"9 	c #37070B",
"0 	c #2D0408",
"a 	c #540E13",
"b 	c #912324",
"c 	c #9A2627",
"d 	c #841F20",
"e 	c #7B1C1E",
"f 	c #8E2223",
"g 	c #8D2223",
"h 	c #64171A",
"i 	c #572B2D",
"j 	c #A09697",
"k 	c #9E9596",
"l 	c #3A2628",
"m 	c #37070C",
"n 	c #550F14",
"o 	c #6E171A",
"p 	c #671518",
"q 	c #671618",
"r 	c #71181B",
"s 	c #7A1B1D",
"t 	c #9B2727",
"u 	c #9C2727",
"v 	c #882021",
"w 	c #922425",
"x 	c #992627",
"y 	c #821E20",
"z 	c #691619",
"A 	c #5C1116",
"B 	c #4D282A",
"C 	c #9E9595",
"D 	c #FEFEFE",
"E 	c #DFDDDD",
"F 	c #4D3C3E",
"G 	c #3B080C",
"H 	c #651418",
"I 	c #811E20",
"J 	c #8F2224",
"K 	c #942425",
"L 	c #932425",
"M 	c #9C2728",
"N 	c #611317",
"O 	c #631317",
"P 	c #540F13",
"Q 	c #523F41",
"R 	c #E1DEDF",
"S 	c #9E9495",
"T 	c #4C2527",
"U 	c #661518",
"V 	c #882022",
"W 	c #972626",
"X 	c #9E2828",
"Y 	c #8C2123",
"Z 	c #591014",
"` 	c #72191B",
" .	c #70181B",
"..	c #4D2527",
"+.	c #9F9595",
"@.	c #4E282A",
"#.	c #631418",
"$.	c #7B1B1E",
"%.	c #601317",
"&.	c #6B161A",
"*.	c #8B2123",
"=.	c #892122",
"-.	c #591015",
";.	c #681619",
">.	c #7D1C1E",
",.	c #581014",
"'.	c #4B282A",
").	c #E2DFE0",
"!.	c #5D4243",
"~.	c #571014",
"{.	c #791B1D",
"].	c #4A0C11",
"^.	c #450A0F",
"/.	c #771B1D",
"(.	c #801D1F",
"_.	c #72181B",
":.	c #8C2223",
"<.	c #9D2728",
"[.	c #671519",
"}.	c #41090E",
"|.	c #761A1C",
"1.	c #5C1115",
"2.	c #530F13",
"3.	c #552A2C",
"4.	c #A19697",
"5.	c #5C2A2B",
"6.	c #560F14",
"7.	c #460B0F",
"8.	c #3F090E",
"9.	c #6B1619",
"0.	c #4E0D12",
"a.	c #4D0D11",
"b.	c #7D1D1F",
"c.	c #550F13",
"d.	c #4F0D12",
"e.	c #771A1D",
"f.	c #3C080D",
"g.	c #5B1115",
"h.	c #4C0C11",
"i.	c #4B0C11",
"j.	c #4F292A",
"k.	c #E1E0E1",
"l.	c #534143",
"m.	c #480C11",
"n.	c #39070C",
"o.	c #34060A",
"p.	c #510E12",
"q.	c #3D080D",
"r.	c #36060B",
"s.	c #440A0F",
"t.	c #872021",
"u.	c #5D1216",
"v.	c #33060A",
"w.	c #38070C",
"x.	c #500E12",
"y.	c #4D0D12",
"z.	c #E3E0E1",
"A.	c #442426",
"B.	c #4A0B11",
"C.	c #490B10",
"D.	c #7F1D1F",
"E.	c #902324",
"F.	c #751A1C",
"G.	c #420A0F",
"H.	c #470B0F",
"I.	c #270307",
"J.	c #280307",
"K.	c #3A070C",
"L.	c #2E0508",
"M.	c #460B10",
"N.	c #440B10",
"O.	c #35060B",
"P.	c #32060A",
"Q.	c #430A0F",
"R.	c #6A1619",
"S.	c #4D0C11",
"T.	c #831E20",
"U.	c #7A1C1E",
"V.	c #480B10",
"W.	c #580F14",
"X.	c #2B0408",
"Y.	c #30050A",
"Z.	c #33070B",
"`.	c #32060B",
" +	c #462829",
".+	c #A09596",
"++	c #572E2E",
"@+	c #7A4637",
"#+	c #441816",
"$+	c #43090E",
"%+	c #3E080D",
"&+	c #2C0408",
"*+	c #470A0F",
"=+	c #681519",
"-+	c #530E13",
";+	c #74191C",
">+	c #6C171A",
",+	c #39080C",
"'+	c #520E13",
")+	c #521C1A",
"!+	c #512C2A",
"~+	c #68534F",
"{+	c #C89477",
"]+	c #96614B",
"^+	c #501A18",
"/+	c #37060B",
"(+	c #2F0509",
"_+	c #501B1A",
":+	c #9E6754",
"<+	c #C9967A",
"[+	c #68524F",
"}+	c #E4E2E3",
"|+	c #6C595A",
"1+	c #D7A689",
"2+	c #D9A688",
"3+	c #63302A",
"4+	c #2D0609",
"5+	c #3F080D",
"6+	c #290407",
"7+	c #260307",
"8+	c #290408",
"9+	c #31060A",
"0+	c #460A0F",
"a+	c #4E0D11",
"b+	c #3B070D",
"c+	c #65312B",
"d+	c #D9A689",
"e+	c #F1F0F0",
"f+	c #ABA1A2",
"g+	c #A77969",
"h+	c #D0A68E",
"i+	c #613A34",
"j+	c #794636",
"k+	c #471816",
"l+	c #3D070D",
"m+	c #250307",
"n+	c #2E0509",
"o+	c #31050A",
"p+	c #3D070C",
"q+	c #34080B",
"r+	c #431313",
"s+	c #945E49",
"t+	c #DAAC91",
"u+	c #ABA4A4",
"v+	c #93766B",
"w+	c #7B4739",
"x+	c #C68765",
"y+	c #935D46",
"z+	c #421615",
"A+	c #31080B",
"B+	c #2A0408",
"C+	c #41080E",
"D+	c #3F080E",
"E+	c #411916",
"F+	c #87533F",
"G+	c #975C48",
"H+	c #AD664F",
"I+	c #9F7F72",
"J+	c #F0EEEF",
"K+	c #A2999B",
"L+	c #7C4E46",
"M+	c #CC8966",
"N+	c #CB8A67",
"O+	c #582E25",
"P+	c #7C4838",
"Q+	c #481B18",
"R+	c #37080C",
"S+	c #37090C",
"T+	c #642A23",
"U+	c #D38C68",
"V+	c #CB8666",
"W+	c #7E4E47",
"X+	c #A2989A",
"Y+	c #EEECED",
"Z+	c #9F9696",
"`+	c #523736",
" @	c #A8614B",
".@	c #CA8362",
"+@	c #A56C51",
"@@	c #CF8D69",
"#@	c #9B5F4A",
"$@	c #461916",
"%@	c #38090C",
"&@	c #40080E",
"*@	c #895540",
"=@	c #A06149",
"-@	c #A9674E",
";@	c #CC8463",
">@	c #908486",
",@	c #9A9698",
"'@	c #A6A3A5",
")@	c #EDEDED",
"!@	c #EEEDED",
"~@	c #A8A3A5",
"{@	c #8D8587",
"]@	c #472E2C",
"^@	c #432015",
"/@	c #70342B",
"(@	c #AD634D",
"_@	c #C3795C",
":@	c #E39C73",
"<@	c #DB976F",
"[@	c #A0694E",
"}@	c #8E5641",
"|@	c #53221D",
"1@	c #935E47",
"2@	c #E29B72",
"3@	c #70332B",
"4@	c #431F15",
"5@	c #39201C",
"6@	c #46373A",
"7@	c #362F35",
"8@	c #989497",
"9@	c #3A343A",
"0@	c #3A3033",
"a@	c #3A1F1A",
"b@	c #59371E",
"c@	c #573321",
"d@	c #692B26",
"e@	c #814338",
"f@	c #D8936C",
"g@	c #E8A176",
"h@	c #E7A075",
"i@	c #D9966E",
"j@	c #A66E52",
"k@	c #672925",
"l@	c #462115",
"m@	c #452612",
"n@	c #412825",
"o@	c #716668",
"p@	c #61595C",
"q@	c #443E43",
"r@	c #9A9597",
"s@	c #EFEEEF",
"t@	c #999698",
"u@	c #564D50",
"v@	c #61595E",
"w@	c #7A6E6F",
"x@	c #4C312B",
"y@	c #78532D",
"z@	c #734E2C",
"A@	c #5E3721",
"B@	c #633627",
"C@	c #8D5B45",
"D@	c #99644A",
"E@	c #976750",
"F@	c #8A5B44",
"G@	c #4C2B1D",
"H@	c #412013",
"I@	c #4C2C15",
"J@	c #56351D",
"K@	c #442A26",
"L@	c #786E71",
"M@	c #938A8D",
"N@	c #595155",
"O@	c #454145",
"P@	c #DFDEDF",
"Q@	c #484348",
"R@	c #6B6266",
"S@	c #898083",
"T@	c #8C8285",
"U@	c #51362E",
"V@	c #8C6333",
"W@	c #8B6334",
"X@	c #886033",
"Y@	c #81582F",
"Z@	c #5B3821",
"`@	c #442415",
" #	c #412113",
".#	c #402113",
"+#	c #402013",
"@#	c #412214",
"##	c #492913",
"$#	c #4E2E15",
"%#	c #613E21",
"&#	c #684526",
"*#	c #482C28",
"=#	c #7B7173",
"-#	c #90878A",
";#	c #6F6669",
">#	c #3E383E",
",#	c #979496",
"'#	c #999598",
")#	c #554C50",
"!#	c #71686B",
"~#	c #92898B",
"{#	c #71686C",
"]#	c #493126",
"^#	c #906836",
"/#	c #A07841",
"(#	c #996F39",
"_#	c #845C30",
":#	c #674323",
"<#	c #5E3B1F",
"[#	c #4B2B13",
"}#	c #5E3C1F",
"|#	c #644122",
"1#	c #724E2B",
"2#	c #6C4829",
"3#	c #4D302C",
"4#	c #817679",
"5#	c #6B6368",
"6#	c #736A6D",
"7#	c #443F43",
"8#	c #E0E0E0",
"9#	c #474246",
"0#	c #595156",
"a#	c #6E666A",
"b#	c #81797D",
"c#	c #716466",
"d#	c #472D25",
"e#	c #7F5930",
"f#	c #9F7843",
"g#	c #A7824C",
"h#	c #A27B44",
"i#	c #875F32",
"j#	c #75502C",
"k#	c #825B31",
"l#	c #5D3A21",
"m#	c #422924",
"n#	c #6A5F61",
"o#	c #534B4E",
"p#	c #5C5356",
"q#	c #433D42",
"r#	c #433F43",
"s#	c #E0DFE0",
"t#	c #423E42",
"u#	c #494147",
"v#	c #7A7276",
"w#	c #655C5F",
"x#	c #6D6163",
"y#	c #462B26",
"z#	c #724D2A",
"A#	c #956C37",
"B#	c #A27A44",
"C#	c #8A6233",
"D#	c #886032",
"E#	c #855D31",
"F#	c #714D2A",
"G#	c #4E2E17",
"H#	c #351A17",
"I#	c #3C3339",
"J#	c #584F52",
"K#	c #464046",
"L#	c #5F565A",
"M#	c #50494E",
"N#	c #E2E1E2",
"O#	c #413C41",
"P#	c #80787C",
"Q#	c #5B5054",
"R#	c #453638",
"S#	c #603D22",
"T#	c #825B30",
"U#	c #9E7641",
"V#	c #A27A43",
"W#	c #9B7039",
"X#	c #996E37",
"Y#	c #986D37",
"Z#	c #966B36",
"`#	c #8A6133",
" $	c #623C22",
".$	c #482712",
"+$	c #311510",
"@$	c #1E131A",
"#$	c #3B3134",
"$$	c #463C40",
"%$	c #5C5458",
"&$	c #444044",
"*$	c #453E43",
"=$	c #888185",
"-$	c #786F72",
";$	c #6B5F60",
">$	c #24191E",
",$	c #31130F",
"'$	c #492812",
")$	c #623D22",
"!$	c #855D32",
"~$	c #9E7640",
"{$	c #966C36",
"]$	c #4E2C12",
"^$	c #401F0B",
"/$	c #3C1712",
"($	c #612F28",
"_$	c #7D4F40",
":$	c #433030",
"<$	c #2C2429",
"[$	c #423E41",
"}$	c #484045",
"|$	c #857E81",
"1$	c #72696C",
"2$	c #5D5357",
"3$	c #21181E",
"4$	c #301515",
"5$	c #412D2B",
"6$	c #4A2A16",
"7$	c #5A371B",
"8$	c #634022",
"9$	c #4E2D15",
"0$	c #48270E",
"a$	c #472714",
"b$	c #4A241F",
"c$	c #A8654E",
"d$	c #D2906D",
"e$	c #966852",
"f$	c #7D5341",
"g$	c #534749",
"h$	c #787174",
"i$	c #7E7579",
"j$	c #6E6364",
"k$	c #473E44",
"l$	c #716C6F",
"m$	c #32292C",
"n$	c #39343C",
"o$	c #453738",
"p$	c #463330",
"q$	c #4A2B16",
"r$	c #603E21",
"s$	c #613F21",
"t$	c #5E3C20",
"u$	c #4E2E16",
"v$	c #472713",
"w$	c #462925",
"x$	c #C78667",
"y$	c #E8B292",
"z$	c #E6B091",
"A$	c #B57159",
"B$	c #645153",
"C$	c #4B464B",
"D$	c #897F82",
"E$	c #867D7F",
"F$	c #5E5254",
"G$	c #3B3237",
"H$	c #756F73",
"I$	c #292329",
"J$	c #28232D",
"K$	c #3C3C46",
"L$	c #44454D",
"M$	c #463A38",
"N$	c #473835",
"O$	c #4A3C39",
"P$	c #493C39",
"Q$	c #361E1D",
"R$	c #B16D54",
"S$	c #C89076",
"T$	c #C1876D",
"U$	c #7F514A",
"V$	c #A59C9D",
"W$	c #433F42",
"X$	c #484145",
"Y$	c #544B4E",
"Z$	c #3E2F31",
"`$	c #765043",
" %	c #3B2728",
".%	c #10080F",
"+%	c #1B141B",
"@%	c #2B252F",
"#%	c #3A3944",
"$%	c #3D3F4A",
"%%	c #3E404A",
"&%	c #1E161E",
"*%	c #2A1213",
"=%	c #622D2A",
"-%	c #6A3532",
";%	c #6E4442",
">%	c #7C5B4D",
",%	c #91817D",
"'%	c #A58F86",
")%	c #D19D83",
"!%	c #744439",
"~%	c #1E0B0F",
"{%	c #241114",
"]%	c #28171C",
"^%	c #29212A",
"/%	c #29232E",
"(%	c #28242E",
"_%	c #28222B",
":%	c #24181E",
"<%	c #291417",
"[%	c #442C2B",
"}%	c #948A8D",
"|%	c #A39C9F",
"1%	c #AFAAAC",
"2%	c #E4E1E2",
"3%	c #675254",
"4%	c #CB9173",
"5%	c #F7D4BD",
"6%	c #FADCC7",
"7%	c #F5C8A9",
"8%	c #BA775E",
"9%	c #361D1A",
"0%	c #2F1210",
"a%	c #3C1E14",
"b%	c #351811",
"c%	c #331914",
"d%	c #321814",
"e%	c #341B18",
"f%	c #2C1618",
"g%	c #2A1518",
"h%	c #2F1616",
"i%	c #3B1D14",
"j%	c #5A4545",
"k%	c #E2E0E0",
"l%	c #624F52",
"m%	c #B16E58",
"n%	c #F3C6A8",
"o%	c #FDD5B7",
"p%	c #FAD0B2",
"q%	c #4A2F2A",
"r%	c #321511",
"s%	c #472712",
"t%	c #48270F",
"u%	c #563116",
"v%	c #583217",
"w%	c #46250D",
"x%	c #3A1B0E",
"y%	c #3F2118",
"z%	c #463434",
"A%	c #4D3F40",
"B%	c #463535",
"C%	c #5B4546",
"D%	c #A49C9D",
"E%	c #81544C",
"F%	c #D5A287",
"G%	c #F7CBAC",
"H%	c #E4B496",
"I%	c #A07969",
"J%	c #432723",
"K%	c #351611",
"L%	c #3F2012",
"M%	c #4B2B14",
"N%	c #5E381E",
"O%	c #6D4727",
"P%	c #714928",
"Q%	c #6E4727",
"R%	c #5F381E",
"S%	c #4B2C18",
"T%	c #442F2F",
"U%	c #554748",
"V%	c #534B50",
"W%	c #70686B",
"X%	c #63595D",
"Y%	c #55484A",
"Z%	c #504345",
"`%	c #E2E0E1",
" &	c #8D665A",
".&	c #9E7B6B",
"+&	c #896150",
"@&	c #3E2524",
"#&	c #210C10",
"$&	c #2A1416",
"%&	c #331612",
"&&	c #3D1E12",
"*&	c #422313",
"=&	c #51301E",
"-&	c #56341F",
";&	c #563420",
">&	c #51311F",
",&	c #432414",
"'&	c #41261F",
")&	c #574A4D",
"!&	c #64595D",
"~&	c #5E5459",
"{&	c #7C7376",
"]&	c #756D70",
"^&	c #60595D",
"/&	c #B0AAAC",
"(&	c #A39D9F",
"_&	c #948B8E",
":&	c #3E3136",
"<&	c #251819",
"[&	c #2E1E1F",
"}&	c #2B1417",
"|&	c #2E1719",
"1&	c #3A272A",
"2&	c #564647",
"3&	c #554141",
"4&	c #473537",
"5&	c #6C6162",
"6&	c #585055",
"7&	c #726768",
"8&	c #766D71",
"9&	c #878083",
"0&	c #4B4348",
"a&	c #54494D",
"b&	c #3B2622",
"c&	c #3C2823",
"d&	c #332020",
"e&	c #271A1B",
"f&	c #25181A",
"g&	c #271A1D",
"h&	c #3B3136",
"i&	c #6A6164",
"j&	c #564F54",
"k&	c #584E52",
"l&	c #6C6365",
"m&	c #574F54",
"n&	c #716768",
"o&	c #726A6D",
"p&	c #746B6D",
"q&	c #403940",
"r&	c #544A4E",
"s&	c #3B2722",
"t&	c #3A2721",
"u&	c #32211D",
"v&	c #3D2623",
"w&	c #3B2522",
"x&	c #271A19",
"y&	c #2B1E23",
"z&	c #3C3338",
"A&	c #373036",
"B&	c #3F363B",
"C&	c #3A3539",
"D&	c #3D3538",
"E&	c #362A2E",
"F&	c #3F383D",
"G&	c #362E32",
"H&	c #544042",
"I&	c #3A2522",
"J&	c #32211E",
"K&	c #462D2A",
"L&	c #6A423F",
"M&	c #553431",
"N&	c #2A1C1B",
"O&	c #383034",
"P&	c #888587",
"Q&	c #989698",
"R&	c #898486",
"S&	c #382527",
"T&	c #1F0F14",
"U&	c #1D1015",
"V&	c #1E1015",
"W&	c #220E12",
"X&	c #5E4141",
"Y&	c #564B50",
"Z&	c #332122",
"`&	c #432A28",
" *	c #6B4441",
".*	c #875651",
"+*	c #6A433E",
"@*	c #31201E",
"#*	c #52484C",
"$*	c #5A4647",
"%*	c #3D2627",
"&*	c #412827",
"**	c #3E2626",
"=*	c #2C1A1B",
"-*	c #4D3230",
";*	c #A19A9C",
">*	c #A19B9D",
",*	c #44363A",
"'*	c #4D3130",
")*	c #7E4F4B",
"!*	c #85544F",
"~*	c #69433E",
"{*	c #3A2623",
"]*	c #554B4F",
"^*	c #564A4E",
"/*	c #523331",
"(*	c #68413F",
"_*	c #663F3C",
":*	c #442B2A",
"<*	c #3D2723",
"[*	c #49383A",
"}*	c #A29B9D",
"|*	c #4C3A3C",
"1*	c #563839",
"2*	c #583A3A",
"3*	c #442D2E",
"4*	c #4A393B",
"5*	c #583532",
"6*	c #7F504C",
"7*	c #85554F",
"8*	c #6A433F",
"9*	c #3A2622",
"0*	c #A29C9F",
"a*	c #472D2A",
"b*	c #7D504B",
"c*	c #90614F",
"d*	c #794D48",
"e*	c #35221F",
"f*	c #2D1E1D",
"g*	c #53494D",
"h*	c #51494B",
"i*	c #68413E",
"j*	c #7C4F4B",
"k*	c #462C2A",
"l*	c #271B1A",
"m*	c #544B4F",
"n*	c #32201F",
"o*	c #432B29",
"p*	c #67403E",
"q*	c #4A2F2C",
"r*	c #403538",
"s*	c #47383A",
"t*	c #2E2022",
"u*	c #402929",
"v*	c #412A2B",
"w*	c #49393B",
"x*	c #ACA7A9",
"y*	c #9F989B",
"                                              . . . + @ # $ % + . . .                               ",
"                                          . + & * = - ; > , ' - = ) & + .                           ",
"                                      . + & ! ~ { ] ^ / ( _ : < [ } | 1 2 +                         ",
"                                    3 4 5 6 7 8 9 0 a ( b c d e f g : h i j +                       ",
"                                    3 k l m n o p q r s t u v w x y z A A B C 3                     ",
"                                    D E F G H I w t J : K _ L M g N O p o P Q R                     ",
"                                    + S T U _ f V L c _ W _ M X Y Z ` Y Y  ...S +                   ",
"                                  3 +.@.#.$.e %.&.*.b K X X L =.w &.-.;.>.$.,.'.S +                 ",
"                                  ).!.~.{. .].^./.(._.#.:.<.f [.(._ H }.,.|.1.2.3.j +               ",
"                                3 4.5.6.2.7.8.%.9.0.^.a.b.u L c.d.{.e.}.f.g.h.i.#.j.C 3             ",
"                                k.l.m.n.o.n.p.g.q.r.s.A t.=.w u.f.].&.N f.v.v.w.x.y.Q z.            ",
"                                3 S A.w.B.q.B.n.w.h.C.u.D.z E.F.h.G.i.U H.I.J.K.L.M.Q z.            ",
"                                  R Q ].N.O.P.w.h.Q.}.R.R.S.T.U.V.W.8.s.B.X.Y.Z.`. +C 3             ",
"                                  3 .+++@+#+r.$+%+&+*+=+-+n.;+>+,+,.'+f.q.n.)+@+!+S +               ",
"                                    ).~+{+]+^+O.v.v.w.i./+P.H -+(+d.u.d.L._+:+<+[+).                ",
"                                    }+|+1+2+3+4+5+5+6+(+7+8+C.w.9+r.0+a+b+c+d+1+|+}+                ",
"                                    e+f+g+h+i+j+k+l+I.m+n+I.o+O.p+I.7+q+r+s+t+g+f+e+                ",
"                                      3 u+v+w+x+y+z+A+B+K.6+o.C+D+6+E+F+G+H+I+u+3                   ",
"                                        J+K+L+M+N+O+P+Q+l+X.5+}.R+S+T+U+V+W+X+Y+.                   ",
"                                      . + Z+`+ @.@+@@@#@$@%@&@k+*@=@-@;@ @`+>@,@'@)@                ",
"                                    !@~@{@]@^@/@(@_@:@<@[@}@|@1@<@2@_@(@3@4@5@6@7@8@!@              ",
"                                  )@8@9@0@a@b@c@d@e@f@g@h@i@j@i@g@f@e@k@l@m@n@o@p@q@r@s@            ",
"                                s@t@u@v@w@x@y@z@A@B@C@D@D@D@E@D@D@F@G@H@I@J@K@L@M@N@O@P@            ",
"                                P@Q@R@S@T@U@V@W@X@Y@Z@`@ #.#+#+#+#@###$#%#&#*#=#-#;#>#,#s@          ",
"                              s@'#)#!#~#{#]#^#/#/#(#_#:#<#$#[#[#[#$#}#|#1#2#3#4#5#6#>#7#8#          ",
"                              8#9#0#a#b#c#d#e#f#g#h#(#i#j#|#%#%#%#|#j#k#j#l#m#n#o#p#q#r#s#          ",
"                              P@t#u#v#w#x#y#z#A#B#g#B#(#C#D#D#D#D#i#i#E#F#G#H#I#J#K#L#M#N#          ",
"                            s@8@O#w#P#Q#R#a@S#T#W@U#V#B#/#W#X#Y#Z#`#E#j# $.$+$@$#$$$%$M#N#          ",
"                            8#&$*$=$-$;$>$,$'$)$j#!$W@~$/#W#{$C#E#j#|#<#]$^$/$($_$:$<$[$s#          ",
"                            s#t#}$|$1$2$3$4$5$6$7$8$j#!$D#D#E#j#|#<#9$0$a$5$b$c$d$e$f$g$N#          ",
"                            s#Q@h$i$j$k$l$m$n$o$p$q$7$r$s$s$s$t$u$0$v$p$o$n$w$x$y$z$A$B$}+          ",
"                            s#C$D$E$F$G$H$I$J$K$L$M$N$O$O$O$O$O$P$N$M$L$K$J$Q$R$S$T$U$V$e+          ",
"                            s#W$X$Y$Z$`$ %.%+%@%#%$%%%%%%%%%%%%%%%%%$%#%@%&%*%=%-%;%V$3             ",
"                            N#g$>%,%'%)%!%~%{%]%^%/%/%/%/%/%/%/%/%/%(%_%:%<%[%}%|%1%3               ",
"                            2%3%4%5%6%7%8%9%0%a%b%c%c%c%c%c%c%d%d%e%f%g%h%i%j%k%. .                 ",
"                            }+l%m%n%o%p%1+q%r%s%t%u%v%v%v%v%u%w%x%y%z%A%B%y%C%2%                    ",
"                            e+D%E%F%G%H%I%J%K%L%M%N%O%P%P%Q%R%S%T%U%V%W%X%Y%Z%`%                    ",
"                              3 @  &.&+&@&#&$&%&&&*&=&-&;&>&,&'&)&!&~&{&]&^&O@s#                    ",
"                                3 /&(&_&:&<&[&f%}&}&|&1&2&6@3&4&5&6&7&8&9&0&&$8#                    ",
"                                  . . k%a&b&c&d&e&f&g&h&i&j&5&k&l&m&n&o&p&q&,#s@                    ",
"                                      2%r&s&t&u&v&w&x&y&z&A&B&C&D&E&F&X$G&H&R                       ",
"                                      2%r&I&J&K&L&M&N&O&P&Q&Q&R&S&T&U&V&W&X&z.                      ",
"                                      }+Y&Z&`& *.*+*@*#*).. . ).$*%*&***=*-*;*3                     ",
"                                      e+>*,*'*)*!*~*{*]*}+    2%^*/*(*_*:*<*[*}*e+                  ",
"                                        3 >*|*1*2*3*4*}*e+    2%^*5*6*7*8*9*I&Y&}+                  ",
"                                          3 1%|%0*0*1%3       2%r&a*b*c*d*e*f*g*2%                  ",
"                                            . . . . .         2%h*@*i*7*j*k*l*m*}+                  ",
"                                                              }+m*n*o*p*(*q*r*>*e+                  ",
"                                                              e+}*s*t*u*v*w*>*3                     ",
"                                                                s@x*y*y*y*x*s@                      "};
