/* XPM */
static char * C_xpm[] = {
"35 35 274 2",
"  	c #FFFFFF",
". 	c #FEFEFE",
"+ 	c #FEFFFE",
"@ 	c #FFFFFE",
"# 	c #FDFEFD",
"$ 	c #D9ECD7",
"% 	c #93E193",
"& 	c #D0ECD2",
"* 	c #FCFEFB",
"= 	c #FDFFFF",
"- 	c #E8F4E8",
"; 	c #93CE93",
"> 	c #66D15B",
", 	c #5EE84C",
"' 	c #4EDB4A",
") 	c #84D587",
"! 	c #E3F4E5",
"~ 	c #FDFFFE",
"{ 	c #F6FBF4",
"] 	c #B5DAB1",
"^ 	c #4CBF4A",
"/ 	c #6ECE62",
"( 	c #91EC79",
"_ 	c #7DEC65",
": 	c #75EC5F",
"< 	c #57DC4E",
"[ 	c #3BD03E",
"} 	c #A8DFA9",
"| 	c #F3FBF4",
"1 	c #FEFFFF",
"2 	c #FCFEFC",
"3 	c #CAE4C9",
"4 	c #62BF5F",
"5 	c #58CA50",
"6 	c #84D876",
"7 	c #ACEC93",
"8 	c #A6EC82",
"9 	c #94ED75",
"0 	c #92F075",
"a 	c #8CED76",
"b 	c #51E350",
"c 	c #44DE45",
"d 	c #58D75C",
"e 	c #C4E6C2",
"f 	c #F9FDFA",
"g 	c #E9F7E7",
"h 	c #8BD78A",
"i 	c #68CF63",
"j 	c #7FD976",
"k 	c #AEE8A7",
"l 	c #E3F6DC",
"m 	c #9CE391",
"n 	c #8BDD80",
"o 	c #84DE74",
"p 	c #7FDC70",
"q 	c #7FDA6C",
"r 	c #73E26B",
"s 	c #67EA53",
"t 	c #4AE142",
"u 	c #2ED433",
"v 	c #70D773",
"w 	c #DFF4E0",
"x 	c #C6E6C3",
"y 	c #75EA6D",
"z 	c #74EB6C",
"A 	c #7EEA7B",
"B 	c #B7E7B1",
"C 	c #A8EBA5",
"D 	c #3FD44F",
"E 	c #26CF3D",
"F 	c #1ECD37",
"G 	c #18C82F",
"H 	c #13C32A",
"I 	c #2FC834",
"J 	c #6EE94F",
"K 	c #52EC36",
"L 	c #32E025",
"M 	c #29DB20",
"N 	c #B0E1AC",
"O 	c #C2E0C1",
"P 	c #69E05E",
"Q 	c #78E973",
"R 	c #A1E69F",
"S 	c #AAE8A1",
"T 	c #86E576",
"U 	c #76E16D",
"V 	c #4EDB57",
"W 	c #40D84D",
"X 	c #33CF40",
"Y 	c #29CD3A",
"Z 	c #18CA31",
"` 	c #55D648",
" .	c #6CEA42",
"..	c #45E830",
"+.	c #33D925",
"@.	c #B4D6AD",
"#.	c #FFFEFF",
"$.	c #C1DFC0",
"%.	c #65CE5C",
"&.	c #95E791",
"*.	c #B2E6A9",
"=.	c #A1E98D",
"-.	c #A0EC88",
";.	c #99EC84",
">.	c #7AE470",
",.	c #5EDF5E",
"'.	c #48D74E",
").	c #3BD145",
"!.	c #32CE40",
"~.	c #33CF3E",
"{.	c #79E757",
"].	c #65EB41",
"^.	c #45CD27",
"/.	c #B4D4AD",
"(.	c #C2DFBF",
"_.	c #54C74E",
":.	c #A5E59C",
"<.	c #A9E99A",
"[.	c #AEEF94",
"}.	c #ABE98D",
"|.	c #89E176",
"1.	c #60D95D",
"2.	c #46D24D",
"3.	c #44D349",
"4.	c #4CD54E",
"5.	c #4CD64E",
"6.	c #48D54E",
"7.	c #58DC50",
"8.	c #7DE84F",
"9.	c #3EB71A",
"0.	c #B3D5AC",
"a.	c #C1E0C0",
"b.	c #52C249",
"c.	c #9BE092",
"d.	c #66D35E",
"e.	c #47CA45",
"f.	c #26C937",
"g.	c #35CE42",
"h.	c #45D34B",
"i.	c #4CD853",
"j.	c #4FD853",
"k.	c #5CDC5B",
"l.	c #5EDD5D",
"m.	c #5EDC5D",
"n.	c #5ADB58",
"o.	c #59D646",
"p.	c #3AB417",
"q.	c #B4D5AE",
"r.	c #C2E0C0",
"s.	c #51C34A",
"t.	c #52D553",
"u.	c #29C22E",
"v.	c #14C429",
"w.	c #2ACD3C",
"x.	c #42D449",
"y.	c #55D957",
"z.	c #62DD5F",
"A.	c #5CDB5C",
"B.	c #69DE67",
"C.	c #72E16B",
"D.	c #76E06C",
"E.	c #67DF62",
"F.	c #33D337",
"G.	c #3AB318",
"H.	c #B4D5AD",
"I.	c #C2DEC0",
"J.	c #50C74A",
"K.	c #27CA35",
"L.	c #2CD438",
"M.	c #2DCE3E",
"N.	c #49D84F",
"O.	c #5ADD5C",
"P.	c #6DE067",
"Q.	c #7AE471",
"R.	c #85E779",
"S.	c #91E97F",
"T.	c #8CE979",
"U.	c #50DB55",
"V.	c #0ED23C",
"W.	c #35C228",
"X.	c #41BD47",
"Y.	c #1FC430",
"Z.	c #20D12E",
"`.	c #26CD34",
" +	c #29CD3B",
".+	c #48D74F",
"++	c #55DB5B",
"@+	c #67E168",
"#+	c #7DE877",
"$+	c #9BED88",
"%+	c #ADEE8F",
"&+	c #8FE67D",
"*+	c #13CF3B",
"=+	c #08D743",
"-+	c #22D03A",
";+	c #B3D4AC",
">+	c #C3E0C0",
",+	c #33AE3A",
"'+	c #22BD2F",
")+	c #1DCD2B",
"!+	c #25D433",
"~+	c #21CD37",
"{+	c #2BD341",
"]+	c #39DA4E",
"^+	c #4EDF5B",
"/+	c #64E36C",
"(+	c #8AEB83",
"_+	c #BEEB9D",
":+	c #50D654",
"<+	c #0BD43F",
"[+	c #0ADA47",
"}+	c #17DF4A",
"|+	c #B2DBB0",
"1+	c #D7E6D7",
"2+	c #44B345",
"3+	c #2DBC32",
"4+	c #2AC82B",
"5+	c #2BCD2F",
"6+	c #30CD3C",
"7+	c #1CC832",
"8+	c #24CE3C",
"9+	c #28D544",
"0+	c #35D954",
"a+	c #4DD958",
"b+	c #75D56D",
"c+	c #0FC52E",
"d+	c #0CCB36",
"e+	c #0FD03A",
"f+	c #29D347",
"g+	c #C5ECCB",
"h+	c #EBF7EB",
"i+	c #97D492",
"j+	c #28B41C",
"k+	c #1CA412",
"l+	c #20951A",
"m+	c #23AA24",
"n+	c #14AA16",
"o+	c #1AB218",
"p+	c #19B219",
"q+	c #16B019",
"r+	c #0EA812",
"s+	c #0DAD13",
"t+	c #11B016",
"u+	c #86CB88",
"v+	c #E6F3E6",
"w+	c #DBEEDB",
"x+	c #73C46D",
"y+	c #21AF15",
"z+	c #2AB321",
"A+	c #1ABE1F",
"B+	c #1BC420",
"C+	c #1AC322",
"D+	c #12AE17",
"E+	c #0EA713",
"F+	c #61B965",
"G+	c #D1E9D6",
"H+	c #FFFFFD",
"I+	c #FAFDF9",
"J+	c #C5E5C3",
"K+	c #52C24E",
"L+	c #25CA27",
"M+	c #1FD122",
"N+	c #19BE20",
"O+	c #3CA640",
"P+	c #BAD9BD",
"Q+	c #F7FCF9",
"R+	c #FEFEFD",
"S+	c #F2FAF1",
"T+	c #AADFA9",
"U+	c #3BCF3B",
"V+	c #9BCC9D",
"W+	c #EEF6EF",
"X+	c #F5FBF5",
"Y+	c #FEFEFB",
"                                                                      ",
"                                                                      ",
"                                                                      ",
"                                                                      ",
"                                                                      ",
"                                                                      ",
"                                  . +                                 ",
"                            @ # $ % & * =                             ",
"                          + - ; > , ' ) ! ~ +                         ",
"                      @ { ] ^ / ( _ : < [ } | +                       ",
"                  1 2 3 4 5 6 7 8 9 0 a b c d e f                     ",
"                  g h i j k l m n o p q r s t u v w                   ",
"                  x y z A B C D E F G H I J K L M N                   ",
"                  O P Q R S T U V W X Y Z `  ...+.@.#.                ",
"                  $.%.&.*.=.-.;.>.,.'.).!.~.{.].^./.                  ",
"                  (._.:.<.[.}.|.1.2.3.4.5.6.7.8.9.0.                  ",
"                  a.b.c.d.e.f.g.h.i.j.k.l.m.n.o.p.q.                  ",
"                  r.s.t.u.v.w.x.y.z.A.B.C.D.E.F.G.H.                  ",
"                  I.J.K.L.v.M.N.O.P.Q.R.S.T.U.V.W./.                  ",
"                  O X.Y.Z.`. +.+++@+#+$+%+&+*+=+-+;+                  ",
"                  >+,+'+)+!+~+{+]+^+/+(+_+:+<+[+}+|+                  ",
"                  1+2+3+4+5+6+7+8+9+0+a+b+c+d+e+f+g+                  ",
"                    h+i+j+k+l+m+n+o+p+q+r+s+t+u+v++                   ",
"                      . w+x+y+z+A+B+C+D+E+F+G+* H+                    ",
"                          I+J+K+L+M+N+O+P+Q+@   H+                    ",
"                            R+S+T+U+V+W+R+@     @                     ",
"                                + X++ 1                               ",
"                                                                      ",
"                                                                      ",
"                                                                      ",
"                      @                 @ Y+@                         ",
"                    @                                 @               ",
"                                                                      ",
"                                                                      ",
"                                                                      "};
