/* XPM */
static char * C_xpm[] = {
"35 35 472 2",
"  	c #FFFFFF",
". 	c #FFFFFE",
"+ 	c #FEFFFF",
"@ 	c #FFFEFE",
"# 	c #F6EEEA",
"$ 	c #EDD5CF",
"% 	c #F5EEEA",
"& 	c #FEFFFD",
"* 	c #FBFAF7",
"= 	c #DEC6C1",
"- 	c #D28179",
"; 	c #DE5B4C",
"> 	c #D77C71",
", 	c #E4C5BE",
"' 	c #FBF9F6",
") 	c #FEFEFC",
"! 	c #FCFAFA",
"~ 	c #EEE0DD",
"{ 	c #C68E84",
"] 	c #C2594F",
"^ 	c #E5716A",
"/ 	c #E7594D",
"( 	c #E65E52",
"_ 	c #CF513D",
": 	c #D19085",
"< 	c #F0DDD9",
"[ 	c #FCF9F8",
"} 	c #F1E9E5",
"| 	c #D1A49F",
"1 	c #BC594F",
"2 	c #C55A4E",
"3 	c #E2847E",
"4 	c #ED7470",
"5 	c #EA695F",
"6 	c #EA665A",
"7 	c #E46960",
"8 	c #D74E3B",
"9 	c #CE5A46",
"0 	c #D8A39B",
"a 	c #F3E6E4",
"b 	c #F8F3F1",
"c 	c #DCBBB5",
"d 	c #BB5F54",
"e 	c #C7584A",
"f 	c #D0675D",
"g 	c #D98E87",
"h 	c #EF8D89",
"i 	c #F0807D",
"j 	c #F0746F",
"k 	c #F0726D",
"l 	c #F07670",
"m 	c #E46E61",
"n 	c #DE603E",
"o 	c #D95139",
"p 	c #D8685B",
"q 	c #E3BEB7",
"r 	c #F8F1EE",
"s 	c #FEFEFD",
"t 	c #FBF9F7",
"u 	c #E1CCC6",
"v 	c #C18074",
"w 	c #B94533",
"x 	c #CC5E51",
"y 	c #DA897F",
"z 	c #E8B9B2",
"A 	c #EBACAA",
"B 	c #EF8D8D",
"C 	c #EF8A89",
"D 	c #F08281",
"E 	c #F0817F",
"F 	c #F08080",
"G 	c #F08880",
"H 	c #E9725D",
"I 	c #E96450",
"J 	c #E15943",
"K 	c #CF4326",
"L 	c #CC7F70",
"M 	c #E6CDC6",
"N 	c #FEFEFE",
"O 	c #FCF7F4",
"P 	c #DD938E",
"Q 	c #DB7362",
"R 	c #DF7A6E",
"S 	c #E6847D",
"T 	c #E9938D",
"U 	c #F1CBC5",
"V 	c #F7E6E3",
"W 	c #DF9A97",
"X 	c #D2766F",
"Y 	c #CD7065",
"Z 	c #CE6561",
"` 	c #CC605C",
" .	c #CD5753",
"..	c #CB5653",
"+.	c #DD6A60",
"@.	c #EB6564",
"#.	c #EB5C4C",
"$.	c #E4523B",
"%.	c #DB462C",
"&.	c #D84C39",
"*.	c #D68A7B",
"=.	c #FAF6F1",
"-.	c #F9EFEE",
";.	c #DF5C50",
">.	c #F26A5F",
",.	c #F06859",
"'.	c #F16A5E",
").	c #ED827C",
"!.	c #ECB3AC",
"~.	c #EBA8A0",
"{.	c #D55E4D",
"].	c #D1371F",
"^.	c #D2361B",
"/.	c #CD3215",
"(.	c #CB2D10",
"_.	c #C2280A",
":.	c #C22A0E",
"<.	c #C93D27",
"[.	c #E8564F",
"}.	c #F04B3A",
"|.	c #E93F2C",
"1.	c #E33620",
"2.	c #E2341D",
"3.	c #CF3222",
"4.	c #F3ECEB",
"5.	c #FEFFFE",
"6.	c #F9EDEE",
"7.	c #C64F44",
"8.	c #F16457",
"9.	c #F16858",
"0.	c #F27C6E",
"a.	c #EB928C",
"b.	c #E59E97",
"c.	c #E37A74",
"d.	c #E36F66",
"e.	c #DB5345",
"f.	c #D64C38",
"g.	c #D34730",
"h.	c #CF4027",
"i.	c #C93A1F",
"j.	c #CA3D20",
"k.	c #C73818",
"l.	c #D84C42",
"m.	c #EE5245",
"n.	c #EE4736",
"o.	c #E73C29",
"p.	c #E2341F",
"q.	c #BB2C21",
"r.	c #F3EBEA",
"s.	c #FFFFFD",
"t.	c #F8EEEB",
"u.	c #BA4742",
"v.	c #E76659",
"w.	c #F17668",
"x.	c #F18B81",
"y.	c #EC9F9C",
"z.	c #E98689",
"A.	c #EB8184",
"B.	c #EA7F7E",
"C.	c #E37069",
"D.	c #DE6155",
"E.	c #DB5748",
"F.	c #D5503C",
"G.	c #D04B35",
"H.	c #CF462C",
"I.	c #CD3D1E",
"J.	c #CA3B1E",
"K.	c #E75556",
"L.	c #EF5042",
"M.	c #EC4432",
"N.	c #DF3927",
"O.	c #AC2720",
"P.	c #F4EBE9",
"Q.	c #F8F0E6",
"R.	c #B43F42",
"S.	c #DB6B63",
"T.	c #EE877B",
"U.	c #EE9590",
"V.	c #EC9298",
"W.	c #ED8C94",
"X.	c #EC8F9A",
"Y.	c #ED8C8F",
"Z.	c #EA8281",
"`.	c #E7746B",
" +	c #E06253",
".+	c #D55642",
"++	c #D2503A",
"@+	c #D14D35",
"#+	c #D14D33",
"$+	c #D04C31",
"%+	c #D94F43",
"&+	c #ED515C",
"*+	c #EF4D41",
"=+	c #D4392E",
"-+	c #A6211C",
";+	c #F4EBEA",
">+	c #F8F0E5",
",+	c #B23F42",
"'+	c #C85A4F",
")+	c #ED8C89",
"!+	c #EE9796",
"~+	c #F09293",
"{+	c #EC949D",
"]+	c #EA969F",
"^+	c #E98888",
"/+	c #DD7069",
"(+	c #D05543",
"_+	c #D1503B",
":+	c #D4533D",
"<+	c #D55641",
"[+	c #D65845",
"}+	c #D65745",
"|+	c #D75642",
"1+	c #D75342",
"2+	c #E8554B",
"3+	c #EB554B",
"4+	c #BF2921",
"5+	c #A5201C",
"6+	c #F3EAE9",
"7+	c #F8F1E6",
"8+	c #B33E41",
"9+	c #C1443D",
"0+	c #E49890",
"a+	c #E1827D",
"b+	c #DA6F6B",
"c+	c #D4645C",
"d+	c #CE5141",
"e+	c #CC4429",
"f+	c #CF4D33",
"g+	c #D2543E",
"h+	c #D65642",
"i+	c #D75A49",
"j+	c #DA5D4E",
"k+	c #DB6052",
"l+	c #DB6153",
"m+	c #DC5F53",
"n+	c #D85C4D",
"o+	c #E05C4F",
"p+	c #DE4F46",
"q+	c #B5170D",
"r+	c #F4ECEA",
"s+	c #F9F1E8",
"t+	c #B13D42",
"u+	c #C4453E",
"v+	c #DA7E73",
"w+	c #C64D40",
"x+	c #BD2610",
"y+	c #C83216",
"z+	c #CB4022",
"A+	c #D04A31",
"B+	c #D65C4A",
"C+	c #D95B49",
"D+	c #D65543",
"E+	c #DC5D50",
"F+	c #DF6358",
"G+	c #DF675B",
"H+	c #DE695E",
"I+	c #DF675A",
"J+	c #DD6153",
"K+	c #D44230",
"L+	c #B0120C",
"M+	c #A6211D",
"N+	c #F4EBEB",
"O+	c #F8F0E8",
"P+	c #B43D3C",
"Q+	c #C95042",
"R+	c #D14B39",
"S+	c #CD4931",
"T+	c #BD2712",
"U+	c #C63316",
"V+	c #CD4328",
"W+	c #D24E37",
"X+	c #D75A48",
"Y+	c #DB6253",
"Z+	c #E1685C",
"`+	c #DE655A",
" @	c #DF695E",
".@	c #E37168",
"+@	c #E5746D",
"@@	c #E5756F",
"#@	c #E1736A",
"$@	c #D95B46",
"%@	c #D43F1A",
"&@	c #BF2516",
"*@	c #A7201D",
"=@	c #F4EBEC",
"-@	c #B33E45",
";@	c #CB5145",
">@	c #C74027",
",@	c #D2472D",
"'@	c #C53928",
")@	c #C43114",
"!@	c #CF4229",
"~@	c #D3503C",
"{@	c #DD6254",
"]@	c #E36C62",
"^@	c #E5736C",
"/@	c #E57673",
"(@	c #EA7F7F",
"_@	c #EA8080",
":@	c #EA8181",
"<@	c #E4746C",
"[@	c #D24020",
"}@	c #D23A0E",
"|@	c #CD3316",
"1@	c #A9201C",
"2@	c #F4EBED",
"3@	c #F8F1E5",
"4@	c #B7433F",
"5@	c #C04637",
"6@	c #C64025",
"7@	c #CD3F1F",
"8@	c #D6442C",
"9@	c #C62F14",
"0@	c #CC3F27",
"a@	c #D4503C",
"b@	c #DB5A49",
"c@	c #DD5F51",
"d@	c #E46B60",
"e@	c #E6746D",
"f@	c #EE8A8F",
"g@	c #ED8D95",
"h@	c #ED8B8F",
"i@	c #D85345",
"j@	c #D1390B",
"k@	c #D63D0D",
"l@	c #D73D11",
"m@	c #AF271E",
"n@	c #F5ECED",
"o@	c #B4443D",
"p@	c #B84330",
"q@	c #C13F26",
"r@	c #CA401F",
"s@	c #D4401E",
"t@	c #D23D26",
"u@	c #CA381D",
"v@	c #D44933",
"w@	c #D64B38",
"x@	c #DE5343",
"y@	c #E36153",
"z@	c #E87060",
"A@	c #EB7976",
"B@	c #EF9499",
"C@	c #ED9BA9",
"D@	c #E57D7C",
"E@	c #D13D1A",
"F@	c #D33C0E",
"G@	c #D9400D",
"H@	c #DD420D",
"I@	c #BA301E",
"J@	c #F5ECEC",
"K@	c #F8F2EB",
"L@	c #A6423F",
"M@	c #AA432A",
"N@	c #BB4027",
"O@	c #C7431D",
"P@	c #D13F1C",
"Q@	c #D53F26",
"R@	c #CB361E",
"S@	c #D0351C",
"T@	c #D5391F",
"U@	c #DA462C",
"V@	c #DE4F38",
"W@	c #E55947",
"X@	c #EA6857",
"Y@	c #ED8384",
"Z@	c #EC9EA8",
"`@	c #D55949",
" #	c #D2390E",
".#	c #D73E0D",
"+#	c #DC420C",
"@#	c #E0450B",
"##	c #CE3F1F",
"$#	c #F4EDEA",
"%#	c #FCF8F7",
"&#	c #C59995",
"*#	c #B84431",
"=#	c #BD3B27",
"-#	c #C33D25",
";#	c #C83E24",
">#	c #CA3F28",
",#	c #CA4433",
"'#	c #C1301D",
")#	c #C6331D",
"!#	c #CC3920",
"~#	c #D04023",
"{#	c #D44429",
"]#	c #D84C33",
"^#	c #D75846",
"/#	c #D36C67",
"(#	c #C23313",
"_#	c #C7330D",
":#	c #CB360D",
"<#	c #CA3507",
"[#	c #CB3F1E",
"}#	c #DC9789",
"|#	c #F9F6F2",
"1#	c #FAF7F5",
"2#	c #E9D1CC",
"3#	c #C26A5F",
"4#	c #B43327",
"5#	c #AC2A1A",
"6#	c #9E2516",
"7#	c #952B1E",
"8#	c #AF3B2C",
"9#	c #A22915",
"0#	c #AF2D1A",
"a#	c #B12E1A",
"b#	c #B2321A",
"c#	c #B33017",
"d#	c #B12B15",
"e#	c #A8230F",
"f#	c #AC2008",
"g#	c #B1230D",
"h#	c #B62C1C",
"i#	c #BB655C",
"j#	c #E5D0C8",
"k#	c #F9F7F5",
"l#	c #FEFDFE",
"m#	c #FAF4F1",
"n#	c #D9B3B2",
"o#	c #BA625C",
"p#	c #A82101",
"q#	c #A02412",
"r#	c #AE3122",
"s#	c #B8311D",
"t#	c #BA3119",
"u#	c #BE331B",
"v#	c #BD3219",
"w#	c #B93217",
"x#	c #A8250E",
"y#	c #A51D06",
"z#	c #A71300",
"A#	c #B55E56",
"B#	c #D7B3AE",
"C#	c #F8F3ED",
"D#	c #FFFEFF",
"E#	c #FDFDFC",
"F#	c #F2E7E8",
"G#	c #D5A6A0",
"H#	c #B73F32",
"I#	c #B42B1A",
"J#	c #C23823",
"K#	c #C7371F",
"L#	c #C9371D",
"M#	c #B62F15",
"N#	c #A4200A",
"O#	c #A6392B",
"P#	c #CEA59E",
"Q#	c #F0E7E7",
"R#	c #FDFCF9",
"S#	c #FEFBFA",
"T#	c #EDD9D4",
"U#	c #C9847D",
"V#	c #BE4235",
"W#	c #D13924",
"X#	c #D23A20",
"Y#	c #C7351B",
"Z#	c #A5372C",
"`#	c #B88277",
" $	c #E9D7D7",
".$	c #FDFCFD",
"+$	c #FBF7F5",
"@$	c #E6CCC9",
"#$	c #D0726B",
"$$	c #CE3312",
"%$	c #B86F63",
"&$	c #DFCAC7",
"*$	c #F9F5F3",
"=$	c #F9F2F1",
"-$	c #E8D1CD",
";$	c #FEFDFC",
"                            .                                         ",
"                                                                      ",
"                                                                      ",
"                                                                      ",
"                              + + @                                   ",
"                                # $ % & . .                           ",
"                            * = - ; > , ' ) .                         ",
"                        ! ~ { ] ^ / ( _ : < [                         ",
"                  + . } | 1 2 3 4 5 6 7 8 9 0 a                       ",
"                @ b c d e f g h i j k l m n o p q r s                 ",
"              t u v w x y z A B C D E F G H I J K L M ' N @           ",
"            O P Q R S T U V W X Y Z `  ...+.@.#.$.%.&.*.=.            ",
"          + -.;.>.,.'.).!.~.{.].^./.(._.:.<.[.}.|.1.2.3.4.            ",
"        . 5.6.7.8.9.0.a.b.c.d.e.f.g.h.i.j.k.l.m.n.o.p.q.r.            ",
"          s.t.u.v.w.x.y.z.A.B.C.D.E.F.G.H.I.J.K.L.M.N.O.P.            ",
"        . s.Q.R.S.T.U.V.W.X.Y.Z.`. +.+++@+#+$+%+&+*+=+-+;+            ",
"        . 5.>+,+'+)+!+~+{+]+^+/+(+_+:+<+[+}+|+1+2+3+4+5+6+            ",
"          5.7+8+9+0+a+b+c+d+e+f+g+h+i+j+k+l+m+n+o+p+q+-+r+            ",
"          + s+t+u+v+w+x+y+z+A+:+B+C+D+E+F+G+H+I+J+K+L+M+N+            ",
"          & O+P+Q+R+S+T+U+V+W+X+Y+Z+`+ @.@+@@@#@$@%@&@*@=@            ",
"        . 5.7+-@;@>@,@'@)@!@~@j+{@]@^@/@(@_@:@<@[@}@|@1@2@  .         ",
"          & 3@4@5@6@7@8@9@0@a@b@c@d@e@B.f@g@h@i@j@k@l@m@n@  s.        ",
"        . & Q.o@p@q@r@s@t@u@v@w@x@y@z@A@B@C@D@E@F@G@H@I@J@            ",
"          5.K@L@M@N@O@P@Q@R@S@T@U@V@W@X@Y@Z@`@ #.#+#@###$#            ",
"            %#&#*#=#-#;#>#,#'#)#!#~#{#]#^#/#(#_#:#<#[#}#|#.           ",
"              1#2#3#4#5#6#7#8#9#0#a#b#c#d#e#f#g#h#i#j#k#l#            ",
"            @ ) . m#n#o#p#q#r#s#t#u#v#w#x#y#z#A#B#C#) N D#            ",
"                    E#F#G#H#I#J#K#L#L#M#N#O#P#Q#R#)                   ",
"                      ) S#T#U#V#W#X#Y#Z#`# $.$s .                     ",
"                      . .   +$@$#$$$%$&$*$                            ",
"                              @ =$-$b ;$s.                            ",
"                                  . .                                 ",
"                                  .                                   ",
"                                                                      ",
"                                                                      "};
