/* XPM */
static char * en0_xpm[] = {
"35 35 447 2",
"  	c #FFFFFF",
". 	c #FEFEFE",
"+ 	c #FDFDFD",
"@ 	c #FDFDFE",
"# 	c #FCFDFD",
"$ 	c #F6F5F3",
"% 	c #FDFDFC",
"& 	c #FCFCFD",
"* 	c #CAC4BE",
"= 	c #E9E8E7",
"- 	c #FDFEFE",
"; 	c #F9F6F3",
"> 	c #AD9D8A",
", 	c #EDEAE7",
"' 	c #FFFEFE",
") 	c #F4F3F2",
"! 	c #D2CECB",
"~ 	c #FCFCFB",
"{ 	c #D5D0CC",
"] 	c #C0A077",
"^ 	c #E9E6DF",
"/ 	c #BFBEBE",
"( 	c #C9C8C8",
"_ 	c #F7F6F3",
": 	c #D8CDBE",
"< 	c #CEBEAC",
"[ 	c #FCFBF8",
"} 	c #FCFCFC",
"| 	c #C2BDB5",
"1 	c #D0AE7B",
"2 	c #B4A483",
"3 	c #706C67",
"4 	c #8C8C8E",
"5 	c #928E8C",
"6 	c #B3A28B",
"7 	c #B4A594",
"8 	c #FAF9F6",
"9 	c #FBFCFC",
"0 	c #D8D3D0",
"a 	c #B18B60",
"b 	c #D4AE7C",
"c 	c #907C65",
"d 	c #6D6D74",
"e 	c #67666A",
"f 	c #5F554F",
"g 	c #9C8B7D",
"h 	c #F9F8F4",
"i 	c #F2F0F0",
"j 	c #94897C",
"k 	c #887763",
"l 	c #6F645F",
"m 	c #6F6C6D",
"n 	c #6E6766",
"o 	c #786F6D",
"p 	c #6F686B",
"q 	c #CCCACA",
"r 	c #FBFBFC",
"s 	c #BAB2AF",
"t 	c #7F7974",
"u 	c #685B59",
"v 	c #6D574A",
"w 	c #826851",
"x 	c #8F7250",
"y 	c #936B4B",
"z 	c #7A5D4B",
"A 	c #B2A9A1",
"B 	c #FBFBFB",
"C 	c #A49C98",
"D 	c #896448",
"E 	c #AE794E",
"F 	c #BD8353",
"G 	c #B67542",
"H 	c #C78448",
"I 	c #DB985A",
"J 	c #AF6C44",
"K 	c #D6CEC9",
"L 	c #CAC1BA",
"M 	c #A56D41",
"N 	c #C2834A",
"O 	c #C28450",
"P 	c #924415",
"Q 	c #843D15",
"R 	c #AB7347",
"S 	c #883C21",
"T 	c #DAD5CF",
"U 	c #FEFDFB",
"V 	c #FDFCFC",
"W 	c #E2D6CF",
"X 	c #A87F64",
"Y 	c #965B3B",
"Z 	c #C68651",
"` 	c #D5945F",
" .	c #A56B45",
"..	c #C48758",
"+.	c #C99A71",
"@.	c #966A4D",
"#.	c #DDDBDA",
"$.	c #ECE7E6",
"%.	c #C8AD9C",
"&.	c #CB9B6C",
"*.	c #DA985C",
"=.	c #AC5F2C",
"-.	c #B86028",
";.	c #B35A2D",
">.	c #A2582B",
",.	c #A14F21",
"'.	c #9C4E20",
").	c #9A4D1F",
"!.	c #BEB1AC",
"~.	c #FBF7F7",
"{.	c #E3DEDC",
"].	c #C39979",
"^.	c #E0A066",
"/.	c #E5A468",
"(.	c #D8945C",
"_.	c #AD5421",
":.	c #C15615",
"<.	c #B34E1B",
"[.	c #B34E18",
"}.	c #B25118",
"|.	c #A04209",
"1.	c #B65018",
"2.	c #9E5B3F",
"3.	c #D0BAAB",
"4.	c #F9F7F5",
"5.	c #FBF8F8",
"6.	c #C09780",
"7.	c #E2A366",
"8.	c #E4A364",
"9.	c #E4A265",
"0.	c #D39257",
"a.	c #9D4B1B",
"b.	c #BF5616",
"c.	c #8F3E12",
"d.	c #933507",
"e.	c #943E0A",
"f.	c #B05017",
"g.	c #A74610",
"h.	c #983E11",
"i.	c #A9724D",
"j.	c #D5C6BB",
"k.	c #FDFDFB",
"l.	c #F1E9E6",
"m.	c #BA7C52",
"n.	c #E5A161",
"o.	c #E2A165",
"p.	c #D59357",
"q.	c #93481B",
"r.	c #B55313",
"s.	c #964213",
"t.	c #B6531F",
"u.	c #C55411",
"v.	c #CA530E",
"w.	c #CA540D",
"x.	c #BF5517",
"y.	c #A55F31",
"z.	c #CDA079",
"A.	c #F7F5F2",
"B.	c #F2F2F1",
"C.	c #D7D7D8",
"D.	c #DADADA",
"E.	c #FCFBFB",
"F.	c #FEFDFC",
"G.	c #F6F2F2",
"H.	c #A8755C",
"I.	c #E29C5F",
"J.	c #E49F66",
"K.	c #D0905A",
"L.	c #D0915C",
"M.	c #A66039",
"N.	c #A84A10",
"O.	c #C55413",
"P.	c #CB530E",
"Q.	c #C75410",
"R.	c #C65411",
"S.	c #C9540C",
"T.	c #C65512",
"U.	c #AB6741",
"V.	c #CA986C",
"W.	c #F3EFEE",
"X.	c #EFEFF0",
"Y.	c #A7A7A7",
"Z.	c #838182",
"`.	c #777576",
" +	c #7F7C7E",
".+	c #CECBCC",
"++	c #F8F8F9",
"@+	c #E0DBD9",
"#+	c #A9714A",
"$+	c #D69153",
"%+	c #E29D5D",
"&+	c #A46638",
"*+	c #D5955A",
"=+	c #D69059",
"-+	c #92552B",
";+	c #9C4611",
">+	c #B5511A",
",+	c #B7531A",
"'+	c #B45419",
")+	c #B24F17",
"!+	c #954219",
"~+	c #B37E57",
"{+	c #C18D63",
"]+	c #F4F0ED",
"^+	c #D4D4D4",
"/+	c #787677",
"(+	c #757679",
"_+	c #747679",
":+	c #888285",
"<+	c #ABA9AA",
"[+	c #F2F1F2",
"}+	c #C5B7B1",
"|+	c #C08454",
"1+	c #D29A68",
"2+	c #CF9567",
"3+	c #AA7348",
"4+	c #BA8354",
"5+	c #E09C60",
"6+	c #DA9961",
"7+	c #BC7D4E",
"8+	c #A5653D",
"9+	c #9B572D",
"0+	c #9F6036",
"a+	c #AE7246",
"b+	c #C48759",
"c+	c #B37646",
"d+	c #D29A64",
"e+	c #CBC1BA",
"f+	c #F0EEED",
"g+	c #F9FAFB",
"h+	c #CBC9C9",
"i+	c #696668",
"j+	c #767374",
"k+	c #737174",
"l+	c #616064",
"m+	c #5B595B",
"n+	c #4D4748",
"o+	c #CBCACA",
"p+	c #A99A92",
"q+	c #786152",
"r+	c #6F615E",
"s+	c #5B4A46",
"t+	c #583C2B",
"u+	c #814B29",
"v+	c #BD7C45",
"w+	c #CC8C4F",
"x+	c #CF9256",
"y+	c #C07C45",
"z+	c #C6854A",
"A+	c #D99255",
"B+	c #CB8952",
"C+	c #9A5E38",
"D+	c #A66E42",
"E+	c #C08B5C",
"F+	c #9E7B63",
"G+	c #90746A",
"H+	c #A28981",
"I+	c #705B55",
"J+	c #5E5858",
"K+	c #5A5557",
"L+	c #4C484B",
"M+	c #4E4C50",
"N+	c #5C5455",
"O+	c #4F4C50",
"P+	c #DAD9DA",
"Q+	c #636266",
"R+	c #868287",
"S+	c #6F737A",
"T+	c #56565D",
"U+	c #8F5D37",
"V+	c #C57626",
"W+	c #C77520",
"X+	c #C17227",
"Y+	c #BC6F24",
"Z+	c #BA7430",
"`+	c #B36F32",
" @	c #9F6129",
".@	c #874C24",
"+@	c #754523",
"@@	c #724C2D",
"#@	c #815836",
"$@	c #935F3B",
"%@	c #785043",
"&@	c #7B6661",
"*@	c #4D4649",
"=@	c #535157",
"-@	c #58555B",
";@	c #565456",
">@	c #585457",
",@	c #535054",
"'@	c #C8C7C8",
")@	c #8F8C8E",
"!@	c #77797C",
"~@	c #929197",
"{@	c #73777F",
"]@	c #64676C",
"^@	c #5D4338",
"/@	c #88552C",
"(@	c #8B4D19",
"_@	c #904E11",
":@	c #945111",
"<@	c #854A19",
"[@	c #79431A",
"}@	c #744422",
"|@	c #673C24",
"1@	c #B0784B",
"2@	c #9A653E",
"3@	c #BE8C5D",
"4@	c #B37C57",
"5@	c #C0B9B5",
"6@	c #D1D0D0",
"7@	c #504F54",
"8@	c #58585F",
"9@	c #595559",
"0@	c #565356",
"a@	c #565558",
"b@	c #575457",
"c@	c #ACA9A9",
"d@	c #BBB9B9",
"e@	c #68686D",
"f@	c #8D8C8F",
"g@	c #737984",
"h@	c #636873",
"i@	c #53494B",
"j@	c #604635",
"k@	c #684027",
"l@	c #71462E",
"m@	c #714528",
"n@	c #6A4123",
"o@	c #68452D",
"p@	c #675239",
"q@	c #695039",
"r@	c #A67856",
"s@	c #976C50",
"t@	c #9B7055",
"u@	c #675450",
"v@	c #C5C2C1",
"w@	c #F1EFEE",
"x@	c #5F5F61",
"y@	c #57575D",
"z@	c #585760",
"A@	c #58565C",
"B@	c #4D4C51",
"C@	c #5B595D",
"D@	c #C2BFC0",
"E@	c #C4B6B2",
"F@	c #5E585A",
"G@	c #6C686A",
"H@	c #715E58",
"I@	c #9A755C",
"J@	c #936A51",
"K@	c #6F3E21",
"L@	c #673B23",
"M@	c #7A6B65",
"N@	c #776B67",
"O@	c #554333",
"P@	c #695E4B",
"Q@	c #6C634D",
"R@	c #594A3A",
"S@	c #5E4940",
"T@	c #645C59",
"U@	c #7F7E80",
"V@	c #B1B0B2",
"W@	c #F6F6F7",
"X@	c #FAFAFB",
"Y@	c #AAA8A7",
"Z@	c #535051",
"`@	c #6E6D71",
" #	c #A2A0A0",
".#	c #C8C8C9",
"+#	c #EEEDED",
"@#	c #F5F4F3",
"##	c #968782",
"$#	c #7B6055",
"%#	c #694133",
"&#	c #4A3A38",
"*#	c #A16E48",
"=#	c #CB9160",
"-#	c #C28A5C",
";#	c #A7754E",
">#	c #6B5A39",
",#	c #564E43",
"'#	c #E6E3E1",
")#	c #E7E4E1",
"!#	c #61523E",
"~#	c #675335",
"{#	c #675636",
"]#	c #928A87",
"^#	c #B3AFAE",
"/#	c #BAB9BA",
"(#	c #E8E7E6",
"_#	c #F8F8F8",
":#	c #EAE9E9",
"<#	c #F3F3F3",
"[#	c #F7F6F5",
"}#	c #978079",
"|#	c #9F8D88",
"1#	c #C6B9B5",
"2#	c #C6BCB8",
"3#	c #B28560",
"4#	c #B4A091",
"5#	c #836957",
"6#	c #725436",
"7#	c #705A2F",
"8#	c #A3907F",
"9#	c #F8F5F4",
"0#	c #F5F3F1",
"a#	c #827869",
"b#	c #866B44",
"c#	c #7E6237",
"d#	c #AB9C92",
"e#	c #E7E5E1",
"f#	c #F7F5F5",
"g#	c #FAF9F9",
"h#	c #F1F0EF",
"i#	c #EFEDE9",
"j#	c #92867F",
"k#	c #816648",
"l#	c #8A6C4A",
"m#	c #7C6859",
"n#	c #CAC2BE",
"o#	c #E4DFDD",
"p#	c #9D938A",
"q#	c #886C48",
"r#	c #7F6A48",
"s#	c #806B53",
"t#	c #797266",
"u#	c #E7E0D8",
"v#	c #F6F0E9",
"w#	c #FBF8F2",
"x#	c #EFECEB",
"y#	c #E1D8CE",
"z#	c #CBC2BC",
"A#	c #BEB3AC",
"B#	c #C0B5AB",
"C#	c #BEB0A8",
"D#	c #C6BCB6",
"E#	c #CDC4BC",
"F#	c #C3B8AF",
"G#	c #BAB1A7",
"H#	c #BCB4AA",
"I#	c #BFB6AA",
"J#	c #C4BAB2",
"K#	c #D7CFC7",
"L#	c #E1D5CB",
"M#	c #EBE4DF",
"N#	c #FEFEFD",
"                                                . + + . . . @ + # . + ",
"                                                . . . + + . @ . . . . ",
"                                                . + . . . . . . + .   ",
"                                                                .     ",
"                                                                      ",
"                                                                      ",
"                          . . . .                                     ",
"                        . . + . . . . .                               ",
"                        $ % & + . . . .                               ",
"                      . * = - . . . . .                               ",
"                      ; > , . ' . ) ! ~ . .   -                       ",
"                    . { ] ^ / ( _ : < [ . @ + -                       ",
"                    } | 1 2 3 4 5 6 7 8 9 . - @                       ",
"                    . 0 a b c d e f g h # # + .                       ",
"              . . . . i j k l m n o p q r . . &                       ",
"              . + } } s t u v w x y z A } + + -                       ",
"              . } + B C D E F G H I J K # - + +                       ",
"              . + 9 . L M N O P Q R S T + # - .                       ",
"        . + + U + V W X Y Z `  ...+.@.#.+ @ + .                       ",
"      . . . # ~ $.%.&.*.=.-.;.>.,.'.).!.~.. . .           . .         ",
"          + . {.].^./.(._.:.<.[.}.|.1.2.3.4.. }             . .       ",
"      . @ . 5.6.7.8.9.0.a.b.c.d.e.f.g.h.i.j.k.# + .     r +   . .     ",
"      . @   l.m.n.9.o.p.q.r.s.t.u.v.w.x.y.z.A.. . . + B.C.D.E.9 .     ",
"        . F.G.H.I.J.K.L.M.N.O.P.Q.R.S.T.U.V.W.. 9 X.Y.Z.`. +.+++.     ",
"        - . @+#+$+%+&+*+=+-+;+>+,+'+)+!+~+{+]+r + ^+n /+(+_+:+<+[+    ",
"        . + }+|+1+2+3+4+5+6+7+8+9+0+a+b+c+d+e+f+g+h+i+j+k+l+m+n+o+.   ",
"        . V p+q+r+s+t+u+v+w+x+y+z+A+B+C+D+E+F+G+H+I+J+K+L+M+N+O+P+.   ",
"          B `.Q+R+S+T+U+V+W+X+Y+Z+`+ @.@+@@@#@$@%@&@*@=@-@;@>@,@'@    ",
"          B )@!@~@{@]@^@/@(@_@:@<@[@}@|@1@2@3@4@5@6@7@8@9@0@a@b@c@+   ",
"          . d@e@f@g@h@i@j@k@l@m@n@o@p@q@r@s@t@u@v@w@x@y@z@A@B@C@D@+   ",
"      . } ]+E@F@G@H@I@J@K@L@M@N@O@P@Q@R@S@T@U@V@W@X@Y@Z@`@ #.#+#}     ",
"    @ @###$#%#&#*#=#-#;#>#,#'#)#!#~#{#]#^#/#(#} # . _#:#<#+ .   .     ",
".   + [#}#|#1#2#3#4#5#6#7#8#9#0#a#b#c#d#e#} . + . .   .               ",
"    . . f#g#. V h#i#j#k#l#m#n#o#p#q#r#s#t#u#v#w#+                     ",
"    +   .     . x#y#z#A#B#C#D#E#F#G#H#I#J#K#L#M#N#                    "};
