/* XPM */
static char * en1_xpm[] = {
"35 35 467 2",
"  	c #FEFEFE",
". 	c #FFFFFF",
"+ 	c #FCFCFC",
"@ 	c #FCFCFD",
"# 	c #FCFCFB",
"$ 	c #DAD7D2",
"% 	c #FDFDFD",
"& 	c #F5F1EF",
"* 	c #AEA49A",
"= 	c #F9F9FA",
"- 	c #FBFCFC",
"; 	c #F9F9F9",
"> 	c #CABFB6",
", 	c #C7BBA8",
"' 	c #F6F6F5",
") 	c #F9F8F3",
"! 	c #FEFEFD",
"~ 	c #FCFBF8",
"{ 	c #C2B5A8",
"] 	c #E5E2DE",
"^ 	c #FCFDFD",
"/ 	c #FEFEFF",
"( 	c #F7F6F5",
"_ 	c #B79B76",
": 	c #BDA688",
"< 	c #D2CCC4",
"[ 	c #52524A",
"} 	c #A3A3A5",
"| 	c #E9E3DF",
"1 	c #BE9F7B",
"2 	c #E5E0DC",
"3 	c #F9F8F5",
"4 	c #AC9674",
"5 	c #D7B682",
"6 	c #AA916D",
"7 	c #8E8A86",
"8 	c #9E9D9F",
"9 	c #5F645B",
"0 	c #B79768",
"a 	c #C6C1BE",
"b 	c #FBFBFC",
"c 	c #FBFBFB",
"d 	c #BFBAB5",
"e 	c #B99667",
"f 	c #BD9B72",
"g 	c #55473F",
"h 	c #514B4C",
"i 	c #514E4F",
"j 	c #4B443B",
"k 	c #C9C6C5",
"l 	c #FEFDFD",
"m 	c #C5BDBA",
"n 	c #665C59",
"o 	c #908680",
"p 	c #5E5F66",
"q 	c #736D6D",
"r 	c #56514D",
"s 	c #757171",
"t 	c #645C5F",
"u 	c #D6D6D7",
"v 	c #F9FAFA",
"w 	c #F5F1F2",
"x 	c #FAFBFB",
"y 	c #E2E1E1",
"z 	c #756C6A",
"A 	c #645047",
"B 	c #6E482D",
"C 	c #A37D58",
"D 	c #BD9A67",
"E 	c #CE9A61",
"F 	c #C39863",
"G 	c #8B7C73",
"H 	c #F4F4F4",
"I 	c #FDFEFE",
"J 	c #E9E8E8",
"K 	c #8C8A8C",
"L 	c #7D7C7E",
"M 	c #959496",
"N 	c #F9F7F7",
"O 	c #F6F4F2",
"P 	c #8E8174",
"Q 	c #BE926C",
"R 	c #C5814A",
"S 	c #A76539",
"T 	c #B35719",
"U 	c #BC7645",
"V 	c #B67446",
"W 	c #936051",
"X 	c #EDEBEC",
"Y 	c #FDFDFE",
"Z 	c #D3CFD0",
"` 	c #7E7E82",
" .	c #787577",
"..	c #757579",
"+.	c #827E7F",
"@.	c #A49E9D",
"#.	c #E3DDDC",
"$.	c #F8F8F9",
"%.	c #EEECE9",
"&.	c #82614F",
"*.	c #A66B3C",
"=.	c #DB9959",
"-.	c #B97241",
";.	c #6D2F0E",
">.	c #925E38",
",.	c #7F5E39",
"'.	c #99796F",
").	c #F9F8F8",
"!.	c #F3F2F3",
"~.	c #727275",
"{.	c #727074",
"].	c #747477",
"^.	c #747274",
"/.	c #717176",
"(.	c #817C7C",
"_.	c #594E4D",
":.	c #B4AFB0",
"<.	c #F9FAFB",
"[.	c #E6E0D8",
"}.	c #B9906D",
"|.	c #BC7B42",
"1.	c #AF7041",
"2.	c #C9844C",
"3.	c #C68855",
"4.	c #B27F50",
"5.	c #B9875C",
"6.	c #C28A5D",
"7.	c #A88B7B",
"8.	c #FBF8F7",
"9.	c #FEFFFF",
"0.	c #8A857F",
"a.	c #6F7174",
"b.	c #737478",
"c.	c #6F7478",
"d.	c #747579",
"e.	c #75767A",
"f.	c #817D80",
"g.	c #C1C0C1",
"h.	c #F7F1ED",
"i.	c #B89F85",
"j.	c #D7A268",
"k.	c #E6A367",
"l.	c #C37C44",
"m.	c #B6581E",
"n.	c #BC5617",
"o.	c #A04D1C",
"p.	c #9C420C",
"q.	c #AE4F10",
"r.	c #AD5A1A",
"s.	c #A14519",
"t.	c #C1B3AC",
"u.	c #F7F7F8",
"v.	c #D7D5D4",
"w.	c #615D5E",
"x.	c #767576",
"y.	c #747273",
"z.	c #626061",
"A.	c #444245",
"B.	c #5C5B5D",
"C.	c #EEECED",
"D.	c #FBFAF7",
"E.	c #C49D7C",
"F.	c #DEA266",
"G.	c #E4A35F",
"H.	c #E3A25F",
"I.	c #B26E3F",
"J.	c #BF520E",
"K.	c #C05513",
"L.	c #A34A1D",
"M.	c #B2541E",
"N.	c #903D0F",
"O.	c #903403",
"P.	c #AA4F1F",
"Q.	c #AB7453",
"R.	c #BCA994",
"S.	c #FBFAF8",
"T.	c #F9F3F0",
"U.	c #F1E5E1",
"V.	c #DFD9D6",
"W.	c #625147",
"X.	c #6C6D6F",
"Y.	c #646670",
"Z.	c #4A484B",
"`.	c #504E51",
" +	c #565356",
".+	c #5C5A5D",
"++	c #A4A2A2",
"@+	c #DED7D2",
"#+	c #DD9A5B",
"$+	c #E1A363",
"%+	c #E4A566",
"&+	c #DEA15D",
"*+	c #AE6C3F",
"=+	c #B65118",
"-+	c #AB4A10",
";+	c #7B2804",
">+	c #9E3F07",
",+	c #BB5315",
"'+	c #BD5515",
")+	c #B24D0F",
"!+	c #7E3109",
"~+	c #C38B5E",
"{+	c #D7CEC4",
"]+	c #F6F1F0",
"^+	c #997C66",
"/+	c #7E5947",
"(+	c #6D4532",
"_+	c #533728",
":+	c #514946",
"<+	c #464448",
"[+	c #555154",
"}+	c #555355",
"|+	c #575457",
"1+	c #515157",
"2+	c #DCD5D0",
"3+	c #D08D51",
"4+	c #E8A562",
"5+	c #E3A362",
"6+	c #D79959",
"7+	c #B97A44",
"8+	c #9A4713",
"9+	c #B35115",
"0+	c #BD5616",
"a+	c #C4540E",
"b+	c #C6540C",
"c+	c #C5550E",
"d+	c #C35513",
"e+	c #B58352",
"f+	c #BFA694",
"g+	c #DAD1CB",
"h+	c #7C4F37",
"i+	c #9B6741",
"j+	c #9A6543",
"k+	c #E8DDD7",
"l+	c #BEBDBD",
"m+	c #5A5556",
"n+	c #565456",
"o+	c #585558",
"p+	c #4C4D52",
"q+	c #CFCED0",
"r+	c #E3DAD8",
"s+	c #B06D43",
"t+	c #E4A261",
"u+	c #AE7243",
"v+	c #D3945C",
"w+	c #88491E",
"x+	c #B35219",
"y+	c #C55611",
"z+	c #C5540A",
"A+	c #C65508",
"B+	c #C65509",
"C+	c #C3550E",
"D+	c #A34C1D",
"E+	c #CA9166",
"F+	c #8A5D45",
"G+	c #7F6141",
"H+	c #986B4C",
"I+	c #AA734E",
"J+	c #B37751",
"K+	c #C7C1BE",
"L+	c #F7F7F7",
"M+	c #7B797A",
"N+	c #5B595B",
"O+	c #555254",
"P+	c #58565C",
"Q+	c #49484D",
"R+	c #CDCDCE",
"S+	c #C2B5B1",
"T+	c #CD8950",
"U+	c #DF9C5E",
"V+	c #DB955A",
"W+	c #A36437",
"X+	c #E6A368",
"Y+	c #CD8B4E",
"Z+	c #89441B",
"`+	c #924210",
" @	c #A14C18",
".@	c #AB5522",
"+@	c #A14A15",
"@@	c #8E3F12",
"#@	c #8A5635",
"$@	c #794628",
"%@	c #713E1F",
"&@	c #B27749",
"*@	c #A6683E",
"=@	c #A46C48",
"-@	c #835845",
";@	c #BEBBBB",
">@	c #DDDCDC",
",@	c #4B484A",
"'@	c #433F41",
")@	c #9B9899",
"!@	c #EEEDED",
"~@	c #FAFAFA",
"{@	c #AD958B",
"]@	c #E39B5F",
"^@	c #E3A25D",
"/@	c #DF9E64",
"(@	c #80573D",
"_@	c #A6714C",
":@	c #D79358",
"<@	c #E29F63",
"[@	c #CE8E55",
"}@	c #B67846",
"|@	c #B57642",
"1@	c #BC8051",
"2@	c #834D2A",
"3@	c #6C4322",
"4@	c #714327",
"5@	c #53372A",
"6@	c #6F4C37",
"7@	c #8C6043",
"8@	c #624232",
"9@	c #503F3D",
"0@	c #D4D3D3",
"a@	c #FAF8F8",
"b@	c #E6E5E5",
"c@	c #EEEDEE",
"d@	c #FCFAFA",
"e@	c #AF8E76",
"f@	c #D1905F",
"g@	c #D99E6B",
"h@	c #785744",
"i@	c #433839",
"j@	c #51413B",
"k@	c #7C5231",
"l@	c #B9743C",
"m@	c #B77B38",
"n@	c #A9672F",
"o@	c #885332",
"p@	c #7E3F1D",
"q@	c #794518",
"r@	c #804312",
"s@	c #B47E56",
"t@	c #5B504C",
"u@	c #575255",
"v@	c #564E4F",
"w@	c #6C6A6B",
"x@	c #69696F",
"y@	c #F6F6F6",
"z@	c #BEABA6",
"A@	c #AB6C3C",
"B@	c #886B5B",
"C@	c #555055",
"D@	c #696D74",
"E@	c #61636A",
"F@	c #584F4F",
"G@	c #785034",
"H@	c #925A2F",
"I@	c #7E4319",
"J@	c #784526",
"K@	c #724522",
"L@	c #A65B20",
"M@	c #B1682A",
"N@	c #A9693A",
"O@	c #665048",
"P@	c #78787C",
"Q@	c #9A999B",
"R@	c #747375",
"S@	c #CCCCCD",
"T@	c #E7DEDB",
"U@	c #8F5F47",
"V@	c #675E5D",
"W@	c #89878C",
"X@	c #7F8083",
"Y@	c #727578",
"Z@	c #67656A",
"`@	c #9A6F50",
" #	c #855432",
".#	c #723D2B",
"+#	c #613D27",
"@#	c #624E32",
"##	c #735638",
"$#	c #715330",
"%#	c #79552F",
"&#	c #9E6842",
"*#	c #5B524F",
"=#	c #929194",
"-#	c #BCB8B7",
";#	c #4C474A",
">#	c #7E8086",
",#	c #929294",
"'#	c #848484",
")#	c #746059",
"!#	c #D7975F",
"~#	c #DC9F6C",
"{#	c #7E5743",
"]#	c #6D644B",
"^#	c #6D6858",
"/#	c #71695A",
"(#	c #6B6656",
"_#	c #E0DCD5",
":#	c #E1D6CD",
"<#	c #ECEAE8",
"[#	c #F8F7F6",
"}#	c #938E8F",
"|#	c #57555B",
"1#	c #6E7277",
"2#	c #84674C",
"3#	c #DEA06A",
"4#	c #986F52",
"5#	c #635651",
"6#	c #685743",
"7#	c #645744",
"8#	c #605649",
"9#	c #99928B",
"0#	c #F7F8F8",
"a#	c #EFECEB",
"b#	c #846659",
"c#	c #574035",
"d#	c #564A49",
"e#	c #9D7253",
"f#	c #A9744E",
"g#	c #CCBFB9",
"h#	c #C9C2C0",
"i#	c #685637",
"j#	c #726038",
"k#	c #775E38",
"l#	c #DAD8D4",
"m#	c #F8F9FA",
"n#	c #F3F2EF",
"o#	c #755E55",
"p#	c #694231",
"q#	c #684C25",
"r#	c #69542E",
"s#	c #614020",
"t#	c #AFA198",
"u#	c #EDEAE9",
"v#	c #6E5B43",
"w#	c #806A3E",
"x#	c #6C5120",
"y#	c #9A866F",
"z#	c #D5D3CF",
"A#	c #FAFAF9",
"B#	c #BCAEA6",
"C#	c #B09E89",
"D#	c #554734",
"E#	c #6A5338",
"F#	c #6B5737",
"G#	c #5B4E46",
"H#	c #CCC6BF",
"I#	c #D4CBC3",
"J#	c #6D6049",
"K#	c #76673B",
"L#	c #7D6845",
"M#	c #786643",
"N#	c #85795E",
"O#	c #EAE6DF",
"P#	c #F9F5F1",
"Q#	c #FBFBF9",
"R#	c #FEFDFB",
"S#	c #FAF8F7",
"T#	c #EAE2DA",
"U#	c #DCD7D0",
"V#	c #CEC6BD",
"W#	c #CCC5BD",
"X#	c #CBC2B7",
"Y#	c #C8BDB2",
"Z#	c #CDC5BC",
"`#	c #D0C6BC",
" $	c #C4BDB5",
".$	c #C1B7AE",
"+$	c #C8BDB0",
"@$	c #CAC1B7",
"#$	c #D6CBC5",
"$$	c #DED6CB",
"%$	c #EAE5DE",
"          . . . . . . . . . . . . . . . . . . . . . . . . . . . .   + ",
"        . . . . . . . . . . . . . . . . . . . . . . . . . . . . . @   ",
".   . . . . . . . . . . . . . . . . . . . . . . . . . . . . . . . . . ",
". . . . . . . . . . . . . . . . . . . . . . . . . . . . . . . . . . . ",
". . . . . . . . . . . .   . . . . . . . . . . . . . . . . . . . . . . ",
". . . . . . . . . .       . . . . . . . . . . . . . . . . . . . . . . ",
". . . . . . . . .                 . . . . . . . . . . . . . . . . . . ",
". . . . . . . . .                 . . . . . . . . . . . . . . . . . . ",
". . . . . . . .   . # $ %     .   .   . . . . . . . . . . . . . . . . ",
". . . . . . . .     & * = - @ . % %   . . . . . . . . . . . . . . . . ",
". . . . . . . .   ; > , ' ) ! ~ { ] ^   . . . . . . . . . . . . . . . ",
". . . . . . . . / ( _ : < [ } | 1 2     . . . . . . . . . . . . . . . ",
". . . . . . . .   3 4 5 6 7 8 9 0 a b -   . . . . . . . .         . . ",
". . . . . . . .   c d e f g h i j k l +   . . . . .         .     . . ",
". . . . . . . . . c m n o p q r s t u v             c w x   . .   . . ",
". . . . . . . . . y z A B C D E F G H I           J K L M N x       . ",
". . . . . . . . . O P Q R S T U V W X %   I Y + Z `  ...+.@.#.$.  . . ",
". . . . .     . . %.&.*.=.-.;.>.,.'.).c     + !.~.{.].^./.(._.:.= . . ",
". . . . .   <.v [.}.|.1.2.3.4.5.6.7.8.^ 9.    ; 0.a.b.c.d.e.f.g.  .   ",
". . . . . @ h.i.j.k.l.m.n.o.p.q.r.s.t.u.<.. - v v.w.x.y.~.z.A.B.C.    ",
". . . . . D.E.F.G.H.I.J.K.L.M.N.O.P.Q.R.S.<.T.U.V.W.X.Y.Z.`. +.+++x   ",
". . . . . @+#+$+%+&+*+=+-+;+>+,+'+)+!+~+{+]+^+/+(+_+:+<+[+}+|+}+1+y   ",
". . . . . 2+3+4+5+6+7+8+9+0+a+b+c+d+0+e+f+g+h+i+j+k+l+m+n+|+o+n+p+q+b ",
". . . . . r+s+t+t+u+v+w+x+y+z+A+B+C+D+E+F+G+H+I+J+K+L+M+N+O+P+Q+R+% @ ",
". . . .   S+T+U+V+W+X+Y+Z+`+ @.@+@@@#@$@%@&@*@=@-@;@- >@,@'@)@!@^ -   ",
". . . . ~@{@]@^@/@(@_@:@<@[@}@|@1@2@3@4@5@6@7@8@9@0@b a@b@c@% d@+   % ",
". . . . 8.e@f@g@h@i@j@k@l@m@n@o@p@q@r@s@t@u@v@w@x@y@    - ^   I   % % ",
". . . . % z@A@B@C@D@E@F@G@H@I@J@K@L@M@N@O@P@Q@R@S@  . . . . .         ",
". . . .   T@U@V@W@X@Y@Z@`@ #.#+#@###$#%#&#*#=#>@+ . . . . . . . .   % ",
". . . .   c -#;#>#,#'#)#!#~#{#]#^#/#(#_#:#<#I Y   . . . . . . . .     ",
". . . .   Y [#}#|#1#Y@2#3#4#5#6#7#8#9#0#<.b       . . . . . . . .   % ",
". . . .       a#b#c#d#e#f#g#h#i#j#k#l#m#          . . . . . . . .   @ ",
". . . . . # n#o#p#q#r#s#t#% u#v#w#x#y#z#<.@   .   . . . . . . . .     ",
". . . .   @ A#B#C#D#E#F#G#H#I#J#K#L#M#N#O#P#Q#R#  . . . . . . . . %   ",
". . . . .   S#T#U#V#W#X#Y#Z#`# $.$+$@$#$$$%$+ % R#. . . . . . . . %   "};
