/* XPM */
static char * en2_xpm[] = {
"35 35 498 2",
"  	c #FFFFFF",
". 	c #FDFDFD",
"+ 	c #FEFEFE",
"@ 	c #FDFEFE",
"# 	c #F2F1F2",
"$ 	c #C5C4C6",
"% 	c #DCDCDC",
"& 	c #FAFAFA",
"* 	c #FAF9F9",
"= 	c #B0AFB0",
"- 	c #808082",
"; 	c #85807E",
"> 	c #B2B0B2",
", 	c #EAE9E9",
"' 	c #F3F0F1",
") 	c #F9F7F7",
"! 	c #FCFCFD",
"~ 	c #FEFEFD",
"{ 	c #FCFCFC",
"] 	c #D6D4D4",
"^ 	c #7F8082",
"/ 	c #717377",
"( 	c #747779",
"_ 	c #7B7C80",
": 	c #8C8B8F",
"< 	c #938E90",
"[ 	c #BBB2B1",
"} 	c #F8F8F8",
"| 	c #E4E1DC",
"1 	c #F4F4F4",
"2 	c #909093",
"3 	c #79787B",
"4 	c #737477",
"5 	c #727477",
"6 	c #6F7478",
"7 	c #76777B",
"8 	c #817A7B",
"9 	c #736A6C",
"0 	c #DFDCDC",
"a 	c #F8F8F9",
"b 	c #FBFBFB",
"c 	c #F9F8F8",
"d 	c #AFA49A",
"e 	c #F9F9F7",
"f 	c #F8F8F7",
"g 	c #F9F9F9",
"h 	c #CECDCC",
"i 	c #7A7B7E",
"j 	c #747476",
"k 	c #747579",
"l 	c #747578",
"m 	c #76777A",
"n 	c #737579",
"o 	c #75767A",
"p 	c #7C7B7E",
"q 	c #868185",
"r 	c #C2BEC0",
"s 	c #F0F1F2",
"t 	c #F9FAFB",
"u 	c #FBFCFC",
"v 	c #DBD7D3",
"w 	c #B0A292",
"x 	c #F9F8F6",
"y 	c #F2F2F2",
"z 	c #FAFAF9",
"A 	c #FCFCFA",
"B 	c #D7CEC9",
"C 	c #DAD8D8",
"D 	c #FFFEFE",
"E 	c #CBC9C8",
"F 	c #676566",
"G 	c #707175",
"H 	c #74767A",
"I 	c #73757A",
"J 	c #757578",
"K 	c #74757A",
"L 	c #747478",
"M 	c #5F5B5D",
"N 	c #524D50",
"O 	c #8F8E8F",
"P 	c #E4E3E3",
"Q 	c #FEFFFF",
"R 	c #BBAC9C",
"S 	c #C7AD86",
"T 	c #DCD7D1",
"U 	c #838183",
"V 	c #B7B5B5",
"W 	c #E7E5E1",
"X 	c #C5AE94",
"Y 	c #DAD2CC",
"Z 	c #F7F6F6",
"` 	c #BDBBB8",
" .	c #6B6868",
"..	c #6D6D70",
"+.	c #6E747E",
"@.	c #727579",
"#.	c #656469",
"$.	c #4D4B4E",
"%.	c #565559",
"&.	c #575559",
"*.	c #AFACAC",
"=.	c #FAF9F8",
"-.	c #B29E8B",
";.	c #DAAD77",
">.	c #B49973",
",.	c #807877",
"'.	c #919195",
").	c #787274",
"!.	c #B59B7C",
"~.	c #BDB4AD",
"{.	c #FCFBFA",
"].	c #FDFDFB",
"^.	c #FBFBF8",
"/.	c #DEDBD9",
"(.	c #8A8889",
"_.	c #5E5D60",
":.	c #6D6D71",
"<.	c #6C6E74",
"[.	c #4E4D52",
"}.	c #535259",
"|.	c #565457",
"1.	c #636063",
"2.	c #E5E2E3",
"3.	c #FDFDFC",
"4.	c #D2CCC7",
"5.	c #B29161",
"6.	c #BF9E71",
"7.	c #6D5B53",
"8.	c #616066",
"9.	c #5B595F",
"0.	c #635753",
"a.	c #A9A5A2",
"b.	c #FBFAFA",
"c.	c #FEFDFC",
"d.	c #FAFBFB",
"e.	c #F6F3F3",
"f.	c #D2CCCA",
"g.	c #5F4239",
"h.	c #5C5658",
"i.	c #6A696D",
"j.	c #5F5C5F",
"k.	c #4B4A4D",
"l.	c #585558",
"m.	c #555357",
"n.	c #B2B2B4",
"o.	c #FAFAFB",
"p.	c #DAD6D5",
"q.	c #756758",
"r.	c #82726B",
"s.	c #635A5D",
"t.	c #787072",
"u.	c #625B5E",
"v.	c #797475",
"w.	c #625B5A",
"x.	c #D0CDCD",
"y.	c #FEFDFA",
"z.	c #EAE5E2",
"A.	c #BF9C8A",
"B.	c #827068",
"C.	c #75574D",
"D.	c #CECACA",
"E.	c #9B9897",
"F.	c #514F52",
"G.	c #545255",
"H.	c #575557",
"I.	c #767577",
"J.	c #EFEEEE",
"K.	c #F3F1F1",
"L.	c #837977",
"M.	c #74645E",
"N.	c #7A5948",
"O.	c #936549",
"P.	c #9C694D",
"Q.	c #B58560",
"R.	c #B28256",
"S.	c #7E5B4B",
"T.	c #E2DDDB",
"U.	c #FEFDFD",
"V.	c #CFCBC7",
"W.	c #A67141",
"X.	c #A26F4E",
"Y.	c #A88473",
"Z.	c #F7F4F2",
"`.	c #FAF8F7",
" +	c #C8C7C6",
".+	c #767374",
"++	c #626062",
"@+	c #D3D1CF",
"#+	c #F4F3F3",
"$+	c #988D88",
"%+	c #AD8057",
"&+	c #C18150",
"*+	c #C58455",
"=+	c #994C24",
"-+	c #B16C37",
";+	c #B47441",
">+	c #9A6851",
",+	c #F6F3F1",
"'+	c #E0DCD9",
")+	c #84553D",
"!+	c #B2744C",
"~+	c #92634B",
"{+	c #ECE7E3",
"]+	c #EEEDED",
"^+	c #DAD8DA",
"/+	c #F9F9FA",
"(+	c #F6F3F2",
"_+	c #A18A7D",
":+	c #A16A43",
"<+	c #D29059",
"[+	c #C6854E",
"}+	c #8E4B2A",
"|+	c #905A39",
"1+	c #996B4A",
"2+	c #87665B",
"3+	c #F8F5F4",
"4+	c #FCFDFD",
"5+	c #A59E99",
"6+	c #9B6647",
"7+	c #B07348",
"8+	c #83503A",
"9+	c #E2DBD8",
"0+	c #FDFCFD",
"a+	c #ECE5E2",
"b+	c #CDB09D",
"c+	c #B77D4F",
"d+	c #A0643C",
"e+	c #CD854A",
"f+	c #C4834F",
"g+	c #A56E42",
"h+	c #BA8B63",
"i+	c #BC8D67",
"j+	c #906C5A",
"k+	c #E9E6E5",
"l+	c #FEFCFA",
"m+	c #DBD5D2",
"n+	c #6F4938",
"o+	c #A76D4A",
"p+	c #AA744E",
"q+	c #604840",
"r+	c #EAE7E4",
"s+	c #F1EDEB",
"t+	c #D3B3A3",
"u+	c #CC9C77",
"v+	c #E1A165",
"w+	c #C8884E",
"x+	c #AA5824",
"y+	c #BA5C1B",
"z+	c #A95524",
"A+	c #9B4E1C",
"B+	c #A45215",
"C+	c #A64B15",
"D+	c #A14B1A",
"E+	c #A58D82",
"F+	c #D6C6BD",
"G+	c #8F7A70",
"H+	c #693F28",
"I+	c #5B3B30",
"J+	c #5C4946",
"K+	c #6A6364",
"L+	c #F6F4F3",
"M+	c #FBFBFC",
"N+	c #F8F6F5",
"O+	c #C8A78F",
"P+	c #E2A065",
"Q+	c #E7A262",
"R+	c #E5A262",
"S+	c #BF804D",
"T+	c #B84D11",
"U+	c #C25616",
"V+	c #A54913",
"W+	c #AA581C",
"X+	c #A2490F",
"Y+	c #9E3F0C",
"Z+	c #AE4E19",
"`+	c #A26541",
" @	c #9A775C",
".@	c #704722",
"+@	c #55443C",
"@@	c #747274",
"#@	c #7D7F84",
"$@	c #86807F",
"%@	c #FBFAF9",
"&@	c #E8E1DD",
"*@	c #CB8B58",
"=@	c #E7A362",
"-@	c #E4A361",
";@	c #E3A163",
">@	c #B67342",
",@	c #AE4C1E",
"'@	c #B95219",
")@	c #873A11",
"!@	c #963E0C",
"~@	c #AF4B10",
"{@	c #BF571A",
"]@	c #B04C11",
"^@	c #88350E",
"/@	c #743F1E",
"(@	c #683E22",
"_@	c #616064",
":@	c #8A8E91",
"<@	c #7E7F84",
"[@	c #B3AFAE",
"}@	c #E3DEDC",
"|@	c #BB7949",
"1@	c #E7A15E",
"2@	c #E2A25D",
"3@	c #E3A060",
"4@	c #9C6136",
"5@	c #96481F",
"6@	c #B75219",
"7@	c #B15117",
"8@	c #C45514",
"9@	c #CC530D",
"0@	c #CA540C",
"a@	c #C55514",
"b@	c #873E1B",
"c@	c #73411F",
"d@	c #9D6336",
"e@	c #906E55",
"f@	c #917D75",
"g@	c #7A6660",
"h@	c #DFDEDD",
"i@	c #F8F7F6",
"j@	c #AB9487",
"k@	c #CF9256",
"l@	c #E0A25E",
"m@	c #DA995A",
"n@	c #A46435",
"o@	c #834A28",
"p@	c #AA4F1A",
"q@	c #C55511",
"r@	c #C7550C",
"s@	c #CB540E",
"t@	c #C85511",
"u@	c #A84C1B",
"v@	c #743E23",
"w@	c #7F4D24",
"x@	c #D59353",
"y@	c #DC9E60",
"z@	c #D0996C",
"A@	c #BDA294",
"B@	c #FAF7F5",
"C@	c #DAD5D2",
"D@	c #B17748",
"E@	c #E0A15F",
"F@	c #E5A163",
"G@	c #C98652",
"H@	c #875939",
"I@	c #8C4D29",
"J@	c #9D4A19",
"K@	c #A44D14",
"L@	c #AA5017",
"M@	c #A3521E",
"N@	c #773F17",
"O@	c #724427",
"P@	c #865C3F",
"Q@	c #CF9A68",
"R@	c #D6A065",
"S@	c #C59D7B",
"T@	c #E8E1DE",
"U@	c #E9E7E3",
"V@	c #B98355",
"W@	c #DA9A66",
"X@	c #966B53",
"Y@	c #513C35",
"Z@	c #6E4F40",
"`@	c #A77246",
" #	c #B27545",
".#	c #A36737",
"+#	c #84512E",
"@#	c #764223",
"##	c #8B5736",
"$#	c #BFAEA5",
"%#	c #DCD1C9",
"&#	c #DED3CA",
"*#	c #FCFBFB",
"=#	c #F4F1F0",
"-#	c #A38069",
";#	c #BF8252",
">#	c #96725C",
",#	c #5E5755",
"'#	c #696B6F",
")#	c #61646A",
"!#	c #67564D",
"~#	c #95653F",
"{#	c #9B5E2C",
"]#	c #7C4321",
"^#	c #804621",
"/#	c #A96430",
"(#	c #D5CDC9",
"_#	c #B6AEA9",
":#	c #8E5F3E",
"<#	c #645A5A",
"[#	c #88888A",
"}#	c #818286",
"|#	c #70757C",
"1#	c #63666C",
"2#	c #7F5A40",
"3#	c #7F512C",
"4#	c #7C4520",
"5#	c #9A5A23",
"6#	c #C87329",
"7#	c #D3CBC7",
"8#	c #FBFCFD",
"9#	c #C9C6C2",
"0#	c #61422C",
"a#	c #524C4C",
"b#	c #7E8085",
"c#	c #8C8F93",
"d#	c #7B8085",
"e#	c #6C6156",
"f#	c #D2975D",
"g#	c #CF915B",
"h#	c #895738",
"i#	c #7A542B",
"j#	c #815831",
"k#	c #DBD8D5",
"l#	c #E9E6E4",
"m#	c #6F6454",
"n#	c #564E47",
"o#	c #5D5C5E",
"p#	c #6C737A",
"q#	c #6B6F75",
"r#	c #987150",
"s#	c #DC9B5E",
"t#	c #BF7E49",
"u#	c #715038",
"v#	c #6D6046",
"w#	c #6E6958",
"x#	c #F0EEEF",
"y#	c #9D978F",
"z#	c #5E513D",
"A#	c #4C4135",
"B#	c #4E4849",
"C#	c #575052",
"D#	c #B07D52",
"E#	c #C18551",
"F#	c #875C3E",
"G#	c #5D4D38",
"H#	c #5A5441",
"I#	c #A5A29E",
"J#	c #FDFCFB",
"K#	c #C6C1BF",
"L#	c #6E5D3D",
"M#	c #7B613E",
"N#	c #775C3F",
"O#	c #786761",
"P#	c #7B4F38",
"Q#	c #8B5E40",
"R#	c #6E5834",
"S#	c #78673F",
"T#	c #6F6044",
"U#	c #D7D3D1",
"V#	c #E0DDD9",
"W#	c #605235",
"X#	c #715B30",
"Y#	c #6E5734",
"Z#	c #C5BDB7",
"`#	c #BEB8B7",
" $	c #AFA7A5",
".$	c #705737",
"+$	c #7F6737",
"@$	c #6D542F",
"#$	c #A19584",
"$$	c #DAD7D4",
"%$	c #FDFCFC",
"&$	c #EEEDEB",
"*$	c #D4CECA",
"=$	c #786C55",
"-$	c #8B7858",
";$	c #8D7656",
">$	c #877C71",
",$	c #DBD0CB",
"'$	c #D3C5C1",
")$	c #7A6957",
"!$	c #847658",
"~$	c #887557",
"{$	c #887657",
"]$	c #8A7F75",
"^$	c #E7E3DF",
"/$	c #F0EFEE",
"($	c #F8F7F7",
"_$	c #E7E5E4",
":$	c #DDD8D7",
"<$	c #D0CAC3",
"[$	c #CFC9BE",
"}$	c #CBC6C1",
"|$	c #D9CFC8",
"1$	c #D7CCC6",
"2$	c #CFC5BD",
"3$	c #CAC2B8",
"4$	c #CEC5BA",
"5$	c #CFC9C0",
"6$	c #D4CDC8",
"7$	c #E0DCD6",
"8$	c #EBE8E8",
"9$	c #FFFEFD",
"  . . . + . . + . + + + .                                             ",
"  . + + . + + . . + + +                                               ",
"  + + + + + + + + + + +                                               ",
"                    +                                     + +         ",
"                                              +           + + + +     ",
"                          +               @ # $ % & +   + . + . + +   ",
"                  + + + + + + + +       @ * = - ; > , ' ) ! + + + + + ",
"                + + . ~ + + { + + +     + ] ^ / ( _ : < [ } + + . + + ",
"                + + { | { ! + { . + + + 1 2 3 4 5 6 7 8 9 0 a b ! . + ",
"                + + c d e + + . f g + + h i j k l m n o p q r s t + . ",
"                + u v w x y z A B C + D E F G H I J l K L M N O P + + ",
"                Q & R S T U V W X Y . + Z `  ...+.@.k k #.$.%.&.*.{ + ",
"                  =.-.;.>.,.'.).!.~.{.~ ].^./.(._.:.k <.[.}.|.1.2.+ + ",
"                  3.4.5.6.7.8.9.0.a.b.+ c.d.e.f.g.h.i.j.k.l.m.n.o.+ + ",
"                + { p.q.r.s.t.u.v.w.x.. y.z.A.B.C.D.E.F.G.H.I.J.{ + . ",
"                + K.L.M.N.O.P.Q.R.S.T.U.+ V.W.X.Y.Z.`. +.+++@+. + + + ",
"                + #+$+%+&+*+=+-+;+>+,+3.. '+)+!+~+{+~ . ]+^+/++ + + . ",
"                + (+_+:+<+[+}+|+1+2+3+4+* 5+6+7+8+9+~ ~ ~ 0++ + + +   ",
"        + + + c a+b+c+d+e+f+g+h+i+j+k+l+m+n+o+p+q+r+3.+ c.. . { +     ",
"      + . { s+t+u+v+w+x+y+z+A+B+C+D+E+F+G+H+I+J+K+L++ + . M++ +       ",
"      + . N+O+P+Q+R+S+T+U+V+W+X+Y+Z+`+ @.@+@@@#@$@%@+ + 4+.           ",
"      + + &@*@=@-@;@>@,@'@)@!@~@{@]@^@/@(@_@:@<@[@{ + + . +           ",
"    + { . }@|@1@2@3@4@5@6@7@8@9@0@a@b@c@d@e@f@g@h@+ + + . .           ",
"      + + i@j@k@l@m@n@o@p@q@r@s@t@u@v@w@x@y@z@A@B@. + + . .           ",
"      . . + C@D@E@F@G@H@I@J@K@L@M@N@O@P@Q@R@S@T@. + + . + . +         ",
"    + . . . U@V@R+W@X@Y@Z@`@ #.#+#@###$#%#&#r+*#. { . . + + +         ",
"    + + + + =#-#;#>#,#'#)#!#~#{#]#^#/#(#+ b . 4++ + + + + + +         ",
"  + + + . @ %@_#:#<#[#}#|#1#2#3#4#5#6#7#{ { { { + +             + 8#D ",
"+ + . + + + { 9#0#a#b#c#d#e#f#g#h#i#j#k#. { + + +               + 4++ ",
"  + + + + + + l#m#n#o#p#q#r#s#t#u#v#w#x#{ + + . +                     ",
"  + . + + + . g y#z#A#B#C#D#E#F#G#H#I#b J#+ ! + +                     ",
"  + . + . + + + K#L#M#N#O#P#Q#R#S#T#U#4+c.~ ~ + +                     ",
"  + + + + + + { V#W#X#Y#Z#`# $.$+$@$#$$$%$~ y.c.~                     ",
"  . + + + + b &$*$=$-$;$>$,$'$)$!$~${$]$^$/$3.c.+                     ",
"  . + + + ! ($_$:$(#<$[$}$|$1$2$3$4$5$6$7$8$b   9$                    "};
