/* XPM */
static char * en4_xpm[] = {
"35 35 488 2",
"  	c #FEFEFE",
". 	c #FFFFFF",
"+ 	c #FDFDFD",
"@ 	c #FDFDFE",
"# 	c #FCFCFD",
"$ 	c #FDFEFE",
"% 	c #F9FAFB",
"& 	c #FFFEFE",
"* 	c #FBFAFA",
"= 	c #FCFCFC",
"- 	c #F2F0EF",
"; 	c #CBC8C8",
"> 	c #FDFCFC",
", 	c #F2EEEC",
"' 	c #B2A092",
") 	c #DED9D4",
"! 	c #FCFDFD",
"~ 	c #FBFBFA",
"{ 	c #BDA797",
"] 	c #C2A885",
"^ 	c #F9F5F2",
"/ 	c #F3F1F0",
"( 	c #FEFDFC",
"_ 	c #FEFEFD",
": 	c #FEFDFD",
"< 	c #EEEBE9",
"[ 	c #AF9167",
"} 	c #CCAE7F",
"| 	c #B4ABA7",
"1 	c #7C7674",
"2 	c #E0DDDC",
"3 	c #FDFCFA",
"4 	c #D4C8BC",
"5 	c #D9D6D7",
"6 	c #F1EFEB",
"7 	c #AB8F61",
"8 	c #D9B178",
"9 	c #A2846A",
"0 	c #949293",
"a 	c #8F8988",
"b 	c #C8BAB4",
"c 	c #C0A37C",
"d 	c #F3EFEE",
"e 	c #FBFBFB",
"f 	c #CDCCCB",
"g 	c #7C776D",
"h 	c #927B61",
"i 	c #786454",
"j 	c #5F5C5F",
"k 	c #6E6A6C",
"l 	c #876A59",
"m 	c #AF9677",
"n 	c #F8F5F4",
"o 	c #FBFCFC",
"p 	c #CECDCD",
"q 	c #72665F",
"r 	c #605856",
"s 	c #6B6A6C",
"t 	c #57555A",
"u 	c #7B716F",
"v 	c #656267",
"w 	c #6A6464",
"x 	c #A49B95",
"y 	c #DEDAD8",
"z 	c #9E7255",
"A 	c #B2865D",
"B 	c #B4825A",
"C 	c #92654D",
"D 	c #9D7452",
"E 	c #825F4B",
"F 	c #706561",
"G 	c #737071",
"H 	c #F3F3F3",
"I 	c #FAF9F8",
"J 	c #F4F0EE",
"K 	c #ECE5E1",
"L 	c #A79890",
"M 	c #B47C4C",
"N 	c #C58346",
"O 	c #D38D53",
"P 	c #9C5225",
"Q 	c #B56B37",
"R 	c #DD975C",
"S 	c #A96E47",
"T 	c #A29E9B",
"U 	c #F7F5F4",
"V 	c #D1C0B4",
"W 	c #BEA28A",
"X 	c #BF9A79",
"Y 	c #CC976A",
"Z 	c #A9683A",
"` 	c #A06A43",
" .	c #DE9D65",
"..	c #C68046",
"+.	c #794323",
"@.	c #82441D",
"#.	c #A16A43",
"$.	c #955945",
"%.	c #ECE7E5",
"&.	c #F3F1EF",
"*.	c #C1AFA7",
"=.	c #AC8B74",
"-.	c #D99B5D",
";.	c #E4A362",
">.	c #E3A464",
",.	c #E0A164",
"'.	c #B0683A",
").	c #B36431",
"!.	c #BB6F3A",
"~.	c #C07E49",
"{.	c #AF7452",
"].	c #C38E68",
"^.	c #9E7557",
"/.	c #9B8D88",
"(.	c #F9F9F9",
"_.	c #F8F6F6",
":.	c #BB9E8C",
"<.	c #CD8E58",
"[.	c #E29E5D",
"}.	c #E5A463",
"|.	c #E1A364",
"1.	c #E3A465",
"2.	c #CF9057",
"3.	c #AD5120",
"4.	c #C95410",
"5.	c #BC560E",
"6.	c #9A4A1F",
"7.	c #9E4C26",
"8.	c #AD5C34",
"9.	c #A96847",
"0.	c #C5B8B3",
"a.	c #BEAFAA",
"b.	c #DC9761",
"c.	c #E6A267",
"d.	c #E7A362",
"e.	c #E1A162",
"f.	c #CC8C54",
"g.	c #AF6B3B",
"h.	c #B54D16",
"i.	c #C25215",
"j.	c #97461B",
"k.	c #B25322",
"l.	c #B05323",
"m.	c #A95126",
"n.	c #B05823",
"o.	c #B8A9A3",
"p.	c #FDFCFB",
"q.	c #B09890",
"r.	c #DC985D",
"s.	c #E8A261",
"t.	c #DE9A5C",
"u.	c #E1A164",
"v.	c #D79761",
"w.	c #AE6F3E",
"x.	c #A46231",
"y.	c #B04B0F",
"z.	c #A5450F",
"A.	c #8C3B0E",
"B.	c #904116",
"C.	c #996B5A",
"D.	c #A38881",
"E.	c #9F4E27",
"F.	c #9C6A52",
"G.	c #E8DFDB",
"H.	c #C2B5AF",
"I.	c #CE8A4F",
"J.	c #DF9E65",
"K.	c #AA7B57",
"L.	c #75503B",
"M.	c #6D3F24",
"N.	c #A76A3B",
"O.	c #B16B35",
"P.	c #9D4415",
"Q.	c #BE5618",
"R.	c #C3530C",
"S.	c #C45613",
"T.	c #B4541E",
"U.	c #9B5841",
"V.	c #974318",
"W.	c #884627",
"X.	c #C29D80",
"Y.	c #E9E1DA",
"Z.	c #D3CCCC",
"`.	c #A56A45",
" +	c #8F6D5E",
".+	c #5E5C5F",
"++	c #5D5F68",
"@+	c #524C50",
"#+	c #885B36",
"$+	c #C8864F",
"%+	c #8F4926",
"&+	c #B34E0F",
"*+	c #C55612",
"=+	c #C75713",
"-+	c #C6540B",
";+	c #C5550A",
">+	c #C35510",
",+	c #A65220",
"'+	c #DC9C5F",
")+	c #C3946B",
"!+	c #F0ECE9",
"~+	c #FEFFFF",
"{+	c #FAFAFA",
"]+	c #F2F1F1",
"^+	c #EFEFEF",
"/+	c #F7F6F6",
"(+	c #F9F8F9",
"_+	c #FBFBFC",
":+	c #F5F3F2",
"<+	c #917C72",
"[+	c #565356",
"}+	c #8A8B8E",
"|+	c #7B8088",
"1+	c #6C6F76",
"2+	c #5C5051",
"3+	c #C38C5D",
"4+	c #BD7C45",
"5+	c #944E1D",
"6+	c #A34916",
"7+	c #B45216",
"8+	c #BB571C",
"9+	c #C05616",
"0+	c #B05118",
"a+	c #AD6D3F",
"b+	c #DFA065",
"c+	c #C1844A",
"d+	c #D0CAC5",
"e+	c #929294",
"f+	c #8A8786",
"g+	c #8A888B",
"h+	c #8D8C8E",
"i+	c #939293",
"j+	c #AFAEB0",
"k+	c #F8F9FA",
"l+	c #C4C3C3",
"m+	c #585C61",
"n+	c #808489",
"o+	c #888A8E",
"p+	c #71747C",
"q+	c #5E585B",
"r+	c #8D6140",
"s+	c #E09F64",
"t+	c #C78750",
"u+	c #AF703D",
"v+	c #9A5726",
"w+	c #964F1C",
"x+	c #9A511F",
"y+	c #A35D33",
"z+	c #B36F3A",
"A+	c #D3945B",
"B+	c #D59965",
"C+	c #B99984",
"D+	c #F5F4F3",
"E+	c #CECFD0",
"F+	c #656D6A",
"G+	c #777979",
"H+	c #757678",
"I+	c #747478",
"J+	c #77777A",
"K+	c #7F7E81",
"L+	c #EFEDED",
"M+	c #F4F4F5",
"N+	c #7F8181",
"O+	c #6D7279",
"P+	c #838487",
"Q+	c #686665",
"R+	c #967356",
"S+	c #C89869",
"T+	c #BB7F4F",
"U+	c #AD7140",
"V+	c #D89C62",
"W+	c #DD9D62",
"X+	c #D6935A",
"Y+	c #C78953",
"Z+	c #A3653A",
"`+	c #9D6337",
" @	c #9F7557",
".@	c #9C7B66",
"+@	c #866F60",
"@@	c #C2BAB3",
"#@	c #F9F7F5",
"$@	c #C2C3C5",
"%@	c #6A6C6C",
"&@	c #737578",
"*@	c #727376",
"=@	c #737375",
"-@	c #747477",
";@	c #817E81",
">@	c #ECE9EB",
",@	c #F9F7F6",
"'@	c #867972",
")@	c #594D4E",
"!@	c #5E5B5D",
"~@	c #A77C56",
"{@	c #E29F61",
"]@	c #E3A061",
"^@	c #CF925B",
"/@	c #8B5837",
"(@	c #8E5833",
"_@	c #A47345",
":@	c #AC7144",
"<@	c #845130",
"[@	c #8D5B39",
"}@	c #5F3E2C",
"|@	c #5C5759",
"1@	c #63656C",
"2@	c #6A6361",
"3@	c #A47B5C",
"4@	c #B4A8A0",
"5@	c #F2EFEE",
"6@	c #F4F2F1",
"7@	c #FBF9F9",
"8@	c #B7B4B5",
"9@	c #6A6B6F",
"0@	c #74757A",
"a@	c #73757A",
"b@	c #717479",
"c@	c #737579",
"d@	c #858386",
"e@	c #F2F2F3",
"f@	c #FBFBF9",
"g@	c #B4ACA5",
"h@	c #5C4A40",
"i@	c #604D3D",
"j@	c #BF885C",
"k@	c #BD824E",
"l@	c #AF7847",
"m@	c #C68D5E",
"n@	c #684121",
"o@	c #6B3F20",
"p@	c #6E4220",
"q@	c #6D4327",
"r@	c #6A3F21",
"s@	c #6F4326",
"t@	c #71432E",
"u@	c #814C35",
"v@	c #83583E",
"w@	c #94653F",
"x@	c #885737",
"y@	c #7A513E",
"z@	c #7F6054",
"A@	c #86655A",
"B@	c #8E766D",
"C@	c #695955",
"D@	c #726F72",
"E@	c #707479",
"F@	c #6F7479",
"G@	c #74767A",
"H@	c #7D7B7E",
"I@	c #D8D6D7",
"J@	c #F9F9F8",
"K@	c #99928F",
"L@	c #74644C",
"M@	c #765C38",
"N@	c #6E553A",
"O@	c #645338",
"P@	c #6C4E38",
"Q@	c #6B5741",
"R@	c #6A5A41",
"S@	c #705C47",
"T@	c #6E5C4C",
"U@	c #705B46",
"V@	c #79665A",
"W@	c #69514A",
"X@	c #966648",
"Y@	c #A66C46",
"Z@	c #CA8B57",
"`@	c #A67149",
" #	c #987969",
".#	c #9F8E8B",
"+#	c #99857F",
"@#	c #927C74",
"##	c #66514F",
"$#	c #726E6E",
"%#	c #717477",
"&#	c #727579",
"*#	c #747679",
"=#	c #747376",
"-#	c #ACA9AA",
";#	c #D2CFCC",
">#	c #605440",
",#	c #66593F",
"'#	c #645B40",
")#	c #5C5137",
"!#	c #978E86",
"~#	c #D8D4CB",
"{#	c #655B53",
"]#	c #675C4A",
"^#	c #655D4A",
"/#	c #5D503E",
"(#	c #C5BFBA",
"_#	c #D7D4D4",
":#	c #998A85",
"<#	c #7F6C62",
"[#	c #92766A",
"}#	c #B19E95",
"|#	c #E2DEDD",
"1#	c #F8F8F8",
"2#	c #F7F7F7",
"3#	c #F3F1F1",
"4#	c #959395",
"5#	c #6D7278",
"6#	c #747579",
"7#	c #72757A",
"8#	c #75777C",
"9#	c #7E7E81",
"0#	c #E2E2E3",
"a#	c #F6F4F0",
"b#	c #6F5F4F",
"c#	c #7D6448",
"d#	c #796744",
"e#	c #725F48",
"f#	c #D6D2CE",
"g#	c #FBF8F4",
"h#	c #A29D98",
"i#	c #6C5D47",
"j#	c #6D5A41",
"k#	c #72604F",
"l#	c #F4F0ED",
"m#	c #FEFCFC",
"n#	c #F6F4F4",
"o#	c #89888B",
"p#	c #717174",
"q#	c #737476",
"r#	c #78787E",
"s#	c #9B9B9E",
"t#	c #FCFAF9",
"u#	c #9B8E87",
"v#	c #6B5330",
"w#	c #6B5227",
"x#	c #6B563F",
"y#	c #EBE7E6",
"z#	c #FDFBF6",
"A#	c #B6B0AB",
"B#	c #765F38",
"C#	c #7A6137",
"D#	c #796047",
"E#	c #D5CCC5",
"F#	c #F9F6F4",
"G#	c #808184",
"H#	c #737477",
"I#	c #75767A",
"J#	c #807A7D",
"K#	c #A2A1A4",
"L#	c #B7ACA6",
"M#	c #765D3E",
"N#	c #826D46",
"O#	c #806B4A",
"P#	c #A09890",
"Q#	c #E5DED7",
"R#	c #C1B7AD",
"S#	c #796240",
"T#	c #826D48",
"U#	c #806C48",
"V#	c #786649",
"W#	c #BFB9B3",
"X#	c #EEECEB",
"Y#	c #F7F2EF",
"Z#	c #FCFBF8",
"`#	c #929091",
" $	c #5F6165",
".$	c #5C5D60",
"+$	c #5B5E64",
"@$	c #5E5E63",
"#$	c #686569",
"$$	c #AFADAE",
"%$	c #E6E4E4",
"&$	c #D5CDC6",
"*$	c #C5BAAF",
"=$	c #BFB6AD",
"-$	c #BEB2AA",
";$	c #C2B8B1",
">$	c #CEC6BC",
",$	c #C4BCB2",
"'$	c #BCB2A9",
")$	c #BFB3A8",
"!$	c #BDB3AB",
"~$	c #BDB5AB",
"{$	c #C7C0B6",
"]$	c #D8D0C4",
"^$	c #E1D7D1",
"/$	c #F4F1EE",
"($	c #F5F5F5",
"_$	c #EBE9EA",
":$	c #E3E1E1",
"<$	c #DDDCDC",
"[$	c #D7D7D8",
"}$	c #EFEEEE",
"  .   +     @   + + . . . . . . . . + +   +   #   @ . . . . . . . . . ",
"@   +   @           . . . . . . . . $         @   + . . . . . . . . . ",
"% + +         +     . . . . . . . . @   +           . . . . . . . . . ",
"+ +     . . . . . . . . . . . . . . . . . . . . . . . . . . . . . . . ",
"@ +   . . . . . . . . . . . . . . . . . . . . . . . . . . . . . . . . ",
"# +     . . . . . . . . . . . . . . . . . . . . . . . . . . . . . . . ",
"+ #   . . . . . . . .       . . . . . . . . . . . . . . . . . . . . . ",
"@ +     . . . .         . & * .     . . . . . . . . . . . . . . . . . ",
"= +     . . . . .   + #   - ; > +   . . . . . . . . . . . . . . . . . ",
"+ +     . . . . .   $   , ' )       .   . . . . . . . . . . . . . . . ",
"! + @ . . . . . . . . ~ { ] ^ / ( _ : =   . . . . . . . . . . . . . . ",
"  + $     +   +       < [ } | 1 2 3 4 5 + +   . . . . . . . . . . . . ",
"      +   $         + 6 7 8 9 0 a b c d   +   . . . . . . . . . . . . ",
"  +   $ +           e f g h i j k l m n . o     . . . . . . . . . . . ",
"    +   $   + @   + p q r s t u v w x > .       . . . . . . . . . . . ",
"  + @       .   $ # y z A B C D E F G H     . . . . . . . . . . . . . ",
"  +       + . I J K L M N O P Q R S T H @   . . . . . . . . . . . . . ",
"          U V W X Y Z `  ...+.@.#.$.%.  $ . . . . . . . . . . . . . . ",
"    . &.*.=.-.;.>.,.'.).!.~.{.].^./.(.  . . . . . . . . . . . . . . . ",
". . _.:.<.[.}.|.1.2.3.4.5.6.7.8.9.0.+ + . . . . . . . . . . . . . . . ",
". = a.b.c.d.;.e.f.g.h.i.j.k.l.m.n.o.p.      . . . . . . . . . . . . . ",
". e q.r.s.t.u.v.w.x.y.z.A.B.C.D.E.F.G.+ +   . . . . . . . . . . . . . ",
". & H.I.J.K.L.M.N.O.P.Q.R.S.T.U.V.W.X.Y.+   . . . . . . .   . . . . . ",
".   Z.`. +.+++@+#+$+%+&+*+=+-+;+>+,+'+)+!+o ~+      . {+]+^+/+(+_+    ",
".   :+<+[+}+|+1+2+3+4+5+6+7+8+9+0+a+b+c+d+          ]+e+f+g+h+i+j+k+. ",
".   ! l+m+n+o+p+q+r+s+t+u+v+w+x+y+z+A+B+C+D+        E+F+G+H+I+J+K+L+. ",
".   $ M+N+O+P+Q+R+S+T+U+V+W+X+Y+Z+`+ @.@+@@@#@# #   $@%@&@*@=@-@;@>@! ",
". .   ,@'@)@!@~@{@]@^@/@(@_@:@<@[@}@|@1@2@3@4@5@6@7@8@9@0@a@b@c@d@e@  ",
". .   f@g@h@i@j@k@l@m@n@o@p@q@r@s@t@u@v@w@x@y@z@A@B@C@D@I+E@F@G@H@I@# ",
".   = + J@K@L@M@N@O@P@Q@R@S@T@U@V@W@X@Y@Z@`@ #.#+#@###$#%#a@&#*#=#-#+ ",
"          ;#>#,#'#)#!#~#{#]#^#/#(#_#:#<#[#}#|#1#2#3#4#5#&#6#7#8#9#0#  ",
". . . . ( a#b#c#d#e#f#g#h#i#j#k#l#m#I /+n#p.  .   e o#p#=@q#I+r#s#=   ",
". . . .   t#u#v#w#x#y#z#A#B#C#D#E#F#!   # +   .   e G#%#H#0@I#J#K#+ . ",
". . . . + I L#M#N#O#P#Q#R#S#T#U#V#W#X#Y#Z#+       e `# $.$+$@$#$$$  . ",
". . . .   %$&$*$=$-$;$>$,$'$)$!$~${$]$^$/$  .       ($_$:$<$[$[$}$. . "};
