/* XPM */
static char * plrD2_xpm[] = {
"35 35 573 2",
"  	c #FFFFFF",
". 	c #F7F7F7",
"+ 	c #A69C9C",
"@ 	c #4A1417",
"# 	c #5C1116",
"$ 	c #511115",
"% 	c #40191C",
"& 	c #877E80",
"* 	c #8F888A",
"= 	c #4D3032",
"- 	c #4F0F13",
"; 	c #622528",
"> 	c #B3ACAD",
", 	c #FBFBFB",
"' 	c #FDFDFD",
") 	c #DFDDDD",
"! 	c #9E9697",
"~ 	c #543E3E",
"{ 	c #440D11",
"] 	c #6E171A",
"^ 	c #681518",
"/ 	c #540E13",
"( 	c #41080E",
"_ 	c #37060B",
": 	c #641418",
"< 	c #6F171B",
"[ 	c #6C171A",
"} 	c #6A2A2B",
"| 	c #B1ABAC",
"1 	c #DAD7D8",
"2 	c #EFEDED",
"3 	c #C7C3C4",
"4 	c #503335",
"5 	c #561317",
"6 	c #791B1D",
"7 	c #872022",
"8 	c #7F1D1F",
"9 	c #851F21",
"0 	c #6B1619",
"a 	c #6A1619",
"b 	c #4F0D12",
"c 	c #70171A",
"d 	c #7B1B1E",
"e 	c #7D1C1F",
"f 	c #6A161A",
"g 	c #531518",
"h 	c #5F1A1C",
"i 	c #B8AEAF",
"j 	c #DDDBDC",
"k 	c #635152",
"l 	c #520F13",
"m 	c #611317",
"n 	c #6E171B",
"o 	c #8E2223",
"p 	c #7C1C1E",
"q 	c #912325",
"r 	c #72191C",
"s 	c #8A2122",
"t 	c #8F2224",
"u 	c #8C2122",
"v 	c #841F21",
"w 	c #8B1F22",
"x 	c #621F21",
"y 	c #BDB4B2",
"z 	c #FAF9F9",
"A 	c #A09798",
"B 	c #4C1014",
"C 	c #912425",
"D 	c #9D2828",
"E 	c #972526",
"F 	c #942426",
"G 	c #A02929",
"H 	c #871F21",
"I 	c #902324",
"J 	c #982526",
"K 	c #8D2224",
"L 	c #9E2828",
"M 	c #842022",
"N 	c #746769",
"O 	c #F7F6F6",
"P 	c #FAFAFA",
"Q 	c #AFA9AA",
"R 	c #4D2225",
"S 	c #932425",
"T 	c #9D2728",
"U 	c #882022",
"V 	c #801D1F",
"W 	c #6B161A",
"X 	c #70181B",
"Y 	c #9C2728",
"Z 	c #7E1D1F",
"` 	c #831F21",
" .	c #736769",
"..	c #F5F5F5",
"+.	c #D0CDCD",
"@.	c #441F21",
"#.	c #4D0E12",
"$.	c #73191C",
"%.	c #912223",
"&.	c #560F13",
"*.	c #540F13",
"=.	c #480A0F",
"-.	c #862022",
";.	c #5E1216",
">.	c #881E21",
",.	c #621D1F",
"'.	c #B7B3B3",
").	c #E6E5E5",
"!.	c #6E5E60",
"~.	c #5C1115",
"{.	c #611216",
"].	c #5F2323",
"^.	c #805E53",
"/.	c #61171A",
"(.	c #7A1B1E",
"_.	c #805A4E",
":.	c #9D7D6D",
"<.	c #611B1D",
"[.	c #8A2123",
"}.	c #531014",
"|.	c #561014",
"1.	c #6C1619",
"2.	c #AEA5A6",
"3.	c #F5F4F4",
"4.	c #887975",
"5.	c #530E13",
"6.	c #3A070C",
"7.	c #490B10",
"8.	c #572624",
"9.	c #C09B86",
"0.	c #EFC7AB",
"a.	c #816055",
"b.	c #571E1D",
"c.	c #B99480",
"d.	c #F7D0B2",
"e.	c #AC8776",
"f.	c #642020",
"g.	c #5F1316",
"h.	c #2A070B",
"i.	c #5F1216",
"j.	c #694345",
"k.	c #E4E3E4",
"l.	c #978F90",
"m.	c #411215",
"n.	c #4E1818",
"o.	c #2B050A",
"p.	c #4F2321",
"q.	c #BC9883",
"r.	c #FBD3B6",
"s.	c #FDD5B8",
"t.	c #BB9783",
"u.	c #7D574B",
"v.	c #F6CEB2",
"w.	c #F8D0B3",
"x.	c #A57763",
"y.	c #421412",
"z.	c #4A201E",
"A.	c #3F1215",
"B.	c #5E1F21",
"C.	c #E3DFDF",
"D.	c #EEEDEE",
"E.	c #5C4A4C",
"F.	c #382628",
"G.	c #4F2523",
"H.	c #431A14",
"I.	c #B17C62",
"J.	c #F3CDB4",
"K.	c #F2D4C2",
"L.	c #FBD2B5",
"M.	c #FAD2B4",
"N.	c #DEB89E",
"O.	c #F3D5C2",
"P.	c #F0C4AA",
"Q.	c #E4A27B",
"R.	c #986449",
"S.	c #A17A69",
"T.	c #4D3536",
"U.	c #53292A",
"V.	c #E1DEDF",
"W.	c #FEFDFD",
"X.	c #F0EFF0",
"Y.	c #948B8D",
"Z.	c #BC9986",
"`.	c #B07960",
" +	c #DB9E7C",
".+	c #A18076",
"++	c #89524A",
"@+	c #CDAF9D",
"#+	c #FACEAF",
"$+	c #FCD1B2",
"%+	c #D7B7A2",
"&+	c #8F6054",
"*+	c #96736D",
"=+	c #D79C7D",
"-+	c #D89670",
";+	c #E5B99C",
">+	c #847779",
",+	c #B5AFB0",
"'+	c #EAE9E9",
")+	c #D6D3D3",
"!+	c #A98E83",
"~+	c #D8A387",
"{+	c #DDA587",
"]+	c #8FA1A4",
"^+	c #4B6372",
"/+	c #C8D2D0",
"(+	c #FACFB0",
"_+	c #FBD0B2",
":+	c #D5D4CE",
"<+	c #5F7D8A",
"[+	c #7C9399",
"}+	c #DBB09A",
"|+	c #D79C7C",
"1+	c #B79786",
"2+	c #C9C4C4",
"3+	c #FEFEFE",
"4+	c #CECBCA",
"5+	c #523938",
"6+	c #CA9372",
"7+	c #C5AB9B",
"8+	c #857D7C",
"9+	c #ECDACE",
"0+	c #FCD6BA",
"a+	c #FDD5B7",
"b+	c #F2DED1",
"c+	c #918C8B",
"d+	c #B7A193",
"e+	c #DAA181",
"f+	c #543736",
"g+	c #928C8D",
"h+	c #D9D7D8",
"i+	c #D4D1D1",
"j+	c #41251F",
"k+	c #A86650",
"l+	c #F0BD9C",
"m+	c #F9D0B3",
"n+	c #FDD6B9",
"o+	c #F9D1B4",
"p+	c #F2C4A4",
"q+	c #B7775D",
"r+	c #44251E",
"s+	c #463637",
"t+	c #4D484B",
"u+	c #CDCCCD",
"v+	c #969395",
"w+	c #534B4E",
"x+	c #52311E",
"y+	c #683826",
"z+	c #9E5646",
"A+	c #D39476",
"B+	c #EEBEA1",
"C+	c #EFC1A5",
"D+	c #EFC0A4",
"E+	c #EEBEA3",
"F+	c #D99B7D",
"G+	c #A45C4C",
"H+	c #703B2C",
"I+	c #57341F",
"J+	c #695C5E",
"K+	c #766E70",
"L+	c #4E494E",
"M+	c #E4E4E4",
"N+	c #F6F6F6",
"O+	c #959395",
"P+	c #4E464B",
"Q+	c #6E6361",
"R+	c #593722",
"S+	c #886032",
"T+	c #633F25",
"U+	c #6E3329",
"V+	c #7C3932",
"W+	c #7C3931",
"X+	c #7A3A31",
"Y+	c #7D3931",
"Z+	c #74352D",
"`+	c #603A22",
" @	c #855D32",
".@	c #634025",
"+@	c #6B605F",
"@@	c #8A8082",
"#@	c #453E44",
"$@	c #A9A7A8",
"%@	c #FCFCFC",
"&@	c #E0DFDF",
"*@	c #3C353A",
"=@	c #7F7779",
"-@	c #726769",
";@	c #593723",
">@	c #936936",
",@	c #966B36",
"'@	c #75502C",
")@	c #684627",
"!@	c #694527",
"~@	c #704B2A",
"{@	c #936A36",
"]@	c #5C4E4D",
"^@	c #655D61",
"/@	c #5D575B",
"(@	c #5A575A",
"_@	c #F8F8F8",
":@	c #858386",
"<@	c #585054",
"[@	c #877F82",
"}@	c #817575",
"|@	c #5A3823",
"1@	c #926935",
"2@	c #9A6F37",
"3@	c #986D37",
"4@	c #976C36",
"5@	c #976D37",
"6@	c #643F24",
"7@	c #2C1F23",
"8@	c #53494A",
"9@	c #554D51",
"0@	c #4E4A4E",
"a@	c #D9D8D8",
"b@	c #7D7B7D",
"c@	c #51494E",
"d@	c #736B6E",
"e@	c #6A5F61",
"f@	c #573622",
"g@	c #835C31",
"h@	c #9C723C",
"i@	c #9D733C",
"j@	c #9A7038",
"k@	c #9C713A",
"l@	c #9E753F",
"m@	c #886033",
"n@	c #5F3D24",
"o@	c #220F13",
"p@	c #393033",
"q@	c #544B4F",
"r@	c #342D32",
"s@	c #9B999B",
"t@	c #7B797A",
"u@	c #645B60",
"v@	c #655C5D",
"w@	c #43383B",
"x@	c #422313",
"y@	c #654224",
"z@	c #7F592F",
"A@	c #A07842",
"B@	c #9F763F",
"C@	c #9D743E",
"D@	c #9E743D",
"E@	c #9D743D",
"F@	c #A17943",
"G@	c #865F33",
"H@	c #6A4626",
"I@	c #462714",
"J@	c #49201D",
"K@	c #824338",
"L@	c #613F32",
"M@	c #503329",
"N@	c #9C9A9C",
"O@	c #7F7B7E",
"P@	c #686164",
"Q@	c #696162",
"R@	c #4F4446",
"S@	c #321B14",
"T@	c #4D3932",
"U@	c #573C33",
"V@	c #734E2A",
"W@	c #8F6A3D",
"X@	c #916D41",
"Y@	c #967041",
"Z@	c #8F6C41",
"`@	c #78532C",
" #	c #5C3F2E",
".#	c #4A3936",
"+#	c #331916",
"@#	c #843B33",
"##	c #D88F6B",
"$#	c #E49F76",
"%#	c #C68A69",
"&#	c #A69FA1",
"*#	c #7E7C7E",
"=#	c #6D6467",
"-#	c #686263",
";#	c #3E3436",
">#	c #271619",
",#	c #30313C",
"'#	c #34323C",
")#	c #433E43",
"!#	c #6E746D",
"~#	c #8B9788",
"{#	c #919B8C",
"]#	c #797B71",
"^#	c #464347",
"/#	c #34333C",
"(#	c #32323C",
"_#	c #26161B",
":#	c #975644",
"<#	c #DF9771",
"[#	c #E8A278",
"}#	c #B9785B",
"|#	c #857F81",
"1#	c #817069",
"2#	c #8A786F",
"3#	c #744F43",
"4#	c #2C1619",
"5#	c #25181E",
"6#	c #2C2730",
"7#	c #2C2933",
"8#	c #55595F",
"9#	c #6C7674",
"0#	c #666668",
"a#	c #616B6E",
"b#	c #2C2832",
"c#	c #2C2227",
"d#	c #311E1C",
"e#	c #321B17",
"f#	c #863B33",
"g#	c #D1927A",
"h#	c #E2A07A",
"i#	c #8A584F",
"j#	c #C8C3C4",
"k#	c #8F8587",
"l#	c #E2B395",
"m#	c #FCD7BC",
"n#	c #E2B297",
"o#	c #623730",
"p#	c #3D1F13",
"q#	c #3B1E10",
"r#	c #3C2012",
"s#	c #442A21",
"t#	c #4F3A38",
"u#	c #513E3D",
"v#	c #563B31",
"w#	c #3A2121",
"x#	c #39201B",
"y#	c #3E2219",
"z#	c #371B16",
"A#	c #563738",
"B#	c #866B64",
"C#	c #7F635D",
"D#	c #C6C1C1",
"E#	c #8E8486",
"F#	c #D9A283",
"G#	c #FAD9C2",
"H#	c #E5B39B",
"I#	c #9B6C5C",
"J#	c #3F2115",
"K#	c #54321A",
"L#	c #6D4829",
"M#	c #724D2A",
"N#	c #4C2A1A",
"O#	c #3E1E14",
"P#	c #4F3226",
"Q#	c #605255",
"R#	c #5E5558",
"S#	c #595053",
"T#	c #453D3F",
"U#	c #B1AEAF",
"V#	c #EDEBEB",
"W#	c #EDECEC",
"X#	c #FFFEFE",
"Y#	c #91898A",
"Z#	c #BC826C",
"`#	c #F6CDB1",
" $	c #BB7261",
".$	c #845A4F",
"+$	c #332022",
"@$	c #3B1E12",
"#$	c #4C2C1D",
"$$	c #533121",
"%$	c #41251B",
"&$	c #523F40",
"*$	c #564A4E",
"=$	c #655B5F",
"-$	c #6E6769",
";$	c #61585D",
">$	c #443D42",
",$	c #BEBDBE",
"'$	c #E3E0E0",
")$	c #8F736F",
"!$	c #CA9D85",
"~$	c #C99A82",
"{$	c #804E44",
"]$	c #1B1117",
"^$	c #160A11",
"/$	c #4E4447",
"($	c #504548",
"_$	c #5E5458",
":$	c #675D60",
"<$	c #645D61",
"[$	c #665C5F",
"}$	c #807879",
"|$	c #6D6569",
"1$	c #2E282E",
"2$	c #C0BDBE",
"3$	c #E2DFE0",
"4$	c #A7A1A3",
"5$	c #918A8C",
"6$	c #2E2023",
"7$	c #321E21",
"8$	c #3F2626",
"9$	c #322021",
"0$	c #3A2A2E",
"a$	c #40383D",
"b$	c #433B3F",
"c$	c #40393D",
"d$	c #3E363A",
"e$	c #564D50",
"f$	c #3F3438",
"g$	c #615253",
"h$	c #E1DCDC",
"i$	c #C9C7C7",
"j$	c #342526",
"k$	c #53332F",
"l$	c #5C3834",
"m$	c #553430",
"n$	c #382223",
"o$	c #9E999B",
"p$	c #D3D2D3",
"q$	c #7F191C",
"r$	c #631417",
"s$	c #887778",
"t$	c #F6F5F5",
"u$	c #645A5D",
"v$	c #68423C",
"w$	c #80514C",
"x$	c #81524D",
"y$	c #7B4E49",
"z$	c #4B2E2D",
"A$	c #BDBABB",
"B$	c #A19B9D",
"C$	c #3D2224",
"D$	c #442425",
"E$	c #341D1F",
"F$	c #362426",
"G$	c #C6C3C4",
"H$	c #6B5D60",
"I$	c #6F4642",
"J$	c #855350",
"K$	c #835650",
"L$	c #7A4D4A",
"M$	c #7E7274",
"N$	c #E8E6E6",
"O$	c #E3E0E1",
"P$	c #615658",
"Q$	c #5A3733",
"R$	c #744944",
"S$	c #68413D",
"T$	c #422B28",
"U$	c #F1EFF0",
"V$	c #D8D4D5",
"W$	c #827A7D",
"X$	c #82777A",
"Y$	c #82797B",
"Z$	c #8A8284",
"`$	c #E8E5E5",
" %	c #D5D3D4",
".%	c #302225",
"+%	c #724942",
"@%	c #875650",
"#%	c #84544E",
"$%	c #593831",
"%%	c #423438",
"&%	c #EAE8E9",
"*%	c #FFFFFE",
"=%	c #D7D4D5",
"-%	c #322629",
";%	c #4D312F",
">%	c #5E3E38",
",%	c #5C3B37",
"'%	c #4B2F2C",
")%	c #493C3F",
"!%	c #EBE9E9",
"~%	c #F8F7F7",
"{%	c #A39E9F",
"]%	c #655D60",
"^%	c #BBB8B8",
"                              . + @ # $ % & * = - ; > ,               ",
"                          ' ) ! ~ { ] ^ / ( _ : < [ } | 1 2           ",
"                          3 4 5 6 7 8 9 0 a b c d e f g h i           ",
"                          j k l m n d o p q r s t u v w x y           ",
"                          z A B ] C D E F G H I J K L M N O           ",
"                        P Q R n S T U V t D W X Y Z J `  ...          ",
"                        +.@.#.$.%.d $.&.Z E *.=.U -.;.>.,.'.          ",
"                        ).!.~.X {.m ].^./.(._.:.<.[.}.|.1.2.'         ",
"                        3.4.5.6.7.8.9.0.a.b.c.d.e.f.g.h.i.j.k.        ",
"                      O l.m.n.o.p.q.r.s.t.u.v.s.w.x.y.z.A.B.C.        ",
"                      D.E.F.G.H.I.J.K.L.M.N.M.O.P.Q.R.S.T.U.V.        ",
"                      W.X.Y.Z.`. +.+++@+#+$+%+&+*+=+-+;+>+,+'+        ",
"                          )+!+~+{+]+^+/+(+_+:+<+[+}+|+1+2+3+          ",
"                          3+4+5+6+7+8+9+0+a+b+c+d+e+f+g+h+            ",
"                          P i+j+k+l+m+n+a+a+s.o+p+q+r+s+t+u+3+        ",
"                        ..v+w+x+y+z+A+B+C+D+E+F+G+H+I+J+K+L+M+        ",
"                      N+O+P+Q+R+S+T+U+V+W+X+Y+Z+`+ @.@+@@@#@$@%@      ",
"                      &@*@=@-@;@>@,@'@)@!@!@!@~@{@,@T+]@^@/@(@_@      ",
"                    3+:@<@[@}@|@1@2@3@4@4@4@5@3@2@,@6@7@8@9@0@a@      ",
"                    3+b@c@d@e@f@g@h@i@2@2@j@2@k@l@m@n@o@p@q@r@s@      ",
"                    3+t@u@v@w@x@y@z@A@B@C@D@E@F@G@H@I@J@K@L@M@N@      ",
"                    3+O@P@Q@R@S@T@U@V@W@X@Y@Z@`@ #.#+#@###$#%#&#      ",
"                    3+*#=#-#;#>#,#'#)#!#~#{#]#^#/#(#_#:#<#[#}#&#      ",
"                    3+|#1#2#3#4#5#6#7#8#9#0#a#b#c#d#e#f#g#h#i#j#      ",
"                    3+k#l#m#n#o#p#q#r#s#t#u#v#w#x#y#z#A#B#C#D#'       ",
"                    3+E#F#G#H#I#J#K#L#M#N#O#P#Q#R#S#T#U#V#W#%@        ",
"                    X#Y#Z#`# $.$+$@$#$$$%$&$*$=$-$;$>$,$              ",
"                      '$)$!$~${$]$^$/$($_$:$<$[$}$|$1$2$              ",
"                      3+3$4$5$6$7$8$9$0$a$b$c$d$e$f$g$h$              ",
"                          3+i$j$k$l$m$n$o$p$& ;.q$r$s$t$              ",
"                          3.u$v$w$x$y$z$A$  B$C$D$E$F$G$              ",
"                          t$H$I$J$K$L$M$N$O$P$Q$R$S$T$K+U$            ",
"                          3+V$W$X$Y$Z$`$   %.%+%@%#%$%%%&%            ",
"                            *%' ' ' '     =%-%;%>%,%'%)%!%            ",
"                                          ~%{%]%]%]%]%^%,             "};
