/* XPM */
static char * plrD1_xpm[] = {
"35 35 597 2",
"  	c #FFFFFF",
". 	c #E3E1E2",
"+ 	c #6C5B5D",
"@ 	c #570F14",
"# 	c #571317",
"$ 	c #441317",
"% 	c #645253",
"& 	c #A39A98",
"* 	c #887E7F",
"= 	c #3F1417",
"- 	c #5B1115",
"; 	c #7A6163",
"> 	c #E5E3E3",
", 	c #F5F4F4",
"' 	c #D8D6D7",
") 	c #796D6F",
"! 	c #4D3637",
"~ 	c #560F13",
"{ 	c #6F171A",
"] 	c #5F1216",
"^ 	c #4A0B10",
"/ 	c #33050A",
"( 	c #470A0F",
"_ 	c #6D171A",
": 	c #691519",
"< 	c #6F181B",
"[ 	c #786162",
"} 	c #E4E2E3",
"| 	c #FCFBFB",
"1 	c #F6F6F6",
"2 	c #9A9192",
"3 	c #46181C",
"4 	c #631518",
"5 	c #7D1D1F",
"6 	c #861F21",
"7 	c #811D20",
"8 	c #791A1D",
"9 	c #5C1115",
"0 	c #540F13",
"a 	c #7D1C1E",
"b 	c #781A1D",
"c 	c #7B1B1E",
"d 	c #5C1317",
"e 	c #591C20",
"f 	c #6A3B3C",
"g 	c #EBEAEB",
"h 	c #F9F8F8",
"i 	c #A9A3A4",
"j 	c #4B1C1E",
"k 	c #6A1418",
"l 	c #77191C",
"m 	c #882022",
"n 	c #801D1F",
"o 	c #872022",
"p 	c #70181B",
"q 	c #8C2123",
"r 	c #902324",
"s 	c #821E20",
"t 	c #7E1C1F",
"u 	c #603E40",
"v 	c #EDEBEC",
"w 	c #E4E2E2",
"x 	c #6D595A",
"y 	c #540E13",
"z 	c #7D1B1E",
"A 	c #982626",
"B 	c #9E2828",
"C 	c #8E2224",
"D 	c #9D2728",
"E 	c #9C2728",
"F 	c #7F1D1F",
"G 	c #9B2727",
"H 	c #912324",
"I 	c #952526",
"J 	c #9B2728",
"K 	c #641619",
"L 	c #BAB6B7",
"M 	c #FDFDFD",
"N 	c #EBE9EA",
"O 	c #7F7173",
"P 	c #541014",
"Q 	c #7E1D1F",
"R 	c #9A2627",
"S 	c #992627",
"T 	c #851F21",
"U 	c #591014",
"V 	c #8B2123",
"W 	c #952626",
"X 	c #841F21",
"Y 	c #621518",
"Z 	c #BEB9BA",
"` 	c #FEFEFE",
" .	c #8C8281",
"..	c #460E12",
"+.	c #520E13",
"@.	c #8D2123",
"#.	c #771A1D",
"$.	c #6B1619",
"%.	c #571014",
"&.	c #982526",
"*.	c #831F20",
"=.	c #39060B",
"-.	c #681518",
";.	c #912325",
">.	c #751A1C",
",.	c #811E20",
"'.	c #604446",
").	c #ECECEC",
"!.	c #B8B2B3",
"~.	c #491B1D",
"{.	c #6E171A",
"].	c #5E1216",
"^.	c #661519",
"/.	c #734D45",
"(.	c #633E37",
"_.	c #7A1B1E",
":.	c #681C1D",
"<.	c #9B7A6B",
"[.	c #755147",
"}.	c #761B1E",
"|.	c #7D1C1F",
"1.	c #430A0F",
"2.	c #602D2F",
"3.	c #E6E5E5",
"4.	c #D8D5D6",
"5.	c #4D2427",
"6.	c #500D12",
"7.	c #37060B",
"8.	c #520F13",
"9.	c #714D45",
"0.	c #E2BBA1",
"a.	c #D1AD96",
"b.	c #4F1B1C",
"c.	c #643934",
"d.	c #EBC3A8",
"e.	c #E3BDA2",
"f.	c #754C44",
"g.	c #3F0A0E",
"h.	c #420B10",
"i.	c #6B1A1E",
"j.	c #978E8F",
"k.	c #DDDBDB",
"l.	c #665556",
"m.	c #4B1516",
"n.	c #3F1112",
"o.	c #34070B",
"p.	c #745047",
"q.	c #E3BCA2",
"r.	c #FCD5B7",
"s.	c #F0C9AC",
"t.	c #836250",
"u.	c #BD9983",
"v.	c #FCD4B6",
"w.	c #E2B89D",
"x.	c #743F33",
"y.	c #350A0E",
"z.	c #4B1F21",
"A.	c #4A0E12",
"B.	c #8E7879",
"C.	c #BEB8B7",
"D.	c #422D30",
"E.	c #3D1F20",
"F.	c #491819",
"G.	c #673B2D",
"H.	c #D9A88A",
"I.	c #F5D4BF",
"J.	c #F8D4BC",
"K.	c #FDD4B6",
"L.	c #EBC5AA",
"M.	c #EAC5AA",
"N.	c #F9D2B6",
"O.	c #EFD4C6",
"P.	c #EBB493",
"Q.	c #D08E6B",
"R.	c #754B3D",
"S.	c #997668",
"T.	c #3E2528",
"U.	c #8C7879",
"V.	c #F8F7F7",
"W.	c #DCD9DA",
"X.	c #846D66",
"Y.	c #B08C79",
"Z.	c #CE8969",
"`.	c #C99D87",
" +	c #8A5B55",
".+	c #A17B70",
"++	c #E8C2A7",
"@+	c #F5CAAB",
"#+	c #B69C8F",
"$+	c #8A5347",
"%+	c #B79181",
"&+	c #DB9571",
"*+	c #E2A785",
"=+	c #B89784",
"-+	c #ADA7A9",
";+	c #B3ACAD",
">+	c #B1A8A7",
",+	c #CAA590",
"'+	c #D59170",
")+	c #D2BFB3",
"!+	c #505E67",
"~+	c #86A9B3",
"{+	c #E7CFBE",
"]+	c #F3CBAF",
"^+	c #A9C6CC",
"/+	c #3B4554",
"(+	c #B1BDBC",
"_+	c #D99774",
":+	c #D9AC92",
"<+	c #A3948E",
"[+	c #E9E8E8",
"}+	c #FAF9FA",
"|+	c #CAC7C8",
"1+	c #776D6C",
"2+	c #754E3D",
"3+	c #E8B89A",
"4+	c #8E8480",
"5+	c #B5AEAC",
"6+	c #FBDCC6",
"7+	c #FDD5B8",
"8+	c #FCD7BB",
"9+	c #D8CCC5",
"0+	c #7D7679",
"a+	c #E3BDA3",
"b+	c #A07056",
"c+	c #594847",
"d+	c #B7B3B4",
"e+	c #EFEEEF",
"f+	c #FBFBFB",
"g+	c #ADAAAC",
"h+	c #473F43",
"i+	c #311C1E",
"j+	c #5D3328",
"k+	c #D49275",
"l+	c #F6CBAC",
"m+	c #FBD4B7",
"n+	c #FDD6B8",
"o+	c #FDD5B7",
"p+	c #FCD5B8",
"q+	c #F7CEB1",
"r+	c #E6AD8C",
"s+	c #844B3A",
"t+	c #3A201D",
"u+	c #42393B",
"v+	c #807D7F",
"w+	c #BFBEBF",
"x+	c #524C50",
"y+	c #807779",
"z+	c #5F4C4B",
"A+	c #613B25",
"B+	c #7F4033",
"C+	c #AE6957",
"D+	c #E5AD8C",
"E+	c #EEBEA3",
"F+	c #EDBFA6",
"G+	c #ECB89A",
"H+	c #C07C63",
"I+	c #914D3D",
"J+	c #643C24",
"K+	c #4B2E28",
"L+	c #7F7578",
"M+	c #5A5455",
"N+	c #908988",
"O+	c #F1F1F1",
"P+	c #827E7F",
"Q+	c #696367",
"R+	c #8E8789",
"S+	c #695452",
"T+	c #75502C",
"U+	c #7E562E",
"V+	c #5F3623",
"W+	c #77342D",
"X+	c #7B3930",
"Y+	c #7A3831",
"Z+	c #7B3631",
"`+	c #793730",
" @	c #643427",
".@	c #704A29",
"+@	c #835C31",
"@@	c #4E332C",
"#@	c #8F8486",
"$@	c #756C6E",
"%@	c #545256",
"&@	c #DAD9DA",
"*@	c #E1E1E1",
"=@	c #413A3F",
"-@	c #6F686C",
";@	c #867E7F",
">@	c #4D3A3A",
",@	c #77502D",
"'@	c #996E37",
")@	c #8D6434",
"!@	c #6D4828",
"~@	c #694728",
"{@	c #6A4828",
"]@	c #6A4628",
"^@	c #815A2F",
"/@	c #886032",
"(@	c #52342C",
"_@	c #7F7577",
":@	c #847C7E",
"<@	c #3C353A",
"[@	c #B3B0B0",
"}@	c #B8B6B7",
"|@	c #3F383C",
"1@	c #665D61",
"2@	c #534C50",
"3@	c #46322F",
"4@	c #77512C",
"5@	c #9A6F38",
"6@	c #9A6F37",
"7@	c #976D36",
"8@	c #986D37",
"9@	c #8A6132",
"0@	c #45271D",
"a@	c #4F4546",
"b@	c #60585B",
"c@	c #534C4F",
"d@	c #898687",
"e@	c #F4F4F4",
"f@	c #FAFAFA",
"g@	c #646164",
"h@	c #5F565A",
"i@	c #62595D",
"j@	c #473D41",
"k@	c #341C19",
"l@	c #6E4A29",
"m@	c #8E6534",
"n@	c #9F7640",
"o@	c #9B7139",
"p@	c #9A7038",
"q@	c #9E753F",
"r@	c #966D38",
"s@	c #79532E",
"t@	c #3F2319",
"u@	c #383131",
"v@	c #5D5659",
"w@	c #645B5F",
"x@	c #3D353A",
"y@	c #E1E1E2",
"z@	c #656265",
"A@	c #80797B",
"B@	c #675E62",
"C@	c #383438",
"D@	c #473A3B",
"E@	c #523119",
"F@	c #6D4927",
"G@	c #916938",
"H@	c #A17943",
"I@	c #9F763F",
"J@	c #9E753E",
"K@	c #A17842",
"L@	c #99713E",
"M@	c #75502A",
"N@	c #5C3A1F",
"O@	c #3F261F",
"P@	c #454144",
"Q@	c #615A5D",
"R@	c #82787B",
"S@	c #575155",
"T@	c #696568",
"U@	c #8C8486",
"V@	c #6A6265",
"W@	c #767375",
"X@	c #868082",
"Y@	c #362120",
"Z@	c #4E3E3C",
"`@	c #5F3F26",
" #	c #7F5B32",
".#	c #916E40",
"+#	c #916E43",
"@#	c #8D6B42",
"##	c #866238",
"$#	c #684526",
"%#	c #503E38",
"&#	c #402F2B",
"*#	c #4A403E",
"=#	c #999597",
"-#	c #575156",
";#	c #847C7F",
">#	c #544D51",
",#	c #666264",
"'#	c #574341",
")#	c #5A4743",
"!#	c #4C3A38",
"~#	c #332D31",
"{#	c #231C23",
"]#	c #313540",
"^#	c #373740",
"/#	c #4B4549",
"(#	c #899187",
"_#	c #8C9589",
":#	c #8F9F94",
"<#	c #595654",
"[#	c #3C3A41",
"}#	c #32333E",
"|#	c #27242D",
"1#	c #1C161B",
"2#	c #493C3D",
"3#	c #57433F",
"4#	c #5D4844",
"5#	c #3E3132",
"6#	c #E1DFDF",
"7#	c #7F6E6E",
"8#	c #DEB396",
"9#	c #F2CEB6",
"0#	c #D3A68A",
"a#	c #5D4743",
"b#	c #261419",
"c#	c #271E26",
"d#	c #2A262F",
"e#	c #2C2831",
"f#	c #70787B",
"g#	c #59535A",
"h#	c #757677",
"i#	c #3A3940",
"j#	c #2A252F",
"k#	c #28181E",
"l#	c #281418",
"m#	c #3B2B2E",
"n#	c #B58E79",
"o#	c #F1C7A9",
"p#	c #EDC7AE",
"q#	c #8B6353",
"r#	c #7D6D6E",
"s#	c #DBA88E",
"t#	c #F6CCB1",
"u#	c #D2967E",
"v#	c #8B6F63",
"w#	c #351812",
"x#	c #41210F",
"y#	c #3E2110",
"z#	c #402414",
"A#	c #4C342B",
"B#	c #493335",
"C#	c #503830",
"D#	c #422516",
"E#	c #402313",
"F#	c #411F0E",
"G#	c #3A1B12",
"H#	c #503939",
"I#	c #CC9A85",
"J#	c #E8B99F",
"K#	c #F0C3A7",
"L#	c #825549",
"M#	c #FCFCFC",
"N#	c #A3999A",
"O#	c #AE7865",
"P#	c #F3C3A5",
"Q#	c #C27760",
"R#	c #733F3B",
"S#	c #351813",
"T#	c #462814",
"U#	c #613D20",
"V#	c #714C2A",
"W#	c #6A4627",
"X#	c #371811",
"Y#	c #502E1C",
"Z#	c #6F4A29",
"`#	c #674224",
" $	c #4C2C15",
".$	c #3A1D13",
"+$	c #472726",
"@$	c #BA6953",
"#$	c #E5B297",
"$$	c #D09D82",
"%$	c #876F70",
"&$	c #EEECED",
"*$	c #F6F5F5",
"=$	c #A79B9A",
"-$	c #886960",
";$	c #8D6355",
">$	c #4C3732",
",$	c #3C2F31",
"'$	c #462F2C",
")$	c #43261D",
"!$	c #4E2E20",
"~$	c #4D2C21",
"{$	c #371C19",
"]$	c #371B17",
"^$	c #45281D",
"/$	c #4B302A",
"($	c #554749",
"_$	c #312024",
":$	c #805B51",
"<$	c #8C6B5F",
"[$	c #907876",
"}$	c #E6E4E4",
"|$	c #F7F6F5",
"1$	c #EAE8E9",
"2$	c #EAE9E9",
"3$	c #8B7B79",
"4$	c #35151A",
"5$	c #54494D",
"6$	c #5F5457",
"7$	c #60575A",
"8$	c #655C60",
"9$	c #5E5155",
"0$	c #5A4D51",
"a$	c #655A5D",
"b$	c #5A5052",
"c$	c #50464A",
"d$	c #4D3C40",
"e$	c #5A3C3C",
"f$	c #E0DCDD",
"g$	c #F1EFEF",
"h$	c #9D8B8C",
"i$	c #6C1618",
"j$	c #5D1316",
"k$	c #362529",
"l$	c #3C3437",
"m$	c #3E373C",
"n$	c #3B3337",
"o$	c #3C383D",
"p$	c #383237",
"q$	c #2E2428",
"r$	c #561619",
"s$	c #6A1518",
"t$	c #6E423F",
"u$	c #F3F1F1",
"v$	c #948D8F",
"w$	c #3D1D1F",
"x$	c #481F22",
"y$	c #2A171C",
"z$	c #888385",
"A$	c #DFDEDF",
"B$	c #DEDDDE",
"C$	c #B7B4B5",
"D$	c #281B20",
"E$	c #431C1E",
"F$	c #431F22",
"G$	c #57474A",
"H$	c #F3F2F2",
"I$	c #685E60",
"J$	c #492D29",
"K$	c #553431",
"L$	c #422725",
"M$	c #706668",
"N$	c #E8E6E7",
"O$	c #999394",
"P$	c #3A2624",
"Q$	c #52332E",
"R$	c #52312D",
"S$	c #413335",
"T$	c #C5C1C2",
"U$	c #B8B4B5",
"V$	c #462C2C",
"W$	c #744A44",
"X$	c #794C47",
"Y$	c #5D3C35",
"Z$	c #322224",
"`$	c #D1CECF",
" %	c #F0EEEF",
".%	c #4C4044",
"+%	c #4E302A",
"@%	c #754A45",
"#%	c #784C47",
"$%	c #583834",
"%%	c #857E81",
"&%	c #F7F6F6",
"*%	c #EDECEC",
"=%	c #524448",
"-%	c #6C4542",
";%	c #83544F",
">%	c #83534E",
",%	c #7A4D49",
"'%	c #482D2E",
")%	c #D1CFD0",
"!%	c #F0EFEF",
"~%	c #534447",
"{%	c #6D4440",
"]%	c #7B4E49",
"^%	c #4A3233",
"/%	c #CBC8C9",
"(%	c #EEECEC",
"_%	c #5D4B4E",
":%	c #734A44",
"<%	c #84534F",
"[%	c #875550",
"}%	c #774C49",
"|%	c #8B8183",
"1%	c #F0EEEE",
"2%	c #FAFAF9",
"3%	c #B1ABAC",
"4%	c #694746",
"5%	c #83534F",
"6%	c #573A3A",
"7%	c #CDC9CA",
"8%	c #CDC9C9",
"9%	c #837A7D",
"0%	c #827A7C",
"a%	c #827C7D",
"b%	c #968D8F",
"c%	c #EFEEED",
"d%	c #FAF9F9",
"e%	c #B4ADAE",
"f%	c #847B7D",
"                        . + @ # $ % & * = - ; >                       ",
"                    , ' ) ! ~ { ] ^ / ( _ : < [ ' } |                 ",
"                  1 2 3 4 5 6 7 8 : 9 0 a b c d e f g                 ",
"                  h i j 9 k l m n o 6 p q r s m t u v                 ",
"                    w x y z A B C D E F G H I J K L M                 ",
"                  N O P Q R S T t B H U V W X S Y Z M                 ",
"                `  ...+.@.m #.$.%.&.*.=.-.;._ >.,.'.).                ",
"                ` !.~.{.-.].^./.(._.:.<.[.}.|.1._ 2.3.                ",
"                  4.5.6.7.8.9.0.a.b.c.d.e.f.p g.h.i.j.`               ",
"                k.l.m.n.o.p.q.r.s.t.u.v.r.w.x.y.z.A.B.`               ",
"                C.D.E.F.G.H.I.J.K.L.M.N.O.P.Q.R.S.T.U.`               ",
"                V.W.X.Y.Z.`. +.+++K.@+#+$+%+&+*+=+-+;+`               ",
"                  V.>+,+'+)+!+~+{+K.]+^+/+(+_+:+<+[+                  ",
"                  }+|+1+2+3+4+5+6+7+8+9+0+a+b+c+d+e+                  ",
"                f+g+h+i+j+k+l+m+n+o+o+p+q+r+s+t+u+v+e+                ",
"                w+x+y+z+A+B+C+D+E+F+E+G+H+I+J+K+L+M+N+`               ",
"              O+P+Q+R+S+T+U+V+W+X+Y+Z+`+ @.@+@@@#@$@%@&@              ",
"              *@=@-@;@>@,@'@)@!@~@{@]@]@^@'@/@(@_@:@<@[@              ",
"            M }@|@1@2@3@4@5@6@7@7@8@7@7@'@6@9@0@a@b@c@d@e@            ",
"            f@g@h@i@j@k@l@m@n@o@6@6@6@p@q@r@s@t@u@v@w@x@y@            ",
"            f@z@A@B@C@D@E@F@G@H@I@I@J@K@L@M@N@O@P@Q@R@S@*@            ",
"            f@T@U@V@W@X@Y@Z@`@ #.#+#@###$#%#&#*#=#-#;#>#*@            ",
"            f@,#'#)#!#~#{#]#^#/#(#_#:#<#[#}#|#1#2#3#4#5#6#            ",
"            f@7#8#9#0#a#b#c#d#e#f#g#h#i#j#k#l#m#n#o#p#q#>             ",
"            f@r#s#t#u#v#w#x#y#z#A#B#C#D#E#F#G#H#I#J#K#L#>             ",
"            M#N#O#P#Q#R#S#T#U#V#W#X#Y#Z#`# $.$+$@$#$$$%$&$            ",
"              *$=$-$;$>$,$'$)$!$~${$]$!$^$/$($_$:$<$[$}$              ",
"                |$1$2$3$4$5$6$7$8$9$0$a$b$c$d$e$f$1$g$                ",
"                      h$i$j$k$l$m$n$o$p$q$r$s$t$u$                    ",
"                      v$w$x$y$z$A$B$B$C$D$E$F$G$H$                    ",
"                    w I$J$K$L$M$N$  V.O$P$Q$R$S$T$                    ",
"                  M#U$V$W$X$Y$Z$`$   %.%+%@%#%$%%%&%                  ",
"                  *%=%-%;%>%,%'%)%  !%~%{%>%>%]%^%/%                  ",
"                  (%_%:%<%[%}%|%1%  2%3%4%5%[%]%6%7%                  ",
"                  M 8%9%0%a%b%c%      d%e%0%f%9%-+h                   "};
