/* XPM */
static char * plrL2_xpm[] = {
"35 35 466 2",
"  	c #FFFFFF",
". 	c #F6F5F5",
"+ 	c #FEFEFE",
"@ 	c #E9E7E7",
"# 	c #8A7879",
"$ 	c #C9C5C6",
"% 	c #D2D0D1",
"& 	c #DDDBDC",
"* 	c #E8E7E7",
"= 	c #7A6B6D",
"- 	c #741B1D",
"; 	c #58161A",
"> 	c #451216",
", 	c #5A4142",
"' 	c #9F9492",
") 	c #9F9899",
"! 	c #9F999B",
"~ 	c #DDDADA",
"{ 	c #FAFAFA",
"] 	c #746869",
"^ 	c #4A0D11",
"/ 	c #851F21",
"( 	c #8D2123",
"_ 	c #751A1D",
": 	c #771A1D",
"< 	c #6E181B",
"[ 	c #5C1115",
"} 	c #490B0F",
"| 	c #544344",
"1 	c #8E8587",
"2 	c #E1DFDF",
"3 	c #FAF9F9",
"4 	c #E8E6E7",
"5 	c #756A6C",
"6 	c #521014",
"7 	c #7E1C1F",
"8 	c #9A2727",
"9 	c #982627",
"0 	c #9B2728",
"a 	c #821E20",
"b 	c #5F1216",
"c 	c #560F13",
"d 	c #450A0F",
"e 	c #4B1114",
"f 	c #7B6A6B",
"g 	c #EEEDED",
"h 	c #75696B",
"i 	c #561215",
"j 	c #8B2123",
"k 	c #9F2828",
"l 	c #9E2828",
"m 	c #7F1C1F",
"n 	c #8E2223",
"o 	c #992627",
"p 	c #6E171A",
"q 	c #70181B",
"r 	c #6A1619",
"s 	c #41090E",
"t 	c #685658",
"u 	c #DDDBDB",
"v 	c #F7F6F6",
"w 	c #CAC5C3",
"x 	c #796B6C",
"y 	c #571216",
"z 	c #8B2223",
"A 	c #8D2223",
"B 	c #8C2224",
"C 	c #922526",
"D 	c #9A2627",
"E 	c #932425",
"F 	c #962526",
"G 	c #73191C",
"H 	c #781A1D",
"I 	c #6F171B",
"J 	c #4B0D11",
"K 	c #746466",
"L 	c #F9F8F9",
"M 	c #F4F3F4",
"N 	c #91898B",
"O 	c #350E11",
"P 	c #681418",
"Q 	c #611317",
"R 	c #8C2123",
"S 	c #4E0D12",
"T 	c #691519",
"U 	c #861F21",
"V 	c #781B1E",
"W 	c #641418",
"X 	c #5A1115",
"Y 	c #6C5A5B",
"Z 	c #F8F8F8",
"` 	c #F4F3F3",
" .	c #796F70",
"..	c #591215",
"+.	c #6F181B",
"@.	c #5A3430",
"#.	c #552C29",
"$.	c #772B29",
"%.	c #671519",
"&.	c #6D171A",
"*.	c #831E21",
"=.	c #811D20",
"-.	c #6F171A",
";.	c #611217",
">.	c #4F1014",
",.	c #837A7C",
"'.	c #FAF9FA",
").	c #8A8081",
"!.	c #530F13",
"~.	c #7E5A50",
"{.	c #C6A089",
"].	c #997868",
"^.	c #B28E7B",
"/.	c #4C1819",
"(.	c #7D1D1F",
"_.	c #841F21",
":.	c #621317",
"<.	c #8E2224",
"[.	c #651418",
"}.	c #72191C",
"|.	c #841E21",
"1.	c #571C20",
"2.	c #DFDBD9",
"3.	c #D8D3D2",
"4.	c #482F2F",
"5.	c #B99581",
"6.	c #F5CEB1",
"7.	c #E8C1A6",
"8.	c #F8D0B3",
"9.	c #A98775",
"0.	c #571114",
"a.	c #872022",
"b.	c #681518",
"c.	c #862022",
"d.	c #761C1D",
"e.	c #561C20",
"f.	c #E1DFE0",
"g.	c #EFECEB",
"h.	c #7D625A",
"i.	c #F5CDB0",
"j.	c #FDD5B8",
"k.	c #FDD5B7",
"l.	c #FCDBC4",
"m.	c #D7BAA8",
"n.	c #5E3B35",
"o.	c #5E1317",
"p.	c #36070B",
"q.	c #682523",
"r.	c #65443C",
"s.	c #530E12",
"t.	c #7E1D1F",
"u.	c #7E6667",
"v.	c #EDEBEC",
"w.	c #F0EFEF",
"x.	c #846960",
"y.	c #EEC0A2",
"z.	c #F0C2A4",
"A.	c #C39280",
"B.	c #C0998A",
"C.	c #BC8368",
"D.	c #572C26",
"E.	c #7C4D3D",
"F.	c #7E5549",
"G.	c #A98573",
"H.	c #35080C",
"I.	c #530D12",
"J.	c #B8B1B2",
"K.	c #FDFDFD",
"L.	c #C5C2C2",
"M.	c #B89783",
"N.	c #FDD6B8",
"O.	c #B99F91",
"P.	c #463F47",
"Q.	c #8EC3CE",
"R.	c #D0C2B6",
"S.	c #D1A68D",
"T.	c #B98A71",
"U.	c #ECC1A3",
"V.	c #D79C7F",
"W.	c #5E2D27",
"X.	c #4E3334",
"Y.	c #C8C5C6",
"Z.	c #D1CECF",
"`.	c #B09180",
" +	c #FDD4B6",
".+	c #B8A99F",
"++	c #525F69",
"@+	c #E7E0DB",
"#+	c #FAD9C1",
"$+	c #F0B893",
"%+	c #E7A37B",
"&+	c #D18C6F",
"*+	c #935243",
"=+	c #998D8F",
"-+	c #FEFDFE",
";+	c #D9D7D7",
">+	c #9E7B6C",
",+	c #F0C1A3",
"'+	c #EECAAF",
")+	c #E3C1A9",
"!+	c #FBD7BC",
"~+	c #F9CDAD",
"{+	c #EBAC86",
"]+	c #B76F55",
"^+	c #412325",
"/+	c #B3AEAF",
"(+	c #FBFBFB",
"_+	c #C6C1C0",
":+	c #9B6E5E",
"<+	c #DFA88B",
"[+	c #F9CDAE",
"}+	c #FBD3B5",
"|+	c #FBD1B3",
"1+	c #EFB693",
"2+	c #C77E61",
"3+	c #7B3D34",
"4+	c #4A3537",
"5+	c #514143",
"6+	c #B7B3B5",
"7+	c #FCFCFC",
"8+	c #F9F8F7",
"9+	c #AAA2A1",
"0+	c #59392A",
"a+	c #834535",
"b+	c #AA6856",
"c+	c #AE6B5C",
"d+	c #A65A48",
"e+	c #7B3B32",
"f+	c #624E4D",
"g+	c #827E81",
"h+	c #7B7377",
"i+	c #5C5559",
"j+	c #BDBBBC",
"k+	c #D5D0D0",
"l+	c #553625",
"m+	c #876033",
"n+	c #6E4929",
"o+	c #542F1E",
"p+	c #542E1E",
"q+	c #532F1E",
"r+	c #583220",
"s+	c #4C2A1D",
"t+	c #6B6266",
"u+	c #8E888B",
"v+	c #928D90",
"w+	c #6A6064",
"x+	c #767273",
"y+	c #EBEBEA",
"z+	c #D2CDCE",
"A+	c #5F3C26",
"B+	c #936936",
"C+	c #956B36",
"D+	c #7E5830",
"E+	c #79532E",
"F+	c #7A542E",
"G+	c #8F6634",
"H+	c #694626",
"I+	c #4B3B3D",
"J+	c #837C7C",
"K+	c #8D8487",
"L+	c #776F71",
"M+	c #362F34",
"N+	c #E0DFE0",
"O+	c #5E3C26",
"P+	c #946A36",
"Q+	c #9A6F37",
"R+	c #976D37",
"S+	c #966C36",
"T+	c #966B36",
"U+	c #936935",
"V+	c #6C4826",
"W+	c #331816",
"X+	c #655D60",
"Y+	c #80777B",
"Z+	c #898283",
"`+	c #443E43",
" @	c #5D3C25",
".@	c #9A723E",
"+@	c #9B7039",
"@@	c #9B7038",
"#@	c #9A6F38",
"$@	c #9D743E",
"%@	c #815A31",
"&@	c #78522C",
"*@	c #3F2414",
"=@	c #473E43",
"-@	c #8C868A",
";@	c #766F73",
">@	c #4D4443",
",@	c #D1CDCE",
"'@	c #4B2D1C",
")@	c #977143",
"!@	c #A57F49",
"~@	c #A7814B",
"{@	c #A6804A",
"]@	c #9C7541",
"^@	c #78532D",
"/@	c #623F23",
"(@	c #3D211E",
"_@	c #675E61",
":@	c #877E81",
"<@	c #71696C",
"[@	c #4D494D",
"}@	c #E5E4E5",
"|@	c #E4E2E2",
"1@	c #705F5D",
"2@	c #674C37",
"3@	c #8C673B",
"4@	c #967141",
"5@	c #926B3C",
"6@	c #6D4B2D",
"7@	c #533626",
"8@	c #512B24",
"9@	c #4A2A29",
"0@	c #847A7C",
"a@	c #7C7376",
"b@	c #443C41",
"c@	c #B0ADAE",
"d@	c #9E9998",
"e@	c #3D373C",
"f@	c #77776F",
"g@	c #8F9588",
"h@	c #77766D",
"i@	c #91624C",
"j@	c #B68169",
"k@	c #CB9172",
"l@	c #887269",
"m@	c #7C7476",
"n@	c #60575B",
"o@	c #615E61",
"p@	c #EBE9E9",
"q@	c #9F9697",
"r@	c #241A20",
"s@	c #646A69",
"t@	c #63666A",
"u@	c #643937",
"v@	c #DAA990",
"w@	c #F8DDCA",
"x@	c #F9DBC7",
"y@	c #D0A58D",
"z@	c #40393C",
"A@	c #2F262B",
"B@	c #767477",
"C@	c #3E2319",
"D@	c #513932",
"E@	c #4C3B3D",
"F@	c #7C4C41",
"G@	c #F0BB9B",
"H@	c #FCD5BA",
"I@	c #E7BBA2",
"J@	c #84594B",
"K@	c #301F1E",
"L@	c #413536",
"M@	c #777577",
"N@	c #F1F1F1",
"O@	c #867D7E",
"P@	c #3E2725",
"Q@	c #503226",
"R@	c #3F1F17",
"S@	c #542A27",
"T@	c #B37B62",
"U@	c #CA9F86",
"V@	c #885B49",
"W@	c #674329",
"X@	c #4E2F1F",
"Y@	c #4D4143",
"Z@	c #2D1D21",
"`@	c #3E3439",
" #	c #52484B",
".#	c #423235",
"+#	c #453537",
"@#	c #341A1C",
"##	c #311B1E",
"$#	c #45281F",
"%#	c #503022",
"&#	c #4B3434",
"*#	c #3C3338",
"=#	c #777476",
"-#	c #BFB7B7",
";#	c #4D1517",
">#	c #611D1E",
",#	c #4C3D40",
"'#	c #473E42",
")#	c #504649",
"!#	c #463C3E",
"~#	c #4F4346",
"{#	c #584B4B",
"]#	c #615658",
"^#	c #5F5559",
"/#	c #3B272C",
"(#	c #76696B",
"_#	c #F1F0F0",
":#	c #F3F2F2",
"<#	c #B9B4B5",
"[#	c #ABA5A7",
"}#	c #543835",
"|#	c #2F1B1B",
"1#	c #541919",
"2#	c #3C1518",
"3#	c #6B6366",
"4#	c #393238",
"5#	c #362E30",
"6#	c #41393D",
"7#	c #3D3337",
"8#	c #261A20",
"9#	c #331016",
"0#	c #4D1519",
"a#	c #331F21",
"b#	c #8D8687",
"c#	c #989192",
"d#	c #553837",
"e#	c #543430",
"f#	c #2E1E1C",
"g#	c #231816",
"h#	c #312020",
"i#	c #847B7C",
"j#	c #EBE8E8",
"k#	c #CDCCCD",
"l#	c #CAC9CA",
"m#	c #C6C4C5",
"n#	c #6D5B59",
"o#	c #38191B",
"p#	c #291A1C",
"q#	c #422925",
"r#	c #352523",
"s#	c #918A8B",
"t#	c #9C9697",
"u#	c #472F2E",
"v#	c #633E39",
"w#	c #38231E",
"x#	c #2F1E1C",
"y#	c #9E989A",
"z#	c #E0DEDE",
"A#	c #A49C9E",
"B#	c #392829",
"C#	c #4A2F2C",
"D#	c #6C4540",
"E#	c #3C2721",
"F#	c #696164",
"G#	c #F5F4F4",
"H#	c #979192",
"I#	c #453234",
"J#	c #3D2825",
"K#	c #261A1B",
"L#	c #A29C9E",
"M#	c #E5E3E4",
"N#	c #665D5F",
"O#	c #5B3B39",
"P#	c #6E4742",
"Q#	c #7B4F49",
"R#	c #6B4440",
"S#	c #403133",
"T#	c #B9B5B5",
"U#	c #FDFCFC",
"V#	c #DCD9DA",
"W#	c #7D7678",
"X#	c #70686B",
"Y#	c #878082",
"Z#	c #ECEAEA",
"`#	c #DFDDDD",
" $	c #5D4D4E",
".$	c #734945",
"+$	c #7B4E4A",
"@$	c #5E3B3A",
"#$	c #463839",
"$$	c #BAB5B5",
"                      . +                                             ",
"                    @ # $ % & +                                       ",
"                  * = - ; > , ' ) ! ~ {                               ",
"                @ ] ^ / ( _ : < [ } | 1 2 3                           ",
"              4 5 6 7 8 9 9 0 a b c d e f g                           ",
"            4 h i j 9 k l m n o p q r s t u +                         ",
"        v w x y z A : B < C D E F G H I J K L                         ",
"        M N O P D Q r R S T U a I V W p X Y Z                         ",
"          `  ...+.@.#.$.%./ &.*.=.p -.;.>.,.'.                        ",
"          + ).!.~.{.].^./.(._.:.<.[.}.|.1.2.                          ",
"            3.4.5.6.7.8.9.0.a.b.c.s d.F e.f.                          ",
"            g.h.i.j.k.l.m.n.o.p.q.r.s.t.u.v.                          ",
"            w.x.y.k.z.A.B.C.D.E.F.G.H.I.J.                            ",
"            K.L.M.N.O.P.Q.R.S.T.U.V.W.X.Y.                            ",
"              Z.`. +.+++@+#+$+%+&+*+=+$ -+                            ",
"              ;+>+,+'+)+!+k.~+{+]+^+/+(+                              ",
"              K._+:+<+[+}+|+1+2+3+4+5+6+7+                            ",
"              8+9+0+a+b+c+c+d+e+f+g+h+i+j++                           ",
"              k+l+m+n+o+p+q+r+s+t+u+v+w+x+y+                          ",
"              z+A+B+C+D+E+F+G+H+I+J+K+L+M+N+                          ",
"              z+O+P+Q+R+S+T+U+V+W+X+Y+Z+`+N+                          ",
"              z+ @.@+@@@#@$@%@&@*@=@-@;@>@N+                          ",
"              ,@'@)@!@~@{@]@^@/@(@_@:@<@[@}@                          ",
"              |@1@2@3@4@5@6@7@8@9@0@a@b@c@+                           ",
"                d@e@f@g@h@i@j@k@l@m@n@o@p@                            ",
"                q@r@s@t@u@v@w@x@y@z@A@B@K.                            ",
"                q@C@D@E@F@G@H@I@J@K@L@M@K.                            ",
"              N@O@P@Q@R@S@T@U@V@W@X@Y@M@K.                            ",
"              ,@Z@`@ #.#+#@###$#%#&#*#=#K.                            ",
"            7+-#;#>#,#'#)#!#~#{#]#^#/#(#_#                            ",
"        :#<#[#}#|#1#2#3#4#5#6#7#8#9#0#a#b#_#                          ",
"      7+c#d#e#f#g#h#i#j#k#l#l#m#n#o#p#q#r#s#{                         ",
"      7+t#u#v#w#g#x#y#        z#A#B#C#D#E#F#L                         ",
"        G#H#I#J#g#K#L#      M#N#O#P#Q#R#S#T#U#                        ",
"          G#V#W#X#Y#Z#      `# $.$+$@$#$$$(+                          "};
