/* XPM */
static char * plrL1_xpm[] = {
"35 35 449 2",
"  	c #FFFFFF",
". 	c #F0EFEF",
"+ 	c #8F7E7F",
"@ 	c #9A9090",
"# 	c #B5AEAD",
"$ 	c #B7B3B4",
"% 	c #F3F2F3",
"& 	c #FDFDFD",
"* 	c #FEFEFE",
"= 	c #EFEEEF",
"- 	c #887E7F",
"; 	c #69171A",
"> 	c #761A1C",
", 	c #4C0B10",
"' 	c #4B1215",
") 	c #746768",
"! 	c #7B7274",
"~ 	c #7A7173",
"{ 	c #B1ACAD",
"] 	c #ECEBEC",
"^ 	c #F0EFF0",
"/ 	c #8A7F7F",
"( 	c #430E11",
"_ 	c #7B1C1F",
": 	c #932325",
"< 	c #842022",
"[ 	c #831E20",
"} 	c #791A1D",
"| 	c #661418",
"1 	c #510D12",
"2 	c #3E1719",
"3 	c #594243",
"4 	c #BFB9BA",
"5 	c #E9E8E8",
"6 	c #877E7F",
"7 	c #491014",
"8 	c #7A1B1E",
"9 	c #9A2627",
"0 	c #9B2627",
"a 	c #972527",
"b 	c #982627",
"c 	c #912324",
"d 	c #601216",
"e 	c #4F0D12",
"f 	c #4C0C11",
"g 	c #685658",
"h 	c #E2E0E1",
"i 	c #8B8081",
"j 	c #4B1115",
"k 	c #8D2223",
"l 	c #972526",
"m 	c #992627",
"n 	c #8D2123",
"o 	c #821E20",
"p 	c #851F21",
"q 	c #791B1E",
"r 	c #4A2224",
"s 	c #B2ACAD",
"t 	c #FAFAFA",
"u 	c #BEB9BA",
"v 	c #807677",
"w 	c #4C1014",
"x 	c #862022",
"y 	c #8F2324",
"z 	c #6F171A",
"A 	c #872022",
"B 	c #691518",
"C 	c #811F21",
"D 	c #9C2728",
"E 	c #942425",
"F 	c #962526",
"G 	c #811D20",
"H 	c #6E171B",
"I 	c #560F13",
"J 	c #4F2E2F",
"K 	c #EAE9EA",
"L 	c #D8D5D6",
"M 	c #564849",
"N 	c #430B10",
"O 	c #922425",
"P 	c #6F181B",
"Q 	c #5A1015",
"R 	c #892022",
"S 	c #641417",
"T 	c #631317",
"U 	c #8A2123",
"V 	c #621317",
"W 	c #72181C",
"X 	c #6C161A",
"Y 	c #651418",
"Z 	c #4C292B",
"` 	c #E9E9E9",
" .	c #BFBCBC",
"..	c #450D11",
"+.	c #694640",
"@.	c #573531",
"#.	c #7B4B42",
"$.	c #611418",
"%.	c #7C1C1E",
"&.	c #7B1B1E",
"*.	c #861F21",
"=.	c #6B1619",
"-.	c #540F13",
";.	c #84797A",
">.	c #F3F2F2",
",.	c #CCC7C6",
"'.	c #4C1E20",
").	c #644139",
"!.	c #DBB49B",
"~.	c #8A6A5D",
"{.	c #DCB59C",
"].	c #745249",
"^.	c #601317",
"/.	c #902224",
"(.	c #831F21",
"_.	c #6D171A",
":.	c #621518",
"<.	c #8E2123",
"[.	c #641719",
"}.	c #C8C3C2",
"|.	c #FAF9F9",
"1.	c #887F80",
"2.	c #997869",
"3.	c #FAD2B4",
"4.	c #F3CBAE",
"5.	c #FCD4B7",
"6.	c #DDB79D",
"7.	c #481B1C",
"8.	c #7F1D1F",
"9.	c #611317",
"0.	c #7E1D1F",
"a.	c #4C0D11",
"b.	c #5B1317",
"c.	c #962627",
"d.	c #601518",
"e.	c #C6C3C4",
"f.	c #938A8B",
"g.	c #E3BBA1",
"h.	c #FDD5B7",
"i.	c #FAD7BE",
"j.	c #EFD1BE",
"k.	c #977364",
"l.	c #551517",
"m.	c #350B0C",
"n.	c #511818",
"o.	c #8D685C",
"p.	c #3D0C11",
"q.	c #78191C",
"r.	c #7E6565",
"s.	c #E9E7E7",
"t.	c #AEA8A9",
"u.	c #C6977D",
"v.	c #FCD3B5",
"w.	c #F2C9AC",
"x.	c #AE7965",
"y.	c #997F7D",
"z.	c #C19C8B",
"A.	c #95644F",
"B.	c #73473B",
"C.	c #A37764",
"D.	c #C69F88",
"E.	c #4E2722",
"F.	c #4C0D10",
"G.	c #908685",
"H.	c #F1F0F0",
"I.	c #84716C",
"J.	c #F9D2B4",
"K.	c #E1C2AD",
"L.	c #444D5B",
"M.	c #94B3BB",
"N.	c #CBD2CF",
"O.	c #F0C2A3",
"P.	c #BD876B",
"Q.	c #F2C2A2",
"R.	c #DEA485",
"S.	c #7C473C",
"T.	c #4B3234",
"U.	c #C4C0C1",
"V.	c #F3F1F2",
"W.	c #826C67",
"X.	c #F7CDB0",
"Y.	c #E5C6AE",
"Z.	c #6C696C",
"`.	c #D2CBC5",
" +	c #FCDBC4",
".+	c #F3BF9D",
"++	c #EBAB83",
"@+	c #CE8669",
"#+	c #8E493D",
"$+	c #95898A",
"%+	c #E1DFE0",
"&+	c #FCFCFC",
"*+	c #F8F7F7",
"=+	c #A39796",
"-+	c #C8977C",
";+	c #F8CDAE",
">+	c #F5CEB2",
",+	c #FBD4B7",
"'+	c #FCD2B3",
")+	c #EEB591",
"!+	c #C47A5D",
"~+	c #4E2825",
"{+	c #726869",
"]+	c #EAE9E8",
"^+	c #D7D4D5",
"/+	c #523632",
"(+	c #B0735E",
"_+	c #EAB291",
":+	c #F2C5AA",
"<+	c #E9B190",
"[+	c #C77D5F",
"}+	c #7C3D33",
"|+	c #4D3C3F",
"1+	c #5C4D50",
"2+	c #746F72",
"3+	c #E7E7E7",
"4+	c #FBFAFA",
"5+	c #AFA7A7",
"6+	c #563620",
"7+	c #673B25",
"8+	c #814034",
"9+	c #864139",
"0+	c #874239",
"a+	c #863E35",
"b+	c #73322B",
"c+	c #4A3A3B",
"d+	c #8C8486",
"e+	c #878082",
"f+	c #564E52",
"g+	c #918D8F",
"h+	c #F2F1F1",
"i+	c #604946",
"j+	c #815A30",
"k+	c #8A6133",
"l+	c #624025",
"m+	c #5F3E23",
"n+	c #613C25",
"o+	c #654025",
"p+	c #644123",
"q+	c #615355",
"r+	c #8D8385",
"s+	c #938A8C",
"t+	c #766D70",
"u+	c #4F4C4F",
"v+	c #D8D6D7",
"w+	c #634B47",
"x+	c #886032",
"y+	c #9A6F37",
"z+	c #8D6534",
"A+	c #7F5930",
"B+	c #805930",
"C+	c #8E6534",
"D+	c #815A2E",
"E+	c #706263",
"F+	c #7A7477",
"G+	c #827A7C",
"H+	c #8A8284",
"I+	c #413B3F",
"J+	c #C3C2C4",
"K+	c #886033",
"L+	c #9B7038",
"M+	c #9A6F38",
"N+	c #8F6635",
"O+	c #7E582E",
"P+	c #3E2F32",
"Q+	c #655C5F",
"R+	c #7A7174",
"S+	c #7E7678",
"T+	c #6C6466",
"U+	c #C3C2C3",
"V+	c #614A46",
"W+	c #8C673B",
"X+	c #9F7640",
"Y+	c #9D733C",
"Z+	c #896237",
"`+	c #7A542E",
" @	c #54341F",
".@	c #2E262B",
"+@	c #6B6265",
"@@	c #877F81",
"#@	c #5A5357",
"$@	c #5C4745",
"%@	c #75512C",
"&@	c #A27B46",
"*@	c #A8824D",
"=@	c #A7824C",
"-@	c #9A723F",
";@	c #7B552E",
">@	c #5E3C20",
",@	c #3E2013",
"'@	c #1A1015",
")@	c #61585A",
"!@	c #8C8688",
"~@	c #514B4F",
"{@	c #AFA9AA",
"]@	c #8B5644",
"^@	c #4A3631",
"/@	c #76593C",
"(@	c #876B4B",
"_@	c #886849",
":@	c #725133",
"<@	c #553722",
"[@	c #482A1D",
"}@	c #341814",
"|@	c #331C1C",
"1@	c #584A4D",
"2@	c #685E61",
"3@	c #4D4649",
"4@	c #C5C2C3",
"5@	c #978E90",
"6@	c #995D49",
"7@	c #342529",
"8@	c #585A5A",
"9@	c #909B91",
"0@	c #8E9C90",
"a@	c #4B4C53",
"b@	c #42434B",
"c@	c #3C3C44",
"d@	c #664540",
"e@	c #CB957A",
"f@	c #B28772",
"g@	c #7A665C",
"h@	c #251D25",
"i@	c #9D9596",
"j@	c #7D4137",
"k@	c #2D1619",
"l@	c #37373F",
"m@	c #6A6C72",
"n@	c #6B7074",
"o@	c #302930",
"p@	c #261F28",
"q@	c #261E25",
"r@	c #895243",
"s@	c #F1C4A8",
"t@	c #FBDBC5",
"u@	c #D1A289",
"v@	c #726B6D",
"w@	c #E9E8E9",
"x@	c #EBE9E9",
"y@	c #817576",
"z@	c #3E2115",
"A@	c #4E2E18",
"B@	c #492D21",
"C@	c #4F2F1F",
"D@	c #4F2E18",
"E@	c #45240F",
"F@	c #3B1F15",
"G@	c #8A594F",
"H@	c #F3C6A9",
"I@	c #F6CCAF",
"J@	c #B3816A",
"K@	c #B2ACAC",
"L@	c #D5D2D2",
"M@	c #3F221B",
"N@	c #4E2D1C",
"O@	c #46271C",
"P@	c #4A2A1D",
"Q@	c #56341D",
"R@	c #5C3A1E",
"S@	c #462715",
"T@	c #6D534C",
"U@	c #9A7F71",
"V@	c #916C5F",
"W@	c #AEA5A4",
"X@	c #F8F8F8",
"Y@	c #DBDADB",
"Z@	c #453E42",
"`@	c #4A3D40",
" #	c #5A4E52",
".#	c #51464A",
"+#	c #402929",
"@#	c #49312C",
"##	c #462E2B",
"$#	c #3F2A29",
"%#	c #321A1C",
"&#	c #91898B",
"*#	c #9F9593",
"=#	c #3C0D12",
"-#	c #3A3438",
";#	c #3F373C",
">#	c #4A4144",
",#	c #695F62",
"'#	c #7A7073",
")#	c #685F61",
"!#	c #3C2D30",
"~#	c #9E9A9C",
"{#	c #A89B9B",
"]#	c #401619",
"^#	c #2A181D",
"/#	c #2A171B",
"(#	c #3A2527",
"_#	c #3B3135",
":#	c #473A3D",
"<#	c #3F3134",
"[#	c #342324",
"}#	c #A39D9F",
"|#	c #C5C1C2",
"1#	c #7F7273",
"2#	c #492A27",
"3#	c #5E3A36",
"4#	c #50302C",
"5#	c #858081",
"6#	c #847F81",
"7#	c #412A27",
"8#	c #52332F",
"9#	c #472C27",
"0#	c #7F7678",
"a#	c #EFEDEE",
"b#	c #B4AFB0",
"c#	c #543A3A",
"d#	c #50312E",
"e#	c #714644",
"f#	c #714642",
"g#	c #50302D",
"h#	c #524548",
"i#	c #55484A",
"j#	c #36221E",
"k#	c #4E302B",
"l#	c #50322D",
"m#	c #332426",
"n#	c #D6D4D5",
"o#	c #948D8F",
"p#	c #664341",
"q#	c #6B4442",
"r#	c #6B4340",
"s#	c #5E3B38",
"t#	c #3C2724",
"u#	c #3A2525",
"v#	c #563731",
"w#	c #68413D",
"x#	c #794D48",
"y#	c #51352D",
"z#	c #3C2829",
"A#	c #D1CFCF",
"B#	c #B6B1B3",
"C#	c #645A5D",
"D#	c #5C3B38",
"E#	c #875751",
"F#	c #7E504B",
"G#	c #583837",
"H#	c #2E1E1E",
"I#	c #7E7778",
"J#	c #EDECEC",
"K#	c #DDDADB",
"L#	c #73676A",
"M#	c #716668",
"N#	c #6B6366",
"O#	c #847D7F",
"P#	c #ECEAEA",
"                            . + @ # $ % & & *                         ",
"                          = - ; > , ' ) ! ~ { ] &                     ",
"                        ^ / ( _ : < [ } | 1 2 3 4 5                   ",
"                      . 6 7 8 9 0 a b c | d e f g h                   ",
"                    ^ i j k l 9 m n o 9 p | q f r s t                 ",
"                * u v w x y z A B C D E F G H q I J K                 ",
"                  L M N O P Q R S T P U V W X V Y Z `                 ",
"                  *  ...P +.@.#.$.o %.&.*.8 =.X -.;.>.                ",
"                    ,.'.).!.~.{.].^./.V (._.:.<.[.}.                  ",
"                    |.1.2.3.4.5.6.7.8.9.0.a.b.c.d.e.                  ",
"                      f.g.h.h.i.j.k.l.m.n.o.p.q.r.s.                  ",
"                      t.u.v.w.x.y.z.A.B.C.D.E.F.G.                    ",
"                      H.I.J.K.L.M.N.O.P.Q.R.S.T.U.                    ",
"                      V.W.X.Y.Z.`. +.+++@+#+$+%+&+                    ",
"                      *+=+-+;+>+,+h.'+)+!+~+{+]+                      ",
"                        ^+/+(+_+:+:+<+[+}+|+1+2+3+                    ",
"                      4+5+6+7+8+9+0+a+b+c+d+e+f+g+                    ",
"                      h+i+j+k+l+m+n+o+p+q+r+s+t+u+v+                  ",
"                      h+w+x+y+z+A+B+C+D+E+F+G+H+I+J+                  ",
"                      V.w+K+L+M+y+y+N+O+P+Q+R+S+T+U+                  ",
"                      V.V+W+X+Y+Y+X+Z+`+ @.@+@@@#@U+                  ",
"                      H.$@%@&@*@=@-@;@>@,@'@)@!@~@U+                  ",
"                      {@]@^@/@(@_@:@<@[@}@|@1@2@3@4@                  ",
"                      5@6@7@8@9@0@a@b@c@d@e@f@g@h@U+                  ",
"                      i@j@k@l@m@n@o@p@q@r@s@t@u@v@w@                  ",
"                      x@y@z@A@B@C@D@E@F@G@H@I@J@K@                    ",
"                        L@M@N@O@P@Q@R@S@T@U@V@W@X@                    ",
"                        Y@Z@`@ #.#+#@###$#%#&#*+                      ",
"                        * *#=#-#;#>#,#'#)#!#~#                        ",
"                          {#]#^#/#(#_#:#<#[#}#                        ",
"                      |.|#1#2#3#4#5#6#7#8#9#0#a#                      ",
"                      b#c#d#e#f#g#h#i#j#k#l#m#n#                      ",
"                      o#p#q#r#s#t#u#v#w#x#y#z#n#                      ",
"                      A#$ $ $ B#C#D#E#F#G#H#I#J#                      ",
"                                K#t+L#M#N#O#P#                        "};
