/* XPM */
static char * plrR2_xpm[] = {
"35 35 443 2",
"  	c #FFFFFF",
". 	c #F9F9F9",
"+ 	c #F7F7F7",
"@ 	c #DFDCDB",
"# 	c #9D9798",
"$ 	c #A19593",
"% 	c #7F6869",
"& 	c #948686",
"* 	c #F1F0F1",
"= 	c #F8F7F7",
"- 	c #DCDBDB",
"; 	c #83797B",
"> 	c #645456",
", 	c #665456",
"' 	c #604341",
") 	c #520E13",
"! 	c #560F13",
"~ 	c #811E20",
"{ 	c #60181B",
"] 	c #8D8586",
"^ 	c #F2F1F1",
"/ 	c #D2CCCC",
"( 	c #A19394",
"_ 	c #401C1F",
": 	c #3B0B0F",
"< 	c #560F14",
"[ 	c #6E181B",
"} 	c #821E20",
"| 	c #872022",
"1 	c #8D2223",
"2 	c #912324",
"3 	c #771A1D",
"4 	c #440D10",
"5 	c #8E8485",
"6 	c #CAC6C7",
"7 	c #4B2F31",
"8 	c #4E0C11",
"9 	c #591014",
"0 	c #601216",
"a 	c #73191C",
"b 	c #972526",
"c 	c #922425",
"d 	c #9B2728",
"e 	c #9D2728",
"f 	c #982627",
"g 	c #791B1D",
"h 	c #461013",
"i 	c #8D8485",
"j 	c #EBEAEB",
"k 	c #817476",
"l 	c #480F12",
"m 	c #5D1216",
"n 	c #7D1C1F",
"o 	c #651418",
"p 	c #912325",
"q 	c #962526",
"r 	c #801D1F",
"s 	c #942425",
"t 	c #952525",
"u 	c #8B2123",
"v 	c #461115",
"w 	c #CDC5C4",
"x 	c #3B0D11",
"y 	c #661418",
"z 	c #771A1E",
"A 	c #6D171A",
"B 	c #922325",
"C 	c #9A2627",
"D 	c #71191B",
"E 	c #6B161A",
"F 	c #811E21",
"G 	c #4A1014",
"H 	c #7C7173",
"I 	c #C0BBBC",
"J 	c #C9C5C6",
"K 	c #450E12",
"L 	c #671519",
"M 	c #611317",
"N 	c #6F181B",
"O 	c #671518",
"P 	c #8A2122",
"Q 	c #6A1619",
"R 	c #621317",
"S 	c #761A1D",
"T 	c #7B1C1E",
"U 	c #540E13",
"V 	c #8A2123",
"W 	c #390A0E",
"X 	c #72686A",
"Y 	c #E8E6E7",
"Z 	c #E2E1E1",
"` 	c #6A5859",
" .	c #841E21",
"..	c #851F21",
"+.	c #60181A",
"@.	c #825B50",
"#.	c #65433C",
"$.	c #6B4740",
"%.	c #441417",
"&.	c #D5D3D3",
"*.	c #978B88",
"=.	c #7A1B1E",
"-.	c #8C2123",
";.	c #510E12",
">.	c #771B1D",
",.	c #71181B",
"'.	c #8C2223",
").	c #551718",
"!.	c #967465",
"~.	c #DFB89E",
"{.	c #9D7C6B",
"].	c #DAB49B",
"^.	c #512A28",
"/.	c #523335",
"(.	c #DEDBDB",
"_.	c #948C8E",
":.	c #932426",
"<.	c #430B0F",
"[.	c #621417",
"}.	c #771A1C",
"|.	c #74191C",
"1.	c #5E3F38",
"2.	c #EFC7AB",
"3.	c #FCD4B6",
"4.	c #F7CFB1",
"5.	c #F5CEB1",
"6.	c #8B6B5E",
"7.	c #A49997",
"8.	c #FDFDFD",
"9.	c #D6D3D4",
"0.	c #6A3A3B",
"a.	c #462724",
"b.	c #91695C",
"c.	c #451513",
"d.	c #3D0A0E",
"e.	c #561E1D",
"f.	c #B79280",
"g.	c #F3D5C2",
"h.	c #F9D3B9",
"i.	c #FDD5B7",
"j.	c #FDD6B8",
"k.	c #D3AB92",
"l.	c #A9A1A2",
"m.	c #F3F2F3",
"n.	c #5D4547",
"o.	c #72493B",
"p.	c #C19B85",
"q.	c #B0816A",
"r.	c #5F392A",
"s.	c #AC7C63",
"t.	c #B4A197",
"u.	c #916D6A",
"v.	c #B67F6A",
"w.	c #F7CFB2",
"x.	c #F8D0B3",
"y.	c #B08771",
"z.	c #C5C0C0",
"A.	c #FAFAFA",
"B.	c #A9A3A4",
"C.	c #402528",
"D.	c #9D5D4B",
"E.	c #E6B195",
"F.	c #EEB999",
"G.	c #C48F73",
"H.	c #F4C9AB",
"I.	c #C5D9DA",
"J.	c #84A1A8",
"K.	c #57636F",
"L.	c #EFCAB0",
"M.	c #F0CAAE",
"N.	c #827677",
"O.	c #F8F8F8",
"P.	c #DFDDDE",
"Q.	c #756162",
"R.	c #9D5145",
"S.	c #D78F6E",
"T.	c #ECAF89",
"U.	c #F7C7A6",
"V.	c #FADECA",
"W.	c #B9B7B6",
"X.	c #7C7676",
"Y.	c #F1CDB2",
"Z.	c #EEC4A7",
"`.	c #827576",
" +	c #FBFAFB",
".+	c #FEFEFE",
"++	c #D0CDCD",
"@+	c #4D4041",
"#+	c #703A2F",
"$+	c #D18766",
"%+	c #F3BD9A",
"&+	c #FAD4B7",
"*+	c #F7D1B5",
"=+	c #F4C6A8",
"-+	c #B78671",
";+	c #B4AEAC",
">+	c #FDFDFC",
",+	c #CFCDCE",
"'+	c #575053",
")+	c #625457",
"!+	c #4C3536",
"~+	c #8B473C",
"{+	c #CF8667",
"]+	c #ECB696",
"^+	c #F1C3A7",
"/+	c #F1C2A6",
"(+	c #E3A888",
"_+	c #9A624F",
":+	c #4C3637",
"<+	c #E7E5E5",
"[+	c #F3F3F3",
"}+	c #544F53",
"|+	c #6E6668",
"1+	c #888083",
"2+	c #837D7E",
"3+	c #442B2D",
"4+	c #79342D",
"5+	c #813B34",
"6+	c #833F36",
"7+	c #833E35",
"8+	c #7C3830",
"9+	c #653E24",
"0+	c #563724",
"a+	c #BCB7B7",
"b+	c #AFADAF",
"c+	c #464046",
"d+	c #847C7C",
"e+	c #918889",
"f+	c #857E81",
"g+	c #564143",
"h+	c #6E4A28",
"i+	c #644124",
"j+	c #613F25",
"k+	c #623F24",
"l+	c #684527",
"m+	c #906635",
"n+	c #7A542C",
"o+	c #796969",
"p+	c #FBFAFA",
"q+	c #8D8B8D",
"r+	c #5D5559",
"s+	c #868082",
"t+	c #857D7F",
"u+	c #80787A",
"v+	c #5E4C4C",
"w+	c #8E6533",
"x+	c #8A6233",
"y+	c #815930",
"z+	c #815A30",
"A+	c #916836",
"B+	c #9A6F37",
"C+	c #80592F",
"D+	c #796A6A",
"E+	c #8E8B8E",
"F+	c #7E7879",
"G+	c #847A7C",
"H+	c #6F6669",
"I+	c #5E5659",
"J+	c #422B25",
"K+	c #886032",
"L+	c #916835",
"M+	c #70686C",
"N+	c #5D5255",
"O+	c #281B1F",
"P+	c #634124",
"Q+	c #7B552E",
"R+	c #90693B",
"S+	c #9E753E",
"T+	c #9D743D",
"U+	c #9E743D",
"V+	c #A17842",
"W+	c #835F36",
"X+	c #786969",
"Y+	c #6A6367",
"Z+	c #898284",
"`+	c #4F4446",
" @	c #1C0B0E",
".@	c #472714",
"+@	c #654223",
"@@	c #805A30",
"#@	c #A07944",
"$@	c #A7824C",
"%@	c #9D7644",
"&@	c #69482A",
"*@	c #776869",
"=@	c #5D5558",
"-@	c #6C6265",
";@	c #473638",
">@	c #301918",
",@	c #381B18",
"'@	c #4F311E",
")@	c #593A23",
"!@	c #745436",
"~@	c #8E6E47",
"{@	c #85684A",
"]@	c #70563F",
"^@	c #4B322A",
"/@	c #8D5D4E",
"(@	c #C0BBBB",
"_@	c #3D2E31",
":@	c #866A5E",
"<@	c #C5937B",
"[@	c #B9876F",
"}@	c #513536",
"|@	c #3E3F47",
"1@	c #41464F",
"2@	c #5B5F61",
"3@	c #8F9B91",
"4@	c #8E9D95",
"5@	c #4B4B4D",
"6@	c #3B2224",
"7@	c #995D4A",
"8@	c #ACA5A7",
"9@	c #D0CECF",
"0@	c #68514F",
"a@	c #E9C0A9",
"b@	c #FCD8BE",
"c@	c #E3B096",
"d@	c #683B34",
"e@	c #261F26",
"f@	c #3A3A40",
"g@	c #6C6C73",
"h@	c #6C6F75",
"i@	c #2C272F",
"j@	c #37191B",
"k@	c #7E4737",
"l@	c #B1ABAC",
"m@	c #F7F6F6",
"n@	c #918281",
"o@	c #CF9B80",
"p@	c #FAD1B4",
"q@	c #E4B298",
"r@	c #68413B",
"s@	c #3E2010",
"t@	c #462511",
"u@	c #502F17",
"v@	c #492C1F",
"w@	c #4E2E21",
"x@	c #492B18",
"y@	c #402318",
"z@	c #918788",
"A@	c #F2F0F0",
"B@	c #EDEBEB",
"C@	c #998783",
"D@	c #99796A",
"E@	c #9B8173",
"F@	c #5B3F3A",
"G@	c #502F19",
"H@	c #5C391F",
"I@	c #54331D",
"J@	c #47261D",
"K@	c #4A2C1C",
"L@	c #4E2D1C",
"M@	c #452A28",
"N@	c #E5E2E3",
"O@	c #EBEAEA",
"P@	c #655A5C",
"Q@	c #331A1B",
"R@	c #412B29",
"S@	c #462F2A",
"T@	c #442D26",
"U@	c #412C2B",
"V@	c #564B4E",
"W@	c #544A4D",
"X@	c #47393D",
"Y@	c #4F484C",
"Z@	c #E9E7E8",
"`@	c #6B6769",
" #	c #423537",
".#	c #746B6E",
"+#	c #766B6D",
"@#	c #63595C",
"##	c #4B4143",
"$#	c #463E43",
"%#	c #342B30",
"&#	c #390C11",
"*#	c #B8B2B3",
"=#	c #736B6E",
"-#	c #392627",
";#	c #46393C",
">#	c #47393C",
",#	c #3D3034",
"'#	c #321718",
")#	c #28161B",
"!#	c #29181D",
"~#	c #421518",
"{#	c #C3B9BA",
"]#	c #DFDDDD",
"^#	c #5F5356",
"/#	c #4B2F2B",
"(#	c #50322D",
"_#	c #381F21",
":#	c #9D9092",
"<#	c #665254",
"[#	c #52322D",
"}#	c #5B3935",
"|#	c #442423",
"1#	c #958D8E",
"2#	c #D2CFCF",
"3#	c #ABA6A8",
"4#	c #35211F",
"5#	c #56342E",
"6#	c #482C27",
"7#	c #2B1A1D",
"8#	c #625659",
"9#	c #46373A",
"0#	c #56352D",
"a#	c #754A45",
"b#	c #67413D",
"c#	c #4D302D",
"d#	c #5B4546",
"e#	c #C8C5C6",
"f#	c #AAA5A7",
"g#	c #3E2723",
"h#	c #603C37",
"i#	c #784C47",
"j#	c #5D3B36",
"k#	c #492E2E",
"l#	c #2F1D22",
"m#	c #442929",
"n#	c #67403D",
"o#	c #714845",
"p#	c #744A45",
"q#	c #5B3A39",
"r#	c #ABA5A7",
"s#	c #D5D2D2",
"t#	c #534C4E",
"u#	c #3A2422",
"v#	c #82544D",
"w#	c #875451",
"x#	c #4C3030",
"y#	c #72686B",
"z#	c #ACA8A9",
"A#	c #ACA7A9",
"B#	c #ACA6A8",
"C#	c #D6D3D3",
"D#	c #D4D1D1",
"E#	c #625A5D",
"F#	c #5E5356",
"G#	c #68575A",
"H#	c #68585B",
"I#	c #796F71",
"J#	c #E6E4E4",
"                          . + + @ # $ % & *                           ",
"                      = - ; > , ' ) ! ~ { ] ^                         ",
"                    / ( _ : < [ } | 1 2 3 4 5 ^                       ",
"                    6 7 8 9 0 a b c d e f g h i *                     ",
"                  j k l m n o p q r s q t q u v i ^                   ",
"                  w x y z A u B b C D D ~ E c F G H I                 ",
"                  J K L M N A O P Q R S T U S V W X Y                 ",
"                  Z ` 0 a o  . .a ..S +.@.#.$.[ %.&.                  ",
"                    *.=.-.;.T >.,.'.).!.~.{.].^./.(.                  ",
"                    _.S :.<.[.}.o |.1.2.3.4.5.6.7.8.                  ",
"                    9.0.E a.b.c.d.e.f.g.h.i.j.k.l.                    ",
"                    m.n.<.o.p.q.r.s.t.u.v.w.x.y.z.                    ",
"                    A.B.C.D.E.F.G.H.I.J.K.L.M.N.A.                    ",
"                      O.P.Q.R.S.T.U.V.W.X.Y.Z.`. +                    ",
"                      .+++@+#+$+%+3.i.&+*+=+-+;+>+                    ",
"                    8.,+'+)+!+~+{+]+^+/+(+_+:+<+                      ",
"                    [+}+|+1+2+3+4+5+6+7+8+9+0+a+8.                    ",
"                    b+c+d+e+f+g+h+i+j+k+l+m+n+o+p+                    ",
"                    q+r+s+t+u+v+w+x+y+z+A+B+C+D+ +                    ",
"                    E+F+G+H+I+J+K+L+B+B+B+B+z+D+ +                    ",
"                    q+M+t+N+O+P+Q+R+S+T+U+V+W+X+p+                    ",
"                    q+Y+Z+`+ @.@+@@@#@$@$@%@&@*@.                     ",
"                    q+=@-@;@>@,@'@)@!@~@{@]@^@/@(@                    ",
"                    q+_@:@<@[@}@|@1@2@3@4@5@6@7@8@                    ",
"                    9@0@a@b@c@d@e@e@f@g@h@i@j@k@l@                    ",
"                    m@n@o@p@q@r@s@t@u@v@w@x@y@z@A@                    ",
"                      B@C@D@E@F@G@H@I@J@K@L@M@N@                      ",
"                        O@P@Q@R@S@T@U@V@W@X@Y@Z@                      ",
"                        p+`@ #.#+#@###$#%#&#*#.+                      ",
"                         +=#-#;#>#,#'#)#!#~#{#                        ",
"                        ]#^#/#(#_#:#<#[#}#|#1#2#8.                    ",
"                        3#4#5#6#7#8#9#0#a#b#c#d#e#                    ",
"                        f#g#h#i#j#k#l#m#n#o#p#q#r#                    ",
"                        s#t#u#b#v#w#x#y#z#A#A#B#C#                    ",
"                        .+D#E#F#G#H#I#J#                              "};
