/* XPM */
static char * plrR_xpm[] = {
"35 35 467 2",
"  	c #FFFFFF",
". 	c #F7F6F6",
"+ 	c #ECEBEB",
"@ 	c #E9E8E8",
"# 	c #BCB5B5",
"$ 	c #E2DFDF",
"% 	c #FEFEFE",
"& 	c #FAF9F9",
"* 	c #D0CCCD",
"= 	c #C8C4C5",
"- 	c #C7C4C4",
"; 	c #A59E9E",
"> 	c #6D5D5E",
", 	c #6B5859",
"' 	c #723839",
") 	c #816E6F",
"! 	c #DEDBDB",
"~ 	c #DBD8D8",
"{ 	c #999090",
"] 	c #553C3D",
"^ 	c #512729",
"/ 	c #5F292C",
"( 	c #662224",
"_ 	c #6A171A",
": 	c #771A1C",
"< 	c #8B2123",
"[ 	c #5E1A1D",
"} 	c #786D6E",
"| 	c #E1DFDF",
"1 	c #FBFAFA",
"2 	c #B8B1B2",
"3 	c #6D5758",
"4 	c #3D0002",
"5 	c #43080D",
"6 	c #5C1115",
"7 	c #73191C",
"8 	c #902324",
"9 	c #942425",
"0 	c #962526",
"a 	c #811E20",
"b 	c #550C10",
"c 	c #796D6E",
"d 	c #F9F8F8",
"e 	c #B0A8A9",
"f 	c #482223",
"g 	c #530E13",
"h 	c #71191C",
"i 	c #631417",
"j 	c #882022",
"k 	c #982627",
"l 	c #801D1F",
"m 	c #9A2727",
"n 	c #9F2929",
"o 	c #5E1B1D",
"p 	c #786E6E",
"q 	c #E1DEDE",
"r 	c #CFCBCB",
"s 	c #583F40",
"t 	c #5A1114",
"u 	c #72191C",
"v 	c #761A1D",
"w 	c #7E1D1F",
"x 	c #982626",
"y 	c #952526",
"z 	c #8D2224",
"A 	c #892122",
"B 	c #8D2223",
"C 	c #862021",
"D 	c #8E2224",
"E 	c #5B1114",
"F 	c #7C6D6E",
"G 	c #D7D4D4",
"H 	c #F3F2F2",
"I 	c #C0BBBB",
"J 	c #491719",
"K 	c #6D171A",
"L 	c #6A1619",
"M 	c #72181B",
"N 	c #7D1C1F",
"O 	c #932425",
"P 	c #5B1115",
"Q 	c #7C1D1F",
"R 	c #7C1C1F",
"S 	c #912425",
"T 	c #821E20",
"U 	c #430F13",
"V 	c #6D6263",
"W 	c #D8D6D6",
"X 	c #C5C0C1",
"Y 	c #532B2D",
"Z 	c #5F1217",
"` 	c #74191C",
" .	c #751A1C",
"..	c #761A1C",
"+.	c #6E171B",
"@.	c #7A1C1E",
"#.	c #692C29",
"$.	c #512321",
"%.	c #6C1D1E",
"&.	c #42292B",
"*.	c #C0BCBC",
"=.	c #FBFBFB",
"-.	c #ECEAEB",
";.	c #7C6F70",
">.	c #70181B",
",.	c #791B1D",
"'.	c #601316",
").	c #791B1E",
"!.	c #71191B",
"~.	c #621417",
"{.	c #795148",
"].	c #AD8977",
"^.	c #927163",
"/.	c #8D695B",
"(.	c #5C1417",
"_.	c #55393B",
":.	c #E8E7E7",
"<.	c #887D7E",
"[.	c #821F21",
"}.	c #470B10",
"|.	c #781B1D",
"1.	c #71181B",
"2.	c #7B1C1E",
"3.	c #69463E",
"4.	c #D7B199",
"5.	c #E9C2A6",
"6.	c #D8B199",
"7.	c #DDB79D",
"8.	c #4F302C",
"9.	c #978E8E",
"0.	c #F4F3F3",
"a.	c #A09898",
"b.	c #762425",
"c.	c #7A1B1E",
"d.	c #431C1B",
"e.	c #6E332E",
"f.	c #571114",
"g.	c #591014",
"h.	c #5A191A",
"i.	c #9D8275",
"j.	c #F7D6BE",
"k.	c #FED6BA",
"l.	c #FED6B7",
"m.	c #F5CDB0",
"n.	c #A58473",
"o.	c #CECACA",
"p.	c #E3E0E0",
"q.	c #643B3B",
"r.	c #500B10",
"s.	c #66483F",
"t.	c #9C7767",
"u.	c #764738",
"v.	c #491C1B",
"w.	c #8B5946",
"x.	c #CA9F89",
"y.	c #D5AB9C",
"z.	c #EEBEA0",
"A.	c #FCD4B7",
"B.	c #FAD0B2",
"C.	c #B8907A",
"D.	c #EDEBEB",
"E.	c #6C5C5D",
"F.	c #390405",
"G.	c #A26C59",
"H.	c #DAAE93",
"I.	c #D3A082",
"J.	c #99715F",
"K.	c #D6A88C",
"L.	c #A1B9BB",
"M.	c #70757A",
"N.	c #9A796E",
"O.	c #F5CFB2",
"P.	c #E9C3A8",
"Q.	c #A18D89",
"R.	c #FCFCFC",
"S.	c #D4D0D0",
"T.	c #8F8686",
"U.	c #8E594F",
"V.	c #CE8F78",
"W.	c #E3A481",
"X.	c #E3A986",
"Y.	c #F6CDB1",
"Z.	c #E5E2DB",
"`.	c #8F9698",
" +	c #7C7D81",
".+	c #F4CFB3",
"++	c #E1BEA5",
"@+	c #A29B9C",
"#+	c #E4E1E2",
"$+	c #625354",
"%+	c #945141",
"&+	c #DB9774",
"*+	c #F0BB99",
"=+	c #FAD0B1",
"-+	c #FAD7BE",
";+	c #D4BBAA",
">+	c #CAAF9C",
",+	c #F5CCB0",
"'+	c #D0A48A",
")+	c #ABA5A5",
"!+	c #FAFAFA",
"~+	c #EBEAEA",
"{+	c #948D8E",
"]+	c #4A3839",
"^+	c #6B3A32",
"/+	c #BD755B",
"(+	c #EAAF8C",
"_+	c #FBD0B1",
":+	c #FDD5B7",
"<+	c #FDD4B6",
"[+	c #F3C3A4",
"}+	c #C99780",
"|+	c #A9948F",
"1+	c #E7E5E6",
"2+	c #F0EFEF",
"3+	c #8F8C8E",
"4+	c #5E595D",
"5+	c #81787B",
"6+	c #605355",
"7+	c #763F37",
"8+	c #B46B54",
"9+	c #C78871",
"0+	c #C98E7A",
"a+	c #C98D78",
"b+	c #B16D58",
"c+	c #693D31",
"d+	c #9A8F8E",
"e+	c #F1EFEF",
"f+	c #BDBABB",
"g+	c #5A5356",
"h+	c #837B7F",
"i+	c #948B8E",
"j+	c #7E7579",
"k+	c #4A3332",
"l+	c #5E2F21",
"m+	c #5E2B20",
"n+	c #5E2A1F",
"o+	c #613623",
"p+	c #7B552C",
"q+	c #634330",
"r+	c #B2ABAB",
"s+	c #F6F6F6",
"t+	c #858384",
"u+	c #5F5659",
"v+	c #8C8487",
"w+	c #877E81",
"x+	c #71676A",
"y+	c #4B2F26",
"z+	c #865E31",
"A+	c #78522D",
"B+	c #734E2C",
"C+	c #744F2C",
"D+	c #855E32",
"E+	c #966C36",
"F+	c #75502E",
"G+	c #9F9797",
"H+	c #F6F5F6",
"I+	c #807E80",
"J+	c #6E6669",
"K+	c #827A7D",
"L+	c #817A7D",
"M+	c #44373A",
"N+	c #4A2B1A",
"O+	c #906734",
"P+	c #906735",
"Q+	c #8F6635",
"R+	c #996E37",
"S+	c #986D37",
"T+	c #76512E",
"U+	c #817E80",
"V+	c #71686A",
"W+	c #8A8084",
"X+	c #71696D",
"Y+	c #2B1618",
"Z+	c #634123",
"`+	c #825B30",
" @	c #956D3B",
".@	c #9B7039",
"+@	c #9A6F37",
"@@	c #9B723C",
"#@	c #785430",
"$@	c #F7F7F7",
"%@	c #8C8A8C",
"&@	c #5B5356",
"*@	c #867E81",
"=@	c #7A7175",
"-@	c #3B2C2E",
";@	c #5F3E23",
">@	c #734F2C",
",@	c #926B3B",
"'@	c #A27A44",
")@	c #A47C46",
"!@	c #A37C45",
"~@	c #9F7945",
"{@	c #6A492D",
"]@	c #9E9697",
"^@	c #D7D4D5",
"/@	c #4D474B",
"(@	c #6C6467",
"_@	c #8A8184",
":@	c #584A4C",
"<@	c #4E2622",
"[@	c #523423",
"}@	c #6B492B",
"|@	c #906A3B",
"1@	c #9A7544",
"2@	c #987342",
"3@	c #83603B",
"4@	c #5C4135",
"5@	c #B7B1B1",
"6@	c #F5F4F4",
"7@	c #959193",
"8@	c #5B5254",
"9@	c #70686B",
"0@	c #7E6E6D",
"a@	c #AC7460",
"b@	c #A37461",
"c@	c #8F6150",
"d@	c #6D5647",
"e@	c #898573",
"f@	c #858171",
"g@	c #554746",
"h@	c #645757",
"i@	c #CAC9CA",
"j@	c #30282E",
"k@	c #453D41",
"l@	c #9B8074",
"m@	c #EDC4AA",
"n@	c #F6D6C2",
"o@	c #E8BAA1",
"p@	c #8E5D50",
"q@	c #636464",
"r@	c #7B8C8B",
"s@	c #36343A",
"t@	c #625556",
"u@	c #EFEEEE",
"v@	c #392F34",
"w@	c #2E1E21",
"x@	c #6E4B42",
"y@	c #D8AA8F",
"z@	c #FBD8C0",
"A@	c #F8CDB0",
"B@	c #B37C64",
"C@	c #4A3A3E",
"D@	c #5A4C4C",
"E@	c #3F2823",
"F@	c #645555",
"G@	c #463E40",
"H@	c #422925",
"I@	c #5A3B26",
"J@	c #7F5645",
"K@	c #CDA087",
"L@	c #D4A386",
"M@	c #915847",
"N@	c #351819",
"O@	c #4E2F22",
"P@	c #462B25",
"Q@	c #5C4E4F",
"R@	c #DFDEDE",
"S@	c #31282D",
"T@	c #4D3C3C",
"U@	c #4F3020",
"V@	c #533323",
"W@	c #52362F",
"X@	c #53362F",
"Y@	c #442828",
"Z@	c #3E2A2D",
"`@	c #514242",
" #	c #453B3E",
".#	c #352C30",
"+#	c #A29EA0",
"@#	c #FDFCFC",
"##	c #C1BCBD",
"$#	c #381F22",
"%#	c #5C5054",
"&#	c #5A4D4F",
"*#	c #554648",
"=#	c #48383A",
"-#	c #433436",
";#	c #4A3D40",
">#	c #4B4246",
",#	c #574D50",
"'#	c #452B2E",
")#	c #37171A",
"!#	c #928C8D",
"~#	c #F4F4F4",
"{#	c #FDFDFD",
"]#	c #D0CDCE",
"^#	c #685D5F",
"/#	c #471619",
"(#	c #362023",
"_#	c #3D2C30",
":#	c #463D40",
"<#	c #3F373B",
"[#	c #383135",
"}#	c #3E373A",
"|#	c #564F53",
"1#	c #3B272A",
"2#	c #44171A",
"3#	c #361A1A",
"4#	c #4F4445",
"5#	c #AEAAAB",
"6#	c #CBC8C9",
"7#	c #EAE8E9",
"8#	c #D8D6D7",
"9#	c #665D5F",
"0#	c #382523",
"a#	c #34201E",
"b#	c #301819",
"c#	c #483134",
"d#	c #928F91",
"e#	c #A8A5A6",
"f#	c #A8A7A8",
"g#	c #D1CFD0",
"h#	c #A69B9B",
"i#	c #362427",
"j#	c #271918",
"k#	c #291B19",
"l#	c #4B3534",
"m#	c #604645",
"n#	c #8B8384",
"o#	c #BFBCBD",
"p#	c #332425",
"q#	c #563632",
"r#	c #563633",
"s#	c #362423",
"t#	c #766E70",
"u#	c #3C2E31",
"v#	c #271A18",
"w#	c #2C1D1A",
"x#	c #5C3A36",
"y#	c #5A3934",
"z#	c #6C6264",
"A#	c #E9E7E8",
"B#	c #635C5D",
"C#	c #7B4F46",
"D#	c #6B443F",
"E#	c #624544",
"F#	c #625759",
"G#	c #C9C6C7",
"H#	c #DBD9D9",
"I#	c #3D3336",
"J#	c #241916",
"K#	c #33211F",
"L#	c #4B3434",
"M#	c #695F61",
"N#	c #D3D0D1",
"O#	c #685E5F",
"P#	c #573632",
"Q#	c #794D47",
"R#	c #794E48",
"S#	c #533938",
"T#	c #ABA7A8",
"U#	c #F1F0F1",
"V#	c #A09C9D",
"W#	c #696263",
"X#	c #6C6466",
"Y#	c #AFABAC",
"Z#	c #DAD8D8",
"`#	c #D3D1D3",
" $	c #938C8E",
".$	c #938A8B",
"+$	c #A19A9C",
"@$	c #FFFEFE",
"#$	c #F5F5F5",
"$$	c #EDECEC",
"%$	c #F9F9F9",
"                                      . + @ # $ %                     ",
"                              & * = - ; > , ' ) ! %                   ",
"                        % . ~ { ] ^ / ( _ : < [ } | %                 ",
"                        1 2 3 4 5 6 7 8 9 0 0 a b c ! %               ",
"                        d e f g h i j k l m n m j o p q %             ",
"                      % r s t u v w x y z A B C D 8 E F G H           ",
"                      % I J K L M a N O a P Q R i S T U V W %         ",
"                      % X Y Z L L `  .w ..+.@.#.$.%...&.*.=.          ",
"                        -.;.>.,.'.j ).!.< ~.{.].^./.(._.:.            ",
"                        . <.[.D }.|.1.2.@.3.4.5.6.7.8.9.0.            ",
"                        d a.b.c.d.e.f.g.h.i.j.k.l.m.n.o.              ",
"                          p.q.r.s.t.u.v.w.x.y.z.A.B.C.*               ",
"                          D.E.F.G.H.I.J.K.L.M.N.O.P.Q.-.              ",
"                          R.S.T.U.V.W.X.Y.Z.`. +.+++@+&               ",
"                            % #+$+%+&+*+=+-+;+>+,+'+)+!+              ",
"                            ~+{+]+^+/+(+_+:+<+[+}+|+1+%               ",
"                          2+3+4+5+6+7+8+9+0+a+b+c+d+e+                ",
"                        R.f+g+h+i+j+k+l+m+n+n+o+p+q+r+=.              ",
"                        s+t+u+v+w+x+y+z+A+B+C+D+E+F+G+&               ",
"                        H+I+J+K+L+M+N+O+P+Q+P+R+S+T+G+&               ",
"                        H+U+V+W+X+Y+Z+`+ @.@+@+@@@#@G+&               ",
"                        $@%@&@*@=@-@;@>@,@'@)@!@~@{@]@&               ",
"                        % ^@/@(@_@:@<@[@}@|@1@2@3@4@5@=.              ",
"                          6@7@8@9@0@a@b@c@d@e@f@g@h@D.                ",
"                            i@j@k@l@m@n@o@p@q@r@s@t@u@                ",
"                            i@v@w@x@y@z@A@B@C@D@E@F@u@                ",
"                            i@G@H@I@J@K@L@M@N@O@P@Q@R@%               ",
"                            i@S@T@U@V@W@X@Y@Z@`@ #.#+#!+              ",
"                          @###$#%#&#*#=#-#;#>#,#'#)#!#~#              ",
"                        {#]#^#/#(#_#:#<#[#}#|#1#2#3#4#5#6#7#          ",
"                      % 8#9#0#a#b#c#d#e#e#f#g#h#i#j#k#l#m#n#u@        ",
"                      % o#p#q#r#s#t#]#R.      ~ u#v#w#x#y#z#A#        ",
"                      % 8#B#r#C#D#E#F#G#@#    H#I#J#K#L#M#N#@#        ",
"                        {#]#O#P#Q#R#S#T#1     U#V#W#X#Y#Z#@#          ",
"                          @#`# $.$.$+$+ @$      #$$$$$%$              "};
