/* XPM */
static char * plrU_xpm[] = {
"35 35 540 2",
"  	c #FFFFFF",
". 	c #FDFDFD",
"+ 	c #EEEDED",
"@ 	c #EDEBEC",
"# 	c #E0DBDB",
"$ 	c #998B8C",
"% 	c #A28687",
"& 	c #B0A5A6",
"* 	c #EAE7E7",
"= 	c #ECEBEB",
"- 	c #F5F4F4",
"; 	c #EEECEC",
"> 	c #C1BCBD",
", 	c #756B6D",
"' 	c #6A5B5D",
") 	c #745253",
"! 	c #5B0D12",
"~ 	c #7A1517",
"{ 	c #712F30",
"] 	c #815B5C",
"^ 	c #775D5F",
"/ 	c #A09596",
"( 	c #CFCBCC",
"_ 	c #FAF9F9",
": 	c #FBFBFB",
"< 	c #84797B",
"[ 	c #4D272A",
"} 	c #501215",
"| 	c #3A080C",
"1 	c #570F14",
"2 	c #801D1F",
"3 	c #982526",
"4 	c #821E20",
"5 	c #882022",
"6 	c #872022",
"7 	c #6D2123",
"8 	c #644041",
"9 	c #BDB7B8",
"0 	c #F9F8F8",
"a 	c #D0CDCD",
"b 	c #412D2F",
"c 	c #510C11",
"d 	c #781B1D",
"e 	c #831F20",
"f 	c #811E20",
"g 	c #841F20",
"h 	c #952525",
"i 	c #902324",
"j 	c #952526",
"k 	c #73191C",
"l 	c #631317",
"m 	c #5D4142",
"n 	c #D7D4D5",
"o 	c #F9F9F9",
"p 	c #B9B2B3",
"q 	c #542729",
"r 	c #7B1B1D",
"s 	c #8A2122",
"t 	c #8E2224",
"u 	c #972526",
"v 	c #8E2223",
"w 	c #8E2323",
"x 	c #9B2728",
"y 	c #932425",
"z 	c #611316",
"A 	c #7C1C1E",
"B 	c #871F21",
"C 	c #611619",
"D 	c #988D8E",
"E 	c #F1F0F0",
"F 	c #FEFEFE",
"G 	c #D0CCCC",
"H 	c #5F4041",
"I 	c #6F181B",
"J 	c #71191B",
"K 	c #5B1115",
"L 	c #7D1C1F",
"M 	c #872021",
"N 	c #8C2223",
"O 	c #9D2728",
"P 	c #8D2223",
"Q 	c #761A1D",
"R 	c #6F181A",
"S 	c #70171A",
"T 	c #501B1E",
"U 	c #9E9394",
"V 	c #EFEEEE",
"W 	c #F2F1F1",
"X 	c #998C8D",
"Y 	c #561418",
"Z 	c #5B1215",
"` 	c #470B10",
" .	c #5C1216",
"..	c #661518",
"+.	c #530E13",
"@.	c #651518",
"#.	c #962526",
"$.	c #5A1015",
"%.	c #7B1C1E",
"&.	c #5E1216",
"*.	c #450A0F",
"=.	c #5C1115",
"-.	c #4E0D11",
";.	c #60292C",
">.	c #9D9494",
",.	c #E4E3E3",
"'.	c #5C4648",
").	c #3C080D",
"!.	c #3A070C",
"~.	c #490B10",
"{.	c #520E12",
"].	c #3B070D",
"^.	c #460A0F",
"/.	c #6D171A",
"(.	c #892122",
"_.	c #4D0D11",
":.	c #4C0D12",
"<.	c #651418",
"[.	c #440A0F",
"}.	c #310509",
"|.	c #37070C",
"1.	c #4A0B0F",
"2.	c #4B2A2C",
"3.	c #E2DFE0",
"4.	c #ACA5A6",
"5.	c #431115",
"6.	c #43080E",
"7.	c #470B0F",
"8.	c #6B1619",
"9.	c #5F1216",
"0.	c #851F21",
"a.	c #4F0D12",
"b.	c #4B0C11",
"c.	c #2A0408",
"d.	c #320409",
"e.	c #33060B",
"f.	c #726363",
"g.	c #EAE8E9",
"h.	c #DBD8D8",
"i.	c #705959",
"j.	c #7C4C3C",
"k.	c #431715",
"l.	c #40080D",
"m.	c #36060B",
"n.	c #40090E",
"o.	c #71181B",
"p.	c #4E0E12",
"q.	c #550F13",
"r.	c #4A0C11",
"s.	c #491A18",
"t.	c #7D4D3D",
"u.	c #6C5858",
"v.	c #D8D4D5",
"w.	c #FEFDFD",
"x.	c #F7F6F7",
"y.	c #928787",
"z.	c #CD9B7E",
"A.	c #885A49",
"B.	c #33060A",
"C.	c #39070C",
"D.	c #2E0509",
"E.	c #540F13",
"F.	c #38070C",
"G.	c #520E13",
"H.	c #3B0A0D",
"I.	c #8A5B4B",
"J.	c #CE9C80",
"K.	c #FBFAFA",
"L.	c #BDB6B6",
"M.	c #B78C79",
"N.	c #967060",
"O.	c #734334",
"P.	c #441413",
"Q.	c #2B0408",
"R.	c #290408",
"S.	c #35060B",
"T.	c #370E0E",
"U.	c #4E211C",
"V.	c #B07F69",
"W.	c #B98D7A",
"X.	c #F8F8F8",
"Y.	c #BEB8B8",
"Z.	c #846059",
"`.	c #C38463",
" +	c #84533E",
".+	c #50261F",
"++	c #36080C",
"@+	c #2E0508",
"#+	c #3D050C",
"$+	c #300409",
"%+	c #85513D",
"&+	c #AC6E54",
"*+	c #9E6E62",
"=+	c #C0B9B9",
"-+	c #E0DEDE",
";+	c #776564",
">+	c #B16D53",
",+	c #B37558",
"'+	c #BA7C5D",
")+	c #794636",
"!+	c #390C0E",
"~+	c #410B0F",
"{+	c #6D3F2F",
"]+	c #915741",
"^+	c #B87558",
"/+	c #B26D54",
"(+	c #735F60",
"_+	c #ACA8A9",
":+	c #CBCACB",
"<+	c #F2F2F2",
"[+	c #ABA8A9",
"}+	c #766D6F",
"|+	c #45261B",
"1+	c #723A2D",
"2+	c #AC654E",
"3+	c #DC966F",
"4+	c #D18F69",
"5+	c #A76D51",
"6+	c #7D4C39",
"7+	c #CD8C67",
"8+	c #DB956E",
"9+	c #70372C",
"0+	c #402118",
"a+	c #4E4042",
"b+	c #595357",
"c+	c #C6C4C5",
"d+	c #FBFAFB",
"e+	c #F4F3F4",
"f+	c #A6A3A5",
"g+	c #595256",
"h+	c #605354",
"i+	c #614026",
"j+	c #684327",
"k+	c #643226",
"l+	c #A86F52",
"m+	c #BC7F5D",
"n+	c #B77C5B",
"o+	c #A46F54",
"p+	c #BA7E5C",
"q+	c #A66E52",
"r+	c #56281F",
"s+	c #4A2715",
"t+	c #4B2C1B",
"u+	c #6D6163",
"v+	c #7A7275",
"w+	c #5D585B",
"x+	c #E5E4E5",
"y+	c #D9D8D9",
"z+	c #564F54",
"A+	c #837A7D",
"B+	c #7E7274",
"C+	c #79542E",
"D+	c #8C6535",
"E+	c #875E32",
"F+	c #4F2D1B",
"G+	c #4A2A19",
"H+	c #49291A",
"I+	c #492819",
"J+	c #492918",
"K+	c #4E2E16",
"L+	c #613E21",
"M+	c #5D3C24",
"N+	c #726768",
"O+	c #867D81",
"P+	c #514A4E",
"Q+	c #A19FA0",
"R+	c #F5F5F5",
"S+	c #8A8789",
"T+	c #60575B",
"U+	c #857C7F",
"V+	c #685C5E",
"W+	c #75522D",
"X+	c #9F7842",
"Y+	c #A17A43",
"Z+	c #906736",
"`+	c #734E29",
" @	c #5D3B1E",
".@	c #56341A",
"+@	c #5B3A1D",
"@@	c #704C28",
"#@	c #734F2B",
"$@	c #5B3924",
"%@	c #6E6163",
"&@	c #62595D",
"*@	c #524A4E",
"=@	c #676567",
"-@	c #F0EFF0",
";@	c #686568",
">@	c #60585D",
",@	c #6D6468",
"'@	c #645758",
")@	c #644227",
"!@	c #956D39",
"~@	c #A47E48",
"{@	c #A17943",
"]@	c #926937",
"^@	c #865E31",
"/@	c #855D31",
"(@	c #855D30",
"_@	c #845C31",
":@	c #724E2A",
"<@	c #472817",
"[@	c #403438",
"}@	c #534B4E",
"|@	c #564E52",
"1@	c #706C6F",
"2@	c #F3F2F3",
"3@	c #FDFCFD",
"4@	c #BEBDBE",
"5@	c #504B4F",
"6@	c #787073",
"7@	c #685E61",
"8@	c #3A2A2B",
"9@	c #4E2D1A",
"0@	c #78522C",
"a@	c #8D6637",
"b@	c #9A723E",
"c@	c #9D723B",
"d@	c #976D37",
"e@	c #926835",
"f@	c #835B30",
"g@	c #744F2A",
"h@	c #5D391E",
"i@	c #3F1F0F",
"j@	c #3B1C1C",
"k@	c #523A37",
"l@	c #494145",
"m@	c #6E6A6D",
"n@	c #FCFBFC",
"o@	c #A8A7A8",
"p@	c #4B4449",
"q@	c #81797C",
"r@	c #655B5E",
"s@	c #27191E",
"t@	c #3D2521",
"u@	c #52311B",
"v@	c #664323",
"w@	c #79542D",
"x@	c #8C6436",
"y@	c #8D6434",
"z@	c #714D29",
"A@	c #623F21",
"B@	c #502F16",
"C@	c #492915",
"D@	c #402622",
"E@	c #8E5341",
"F@	c #B87D60",
"G@	c #795242",
"H@	c #726A6B",
"I@	c #A9A8A9",
"J@	c #777073",
"K@	c #7A7073",
"L@	c #4F464A",
"M@	c #676265",
"N@	c #322B33",
"O@	c #43383B",
"P@	c #47332E",
"Q@	c #553723",
"R@	c #5C3E28",
"S@	c #5D3F28",
"T@	c #523624",
"U@	c #482C1C",
"V@	c #46322E",
"W@	c #352A31",
"X@	c #B07459",
"Y@	c #E1AA8C",
"Z@	c #BF846B",
"`@	c #8D8080",
" #	c #F5F4F5",
".#	c #625A5E",
"+#	c #5E5557",
"@#	c #5D423D",
"##	c #4C4245",
"$#	c #1C161E",
"%#	c #33303A",
"&#	c #3F3E47",
"*#	c #413E44",
"=#	c #423F45",
"-#	c #423E44",
";#	c #403E47",
">#	c #22171E",
",#	c #774234",
"'#	c #935F4F",
")#	c #937773",
"!#	c #FCFCFC",
"~#	c #ADAAAB",
"{#	c #846255",
"]#	c #A69289",
"^#	c #CB9E88",
"/#	c #714438",
"(#	c #200D11",
"_#	c #2B1A1E",
":#	c #2C232C",
"<#	c #2C242E",
"[#	c #2A242D",
"}#	c #271A20",
"|#	c #331A1A",
"1#	c #908789",
"2#	c #B1ABAD",
"3#	c #DDDBDC",
"4#	c #B0ABAD",
"5#	c #BC836B",
"6#	c #FAD4BA",
"7#	c #F9D0B3",
"8#	c #B7846B",
"9#	c #301413",
"0#	c #412212",
"a#	c #432312",
"b#	c #482714",
"c#	c #452513",
"d#	c #381B0F",
"e#	c #391E18",
"f#	c #3C2B2B",
"g#	c #3B2827",
"h#	c #432520",
"i#	c #CFCCCC",
"j#	c #CECBCC",
"k#	c #936C64",
"l#	c #E3B498",
"m#	c #E7BA9C",
"n#	c #967161",
"o#	c #361815",
"p#	c #402112",
"q#	c #533018",
"r#	c #684224",
"s#	c #6D4626",
"t#	c #6B4425",
"u#	c #59341B",
"v#	c #462D27",
"w#	c #534445",
"x#	c #61595C",
"y#	c #62585B",
"z#	c #4D3D3F",
"A#	c #CDCACB",
"B#	c #FCFBFB",
"C#	c #CCC7C7",
"D#	c #99817B",
"E#	c #8D736D",
"F#	c #372426",
"G#	c #271517",
"H#	c #311614",
"I#	c #391C14",
"J#	c #45281C",
"K#	c #503429",
"L#	c #4F342C",
"M#	c #472E28",
"N#	c #564849",
"O#	c #61575B",
"P#	c #71676A",
"Q#	c #7B7376",
"R#	c #4B4549",
"S#	c #C9C9C9",
"T#	c #D9D7D7",
"U#	c #4D4144",
"V#	c #382420",
"W#	c #311E1E",
"X#	c #27181A",
"Y#	c #291A1D",
"Z#	c #4E4347",
"`#	c #584F53",
" $	c #635758",
".$	c #645A5D",
"+$	c #5C5358",
"@$	c #72696B",
"#$	c #766D70",
"$$	c #5F5B5F",
"%$	c #DBDADB",
"&$	c #EAE8E8",
"*$	c #524749",
"=$	c #392520",
"-$	c #3A2522",
";$	c #472C29",
">$	c #2C1D1C",
",$	c #3F373A",
"'$	c #575356",
")$	c #5A5558",
"!$	c #453E41",
"~$	c #33282C",
"{$	c #3E373B",
"]$	c #372E31",
"^$	c #9B9394",
"/$	c #504549",
"($	c #392422",
"_$	c #633F3C",
":$	c #734844",
"<$	c #3A2625",
"[$	c #898486",
"}$	c #DCDBDB",
"|$	c #8B8384",
"1$	c #362123",
"2$	c #351F20",
"3$	c #2D191B",
"4$	c #857979",
"5$	c #EBEAEA",
"6$	c #9D989A",
"7$	c #4C3839",
"8$	c #784B48",
"9$	c #754A45",
"0$	c #45302E",
"a$	c #A29E9F",
"b$	c #FAFAFA",
"c$	c #9C9799",
"d$	c #553635",
"e$	c #6A423F",
"f$	c #4D312F",
"g$	c #422E2D",
"h$	c #948D8E",
"i$	c #F0F0F0",
"j$	c #A49FA0",
"k$	c #807476",
"l$	c #7D7274",
"m$	c #898284",
"n$	c #DFDDDE",
"o$	c #583835",
"p$	c #86574E",
"q$	c #744A44",
"r$	c #34211E",
"s$	c #4F4447",
"t$	c #F4F4F4",
"u$	c #F6F5F5",
"v$	c #9B9798",
"w$	c #3F2A28",
"x$	c #794D48",
"y$	c #7A4E49",
"z$	c #3A2423",
"A$	c #544C4F",
"B$	c #EAE9EA",
"C$	c #AAA7A8",
"D$	c #3C2B2C",
"E$	c #4A2C2B",
"F$	c #593634",
"G$	c #544445",
"H$	c #B4B0B1",
"I$	c #FFFEFE",
"J$	c #ECEAEB",
"K$	c #9F9A9C",
"L$	c #8F888A",
"M$	c #91898C",
"N$	c #B8B4B6",
"O$	c #F7F6F6",
"                              . + @ # $ % & * = -                     ",
"                            ; > , ' ) ! ~ { ] ^ / ( _                 ",
"                        : > < [ } | 1 2 3 4 5 6 7 8 9 0               ",
"                        . a b c d e f g h i j k l l m n               ",
"                        o p q r s t u v w x y z A B C D E             ",
"                      F G H I J K L M N O P 6 Q K R S T U V           ",
"                      W X Y Z `  ...+.@.#.6 $.%.&.*.=.-.;.>.W         ",
"                      ,.'.).!.~.{.].^./.g (._.:.<.[.}.|.1.2.3.        ",
"                      0 4.5.6.!.!.` 7.8.9.0.&.a.b.~.c.d.e.f.g.        ",
"                      F h.i.j.k.l.m.*.9.n.o.p.q.r.).s.t.u.v.w.        ",
"                        x.y.z.A.B.!.B.C.D.E.F.*.G.H.I.J.y.x.          ",
"                        K.L.M.N.O.P.Q.R.R.S.!.Q.T.U.V.W.L.K.          ",
"                          X.Y.Z.`. +.+++@+!.#+$+%+&+*+=+0             ",
"                          . -+;+>+,+'+)+!+~+{+]+^+/+(+_+:+:           ",
"                        <+[+}+|+1+2+3+4+5+6+7+8+2+9+0+a+b+c+d+        ",
"                      e+f+g+h+i+j+k+l+m+n+o+p+q+r+s+t+u+v+w+x+        ",
"                      y+z+A+B+C+D+E+j+F+G+H+I+J+K+L+M+N+O+P+Q+X.      ",
"                    R+S+T+U+V+W+X+Y+Z+`+ @.@.@+@@@#@$@%@&@*@=@<+      ",
"                    -@;@>@,@'@)@!@~@{@]@^@/@(@_@/@:@<@[@}@|@1@2@      ",
"                  3@4@5@6@7@8@9@0@a@b@{@c@d@e@f@g@h@i@j@k@l@m@<+      ",
"                  n@o@p@q@r@s@t@u@v@w@x@y@^@z@A@B@C@D@E@F@G@H@2@      ",
"                  n@I@J@K@L@M@N@O@P@Q@R@S@R@T@U@V@O@W@X@Y@Z@`@ #      ",
"                  n@I@.#+#@###$#%#&#*#=#=#=#=#-#;#%#>#,#'#)#h..       ",
"                  !#~#{#]#^#/#(#_#:#<#<#<#<#<#<#[#}#|#1#2#3#w.        ",
"                  !#4#5#6#7#8#9#0#a#b#b#b#c#d#e#f#g#h#i#              ",
"                  . j#k#l#m#n#o#p#q#r#s#t#u#v#w#x#y#z#A#              ",
"                    B#C#D#E#F#G#H#I#J#K#L#M#N#O#P#Q#R#S#              ",
"                      !#+ T#U#V#W#X#Y#Z#`# $.$+$@$#$$$%$              ",
"                          &$*$=$-$;$>$,$'$)$!$~${$]$^$o               ",
"                          g./$($_$:$<$[$}$}$|$1$2$3$4$5$              ",
"                          - 6$7$8$9$0$a$b$_ c$d$e$f$g$h$2@            ",
"                            i$j$k$l$m$n$F _ c$o$p$q$r$s$g.            ",
"                              X.t$t$u$F   _ v$w$x$y$z$A$B$            ",
"                                          K.C$D$E$F$G$H$X.            ",
"                                          I$J$K$L$M$N$O$              "};
