/* XPM */
static char * plrU1_xpm[] = {
"35 35 554 2",
"  	c #FFFFFF",
". 	c #ECEAEA",
"+ 	c #D9D4D5",
"@ 	c #DBD5D6",
"# 	c #EFEEEF",
"$ 	c #FCFBFA",
"% 	c #E3E2E2",
"& 	c #A29D9E",
"* 	c #A89D9E",
"= 	c #856D6E",
"- 	c #57181A",
"; 	c #661E20",
"> 	c #937A7B",
", 	c #A89C9D",
"' 	c #A49FA0",
") 	c #E9E8E8",
"! 	c #FCFBFB",
"~ 	c #E4E2E3",
"{ 	c #9C9292",
"] 	c #5B494B",
"^ 	c #2E060A",
"/ 	c #310409",
"( 	c #580F14",
"_ 	c #7F1B1E",
": 	c #8F2123",
"< 	c #71191C",
"[ 	c #77191D",
"} 	c #6B171B",
"| 	c #745050",
"1 	c #A79E9F",
"2 	c #F8F7F7",
"3 	c #F4F3F3",
"4 	c #83797B",
"5 	c #350E11",
"6 	c #581014",
"7 	c #671518",
"8 	c #641418",
"9 	c #70181B",
"0 	c #952526",
"a 	c #972526",
"b 	c #8B2123",
"c 	c #982526",
"d 	c #771A1D",
"e 	c #5F1216",
"f 	c #531B1D",
"g 	c #A49D9E",
"h 	c #F9F9F9",
"i 	c #FDFDFD",
"j 	c #BAB3B3",
"k 	c #3E0B0F",
"l 	c #751A1D",
"m 	c #902325",
"n 	c #9C2728",
"o 	c #871F21",
"p 	c #8E2224",
"q 	c #892122",
"r 	c #9D2728",
"s 	c #821E20",
"t 	c #621317",
"u 	c #7A1C1E",
"v 	c #70171A",
"w 	c #513739",
"x 	c #E7E5E5",
"y 	c #CAC6C7",
"z 	c #563334",
"A 	c #6D171A",
"B 	c #8A2123",
"C 	c #9D2828",
"D 	c #9B2727",
"E 	c #932425",
"F 	c #8C2223",
"G 	c #761A1D",
"H 	c #851F21",
"I 	c #5A1317",
"J 	c #7E7172",
"K 	c #EBEAEA",
"L 	c #F8F8F8",
"M 	c #816F71",
"N 	c #71181B",
"O 	c #460B0F",
"P 	c #791B1E",
"Q 	c #621417",
"R 	c #6F181B",
"S 	c #7C1C1E",
"T 	c #43090E",
"U 	c #661418",
"V 	c #5D1115",
"W 	c #530F14",
"X 	c #817273",
"Y 	c #EAE9EA",
"Z 	c #BEB9BA",
"` 	c #4E2023",
" .	c #41090E",
"..	c #37060B",
"+.	c #500D12",
"@.	c #5B1115",
"#.	c #3A070C",
"$.	c #460A0F",
"%.	c #7E1C1F",
"&.	c #6E171A",
"*.	c #440A0F",
"=.	c #6D181B",
"-.	c #540F13",
";.	c #3D080D",
">.	c #3F080D",
",.	c #4C0C11",
"'.	c #531215",
").	c #8F8382",
"!.	c #FEFEFE",
"~.	c #DAD7D8",
"{.	c #5D4948",
"].	c #40080E",
"^.	c #42090E",
"/.	c #480B10",
"(.	c #4B0B10",
"_.	c #4F0D11",
":.	c #7B1C1E",
"<.	c #761B1D",
"[.	c #4A0C10",
"}.	c #601216",
"|.	c #270408",
"1.	c #35060B",
"2.	c #3F090E",
"3.	c #827778",
"4.	c #928888",
"5.	c #511E1A",
"6.	c #451815",
"7.	c #32060A",
"8.	c #480B0F",
"9.	c #39070B",
"0.	c #591014",
"a.	c #651418",
"b.	c #561013",
"c.	c #440B0E",
"d.	c #520E12",
"e.	c #3F080E",
"f.	c #3C0C0F",
"g.	c #471B18",
"h.	c #5D4849",
"i.	c #D8D6D6",
"j.	c #E6E4E4",
"k.	c #826055",
"l.	c #AF7C66",
"m.	c #4C1717",
"n.	c #33060A",
"o.	c #450A0F",
"p.	c #40080D",
"q.	c #37070B",
"r.	c #38090D",
"s.	c #945C4A",
"t.	c #A47863",
"u.	c #C1BDBE",
"v.	c #EEECED",
"w.	c #8A6E66",
"x.	c #E0AE90",
"y.	c #5F352D",
"z.	c #400E10",
"A.	c #260307",
"B.	c #250307",
"C.	c #31060A",
"D.	c #3B070C",
"E.	c #33060B",
"F.	c #4C1817",
"G.	c #D29F83",
"H.	c #AC826D",
"I.	c #CECBCC",
"J.	c #D3D0CF",
"K.	c #A2867C",
"L.	c #855140",
"M.	c #A36A50",
"N.	c #431714",
"O.	c #280408",
"P.	c #3E080D",
"Q.	c #2C080A",
"R.	c #734531",
"S.	c #945743",
"T.	c #B38A78",
"U.	c #B7B0AF",
"V.	c #FAF9F9",
"W.	c #F1F0F1",
"X.	c #855449",
"Y.	c #D7916C",
"Z.	c #744733",
"`.	c #854C3B",
" +	c #410B0F",
".+	c #32050A",
"++	c #421411",
"@+	c #541E1B",
"#+	c #CE8967",
"$+	c #A2654F",
"%+	c #9F9495",
"&+	c #EAE9E9",
"*+	c #FAFAFA",
"=+	c #D1D0D1",
"-+	c #544D50",
";+	c #3D363A",
">+	c #442120",
",+	c #AA5D49",
"'+	c #C88061",
")+	c #DC9771",
"!+	c #8B5843",
"~+	c #633023",
"{+	c #613827",
"]+	c #C88866",
"^+	c #CE8363",
"/+	c #BB6F56",
"(+	c #662E28",
"_+	c #393033",
":+	c #474144",
"<+	c #ACAAAB",
"[+	c #FAF9FA",
"}+	c #D4D2D2",
"|+	c #5B5659",
"1+	c #71686B",
"2+	c #503B3A",
"3+	c #5B3A21",
"4+	c #633325",
"5+	c #834938",
"6+	c #DD9972",
"7+	c #DF9B74",
"8+	c #C48663",
"9+	c #C48664",
"0+	c #E39E76",
"a+	c #A7694F",
"b+	c #642921",
"c+	c #452514",
"d+	c #422824",
"e+	c #726769",
"f+	c #50484B",
"g+	c #ADABAD",
"h+	c #A09C9D",
"i+	c #726D6F",
"j+	c #8E8487",
"k+	c #695A57",
"l+	c #815A30",
"m+	c #77512C",
"n+	c #6E482A",
"o+	c #673F2E",
"p+	c #653D2B",
"q+	c #653E2A",
"r+	c #613D2C",
"s+	c #643C2C",
"t+	c #512E1D",
"u+	c #482814",
"v+	c #5F3C20",
"w+	c #4B2F27",
"x+	c #8B7F82",
"y+	c #726B6E",
"z+	c #696668",
"A+	c #EFEFEF",
"B+	c #E3E2E3",
"C+	c #443D41",
"D+	c #685F62",
"E+	c #867E7E",
"F+	c #51403F",
"G+	c #8E6635",
"H+	c #9F7742",
"I+	c #976E3A",
"J+	c #75502B",
"K+	c #5C3A1E",
"L+	c #4C2D16",
"M+	c #4A2A13",
"N+	c #4A2A14",
"O+	c #57361B",
"P+	c #644122",
"Q+	c #734E2B",
"R+	c #50342C",
"S+	c #82787A",
"T+	c #7A7375",
"U+	c #393337",
"V+	c #B6B3B5",
"W+	c #D3D1D2",
"X+	c #403A3F",
"Y+	c #645C5F",
"Z+	c #5A5357",
"`+	c #49322F",
" @	c #805A30",
".@	c #A27B45",
"+@	c #A47D47",
"@@	c #966D38",
"#@	c #7F5830",
"$@	c #704B28",
"%@	c #6F4B28",
"&@	c #76502B",
"*@	c #845D32",
"=@	c #684425",
"-@	c #3F241D",
";@	c #5A5051",
">@	c #635A5F",
",@	c #4E464A",
"'@	c #A2A1A3",
")@	c #FBFBFB",
"!@	c #6B6769",
"~@	c #5A5053",
"{@	c #686066",
"]@	c #4C4247",
"^@	c #3A2724",
"/@	c #6B4726",
"(@	c #A07844",
"_@	c #A27A45",
":@	c #9E753F",
"<@	c #986D37",
"[@	c #976D36",
"}@	c #946A36",
"|@	c #8A6133",
"1@	c #77522D",
"2@	c #59361C",
"3@	c #351810",
"4@	c #40373C",
"5@	c #5C5356",
"6@	c #62595D",
"7@	c #393239",
"8@	c #E3E3E3",
"9@	c #625F62",
"0@	c #6E6669",
"a@	c #666266",
"b@	c #655F62",
"c@	c #706666",
"d@	c #462715",
"e@	c #7E582F",
"f@	c #8E6736",
"g@	c #9D743F",
"h@	c #986E37",
"i@	c #7D572F",
"j@	c #664223",
"k@	c #59371C",
"l@	c #462511",
"m@	c #4B3532",
"n@	c #7A7679",
"o@	c #625B5E",
"p@	c #6B6266",
"q@	c #453D3F",
"r@	c #E1E1E1",
"s@	c #686466",
"t@	c #898386",
"u@	c #6D6466",
"v@	c #676265",
"w@	c #796F71",
"x@	c #413539",
"y@	c #462F27",
"z@	c #543119",
"A@	c #513018",
"B@	c #4B2A13",
"C@	c #472D22",
"D@	c #443435",
"E@	c #4C3B3F",
"F@	c #867F81",
"G@	c #565055",
"H@	c #7C7577",
"I@	c #494045",
"J@	c #656264",
"K@	c #564F52",
"L@	c #4E4141",
"M@	c #744F43",
"N@	c #1D1319",
"O@	c #2B262F",
"P@	c #41434D",
"Q@	c #463C3F",
"R@	c #493B3B",
"S@	c #4A3F3E",
"T@	c #4C3F3C",
"U@	c #4B3F3E",
"V@	c #4B3C3B",
"W@	c #47393A",
"X@	c #44464E",
"Y@	c #31343E",
"Z@	c #180D14",
"`@	c #5F4136",
" #	c #66504D",
".#	c #362C2E",
"+#	c #E2E1E1",
"@#	c #7A6B6C",
"##	c #C89E88",
"$#	c #DBBEAA",
"%#	c #D8A68B",
"&#	c #582F27",
"*#	c #1E121A",
"=#	c #2D2832",
"-#	c #32323D",
";#	c #31333E",
">#	c #30333E",
",#	c #33333E",
"'#	c #34333D",
")#	c #33333D",
"!#	c #312F39",
"~#	c #221820",
"{#	c #3E1C1A",
"]#	c #BE8671",
"^#	c #E6C0A6",
"/#	c #D2B4A2",
"(#	c #7B554A",
"_#	c #E4E3E3",
":#	c #7C6C6E",
"<#	c #CE977C",
"[#	c #FDD5B8",
"}#	c #F8CBAC",
"|#	c #7D5B50",
"1#	c #2F1411",
"2#	c #381B11",
"3#	c #321A15",
"4#	c #331913",
"5#	c #341916",
"6#	c #311B14",
"7#	c #361B15",
"8#	c #321915",
"9#	c #311A17",
"0#	c #331914",
"a#	c #54322A",
"b#	c #E8B899",
"c#	c #FDD5B7",
"d#	c #E8B69A",
"e#	c #774E46",
"f#	c #E5E3E4",
"g#	c #CDC9C9",
"h#	c #966C60",
"i#	c #DDB095",
"j#	c #CD957A",
"k#	c #683B33",
"l#	c #361711",
"m#	c #482812",
"n#	c #5B361B",
"o#	c #643E20",
"p#	c #643F21",
"q#	c #643B22",
"r#	c #643E21",
"s#	c #613C1E",
"t#	c #4C2A12",
"u#	c #3E1F11",
"v#	c #46221D",
"w#	c #B8816B",
"x#	c #DFB296",
"y#	c #B0816C",
"z#	c #ADA3A4",
"A#	c #948B8E",
"B#	c #948C8E",
"C#	c #524A4C",
"D#	c #3A2222",
"E#	c #3C1D13",
"F#	c #492916",
"G#	c #5C3921",
"H#	c #603C22",
"I#	c #5F3B24",
"J#	c #5E3C22",
"K#	c #5F3C23",
"L#	c #4F2F1B",
"M#	c #402012",
"N#	c #351D1E",
"O#	c #372729",
"P#	c #8B8385",
"Q#	c #958C8E",
"R#	c #B3ACAC",
"S#	c #F9F8F8",
"T#	c #8E8684",
"U#	c #554C51",
"V#	c #695C5B",
"W#	c #504346",
"X#	c #56494C",
"Y#	c #5A4D50",
"Z#	c #534647",
"`#	c #4D4142",
" $	c #5B4F50",
".$	c #57494B",
"+$	c #594B4E",
"@$	c #50464B",
"#$	c #4F4A4E",
"$$	c #F2F2F2",
"%$	c #B0A8A8",
"&$	c #372B30",
"*$	c #51474B",
"=$	c #655A5F",
"-$	c #635A60",
";$	c #655C60",
">$	c #5F555A",
",$	c #645C61",
"'$	c #635A5E",
")$	c #61565A",
"!$	c #524A4E",
"~$	c #433639",
"{$	c #C4C2C3",
"]$	c #FCFCFC",
"^$	c #B9B3B4",
"/$	c #3D3034",
"($	c #20141A",
"_$	c #473D42",
":$	c #453B3F",
"<$	c #40373A",
"[$	c #423A40",
"}$	c #44393D",
"|$	c #43393D",
"1$	c #23171C",
"2$	c #301A1B",
"3$	c #938B8C",
"4$	c #F3F2F2",
"5$	c #D1CFCF",
"6$	c #47383A",
"7$	c #3A2522",
"8$	c #472C29",
"9$	c #5A3733",
"0$	c #422B2B",
"a$	c #DEDDDE",
"b$	c #D1CFD0",
"c$	c #4C3E41",
"d$	c #553432",
"e$	c #51332F",
"f$	c #392421",
"g$	c #3D2B2B",
"h$	c #A39D9E",
"i$	c #C9C6C7",
"j$	c #302021",
"k$	c #432A26",
"l$	c #7B4F48",
"m$	c #794D48",
"n$	c #3E2929",
"o$	c #D1CECF",
"p$	c #F0EFEF",
"q$	c #4F4246",
"r$	c #68423D",
"s$	c #82534C",
"t$	c #553732",
"u$	c #32201D",
"v$	c #938D8F",
"w$	c #CFCCCD",
"x$	c #392E31",
"y$	c #523430",
"z$	c #865850",
"A$	c #704742",
"B$	c #2E2022",
"C$	c #4A4044",
"D$	c #593835",
"E$	c #8A5A51",
"F$	c #66413B",
"G$	c #312122",
"H$	c #9F999B",
"I$	c #B4AFB0",
"J$	c #473638",
"K$	c #573735",
"L$	c #3B2527",
"M$	c #64595B",
"N$	c #E2E0E0",
"O$	c #F6F5F5",
"P$	c #888183",
"Q$	c #332324",
"R$	c #583836",
"S$	c #462C2D",
"T$	c #8D8587",
"U$	c #F1EFEF",
"V$	c #FBFAFA",
"W$	c #C8C4C6",
"X$	c #C8C5C6",
"Y$	c #DFDDDD",
"Z$	c #EFEEEE",
"`$	c #C9C5C6",
" %	c #C9C5C7",
".%	c #F1F0F0",
"                              . + @ #                                 ",
"                      $ % & * = - ; > , ' ) !                         ",
"                  ! ~ { ] ^ / ( _ : < [ } | 1 2                       ",
"                  3 4 5 6 7 8 9 0 a b c d e f g h                     ",
"                  i j k l m n o p q r s t u v w x                     ",
"                  y z 9 s A B 0 C D E F e G H I J K                   ",
"                L M t N O 8 P Q s n R S P T U V W X Y                 ",
"                Z `  ...+.@.#.$.%.a &.*.=.-.;.>.,.'.).!.              ",
"                ~.{.].^./...(._.:.<.s [./.}...|.1.2.3.!.              ",
"                !.4.5.6.7.8.9.0.a.b.S c.d.;.e.f.g.h.i.                ",
"                  j.k.l.m...n.o.p.O e q.@.,.r.s.t.u.!.                ",
"                  v.w.x.y.z.>.A.B.C.D...E.*.F.G.H.I.                  ",
"                  i J.K.L.M.N.O.1.|.P.D.Q.R.S.T.U.V.                  ",
"                  i W.Z X.Y.Z.`. +.+^.++@+#+$+%+&+*+                  ",
"                  =+-+;+>+,+'+)+!+~+{+]+^+/+(+_+:+<+[+                ",
"                }+|+1+2+3+4+5+6+7+8+9+0+a+b+c+d+e+f+g+!.              ",
"              h h+i+j+k+l+m+n+o+p+q+r+s+t+u+v+w+x+y+z+A+              ",
"              B+C+D+E+F+G+H+I+J+K+L+M+N+O+P+Q+R+S+T+U+V+              ",
"            !.W+X+Y+Z+`+ @.@+@@@#@$@$@%@&@*@=@-@;@>@,@'@)@            ",
"            *+!@~@{@]@^@/@G+(@_@:@<@[@}@|@1@2@3@4@5@6@7@8@            ",
"            *+9@0@a@b@c@d@=@e@f@g@h@|@i@j@k@l@m@n@o@p@q@r@            ",
"            *+s@t@u@v@w@x@y@z@/@$@$@/@A@B@C@D@E@F@G@H@I@r@            ",
"            *+J@K@L@M@N@O@P@Q@R@S@T@U@V@W@X@Y@Z@`@ #I@.#+#            ",
"            *+@###$#%#&#*#=#-#;#>#,#'#)#,#!#~#{#]#^#/#(#_#            ",
"            *+:#<#[#}#|#1#2#3#4#5#6#7#8#9#3#0#a#b#c#d#e#f#            ",
"            !.g#h#i#j#k#l#m#n#o#o#p#q#r#s#t#u#v#w#x#y#z#2             ",
"              i g#A#B#C#D#E#F#G#H#I#J#K#L#M#N#O#P#Q#R#S#              ",
"                      T#U#V#W#X#Y#Z#`# $.$+$@$#$$$                    ",
"                      %$&$*$=$-$;$>$,$'$)$!$~${$i                     ",
"                    ]$^$/$($_$:$4@<$[$}$|$1$2$3$4$                    ",
"                    5$6$7$8$9$0$V+a$b$c$d$e$f$g$h$                    ",
"                    i$j$k$l$m$n$o$  p$q$r$s$t$u$v$                    ",
"                    w$x$y$z$A$B$o$  p$C$D$E$F$G$H$                    ",
"                    )@I$J$K$L$M$N$  O$P$Q$R$S$T$U$                    ",
"                      V$I.W$X$Y$      Z$`$X$ %.%                      "};
