/* XPM */
static char * C1_xpm[] = {
"35 35 272 2",
"  	c #FFFFFF",
". 	c #F6FBF6",
"+ 	c #EFF8F0",
"@ 	c #FEFFFD",
"# 	c #FEFFFE",
"$ 	c #FBFDFC",
"% 	c #CCE5CC",
"& 	c #74D66D",
"* 	c #57DB54",
"= 	c #B4E2B7",
"- 	c #F3FCF4",
"; 	c #E2F1DF",
"> 	c #80C881",
", 	c #5EC556",
"' 	c #7CEA66",
") 	c #64E952",
"! 	c #53DC4E",
"~ 	c #61CF67",
"{ 	c #CCECD0",
"] 	c #FDFEFC",
"^ 	c #F0F7ED",
"/ 	c #A5D4A2",
"( 	c #4CC249",
"_ 	c #63CA58",
": 	c #9EEA87",
"< 	c #96EE77",
"[ 	c #81ED69",
"} 	c #82ED6A",
"| 	c #54DE4E",
"1 	c #34D43B",
"2 	c #88DC89",
"3 	c #E3F5E3",
"4 	c #FDFEFD",
"5 	c #FFFFFE",
"6 	c #F7FCF9",
"7 	c #BDDFBD",
"8 	c #51BC50",
"9 	c #55C74F",
"0 	c #94DF86",
"a 	c #BEEFAD",
"b 	c #A9EE8C",
"c 	c #A3ED86",
"d 	c #9AEE7D",
"e 	c #8EEE7C",
"f 	c #55E653",
"g 	c #49E149",
"h 	c #38CF3F",
"i 	c #A4DAA6",
"j 	c #EFF9F1",
"k 	c #FEFEFD",
"l 	c #91E28E",
"m 	c #72E06A",
"n 	c #81E678",
"o 	c #95E790",
"p 	c #DCF3D5",
"q 	c #B4E8B3",
"r 	c #63D065",
"s 	c #56CF5F",
"t 	c #4FCD4F",
"u 	c #4AC949",
"v 	c #48C546",
"w 	c #74E35D",
"x 	c #5EEC47",
"y 	c #43E539",
"z 	c #2CDB2A",
"A 	c #4CD44E",
"B 	c #F1FAEF",
"C 	c #7ED478",
"D 	c #6FEA66",
"E 	c #76E971",
"F 	c #A3E7A0",
"G 	c #ACE9A4",
"H 	c #75E171",
"I 	c #40D64D",
"J 	c #31D546",
"K 	c #28CE3B",
"L 	c #1DC932",
"M 	c #19CA31",
"N 	c #3DCE3B",
"O 	c #72EB4C",
"P 	c #4DEB34",
"Q 	c #2BDD21",
"R 	c #2DCD1D",
"S 	c #EDF7EB",
"T 	c #FDFEFE",
"U 	c #70C46B",
"V 	c #77E870",
"W 	c #96E792",
"X 	c #B2E7AC",
"Y 	c #93E782",
"Z 	c #8EE97B",
"` 	c #79E371",
" .	c #57DD5C",
"..	c #47D74E",
"+.	c #3BD245",
"@.	c #2BCD3C",
"#.	c #1BC731",
"$.	c #68DF50",
"%.	c #63EB42",
"&.	c #46E930",
"*.	c #35BA1D",
"=.	c #F0F6EB",
"-.	c #6DC366",
";.	c #80DD79",
">.	c #AAE6A5",
",.	c #AAE998",
"'.	c #ACED8F",
").	c #AAEE8E",
"!.	c #97EB83",
"~.	c #6EE267",
"{.	c #4ED854",
"].	c #42D449",
"^.	c #3FD248",
"/.	c #3CD246",
"(.	c #41D547",
"_.	c #86E754",
":.	c #5BE43C",
"<.	c #37AB14",
"[.	c #EEF7EB",
"}.	c #6DC267",
"|.	c #70D168",
"1.	c #ABE8A1",
"2.	c #9AEA85",
"3.	c #8EE07D",
"4.	c #73D764",
"5.	c #48D14D",
"6.	c #40D148",
"7.	c #4AD64F",
"8.	c #51D752",
"9.	c #55D956",
"0.	c #54D956",
"a.	c #51D856",
"b.	c #6BE155",
"c.	c #58D035",
"d.	c #35AA14",
"e.	c #EFF7EB",
"f.	c #FEFEFE",
"g.	c #67CD5D",
"h.	c #73D572",
"i.	c #11BD23",
"j.	c #18C82F",
"k.	c #2FCD3E",
"l.	c #41D349",
"m.	c #53D955",
"n.	c #4CD854",
"o.	c #55DB5A",
"p.	c #62DC60",
"q.	c #67DE64",
"r.	c #66DC61",
"s.	c #57DC56",
"t.	c #42C429",
"u.	c #36AA13",
"v.	c #6CC368",
"w.	c #58CE53",
"x.	c #2ECF38",
"y.	c #1DC127",
"z.	c #1ECA33",
"A.	c #36D243",
"B.	c #50D952",
"C.	c #60DD5F",
"D.	c #6BDF65",
"E.	c #6CDF68",
"F.	c #79E270",
"G.	c #80E573",
"H.	c #7DE470",
"I.	c #3ED649",
"J.	c #2ECF31",
"K.	c #37A814",
"L.	c #6DC268",
"M.	c #3FC845",
"N.	c #1ECE31",
"O.	c #29D135",
"P.	c #1BC831",
"Q.	c #38D244",
"R.	c #53DB56",
"S.	c #62DD62",
"T.	c #75E46D",
"U.	c #85E87A",
"V.	c #9AEC85",
"W.	c #9CEC84",
"X.	c #78E56E",
"Y.	c #0ED13B",
"Z.	c #15D741",
"`.	c #32B11B",
" +	c #6EC36D",
".+	c #29B937",
"++	c #1EC72E",
"@+	c #24D330",
"#+	c #20CE35",
"$+	c #34D041",
"%+	c #44D74F",
"&+	c #53DE5C",
"*+	c #67E46A",
"=+	c #82E77C",
"-+	c #AFEE92",
";+	c #ADED8E",
">+	c #3DD24C",
",+	c #0BD43F",
"'+	c #08DA46",
")+	c #27C332",
"!+	c #69B46B",
"~+	c #2CAE34",
"{+	c #24C12F",
"]+	c #1FD02B",
"^+	c #25D438",
"/+	c #1BCE37",
"(+	c #1FD23E",
"_+	c #32DA4B",
":+	c #47E059",
"<+	c #5CE472",
"[+	c #98EA8A",
"}+	c #8DDE7B",
"|+	c #0DD13C",
"1+	c #08D844",
"2+	c #14DF4A",
"3+	c #1BDA47",
"4+	c #EDF6EE",
"5+	c #D4E8D2",
"6+	c #65C664",
"7+	c #2ABF24",
"8+	c #2ABD25",
"9+	c #28B529",
"0+	c #32BB33",
"a+	c #1EB62B",
"b+	c #23C02F",
"c+	c #21C333",
"d+	c #2AC339",
"e+	c #37C13E",
"f+	c #2AB72D",
"g+	c #0EB922",
"h+	c #0FBE24",
"i+	c #3CC044",
"j+	c #B7E4BB",
"k+	c #FAFDFB",
"l+	c #F7FCF5",
"m+	c #B8DEB7",
"n+	c #40B63B",
"o+	c #21A311",
"p+	c #23A120",
"q+	c #1FB21E",
"r+	c #19B71B",
"s+	c #1ABA1D",
"t+	c #19B81E",
"u+	c #10AA15",
"v+	c #0EAA13",
"w+	c #18AF1D",
"x+	c #97D09C",
"y+	c #ECF8ED",
"z+	c #FFFFFD",
"A+	c #EDF7EC",
"B+	c #98D494",
"C+	c #2AB421",
"D+	c #28BE24",
"E+	c #19C721",
"F+	c #1ACA22",
"G+	c #17B91D",
"H+	c #0FA412",
"I+	c #76BD78",
"J+	c #DDEEDF",
"K+	c #DBF0DB",
"L+	c #78CC73",
"M+	c #24D225",
"N+	c #22CF24",
"O+	c #52AE52",
"P+	c #C6E0C9",
"Q+	c #FAFEFB",
"R+	c #FCFDFB",
"S+	c #C6E9C7",
"T+	c #B1DDB2",
"U+	c #F3FAF5",
"V+	c #FFFEFE",
"W+	c #FEFFFF",
"                                                                      ",
"                                                                      ",
"                                                                      ",
"                                                                      ",
"                                                                      ",
"                                                                      ",
"                                . + @                                 ",
"                          # $ % & * = -                               ",
"                          ; > , ' ) ! ~ { ]                           ",
"                      ^ / ( _ : < [ } | 1 2 3 4 5                     ",
"                  6 7 8 9 0 a b c d d e f g h i j 5                   ",
"                k l m n o p q r s t u v w x y z A B                   ",
"                k C D E F G H I J K L M N O P Q R S                   ",
"                T U V W X Y Z `  ...+.@.#.$.%.&.*.=.                  ",
"                k -.;.>.,.'.).!.~.{.].^./.(._.:.<.[.                  ",
"                k }.|.1.2.3.4.5.6.7.8.9.0.a.b.c.d.e.                  ",
"                f.}.g.h.i.j.k.l.m.n.o.p.q.r.s.t.u.e.                  ",
"                k v.w.x.y.z.A.B.C.D.E.F.G.H.I.J.K.[.                  ",
"                f.L.M.N.O.P.Q.R.S.T.U.V.W.X.Y.Z.`.e.                  ",
"                k  +.+++@+#+$+%+&+*+=+-+;+>+,+'+)+[.                  ",
"                k !+~+{+]+^+/+(+_+:+<+[+}+|+1+2+3+4+                  ",
"                f.5+6+7+8+9+0+a+b+c+d+e+f+g+h+i+j+k+                  ",
"                    l+m+n+o+p+q+r+s+t+u+v+w+x+y+z+                    ",
"                      5 A+B+C+D+E+F+G+H+I+J+] @ 5                     ",
"                          ] K+L+M+N+O+P+Q+#   5 5                     ",
"                              R+S+T+U+V+                              ",
"                                      W+  5                           ",
"                                                                      ",
"                                                                      ",
"                          5 k                                         ",
"                            5                                         ",
"                                                                      ",
"                                                                      ",
"                                                                      ",
"                                                                      "};
