/* XPM */
static char * C2_xpm[] = {
"35 35 273 2",
"  	c #FFFFFF",
". 	c #FEFFFE",
"+ 	c #FFFFFE",
"@ 	c #EAF5E9",
"# 	c #AFE5B0",
"$ 	c #E3F4E4",
"% 	c #FDFEFD",
"& 	c #FEFFFF",
"* 	c #F4FAF4",
"= 	c #B1DAB1",
"- 	c #64CC5C",
"; 	c #5BE74A",
"> 	c #4ED64C",
", 	c #A5DDA6",
"' 	c #F1FAF3",
") 	c #FDFEFB",
"! 	c #CEE6CB",
"~ 	c #61C15E",
"{ 	c #5EC756",
"] 	c #8DE977",
"^ 	c #78EC60",
"/ 	c #72EB5E",
"( 	c #4DD848",
"_ 	c #52D052",
": 	c #C2E7C4",
"< 	c #FAFEFC",
"[ 	c #DFEFDD",
"} 	c #82C77E",
"| 	c #4EC449",
"1 	c #73D364",
"2 	c #A8E990",
"3 	c #A3ED81",
"4 	c #90EE73",
"5 	c #8DEF71",
"6 	c #85EC71",
"7 	c #4AE04A",
"8 	c #3EDA40",
"9 	c #77DB78",
"0 	c #DBEFD8",
"a 	c #F1FAF0",
"b 	c #A2DAA4",
"c 	c #5CC558",
"d 	c #76D26D",
"e 	c #A5E59E",
"f 	c #DDF5D3",
"g 	c #A9E99A",
"h 	c #9AE58A",
"i 	c #92E57E",
"j 	c #8DE47B",
"k 	c #8EE377",
"l 	c #77E66E",
"m 	c #61EA55",
"n 	c #49DF44",
"o 	c #2FCF37",
"p 	c #92DB95",
"q 	c #EBF8EC",
"r 	c #C6E9C4",
"s 	c #74EA6C",
"t 	c #78EB6E",
"u 	c #7DEA77",
"v 	c #B7E8AF",
"w 	c #B8EDB7",
"x 	c #3FD250",
"y 	c #21CC39",
"z 	c #1ACA33",
"A 	c #15C52C",
"B 	c #13C127",
"C 	c #38C938",
"D 	c #70E94C",
"E 	c #4FEB34",
"F 	c #31DF25",
"G 	c #28DB20",
"H 	c #AFE3AC",
"I 	c #C3E0C1",
"J 	c #6BE361",
"K 	c #74E96F",
"L 	c #9CE89C",
"M 	c #AEE7A7",
"N 	c #82E575",
"O 	c #6EE068",
"P 	c #47DA54",
"Q 	c #3AD549",
"R 	c #2ECE3D",
"S 	c #25CC37",
"T 	c #17CA30",
"U 	c #5DDB4C",
"V 	c #69EA40",
"W 	c #41E72E",
"X 	c #30DB24",
"Y 	c #B3D7AD",
"Z 	c #C1E0C0",
"` 	c #67D15E",
" .	c #91E88E",
"..	c #B1E5A7",
"+.	c #A1E98E",
"@.	c #9BEB85",
"#.	c #94EA81",
"$.	c #73E36D",
"%.	c #5ADE5B",
"&.	c #48D74D",
"*.	c #39D144",
"=.	c #2DCC3D",
"-.	c #35CE3D",
";.	c #74E955",
">.	c #5DEB3E",
",.	c #44D128",
"'.	c #B5D4AC",
").	c #C2DFBF",
"!.	c #56C64E",
"~.	c #A4E59C",
"{.	c #ABE89E",
"].	c #ADEF93",
"^.	c #B2ED93",
"/.	c #95E77F",
"(.	c #6CDD65",
"_.	c #4CD451",
":.	c #42D349",
"<.	c #48D54B",
"[.	c #48D54C",
"}.	c #43D54B",
"|.	c #63DD52",
"1.	c #80E84E",
"2.	c #3FB81B",
"3.	c #B4D5AD",
"4.	c #C2E0C0",
"5.	c #52C349",
"6.	c #9EE296",
"7.	c #79DB6E",
"8.	c #64D25B",
"9.	c #39CB41",
"0.	c #33CC40",
"a.	c #4BD752",
"b.	c #50D853",
"c.	c #5BDC5A",
"d.	c #5CDC5B",
"e.	c #5BDB5B",
"f.	c #57DA56",
"g.	c #5FDA49",
"h.	c #39B417",
"i.	c #B4D4AE",
"j.	c #51C24B",
"k.	c #60D75D",
"l.	c #26C02C",
"m.	c #14C429",
"n.	c #29CC3B",
"o.	c #40D448",
"p.	c #52D855",
"q.	c #5DDC5D",
"r.	c #56DA58",
"s.	c #65DD63",
"t.	c #6DDF69",
"u.	c #71DF69",
"v.	c #66DE62",
"w.	c #39D339",
"x.	c #3AB217",
"y.	c #B3D5AD",
"z.	c #C1DEC0",
"A.	c #52C74B",
"B.	c #2BCB37",
"C.	c #2CD238",
"D.	c #14C42A",
"E.	c #2DCE3E",
"F.	c #49D74E",
"G.	c #5ADC5B",
"H.	c #6CDF66",
"I.	c #76E26E",
"J.	c #80E576",
"K.	c #8BE87B",
"L.	c #89E877",
"M.	c #57DB58",
"N.	c #10D23B",
"O.	c #37C025",
"P.	c #B5D3AD",
"Q.	c #C2E0C1",
"R.	c #43C044",
"S.	c #20C632",
"T.	c #23D32F",
"U.	c #23CC33",
"V.	c #2BCD3C",
"W.	c #4AD851",
"X.	c #56DB5C",
"Y.	c #6AE269",
"Z.	c #7FE978",
"`.	c #98EC86",
" +	c #A8EF8D",
".+	c #93E87F",
"++	c #1BD13D",
"@+	c #09D642",
"#+	c #26CE38",
"$+	c #C3DFC0",
"%+	c #34B041",
"&+	c #20BE2F",
"*+	c #1ECD2B",
"=+	c #27D334",
"-+	c #20CB36",
";+	c #31D444",
">+	c #3FDB51",
",+	c #52E05E",
"'+	c #68E46E",
")+	c #93EC83",
"!+	c #C0EA9B",
"~+	c #5DD95C",
"{+	c #0BD33E",
"]+	c #09DA47",
"^+	c #17DD48",
"/+	c #B2D9AE",
"(+	c #CDE2CD",
"_+	c #34AE39",
":+	c #2DBB34",
"<+	c #29CB2E",
"[+	c #2BD332",
"}+	c #32D540",
"|+	c #1ECF37",
"1+	c #29D542",
"2+	c #31DC4B",
"3+	c #40E15E",
"4+	c #57E269",
"5+	c #88DE7E",
"6+	c #10CA33",
"7+	c #0CD03B",
"8+	c #0ED440",
"9+	c #17D845",
"0+	c #B9E8C0",
"a+	c #DAEFDA",
"b+	c #75C96E",
"c+	c #23B214",
"d+	c #1CA312",
"e+	c #23981D",
"f+	c #1FA81F",
"g+	c #14A915",
"h+	c #18AF16",
"i+	c #16B018",
"j+	c #15AE18",
"k+	c #0EA813",
"l+	c #0DAD13",
"m+	c #0EB114",
"n+	c #63C166",
"o+	c #D2EAD3",
"p+	c #FCFEFE",
"q+	c #FBFDFB",
"r+	c #C5E3C5",
"s+	c #52B94B",
"t+	c #1EA913",
"u+	c #2CB325",
"v+	c #17BB1D",
"w+	c #1BC220",
"x+	c #1BC022",
"y+	c #13AF18",
"z+	c #0EA712",
"A+	c #3BB041",
"B+	c #B8DDBF",
"C+	c #F7FCF6",
"D+	c #FEFFFD",
"E+	c #FFFEFE",
"F+	c #F1FAF1",
"G+	c #ABDBA7",
"H+	c #33BC2C",
"I+	c #24C927",
"J+	c #1ECF21",
"K+	c #19C220",
"L+	c #1BA21C",
"M+	c #9DCBA0",
"N+	c #EEF8EF",
"O+	c #E5F4E4",
"P+	c #8BD688",
"Q+	c #26D127",
"R+	c #79C07C",
"S+	c #DEEEE0",
"T+	c #FCFEFD",
"U+	c #E4F3E4",
"V+	c #FCFEFC",
"W+	c #FEFEFE",
"X+	c #FFFEFD",
"                                                                      ",
"                                                                      ",
"                                                                      ",
"                                                                      ",
"                                                                      ",
"                                  . +                                 ",
"                              . @ # $ % &                             ",
"                          . * = - ; > , ' . +                         ",
"                        ) ! ~ { ] ^ / ( _ : < & +                     ",
"                    . [ } | 1 2 3 4 5 6 7 8 9 0 %                     ",
"                  a b c d e f g h i j k l m n o p q                   ",
"                  r s t u v w x y z A B C D E F G H                   ",
"                  I J K L M N O P Q R S T U V W X Y                   ",
"                  Z `  ...+.@.#.$.%.&.*.=.-.;.>.,.'.              +   ",
"                  ).!.~.{.].^./.(._.:.<.[.}.|.1.2.3.              +   ",
"                  4.5.6.7.8.9.0.:.a.b.c.d.e.f.g.h.i.                  ",
"                  4.j.k.l.m.n.o.p.q.r.s.t.u.v.w.x.y.                  ",
"                  z.A.B.C.D.E.F.G.H.I.J.K.L.M.N.O.P.              +   ",
"                  Q.R.S.T.U.V.W.X.Y.Z.`. +.+++@+#+y.              +   ",
"                  $+%+&+*+=+-+;+>+,+'+)+!+~+{+]+^+/+              +   ",
"                  (+_+:+<+[+}+|+1+2+3+4+5+6+7+8+9+0+                  ",
"                  . a+b+c+d+e+f+g+h+i+j+k+l+m+n+o+p+                  ",
"                      q+r+s+t+u+v+w+x+y+z+A+B+C+D+                    ",
"                        E+F+G+H+I+J+K+L+M+N+D++ +                     ",
"                            % O+P+Q+R+S+% .     +                     ",
"                                T+U+V+W+                              ",
"                                      &     +                         ",
"                                                                      ",
"                                                                      ",
"                                X++                                   ",
"                                                                      ",
"                                                                      ",
"                                                                      ",
"                                                                      ",
"                                                                      "};
