/* XPM */
static char * C3_xpm[] = {
"35 35 271 2",
"  	c #FFFFFF",
". 	c #FEFFFE",
"+ 	c #FFFFFE",
"@ 	c #F0F7EF",
"# 	c #B9E7BB",
"$ 	c #E8F6E9",
"% 	c #FEFEFD",
"& 	c #FEFFFF",
"* 	c #F8FCF8",
"= 	c #BCDFBC",
"- 	c #66CB5F",
"; 	c #5AE64A",
"> 	c #50D550",
", 	c #AEE0AF",
"' 	c #F4FCF7",
") 	c #D7EAD4",
"! 	c #6DC46B",
"~ 	c #58C550",
"{ 	c #8CE877",
"] 	c #76EB5F",
"^ 	c #70EB5D",
"/ 	c #49D746",
"( 	c #5CD05C",
"_ 	c #CAEACC",
": 	c #FCFEFD",
"< 	c #E6F3E5",
"[ 	c #8FCC8A",
"} 	c #4BC246",
"| 	c #6DD15F",
"1 	c #A6E88E",
"2 	c #A2ED80",
"3 	c #90EF73",
"4 	c #8BEF6F",
"5 	c #83EB6F",
"6 	c #47DF49",
"7 	c #3CD83E",
"8 	c #82DC83",
"9 	c #E1F2DF",
"0 	c #F4FBF3",
"a 	c #ADDDAF",
"b 	c #5BC258",
"c 	c #72CE6A",
"d 	c #A0E398",
"e 	c #D8F3CE",
"f 	c #ABEA9B",
"g 	c #9DE78C",
"h 	c #95E67F",
"i 	c #91E67D",
"j 	c #91E579",
"k 	c #76E76E",
"l 	c #60E955",
"m 	c #48DD45",
"n 	c #33CE3A",
"o 	c #9CDEA1",
"p 	c #EEF9F0",
"q 	c #C8EAC7",
"r 	c #75EA6D",
"s 	c #7AEB70",
"t 	c #7DEA77",
"u 	c #B5E8AE",
"v 	c #C0EFBE",
"w 	c #40D251",
"x 	c #1FCB37",
"y 	c #19C933",
"z 	c #14C52C",
"A 	c #12C026",
"B 	c #3BC93A",
"C 	c #6DEA4D",
"D 	c #4EEB34",
"E 	c #2FDF25",
"F 	c #28DB21",
"G 	c #AEE3AB",
"H 	c #C5E1C3",
"I 	c #6CE362",
"J 	c #73E96E",
"K 	c #9AE899",
"L 	c #AFE8A9",
"M 	c #82E475",
"N 	c #6BDF66",
"O 	c #44D951",
"P 	c #38D548",
"Q 	c #2DCD3C",
"R 	c #23CB36",
"S 	c #17CA30",
"T 	c #60DB4C",
"U 	c #6AEA3F",
"V 	c #40E72D",
"W 	c #2FDB24",
"X 	c #B2D6AC",
"Y 	c #C3E0C2",
"Z 	c #67D25E",
"` 	c #8FE98A",
" .	c #B1E5A8",
"..	c #A1E98F",
"+.	c #99EB83",
"@.	c #92EA80",
"#.	c #71E26C",
"$.	c #58DE5A",
"%.	c #47D74D",
"&.	c #39D144",
"*.	c #2BCC3C",
"=.	c #35CD3C",
"-.	c #74E955",
";.	c #5CEC3D",
">.	c #43D328",
",.	c #B3D3AB",
"'.	c #C4E0C1",
").	c #56C64D",
"!.	c #A3E59C",
"~.	c #ACE89F",
"{.	c #ACEF92",
"].	c #B4ED93",
"^.	c #9AE983",
"/.	c #6FDE68",
"(.	c #4FD653",
"_.	c #42D348",
":.	c #46D44B",
"<.	c #46D54B",
"[.	c #42D54B",
"}.	c #63DD52",
"|.	c #7FE84D",
"1.	c #41BA1D",
"2.	c #B2D4AC",
"3.	c #C4E1C2",
"4.	c #52C249",
"5.	c #9FE296",
"6.	c #7FDE73",
"7.	c #6ED562",
"8.	c #44CD48",
"9.	c #34CC40",
"0.	c #41D349",
"a.	c #4BD751",
"b.	c #50D853",
"c.	c #5ADB5A",
"d.	c #5BDC5B",
"e.	c #56DA55",
"f.	c #62DC4A",
"g.	c #39B317",
"h.	c #B3D3AC",
"i.	c #51C34A",
"j.	c #66D862",
"k.	c #25BF2C",
"l.	c #14C429",
"m.	c #28CC3A",
"n.	c #3FD347",
"o.	c #51D854",
"p.	c #5CDC5C",
"q.	c #54D957",
"r.	c #63DD62",
"s.	c #6BDF67",
"t.	c #70DE68",
"u.	c #66DE61",
"v.	c #3CD43B",
"w.	c #3AB317",
"x.	c #B1D4AB",
"y.	c #C3DFC3",
"z.	c #53C64A",
"A.	c #2ECB38",
"B.	c #2BD038",
"C.	c #2DCE3D",
"D.	c #49D74E",
"E.	c #5ADC5B",
"F.	c #6CDF66",
"G.	c #75E16D",
"H.	c #7EE574",
"I.	c #8AE77A",
"J.	c #88E776",
"K.	c #5BDC5A",
"L.	c #11D139",
"M.	c #38BF24",
"N.	c #B4D3AB",
"O.	c #C5E0C3",
"P.	c #44C145",
"Q.	c #21C732",
"R.	c #24D32F",
"S.	c #21CB33",
"T.	c #2BCD3C",
"U.	c #49D750",
"V.	c #57DC5C",
"W.	c #6BE169",
"X.	c #7FE976",
"Y.	c #97EC85",
"Z.	c #A6EF8C",
"`.	c #95E880",
" +	c #1ED13F",
".+	c #09D642",
"++	c #26CD37",
"@+	c #C5E0C2",
"#+	c #35B141",
"$+	c #20BF30",
"%+	c #1ECD2B",
"&+	c #29D434",
"*+	c #21CB36",
"=+	c #34D545",
"-+	c #40DB51",
";+	c #54E05E",
">+	c #6AE46F",
",+	c #94EC84",
"'+	c #BEEB9A",
")+	c #64DB60",
"!+	c #0CD33D",
"~+	c #09DA46",
"{+	c #17DC48",
"]+	c #B0D8AC",
"^+	c #CBE1CC",
"/+	c #33AD38",
"(+	c #2FBC35",
"_+	c #2ACD2F",
":+	c #29D332",
"<+	c #2BD43E",
"[+	c #19CE36",
"}+	c #25D441",
"|+	c #2FDD4C",
"1+	c #42E25E",
"2+	c #5BE46A",
"3+	c #91E285",
"4+	c #12CC35",
"5+	c #0BD23D",
"6+	c #0DD642",
"7+	c #17DB47",
"8+	c #B5E6BA",
"9+	c #FEFEFE",
"0+	c #D4EBD3",
"a+	c #69C663",
"b+	c #22B315",
"c+	c #1EA515",
"d+	c #289C22",
"e+	c #21AA22",
"f+	c #19AC1B",
"g+	c #1BB11A",
"h+	c #19B11B",
"i+	c #17B01C",
"j+	c #0FA914",
"k+	c #0DAD14",
"l+	c #0EB114",
"m+	c #54BE56",
"n+	c #C9E6CA",
"o+	c #FBFEFC",
"p+	c #F9FDF9",
"q+	c #BDDFBC",
"r+	c #48B640",
"s+	c #1EA712",
"t+	c #2CB326",
"u+	c #16B91C",
"v+	c #1BC120",
"w+	c #1BBF22",
"x+	c #13B019",
"y+	c #0EA712",
"z+	c #2DAE34",
"A+	c #ACD8B4",
"B+	c #FEFFFD",
"C+	c #FFFEFE",
"D+	c #EDF8EC",
"E+	c #A2D79E",
"F+	c #2BBB23",
"G+	c #23C927",
"H+	c #1DCE21",
"I+	c #1AC320",
"J+	c #10A213",
"K+	c #90C593",
"L+	c #E8F5E9",
"M+	c #FDFEFC",
"N+	c #DFF1DE",
"O+	c #80D47C",
"P+	c #26D326",
"Q+	c #6ABB6C",
"R+	c #D6E9D8",
"S+	c #FCFEFC",
"T+	c #FBFEFD",
"U+	c #DDF0DD",
"V+	c #F9FDFA",
"                                                                      ",
"                                                                      ",
"                                                                      ",
"                                                                      ",
"                                                                      ",
"                                  . +                                 ",
"                              . @ # $ % &                             ",
"                          . * = - ; > , ' + +                         ",
"                        % ) ! ~ { ] ^ / ( _ :                         ",
"                    & < [ } | 1 2 3 4 5 6 7 8 9 %                     ",
"                  0 a b c d e f g h i j k l m n o p                   ",
"                  q r s t u v w x y z A B C D E F G                   ",
"                  H I J K L M N O P Q R S T U V W X                   ",
"                  Y Z `  ...+.@.#.$.%.&.*.=.-.;.>.,.                  ",
"                  '.).!.~.{.].^./.(._.:.<.[.}.|.1.2.                  ",
"                  3.4.5.6.7.8.9.0.a.b.c.d.c.e.f.g.h.                  ",
"                  3.i.j.k.l.m.n.o.p.q.r.s.t.u.v.w.x.                  ",
"                  y.z.A.B.l.C.D.E.F.G.H.I.J.K.L.M.N.                  ",
"                  O.P.Q.R.S.T.U.V.W.X.Y.Z.`. +.+++2.              +   ",
"                  @+#+$+%+&+*+=+-+;+>+,+'+)+!+~+{+]+              +   ",
"                  ^+/+(+_+:+<+[+}+|+1+2+3+4+5+6+7+8+                  ",
"                  9+0+a+b+c+d+e+f+g+h+i+j+k+l+m+n+o+                  ",
"                      p+q+r+s+t+u+v+w+x+y+z+A+0 B+                    ",
"                        C+D+E+F+G+H+I+J+K+L+B+. +                     ",
"                            M+N+O+P+Q+R+S+.     +                     ",
"                                T+U+V+9+                              ",
"                                      &     +                         ",
"                                                                      ",
"                                                                      ",
"                                                                      ",
"                                                      +               ",
"                                                      +               ",
"                                                                      ",
"                                                                      ",
"                                                                      "};
