/* XPM */
static char * clDoor_xpm[] = {
"35 35 811 2",
"  	c #FFFFFD",
". 	c #FFFFFE",
"+ 	c #FFFFFF",
"@ 	c #FAFAF8",
"# 	c #FAFBF8",
"$ 	c #F4F5F1",
"% 	c #EEF0EB",
"& 	c #DFE3DA",
"* 	c #D8DDD5",
"= 	c #C0C6BC",
"- 	c #B5BDB0",
"; 	c #B6BFAE",
"> 	c #B9C2B1",
", 	c #B4BCAD",
"' 	c #AFB8AB",
") 	c #BCC2BA",
"! 	c #D6D9D4",
"~ 	c #EEEFEB",
"{ 	c #F5F6F4",
"] 	c #F6F7F5",
"^ 	c #F9FAF8",
"/ 	c #FEFFFE",
"( 	c #FEFFFD",
"_ 	c #F8F9F7",
": 	c #E1E4DC",
"< 	c #D8DED3",
"[ 	c #D0D7CC",
"} 	c #A6ABA3",
"| 	c #BAC1B4",
"1 	c #BDC5B6",
"2 	c #B2BAA9",
"3 	c #B3BDA9",
"4 	c #99A390",
"5 	c #97A18D",
"6 	c #B0BBA7",
"7 	c #AFBCA6",
"8 	c #ADBBA4",
"9 	c #ADB8A4",
"0 	c #ACB7A5",
"a 	c #A8B5A2",
"b 	c #788773",
"c 	c #AFB9A5",
"d 	c #C3CBBC",
"e 	c #CAD1C5",
"f 	c #CAD0C6",
"g 	c #CED2CC",
"h 	c #E7EAE5",
"i 	c #FBFDF9",
"j 	c #EBEDE9",
"k 	c #BEC5B7",
"l 	c #B1BAA9",
"m 	c #B7C1AF",
"n 	c #838E7C",
"o 	c #929D8C",
"p 	c #ADB9A3",
"q 	c #ACB8A3",
"r 	c #97A490",
"s 	c #95A28C",
"t 	c #ACB8A2",
"u 	c #ABBAA2",
"v 	c #ACB9A1",
"w 	c #ABB7A1",
"x 	c #A5B29D",
"y 	c #9EB099",
"z 	c #7A8974",
"A 	c #A9B5A1",
"B 	c #ADB9A5",
"C 	c #ACB8A4",
"D 	c #939E8D",
"E 	c #A8B2A1",
"F 	c #C1CABA",
"G 	c #C6CBC2",
"H 	c #F4F5F2",
"I 	c #FEFEFD",
"J 	c #DFE2DB",
"K 	c #ADB8A6",
"L 	c #ACB9A2",
"M 	c #AEB9A3",
"N 	c #9EAA95",
"O 	c #84917E",
"P 	c #AAB8A2",
"Q 	c #95A28E",
"R 	c #96A28D",
"S 	c #ACBAA3",
"T 	c #A7B49E",
"U 	c #91A18B",
"V 	c #80907B",
"W 	c #A9B5A0",
"X 	c #ABB8A3",
"Y 	c #9FAB97",
"Z 	c #75816E",
"` 	c #A9B4A0",
" .	c #BBC4B2",
"..	c #D5D9D1",
"+.	c #FEFEFC",
"@.	c #D0D5CA",
"#.	c #ACB7A2",
"$.	c #ACB9A3",
"%.	c #AEB9A4",
"&.	c #A8B49F",
"*.	c #84907D",
"=.	c #A8B49E",
"-.	c #ADB8A2",
";.	c #A9B8A2",
">.	c #919986",
",.	c #8C9482",
"'.	c #A0AC98",
").	c #9EAA96",
"!.	c #A2AE97",
"~.	c #AAB49F",
"{.	c #949B86",
"].	c #8B9882",
"^.	c #A9B59F",
"/.	c #AAB8A1",
"(.	c #83907B",
"_.	c #8B9784",
":.	c #AAB5A0",
"<.	c #ADB8A3",
"[.	c #B0BCA6",
"}.	c #D2D7CD",
"|.	c #FDFDFC",
"1.	c #C8CDC2",
"2.	c #ACB7A3",
"3.	c #ABB7A2",
"4.	c #A7B39F",
"5.	c #7F8675",
"6.	c #919683",
"7.	c #A09987",
"8.	c #978272",
"9.	c #905A4D",
"0.	c #91594A",
"a.	c #8D6455",
"b.	c #9E6B5C",
"c.	c #A26C5C",
"d.	c #A46556",
"e.	c #A56656",
"f.	c #9A5546",
"g.	c #8F6556",
"h.	c #A08774",
"i.	c #9A8B77",
"j.	c #89927D",
"k.	c #A7B29D",
"l.	c #D3D8CE",
"m.	c #D2D5D0",
"n.	c #8A9583",
"o.	c #A9B49E",
"p.	c #8C7B6A",
"q.	c #AA5244",
"r.	c #C46654",
"s.	c #C05541",
"t.	c #AE4630",
"u.	c #A35C56",
"v.	c #B04C3F",
"w.	c #AB412C",
"x.	c #BC5441",
"y.	c #A44938",
"z.	c #B94630",
"A.	c #C45844",
"B.	c #935956",
"C.	c #AB412F",
"D.	c #C04C32",
"E.	c #BD5343",
"F.	c #AC7260",
"G.	c #AAB298",
"H.	c #949E8C",
"I.	c #E7EAE3",
"J.	c #FCFDFB",
"K.	c #CCD2C9",
"L.	c #B8C2B1",
"M.	c #97A38F",
"N.	c #86917E",
"O.	c #934534",
"P.	c #CE553F",
"Q.	c #9C635D",
"R.	c #C55541",
"S.	c #B74730",
"T.	c #CF5746",
"U.	c #C6533F",
"V.	c #B0442F",
"W.	c #D15C42",
"X.	c #CB5037",
"Y.	c #B54532",
"Z.	c #CA543F",
"`.	c #C95A4A",
" +	c #B64533",
".+	c #C74D38",
"++	c #9F514B",
"@+	c #C04E3C",
"#+	c #A57361",
"$+	c #A2AB99",
"%+	c #BBC3B2",
"&+	c #BFC7B8",
"*+	c #F0F3EC",
"=+	c #FBFDFB",
"-+	c #B6C2AD",
";+	c #B2BEAA",
">+	c #A4B39E",
",+	c #9E4D3D",
"'+	c #D55D46",
")+	c #C55741",
"!+	c #CC5741",
"~+	c #B74632",
"{+	c #D45B42",
"]+	c #CA5640",
"^+	c #B4462F",
"/+	c #CE4F37",
"(+	c #B6462F",
"_+	c #CD513E",
":+	c #D65F4E",
"<+	c #B94A36",
"[+	c #C84F36",
"}+	c #D1553F",
"|+	c #C94B35",
"1+	c #A87969",
"2+	c #BAC3B0",
"3+	c #B9C2B0",
"4+	c #B9C2B2",
"5+	c #FCFDFC",
"6+	c #C8CFC3",
"7+	c #B1BDA7",
"8+	c #A6B59E",
"9+	c #A45748",
"0+	c #D85E48",
"a+	c #CD513B",
"b+	c #CD543C",
"c+	c #B94C3A",
"d+	c #C8675B",
"e+	c #AB564E",
"f+	c #874A49",
"g+	c #975652",
"h+	c #895155",
"i+	c #735157",
"j+	c #775155",
"k+	c #8B5357",
"l+	c #B25143",
"m+	c #CA4E35",
"n+	c #D2553F",
"o+	c #CA4B35",
"p+	c #A67564",
"q+	c #ACB6A5",
"r+	c #EDEFEB",
"s+	c #C5CCC0",
"t+	c #B0BBA5",
"u+	c #ADB9A2",
"v+	c #A8B59E",
"w+	c #AA6150",
"x+	c #D75C47",
"y+	c #D1563E",
"z+	c #CC533C",
"A+	c #B94B38",
"B+	c #724B4F",
"C+	c #39414E",
"D+	c #464D5D",
"E+	c #3F4955",
"F+	c #303C49",
"G+	c #485161",
"H+	c #353C46",
"I+	c #564650",
"J+	c #A2443C",
"K+	c #CC4E35",
"L+	c #D25640",
"M+	c #CA4C36",
"N+	c #AB7B69",
"O+	c #AAB6A1",
"P+	c #ABB6A1",
"Q+	c #E9ECE8",
"R+	c #FBFDFC",
"S+	c #C4CBBE",
"T+	c #7E6062",
"U+	c #AB5C5D",
"V+	c #CE5842",
"W+	c #D25B45",
"X+	c #B74936",
"Y+	c #674444",
"Z+	c #0D1318",
"`+	c #373B49",
" @	c #2E313D",
".@	c #0C0F15",
"+@	c #3D4250",
"@@	c #14171B",
"#@	c #4D3A43",
"$@	c #A0433A",
"%@	c #CC4D35",
"&@	c #D35641",
"*@	c #CD4F3A",
"=@	c #A97B6A",
"-@	c #E6EBE5",
";@	c #C4CAC0",
">@	c #ABB6A2",
",@	c #505762",
"'@	c #734A53",
")@	c #CB5845",
"!@	c #D5604B",
"~@	c #B54937",
"{@	c #663F40",
"]@	c #0D1419",
"^@	c #31333F",
"/@	c #2A2C35",
"(@	c #090C11",
"_@	c #393C48",
":@	c #13151B",
"<@	c #4C353E",
"[@	c #9D4235",
"}@	c #CD4F37",
"|@	c #D35740",
"1@	c #D25642",
"2@	c #A27867",
"3@	c #ABB69F",
"4@	c #ADBAA2",
"5@	c #AAB5A1",
"6@	c #E6EAE3",
"7@	c #C6CCC2",
"8@	c #AAB6A0",
"9@	c #484D53",
"0@	c #5F3C42",
"a@	c #D2634F",
"b@	c #D45E4C",
"c@	c #70403B",
"d@	c #0C131A",
"e@	c #2A2B31",
"f@	c #25272C",
"g@	c #060A0E",
"h@	c #33353E",
"i@	c #111216",
"j@	c #493136",
"k@	c #9E4130",
"l@	c #CD4E39",
"m@	c #D15741",
"n@	c #D25843",
"o@	c #9E7A67",
"p@	c #A9B79E",
"q@	c #A5B09D",
"r@	c #E6E9E3",
"s@	c #C8CDC3",
"t@	c #424546",
"u@	c #62393A",
"v@	c #D86B55",
"w@	c #CD5644",
"x@	c #B34835",
"y@	c #7D433E",
"z@	c #0A141C",
"A@	c #262931",
"B@	c #21242A",
"C@	c #13181D",
"D@	c #2B2E35",
"E@	c #15181C",
"F@	c #4B2C2E",
"G@	c #A54935",
"H@	c #CD4E38",
"I@	c #D05540",
"J@	c #D15944",
"K@	c #A27F6B",
"L@	c #AABAA1",
"M@	c #A7B2A0",
"N@	c #E6E9E2",
"O@	c #CBCEC5",
"P@	c #ACB8A1",
"Q@	c #755B4F",
"R@	c #A84335",
"S@	c #CE533F",
"T@	c #D25A46",
"U@	c #B24634",
"V@	c #AE594D",
"W@	c #703932",
"X@	c #6F322B",
"Y@	c #863D32",
"Z@	c #84392D",
"`@	c #7F362C",
" #	c #A64C3A",
".#	c #AE4D3C",
"+#	c #BC5540",
"@#	c #D15642",
"##	c #D25847",
"$#	c #A3826D",
"%#	c #ABBAA0",
"&#	c #ACB7A4",
"*#	c #E5E9E3",
"=#	c #CED2C9",
"-#	c #8F6758",
";#	c #CB4E30",
">#	c #D05640",
",#	c #DC6351",
"'#	c #AD422E",
")#	c #D0573F",
"!#	c #C3503B",
"~#	c #C14A36",
"{#	c #D35941",
"]#	c #C64E37",
"^#	c #AB4533",
"/#	c #D45D47",
"(#	c #CC4D36",
"_#	c #BE4A35",
":#	c #D0533E",
"<#	c #CE5A4A",
"[#	c #CD5845",
"}#	c #A6846E",
"|#	c #AAB89F",
"1#	c #ABB6A4",
"2#	c #FEFEFE",
"3#	c #CED3CA",
"4#	c #91695A",
"5#	c #CC4F34",
"6#	c #DC654E",
"7#	c #CC523F",
"8#	c #A8402B",
"9#	c #D1573D",
"0#	c #C6503A",
"a#	c #C64E39",
"b#	c #C54F39",
"c#	c #D45B45",
"d#	c #CD4B34",
"e#	c #C04831",
"f#	c #C25549",
"g#	c #7F4F4D",
"h#	c #C75947",
"i#	c #A58570",
"j#	c #ABB6A3",
"k#	c #D1D5CC",
"l#	c #ACB7A1",
"m#	c #906A5C",
"n#	c #D1553D",
"o#	c #D0533F",
"p#	c #C84F3A",
"q#	c #AA4331",
"r#	c #D2573F",
"s#	c #C9553F",
"t#	c #D05A46",
"u#	c #D15842",
"v#	c #C5523C",
"w#	c #AC4533",
"x#	c #D55B44",
"y#	c #CE4C35",
"z#	c #C24830",
"A#	c #C5574E",
"B#	c #6F4D53",
"C#	c #CC5845",
"D#	c #A68570",
"E#	c #ABB9A0",
"F#	c #D3D7CE",
"G#	c #906D5F",
"H#	c #D45A42",
"I#	c #CE513A",
"J#	c #D45B4B",
"K#	c #B24A39",
"L#	c #CE543A",
"M#	c #BD4A33",
"N#	c #C95543",
"O#	c #D8614E",
"P#	c #CA5845",
"Q#	c #AF4635",
"R#	c #D2563F",
"S#	c #CB4C34",
"T#	c #C1482F",
"U#	c #C55546",
"V#	c #734A4B",
"W#	c #D05846",
"X#	c #A78670",
"Y#	c #AAB9A0",
"Z#	c #D5DAD1",
"`#	c #8D7062",
" $	c #D55B45",
".$	c #CD533A",
"+$	c #DA6151",
"@$	c #B04532",
"#$	c #CE5339",
"$$	c #BB4832",
"%$	c #DD6856",
"&$	c #CE5C4A",
"*$	c #B44A39",
"=$	c #CF533B",
"-$	c #D1533C",
";$	c #C34930",
">$	c #C3533F",
",$	c #653938",
"'$	c #CD5947",
")$	c #A6866F",
"!$	c #AAB99F",
"~$	c #AAB4A2",
"{$	c #E7EBE4",
"]$	c #D7DBD2",
"^$	c #ABB6A0",
"/$	c #8C7364",
"($	c #D65A45",
"_$	c #D0523A",
":$	c #D55F4B",
"<$	c #B3452F",
"[$	c #CD5239",
"}$	c #B84833",
"|$	c #CE5D48",
"1$	c #DD6754",
"2$	c #CA5545",
"3$	c #BC4E3C",
"4$	c #D0543D",
"5$	c #D2573E",
"6$	c #C74E37",
"7$	c #BE4F3A",
"8$	c #662F27",
"9$	c #C95B48",
"0$	c #A48671",
"a$	c #AAB9A1",
"b$	c #A8B3A1",
"c$	c #EBEDE7",
"d$	c #DADDD5",
"e$	c #8C7463",
"f$	c #D55A45",
"g$	c #D0523B",
"h$	c #D25A48",
"i$	c #BE4730",
"j$	c #CE523B",
"k$	c #B64934",
"l$	c #C7503B",
"m$	c #DD6351",
"n$	c #C34F3D",
"o$	c #C4523C",
"p$	c #CC553D",
"q$	c #C7543E",
"r$	c #CE533E",
"s$	c #C95640",
"t$	c #D55F4A",
"u$	c #A48672",
"v$	c #AAB9A3",
"w$	c #A8B3A0",
"x$	c #DBDFD6",
"y$	c #8B7262",
"z$	c #D55944",
"A$	c #D0523C",
"B$	c #D25B4A",
"C$	c #C1472F",
"D$	c #CE523A",
"E$	c #B54832",
"F$	c #C8503C",
"G$	c #DC6453",
"H$	c #C34D39",
"I$	c #C85240",
"J$	c #CE543C",
"K$	c #CF553E",
"L$	c #C34F3A",
"M$	c #CF563E",
"N$	c #A68772",
"O$	c #ABB9A2",
"P$	c #A9B3A1",
"Q$	c #F1F4EE",
"R$	c #DCE0D7",
"S$	c #897060",
"T$	c #D55945",
"U$	c #D0533C",
"V$	c #D25E4B",
"W$	c #C04931",
"X$	c #D0553F",
"Y$	c #B44732",
"Z$	c #CB523D",
"`$	c #DA614E",
" %	c #C24B34",
".%	c #CC5743",
"+%	c #CE533D",
"@%	c #CB523C",
"#%	c #CD5A45",
"$%	c #D35841",
"%%	c #CE533B",
"&%	c #D55C48",
"*%	c #A78774",
"=%	c #AAB9A4",
"-%	c #A6B19E",
";%	c #F6F8F3",
">%	c #DEE2D9",
",%	c #86675A",
"'%	c #D45A46",
")%	c #D15E4A",
"!%	c #BE4930",
"~%	c #D65B48",
"{%	c #B34732",
"]%	c #D75D49",
"^%	c #C34D33",
"/%	c #C85441",
"(%	c #D25742",
"_%	c #CA503A",
":%	c #CC5944",
"<%	c #D25840",
"[%	c #A58471",
"}%	c #A9B4A2",
"|%	c #FAFCF8",
"1%	c #9EA996",
"2%	c #99A592",
"3%	c #939F8C",
"4%	c #715F5B",
"5%	c #C45D52",
"6%	c #CE533C",
"7%	c #D3604C",
"8%	c #BD492F",
"9%	c #D7604E",
"0%	c #AE432F",
"a%	c #C7503A",
"b%	c #D85D48",
"c%	c #C64E35",
"d%	c #BB4A36",
"e%	c #D65D47",
"f%	c #CB4F3A",
"g%	c #C7523E",
"h%	c #D95E47",
"i%	c #D0563E",
"j%	c #CD523D",
"k%	c #A07B67",
"l%	c #95A58F",
"m%	c #98A491",
"n%	c #ABB4A7",
"o%	c #F9FBF7",
"p%	c #FCFCFB",
"q%	c #CAD0C5",
"r%	c #B3BDAB",
"s%	c #A6B19D",
"t%	c #9CA894",
"u%	c #4D5660",
"v%	c #8C5458",
"w%	c #CB4F3C",
"x%	c #D35F4B",
"y%	c #BC482F",
"z%	c #D76250",
"A%	c #B54B3A",
"B%	c #C14F38",
"C%	c #D65B44",
"D%	c #C64C35",
"E%	c #B34632",
"F%	c #D9604B",
"G%	c #CA5744",
"H%	c #D65B47",
"I%	c #D35741",
"J%	c #D05843",
"K%	c #AFA090",
"L%	c #BBC6B5",
"M%	c #B9C3B3",
"N%	c #B8C2B3",
"O%	c #D2D5CE",
"P%	c #C1C8B9",
"Q%	c #AEBAA4",
"R%	c #AFBAA6",
"S%	c #A5B19E",
"T%	c #454B54",
"U%	c #79494B",
"V%	c #C84E3A",
"W%	c #D4604D",
"X%	c #BC472E",
"Y%	c #D96251",
"Z%	c #C35543",
"`%	c #BB4B34",
" &	c #D25841",
".&	c #C84E36",
"+&	c #B34733",
"@&	c #DB634F",
"#&	c #C8513D",
"$&	c #C65745",
"%&	c #D35845",
"&&	c #D55A44",
"*&	c #CD533D",
"=&	c #948F7F",
"-&	c #A9B8A4",
";&	c #CCD1C7",
">&	c #FAFCF9",
",&	c #B5BEAF",
"'&	c #ADB9A4",
")&	c #ADBBA5",
"!&	c #A7B29E",
"~&	c #3F4144",
"{&	c #773F3C",
"]&	c #C84E37",
"^&	c #D35F4F",
"/&	c #BE4833",
"(&	c #D96551",
"_&	c #C5533E",
":&	c #B94631",
"<&	c #D45B44",
"[&	c #C94F39",
"}&	c #B84B38",
"|&	c #DD6454",
"1&	c #CF5541",
"2&	c #C0503D",
"3&	c #D45944",
"4&	c #D65C46",
"5&	c #C74F37",
"6&	c #8E8574",
"7&	c #A5B19B",
"8&	c #CBD2C6",
"9&	c #FDFFFD",
"0&	c #F5F5F3",
"a&	c #D9DCD6",
"b&	c #C2C9BD",
"c&	c #8B9685",
"d&	c #889583",
"e&	c #899481",
"f&	c #4E3F3B",
"g&	c #9E4D3C",
"h&	c #D3604F",
"i&	c #BB4B38",
"j&	c #DE6853",
"k&	c #CA5642",
"l&	c #B14432",
"m&	c #D55D47",
"n&	c #CF5743",
"o&	c #B84B37",
"p&	c #D76150",
"q&	c #CF543E",
"r&	c #BD4D38",
"s&	c #D45947",
"t&	c #D85E4A",
"u&	c #C65138",
"v&	c #776D5E",
"w&	c #84927E",
"x&	c #838E7B",
"y&	c #A3AC9C",
"z&	c #D0D5CB",
"A&	c #E0E2DD",
"B&	c #E1E4DE",
"C&	c #C6CEC0",
"D&	c #B5BEAD",
"E&	c #B5C0AA",
"F&	c #BBC5B1",
"G&	c #B2BCAA",
"H&	c #827060",
"I&	c #C75842",
"J&	c #D36252",
"K&	c #B64D3B",
"L&	c #DB6856",
"M&	c #CE5948",
"N&	c #AB422E",
"O&	c #D85F4B",
"P&	c #D65D4A",
"Q&	c #B54B38",
"R&	c #D05D4D",
"S&	c #D25C46",
"T&	c #BC4D38",
"U&	c #D15A46",
"V&	c #D8604C",
"W&	c #C7543F",
"X&	c #9D9D8B",
"Y&	c #B6C1AD",
"Z&	c #BCC7B4",
"`&	c #B7C0B0",
" *	c #C1C7BC",
".*	c #F7F8F5",
"+*	c #E0E4DD",
"@*	c #B0BAA9",
"#*	c #AEBAA3",
"$*	c #8B8673",
"%*	c #B74C3C",
"&*	c #955C5E",
"**	c #C75E50",
"=*	c #AB483A",
"-*	c #B86456",
";*	c #AC564F",
">*	c #A03D2A",
",*	c #AA5C57",
"'*	c #AE5143",
")*	c #BA5340",
"!*	c #A5645F",
"~*	c #B15147",
"{*	c #C85846",
"]*	c #A25F5D",
"^*	c #BA5341",
"/*	c #9EAA93",
"(*	c #ADBCA3",
"_*	c #B7BFAF",
":*	c #E2E5DE",
"<*	c #B0B9A7",
"[*	c #ABB9A1",
"}*	c #818572",
"|*	c #896555",
"1*	c #986D5F",
"2*	c #9B6C5D",
"3*	c #7A6356",
"4*	c #8B695B",
"5*	c #9D6A5E",
"6*	c #896354",
"7*	c #9F6857",
"8*	c #A87262",
"9*	c #996757",
"0*	c #9D695B",
"a*	c #9F6D5E",
"b*	c #926556",
"c*	c #A46C57",
"d*	c #A26B5A",
"e*	c #9B6452",
"f*	c #9BA691",
"g*	c #ADB8A0",
"h*	c #B7BFB0",
"i*	c #F8FAF8",
"j*	c #E5E7E3",
"k*	c #AFB6A9",
"l*	c #A3AC99",
"m*	c #9FA994",
"n*	c #9EA993",
"o*	c #9CA794",
"p*	c #8B9485",
"q*	c #879284",
"r*	c #899485",
"s*	c #879283",
"t*	c #858F82",
"u*	c #848F7F",
"v*	c #818B7E",
"w*	c #7E897B",
"x*	c #7C867A",
"y*	c #7D8778",
"z*	c #798373",
"A*	c #768274",
"B*	c #778273",
"C*	c #737E71",
"D*	c #727D6D",
"E*	c #757E71",
"F*	c #787E73",
"G*	c #9AA492",
"H*	c #A7B29C",
"I*	c #A6B19C",
"J*	c #F8FAF9",
"        . + . @ # # $ $ % & * = - ; > , ' ) ! ~ { ] ^ . / (     . + + ",
"        . _ : < [ } | 1 2 3 4 5 6 7 8 9 0 a b c d e f g h i     . + + ",
"          j k l m n o 9 p q r s t u v w x y z A B C D E F G H   . + + ",
"        I J K L M N O P t q Q R p S p p T U V W X Y Z ` B  .... + + + ",
"        +.@.#.$.%.&.*.=.-.;.>.,.'.).!.~.~.{.].^./.(._.:.<.[.}./ + + + ",
"        |.1.2.q 3.4.5.6.7.8.9.0.a.b.c.d.e.f.g.h.i.j.t #.<.k.l./ + + + ",
". .     I m.n.N o.p.q.r.s.t.u.v.w.x.y.z.A.B.C.D.E.F.G.<.&.H.I.  . + + ",
"+ + .   J.K.L.M.N.O.P.Q.R.S.T.U.V.W.X.Y.Z.`. +.+++@+#+$+%+&+*+( . + + ",
"+ + + . =+e -+;+>+,+'+)+!+~+{+]+^+'+/+(+_+:+<+[+}+|+1+2+3+4+%   + + + ",
"+ + + + 5+6+7+p 8+9+0+a+b+c+d+e+f+g+h+i+j+k+l+m+n+o+p+:.-.q+r+  + + + ",
"+ + + + =+s+t+u+v+w+x+y+z+A+B+C+D+E+F+G+H+I+J+K+L+M+N+O+<.P+Q+. + + + ",
"+ + + + R+S+M -.O+T+U+V+W+X+Y+Z+`+ @.@+@@@#@$@%@&@*@=@P+p #.-@  + + + ",
"+ + + + 5+;@#.p >@,@'@)@!@~@{@]@^@/@(@_@:@<@[@}@|@1@2@3@4@5@6@( . + + ",
"+ + + + R+7@8@p w 9@0@a@b@~@c@d@e@f@g@h@i@j@k@l@m@n@o@p@p q@r@  . . . ",
"+ + + + |.s@P+u+#.t@u@v@w@x@y@z@A@B@C@D@E@F@G@H@I@J@K@L@p M@N@.       ",
"+ + + + |.O@P@p t Q@R@S@T@U@V@W@X@Y@Z@`@ #.#+#/+@###$#%#p &#*#.       ",
"+ + + + I =#P@t 3.-#;#>#,#'#)#!#~#{#]#^#/#(#_#:#<#[#}#|#t 1#r@.       ",
"+ + + + 2#3#w t u+4#5#6#7#8#9#0#a#|@b#^#c#d#e#f#g#h#i#|#t j#N@.       ",
"+ + + + I k#l#u+p m#n#o#p#q#r#s#t#u#v#w#x#y#z#A#B#C#D#E#t 1#6@        ",
"+ + + + I F#t t p G#H#I#J#K#L#M#N#O#P#Q#R#S#T#U#V#W#X#Y#t j#6@(       ",
"+ + + + I Z#w t p `# $.$+$@$#$$$P#%$&$*$=$-$;$>$,$'$)$!$t ~${$        ",
"+ + + + 2#]$^$t <./$($_$:$<$[$}$|$1$2$3$4$5$6$7$8$9$0$a$t b$c$(       ",
"+ + + + 2#d$8@t p e$f$g$h$i$j$k$l$m$n$o$y+p$q$r$s$t$u$v$q w$% .       ",
"+ + + + 2#x$8@t p y$z$A$B$C$D$E$F$G$H$I$J$K$L${#M$t$N$O$t P$Q$+ + + . ",
"+ + + + / R$8@t u+S$T$U$V$W$X$Y$Z$`$ %.%+%@%#%$%%%&%*%=%q -%;%+ + + . ",
"+ + + + . >%8@q q ,%'%%%)%!%~%{%Z$]%^%/%(%_%:%4$<%I@[%v$C }%|%+ . .   ",
"+ + + + 2#J 1%2%3%4%5%6%7%8%9%0%a%b%c%d%e%f%g%h%i%j%k%l%m%n%o%+ +     ",
"+ + + + p%q%r%s%t%u%v%w%x%y%z%A%B%C%D%E%F%p#G%H%I%J%K%L%M%N%O%+ + . . ",
"+ + + + =+P%Q%R%S%T%U%V%W%X%Y%Z%`% &.&+&@&#&$&%&&&*&=&-&C 2.;&+ + + + ",
"+ + + + >&,&'&)&!&~&{&]&^&/&(&_&:&<&[&}&|&1&2&3&4&5&6&8+=.7&8&9&/ + + ",
"+ + + 0&a&b&c&d&e&f&g&X.h&i&j&k&l&m&n&o&p&q&r&s&t&u&v&w&x&y&z&A&p%+ + ",
"+ + + B&C&D&E&F&G&H&I&o#J&K&L&M&N&O&P&Q&R&S&T&U&V&W&X&)&Y&Z&`& *.*. + ",
"+ + + +*@*B #*M $.$*%*&***=*-*;*>*,*'*)*!*~*}${*]*^*/*(*Q%t q _*_ + + ",
"+ + + :*<*%.M #*[*}*|*1*2*3*4*5*6*7*8*9*0*a*b*c*d*e*f*4@-.t g*h*i*+ + ",
"+ + . j*k*l*m*n*o*p*q*r*s*t*u*v*w*x*y*z*A*B*C*D*E*F*G*H*I*I*:.= J*+ + "};
