/* XPM */
static char * en3_xpm[] = {
"35 35 491 2",
"  	c #FFFFFF",
". 	c #FEFEFE",
"+ 	c #FDFDFD",
"@ 	c #F5F4F4",
"# 	c #F1F1F1",
"$ 	c #F6F5F5",
"% 	c #FAFAFA",
"& 	c #F0ECEB",
"* 	c #E4E2E2",
"= 	c #F9F9F8",
"- 	c #FDFDFE",
"; 	c #E7E7E7",
"> 	c #90908E",
", 	c #8C8A8B",
"' 	c #949294",
") 	c #A6A0A0",
"! 	c #8F817D",
"~ 	c #645653",
"{ 	c #B3AEAD",
"] 	c #DCD8D7",
"^ 	c #E8E8E8",
"/ 	c #F0EEEE",
"( 	c #F7F7F7",
"_ 	c #C6C7C7",
": 	c #828387",
"< 	c #7A7A7F",
"[ 	c #7A7A7D",
"} 	c #7B7D81",
"| 	c #7C7E85",
"1 	c #7E8086",
"2 	c #818083",
"3 	c #7B7A7C",
"4 	c #555154",
"5 	c #696261",
"6 	c #8D8A8B",
"7 	c #F7F6F5",
"8 	c #F9FAFB",
"9 	c #B7B4B6",
"0 	c #7D7D82",
"a 	c #77767A",
"b 	c #79777A",
"c 	c #75777C",
"d 	c #74757B",
"e 	c #757579",
"f 	c #686668",
"g 	c #4E4A4D",
"h 	c #595659",
"i 	c #625F60",
"j 	c #F4F3F4",
"k 	c #ADAAAC",
"l 	c #7F7F83",
"m 	c #72757C",
"n 	c #747478",
"o 	c #79777C",
"p 	c #77777A",
"q 	c #74757A",
"r 	c #615F62",
"s 	c #524E4E",
"t 	c #585557",
"u 	c #706E6E",
"v 	c #F8F8F9",
"w 	c #A3A1A3",
"x 	c #7E7C81",
"y 	c #747479",
"z 	c #76767A",
"A 	c #75767C",
"B 	c #5A585D",
"C 	c #534F51",
"D 	c #565355",
"E 	c #7D7B7C",
"F 	c #FCFCFD",
"G 	c #FBFBFC",
"H 	c #B1AFB0",
"I 	c #686669",
"J 	c #6A6869",
"K 	c #6B6B6F",
"L 	c #707177",
"M 	c #74767B",
"N 	c #747477",
"O 	c #565558",
"P 	c #555254",
"Q 	c #545357",
"R 	c #918E90",
"S 	c #FCFCFC",
"T 	c #F6F6F6",
"U 	c #D0CFCF",
"V 	c #B5B5B7",
"W 	c #A4A09D",
"X 	c #7E7B78",
"Y 	c #584A4D",
"Z 	c #5E5D61",
"` 	c #484447",
" .	c #4D4849",
"..	c #4E4B4D",
"+.	c #AFAEAE",
"@.	c #FFFEFE",
"#.	c #F7F6F4",
"$.	c #FEFDFD",
"%.	c #CCC2BF",
"&.	c #73402D",
"*.	c #CAC3C1",
"=.	c #E4E5E6",
"-.	c #DEDCDD",
";.	c #CBC9C9",
">.	c #BCBBBD",
",.	c #E9E9E9",
"'.	c #FBFBFA",
").	c #B7AFA6",
"!.	c #F8F7F6",
"~.	c #FDFDFC",
"{.	c #F6F4F3",
"].	c #C8B5A7",
"^.	c #8C7463",
"/.	c #7F4E38",
"(.	c #D4C9C6",
"_.	c #FDFBFB",
":.	c #FEFDFC",
"<.	c #FBFAFA",
"[.	c #ECE8E4",
"}.	c #AE9D89",
"|.	c #FAF9F5",
"1.	c #E6E1DE",
"2.	c #BAAEA7",
"3.	c #CF905D",
"4.	c #8C5D42",
"5.	c #BE875C",
"6.	c #846B5D",
"7.	c #C7C5C4",
"8.	c #FCFDFD",
"9.	c #C1B9AB",
"0.	c #C2AB86",
"a.	c #F4EFE9",
"b.	c #B1AFAF",
"c.	c #DAD9D7",
"d.	c #F9F7F4",
"e.	c #C7B49F",
"f.	c #D5CEC4",
"g.	c #A28677",
"h.	c #8C5E3E",
"i.	c #C58D5C",
"j.	c #7D5F4D",
"k.	c #726E6E",
"l.	c #E9E8E9",
"m.	c #FDFEFE",
"n.	c #FBF9F8",
"o.	c #B5A088",
"p.	c #D9AD80",
"q.	c #AA9784",
"r.	c #7A7677",
"s.	c #8C8C8F",
"t.	c #968F8D",
"u.	c #C3AA80",
"v.	c #C1BCB1",
"w.	c #DBD5D0",
"x.	c #936040",
"y.	c #AF7546",
"z.	c #6D5D55",
"A.	c #838284",
"B.	c #A09E9E",
"C.	c #C3BBB5",
"D.	c #BD9B68",
"E.	c #D0AC80",
"F.	c #716762",
"G.	c #6E6F76",
"H.	c #64656B",
"I.	c #6C5E46",
"J.	c #B6ADA0",
"K.	c #D8D3CE",
"L.	c #A27150",
"M.	c #B78259",
"N.	c #676465",
"O.	c #909092",
"P.	c #757475",
"Q.	c #D5D5D6",
"R.	c #E9E8E6",
"S.	c #806E53",
"T.	c #8B7666",
"U.	c #686265",
"V.	c #787173",
"W.	c #645D5E",
"X.	c #807C7D",
"Y.	c #77716E",
"Z.	c #C6C1C0",
"`.	c #6F4235",
" +	c #633E2E",
".+	c #6C6C72",
"++	c #7E8084",
"@+	c #8C8B8D",
"#+	c #FBFBFB",
"$+	c #9A9596",
"%+	c #746B6B",
"&+	c #69605D",
"*+	c #6C5249",
"=+	c #855E4A",
"-+	c #966E54",
";+	c #916C51",
">+	c #695144",
",+	c #A09189",
"'+	c #793D26",
")+	c #6C5D59",
"!+	c #605D61",
"~+	c #79787A",
"{+	c #908480",
"]+	c #8A7369",
"^+	c #F1EFF0",
"/+	c #827876",
"(+	c #976F54",
"_+	c #B37E55",
":+	c #C28455",
"<+	c #A65A32",
"[+	c #C6824F",
"}+	c #C78551",
"|+	c #9D674E",
"1+	c #B9AEA7",
"2+	c #733B1C",
"3+	c #8F7460",
"4+	c #947051",
"5+	c #7D5E49",
"6+	c #B17A4C",
"7+	c #CF8E56",
"8+	c #E3DBD6",
"9+	c #B3A199",
"0+	c #AD7852",
"a+	c #CD8851",
"b+	c #C8824B",
"c+	c #894622",
"d+	c #884318",
"e+	c #925530",
"f+	c #8B6352",
"g+	c #A59B95",
"h+	c #744525",
"i+	c #C7874D",
"j+	c #E4A463",
"k+	c #E09F63",
"l+	c #E7A160",
"m+	c #E6A163",
"n+	c #CEC3BE",
"o+	c #FDFBF9",
"p+	c #D9C7BE",
"q+	c #AB7450",
"r+	c #9F633D",
"s+	c #D19059",
"t+	c #CE8A54",
"u+	c #A86C43",
"v+	c #C18A5F",
"w+	c #C79970",
"x+	c #9E7258",
"y+	c #8E7A71",
"z+	c #774225",
"A+	c #D08E50",
"B+	c #E2A362",
"C+	c #E0A066",
"D+	c #E6A160",
"E+	c #CA9367",
"F+	c #E2DEDB",
"G+	c #EEE9E3",
"H+	c #C4AD9A",
"I+	c #DAA06C",
"J+	c #CE8D52",
"K+	c #AC5B28",
"L+	c #C06128",
"M+	c #B05C26",
"N+	c #95542D",
"O+	c #A05020",
"P+	c #974E22",
"Q+	c #8F461E",
"R+	c #6B3D25",
"S+	c #7B4826",
"T+	c #C18047",
"U+	c #CA8A51",
"V+	c #D08F56",
"W+	c #D39A66",
"X+	c #D0C5BD",
"Y+	c #FEFEFD",
"Z+	c #EDE7E1",
"`+	c #C39976",
" @	c #E4A063",
".@	c #E6A362",
"+@	c #C28649",
"@@	c #B45112",
"#@	c #C3540C",
"$@	c #C1540E",
"%@	c #AA4A16",
"&@	c #B45014",
"*@	c #943F0F",
"=@	c #B1541D",
"-@	c #723C1F",
";@	c #754420",
">@	c #A75F2E",
",@	c #C58552",
"'@	c #D29964",
")@	c #C9B8AC",
"!@	c #FAF9F9",
"~@	c #C5B1A8",
"{@	c #E3A265",
"]@	c #E6A25F",
"^@	c #E8A462",
"/@	c #CA884C",
"(@	c #A84D16",
"_@	c #BF5612",
":@	c #B74E0C",
"<@	c #9D420E",
"[@	c #923806",
"}@	c #AC4E18",
"|@	c #7E3A19",
"1@	c #744021",
"2@	c #814A2A",
"3@	c #B97A4F",
"4@	c #C99A78",
"5@	c #D6C4BD",
"6@	c #F9F8F8",
"7@	c #FFFFFE",
"8@	c #FDFCFC",
"9@	c #BFAFA7",
"0@	c #D99557",
"a@	c #E6A15F",
"b@	c #E8A363",
"c@	c #D79558",
"d@	c #9A572E",
"e@	c #A94E1C",
"f@	c #A14F22",
"g@	c #71371C",
"h@	c #A55027",
"i@	c #9E491A",
"j@	c #884D2A",
"k@	c #784720",
"l@	c #774229",
"m@	c #C3B5AE",
"n@	c #EFEFEF",
"o@	c #FBFCFC",
"p@	c #E3E1DF",
"q@	c #AA7859",
"r@	c #CD8E5C",
"s@	c #DF9C64",
"t@	c #E6A566",
"u@	c #DD9C62",
"v@	c #956745",
"w@	c #583B34",
"x@	c #5C4D4D",
"y@	c #5D4E4C",
"z@	c #635045",
"A@	c #CD9661",
"B@	c #D49A68",
"C@	c #A17A65",
"D@	c #F0EEED",
"E@	c #B9B0AC",
"F@	c #9A5B32",
"G@	c #D28A51",
"H@	c #E5A15F",
"I@	c #E1A166",
"J@	c #735749",
"K@	c #636267",
"L@	c #72747B",
"M@	c #6F737A",
"N@	c #706258",
"O@	c #D79B65",
"P@	c #CC8B59",
"Q@	c #B1917A",
"R@	c #D6D1CD",
"S@	c #945733",
"T@	c #BE7C47",
"U@	c #CD9054",
"V@	c #D69B66",
"W@	c #625854",
"X@	c #77787C",
"Y@	c #86868B",
"Z@	c #83868C",
"`@	c #6B6566",
" #	c #C48C59",
".#	c #C48350",
"+#	c #B19A89",
"@#	c #FAF9F6",
"##	c #F0EBE9",
"$#	c #996240",
"%#	c #925222",
"&#	c #A66B38",
"*#	c #AD6A3A",
"=#	c #6F5E58",
"-#	c #7A7779",
";#	c #87878B",
">#	c #828488",
",#	c #6A6B72",
"'#	c #906D52",
")#	c #C58B5C",
"!#	c #BDAC9C",
"~#	c #FBF9F5",
"{#	c #F6F1EF",
"]#	c #AD7550",
"^#	c #C0742C",
"/#	c #A56020",
"(#	c #AA642F",
"_#	c #7B5037",
":#	c #5A453D",
"<#	c #6B5B54",
"[#	c #69564E",
"}#	c #674E42",
"|#	c #534033",
"1#	c #C7BDB4",
"2#	c #F8F9FA",
"3#	c #F9F8F6",
"4#	c #957763",
"5#	c #8C5725",
"6#	c #905D25",
"7#	c #835227",
"8#	c #754B24",
"9#	c #694828",
"0#	c #6B4B32",
"a#	c #784E27",
"b#	c #825127",
"c#	c #6A3F22",
"d#	c #643C25",
"e#	c #D2CDC4",
"f#	c #86817D",
"g#	c #706753",
"h#	c #726954",
"i#	c #736956",
"j#	c #71644C",
"k#	c #685F4A",
"l#	c #645D47",
"m#	c #635B45",
"n#	c #6F6853",
"o#	c #675349",
"p#	c #685747",
"q#	c #ECE8E5",
"r#	c #FAFAFB",
"s#	c #A7A09A",
"t#	c #69584E",
"u#	c #645847",
"v#	c #695843",
"w#	c #574438",
"x#	c #C0BAB7",
"y#	c #837E7C",
"z#	c #655845",
"A#	c #645640",
"B#	c #938B85",
"C#	c #FCFBFB",
"D#	c #FCFCFB",
"E#	c #D1CCC6",
"F#	c #64593E",
"G#	c #6A583D",
"H#	c #6F5844",
"I#	c #988D84",
"J#	c #DCD7D4",
"K#	c #5F4F38",
"L#	c #604D34",
"M#	c #60553A",
"N#	c #C0BEBB",
"O#	c #CAC6C0",
"P#	c #5C4E2E",
"Q#	c #6D572F",
"R#	c #665030",
"S#	c #B3ACA7",
"T#	c #E2DEDE",
"U#	c #68533C",
"V#	c #7A6539",
"W#	c #675530",
"X#	c #A79C92",
"Y#	c #EBE8E6",
"Z#	c #F7F8F8",
"`#	c #F5F3F0",
" $	c #E0DBD5",
".$	c #6D6147",
"+$	c #7D684F",
"@$	c #806B4C",
"#$	c #897E71",
"$$	c #E0D9D5",
"%$	c #E1DEDA",
"&$	c #7B715E",
"*$	c #7E6E4D",
"=$	c #75613F",
"-$	c #806E4A",
";$	c #877E73",
">$	c #EFEBE7",
",$	c #F7F3ED",
"'$	c #F5F3F1",
")$	c #DDD8D2",
"!$	c #D6CFC5",
"~$	c #BDB6B0",
"{$	c #BEB7AE",
"]$	c #BCB4AA",
"^$	c #BFB4A8",
"/$	c #CFC4B8",
"($	c #C8C1B7",
"_$	c #BDB1A7",
":$	c #BDB2A5",
"<$	c #BBB1A6",
"[$	c #BFB7AF",
"}$	c #C8C0B8",
"|$	c #D7D2C9",
"1$	c #E6E0D7",
"2$	c #FEFDFB",
"                      . . . . . + @ # $ % & * = . . - - . .   . + . . ",
"                      . . . . . ; > , ' ) ! ~ { ] ^ / ( - - . + . - . ",
"                      . . . . . _ : < [ } | 1 2 3 4 5 6 7 8 + + . . . ",
"      .                       + 9 0 a b c d a e f g h i j + + . .     ",
"            .               . + k l c m n o p q r s t u v - + .       ",
"            . .               % w x q y z A q q B C D E % F + . .     ",
"              . . .           G H I J K L m M N O P Q R S + F .       ",
"                . . . .   . .   T U V W X Y Z Z `  ...+.+ - + . .     ",
"                . . . @.#.+ .     . . $.%.&.*.=.-.;.>.,.. S + . .     ",
"                . . - '.).!.~.. .   {.].^./.(._.:.% <.F + + + . .     ",
"                  . . [.}.|.  . . 1.2.3.4.5.6.7.<.F . . + 8.+ -       ",
"                . . + 9.0.a.b.c.d.e.f.g.h.i.j.k.l.      . . + m.. . + ",
"                . . n.o.p.q.r.s.t.u.v.w.x.y.z.A.B.S   . . . . . + . m.",
"              . . . + C.D.E.F.G.H.I.J.K.L.M.N.O.P.Q.. . + . + . m.+ . ",
"              . + . . R.S.T.U.V.W.X.Y.Z.`. +.+++O.@+#+. . . . + . m.. ",
"            . . . + $ $+%+&+*+=+-+;+>+,+'+)+!+~+{+]+@ + . . + - . . . ",
"        . . . . + F ^+/+(+_+:+<+[+}+|+1+2+3+4+5+6+7+8+. . . + . .     ",
"  @.. + . . . . . S <.9+0+a+b+c+d+e+f+g+h+i+j+k+l+m+n+. + . . .       ",
"~.. :.F + S + . . o+p+q+r+s+t+u+v+w+x+y+z+A+B+C+D+E+F+. . . .         ",
". . + G m.. . @.G+H+I+J+K+L+M+N+O+P+Q+R+S+T+U+V+W+X+Y+                ",
". . + + . S + Z+`+ @.@+@@@#@$@%@&@*@=@-@;@>@,@'@)@!@        . .       ",
". . F - S - <.~@{@]@^@/@(@_@:@<@[@}@|@1@2@3@4@5@6@.           7@      ",
"  . + + 8.+ 8@9@0@a@b@c@d@e@f@g@h@i@j@k@l@m@n@o@. . .                 ",
". . + S + 8.8.p@q@r@s@t@u@v@w@x@y@z@A@B@C@D@8.. . . .                 ",
". + m.+ + S + S E@F@G@H@I@J@K@L@M@N@O@P@Q@6@. . . . .                 ",
"+ + . . + + + + R@S@T@U@V@W@X@Y@Z@`@ #.#+#@#8.. . . .                 ",
". . . + . . . F ##$#%#&#*#=#-#;#>#,#'#)#!#~#+   .                     ",
"            . 8 {#]#^#/#(#_#:#<#[#}#|#z+1#Y+S .                       ",
"            . 2#3#4#5#6#7#8#9#0#a#b#c#d#e#+ . .                       ",
"            . + v f#g#h#i#j#k#l#m#n#o#p#q#  . .             .         ",
"            . o@r#s#t#u#v#w#x#y#k#z#A#B#C#                . .         ",
"            . o@D#E#F#G#H#I#( J#K#L#M#N#. Y+                          ",
"            . o@o@O#P#Q#R#S#<.T#U#V#W#X#Y#Y++                         ",
"            . Z#`# $.$+$@$#$$$%$&$*$=$-$;$>$,$@.                      ",
"              '$)$!$~${$]$^$/$($_$:$<$[$}$|$1$2$                      "};
