/* XPM */
static char * opDoor_xpm[] = {
"35 35 841 2",
"  	c #FFFFFF",
". 	c #FEFFFE",
"+ 	c #FAFAF9",
"@ 	c #FAFBFA",
"# 	c #FBFBFA",
"$ 	c #F4F5F3",
"% 	c #F3F5F1",
"& 	c #EEF0EB",
"* 	c #DEE1DA",
"= 	c #DADDD7",
"- 	c #BFC5BD",
"; 	c #B5BDB0",
"> 	c #B8BFB2",
", 	c #B8C0B4",
"' 	c #B2BBAE",
") 	c #B0B9AB",
"! 	c #BEC4B9",
"~ 	c #D6DAD3",
"{ 	c #EEF0EC",
"] 	c #F5F6F4",
"^ 	c #F6F7F5",
"/ 	c #F9FAF8",
"( 	c #FEFFFF",
"_ 	c #FFFFFD",
": 	c #F7F8F7",
"< 	c #DFE2DD",
"[ 	c #D8DED3",
"} 	c #CFD5CB",
"| 	c #A6ABA4",
"1 	c #BCC3B6",
"2 	c #BAC4B4",
"3 	c #AEB9A6",
"4 	c #B2BDAA",
"5 	c #97A28E",
"6 	c #98A490",
"7 	c #B0BBA7",
"8 	c #AEB9A5",
"9 	c #ADB8A4",
"0 	c #ABB7A2",
"a 	c #A8B39E",
"b 	c #7D8874",
"c 	c #AFBAA7",
"d 	c #C3CCBD",
"e 	c #C9D2C3",
"f 	c #C9D0C5",
"g 	c #CFD3CD",
"h 	c #E9EBE7",
"i 	c #FDFEFC",
"j 	c #FFFFFE",
"k 	c #E7EAE6",
"l 	c #BDC6B5",
"m 	c #B0BAA6",
"n 	c #B6C0AF",
"o 	c #7F8A7A",
"p 	c #96A18E",
"q 	c #ACB9A4",
"r 	c #ACB8A2",
"s 	c #ACB8A3",
"t 	c #97A28F",
"u 	c #97A38F",
"v 	c #ACB9A0",
"w 	c #ABB7A1",
"x 	c #A7B39D",
"y 	c #A0AD96",
"z 	c #808B78",
"A 	c #A9B5A1",
"B 	c #AEBAA6",
"C 	c #ADB9A5",
"D 	c #929D8B",
"E 	c #ADB6A5",
"F 	c #C0C8B8",
"G 	c #C7CCC3",
"H 	c #F7F8F5",
"I 	c #FEFEFE",
"J 	c #DBDFD8",
"K 	c #B1BBA8",
"L 	c #AEB9A3",
"M 	c #ACBAA2",
"N 	c #9AA790",
"O 	c #899480",
"P 	c #AEB7A4",
"Q 	c #919F8B",
"R 	c #9AA28D",
"S 	c #B0B39D",
"T 	c #B7B39D",
"U 	c #B2B49D",
"V 	c #AFB9A2",
"W 	c #A6B39D",
"X 	c #929F88",
"Y 	c #838F7B",
"Z 	c #AAB6A2",
"` 	c #9EAA96",
" .	c #74806D",
"..	c #AAB5A2",
"+.	c #B7C1B1",
"@.	c #DCDFD9",
"#.	c #CCD2C8",
"$.	c #ADB8A3",
"%.	c #ADB9A3",
"&.	c #ADBBA2",
"*.	c #A7B49E",
"=.	c #85907B",
"-.	c #ABB39C",
";.	c #B9B09A",
">.	c #BA9B89",
",.	c #CA8777",
"'.	c #D07567",
").	c #C46B5D",
"!.	c #DB7A6B",
"~.	c #C86E5F",
"{.	c #D58776",
"].	c #C7A592",
"^.	c #909A86",
"/.	c #8C9887",
"(.	c #AAB6A3",
"_.	c #ACB7A3",
":.	c #7F8976",
"<.	c #8F9A86",
"[.	c #ADB9A4",
"}.	c #B0BAA8",
"|.	c #D8DDD4",
"1.	c #FDFDFC",
"2.	c #C4CAC0",
"3.	c #ACB7A2",
"4.	c #ADB39B",
"5.	c #B28D7B",
"6.	c #C27C6D",
"7.	c #C45E4F",
"8.	c #B74A35",
"9.	c #BC4F3A",
"0.	c #BA4E3C",
"a.	c #B54938",
"b.	c #BD5341",
"c.	c #BC462F",
"d.	c #D2533E",
"e.	c #DB7061",
"f.	c #7C544B",
"g.	c #59625B",
"h.	c #7B8376",
"i.	c #808878",
"j.	c #8A9581",
"k.	c #AAB6A1",
"l.	c #A7B19E",
"m.	c #DBDED8",
"n.	c #CED2CA",
"o.	c #899381",
"p.	c #A0AC98",
"q.	c #A7B5A1",
"r.	c #9F7C6B",
"s.	c #D26A57",
"t.	c #C5503E",
"u.	c #B34F41",
"v.	c #B34833",
"w.	c #C5513D",
"x.	c #C24D3D",
"y.	c #B94A37",
"z.	c #C35647",
"A.	c #B94831",
"B.	c #B9554F",
"C.	c #BA4931",
"D.	c #562019",
"E.	c #00000D",
"F.	c #00000A",
"G.	c #01020C",
"H.	c #5E6559",
"I.	c #A5B09D",
"J.	c #ABB8A3",
"K.	c #A8B49E",
"L.	c #949F8B",
"M.	c #ECEEEB",
"N.	c #FDFDFB",
"O.	c #C9CEC4",
"P.	c #B6C1AF",
"Q.	c #95A08D",
"R.	c #808D7D",
"S.	c #994D40",
"T.	c #AC5548",
"U.	c #C24F3C",
"V.	c #CC523D",
"W.	c #C14A36",
"X.	c #CF543C",
"Y.	c #C44C36",
"Z.	c #C44D37",
"`.	c #D35A44",
" +	c #BC4531",
".+	c #B24E41",
"++	c #BA462F",
"@+	c #4E1510",
"#+	c #010511",
"$+	c #05050F",
"%+	c #04050F",
"&+	c #0B0F14",
"*+	c #676E64",
"=+	c #A3AD9C",
"-+	c #BAC4B2",
";+	c #BBC5B4",
">+	c #F5F9F5",
",+	c #FCFDFB",
"'+	c #C7CDC3",
")+	c #B7C2AF",
"!+	c #B3BEAA",
"~+	c #A1AE9C",
"{+	c #A55546",
"]+	c #D05540",
"^+	c #C84F3A",
"/+	c #CB503E",
"(+	c #AF4B39",
"_+	c #AF524A",
":+	c #994E4E",
"<+	c #914F4E",
"[+	c #B25547",
"}+	c #BE4735",
"|+	c #D1553E",
"1+	c #BD4934",
"2+	c #4E120E",
"3+	c #050510",
"4+	c #04060F",
"5+	c #70756F",
"6+	c #BBC5B3",
"7+	c #B6C1AC",
"8+	c #B5C0AB",
"9+	c #F3F5F2",
"0+	c #FCFCFA",
"a+	c #C3C8BE",
"b+	c #B2BDA9",
"c+	c #A5B19F",
"d+	c #AB5A4A",
"e+	c #D1543E",
"f+	c #CA513B",
"g+	c #984F4D",
"h+	c #54515F",
"i+	c #555665",
"j+	c #4D5364",
"k+	c #434A59",
"l+	c #854541",
"m+	c #BD4634",
"n+	c #D35540",
"o+	c #C54E3E",
"p+	c #4E130F",
"q+	c #020510",
"r+	c #060610",
"s+	c #05070F",
"t+	c #6A7068",
"u+	c #ACB7A4",
"v+	c #ACB8A1",
"w+	c #AAB59E",
"x+	c #F0F3EF",
"y+	c #C2C8BE",
"z+	c #B1BCA7",
"A+	c #A6B39E",
"B+	c #AF5C4F",
"C+	c #D45842",
"D+	c #C8523C",
"E+	c #8F433C",
"F+	c #282F37",
"G+	c #343744",
"H+	c #383A47",
"I+	c #1A1B20",
"J+	c #803D35",
"K+	c #BD4733",
"L+	c #D25642",
"M+	c #C34E3C",
"N+	c #4F1410",
"O+	c #020612",
"P+	c #050611",
"Q+	c #070A11",
"R+	c #6C7268",
"S+	c #A9B59E",
"T+	c #EEF1ED",
"U+	c #AFBAA5",
"V+	c #ACB9A2",
"W+	c #A7B4A0",
"X+	c #856869",
"Y+	c #C85744",
"Z+	c #C9553E",
"`+	c #91423B",
" @	c #23292E",
".@	c #31343F",
"+@	c #383845",
"@@	c #1C1E23",
"#@	c #7E3A33",
"$@	c #BF4632",
"%@	c #D25643",
"&@	c #C25139",
"*@	c #4F1411",
"=@	c #030715",
"-@	c #070613",
";@	c #060612",
">@	c #0A0D13",
",@	c #6E756A",
"'@	c #AAB69F",
")@	c #EEF0ED",
"!@	c #C2C8BD",
"~@	c #A6B1A0",
"{@	c #58535B",
"]@	c #B75746",
"^@	c #C85642",
"/@	c #92413D",
"(@	c #1F2329",
"_@	c #2F2F38",
":@	c #30303B",
"<@	c #1D1D23",
"[@	c #78362E",
"}@	c #BF4732",
"|@	c #C14F38",
"1@	c #501311",
"2@	c #050816",
"3@	c #080714",
"4@	c #070813",
"5@	c #0C0F15",
"6@	c #71776D",
"7@	c #A7B29B",
"8@	c #EBEEEA",
"9@	c #A7B39E",
"0@	c #514A4D",
"a@	c #BA5648",
"b@	c #C75646",
"c@	c #92453E",
"d@	c #1D2026",
"e@	c #2B2B31",
"f@	c #2A2B31",
"g@	c #1D1E22",
"h@	c #71322B",
"i@	c #C14C34",
"j@	c #C14D37",
"k@	c #501312",
"l@	c #070A17",
"m@	c #090815",
"n@	c #090814",
"o@	c #101118",
"p@	c #737A6F",
"q@	c #ADB9A1",
"r@	c #A3AF97",
"s@	c #EAEDEA",
"t@	c #C3C9BD",
"u@	c #524745",
"v@	c #BA5445",
"w@	c #C95644",
"x@	c #9A483D",
"y@	c #3C292D",
"z@	c #442E2F",
"A@	c #482E2D",
"B@	c #552D2A",
"C@	c #8A3E31",
"D@	c #CB563D",
"E@	c #D35842",
"F@	c #C14B36",
"G@	c #55140F",
"H@	c #150A14",
"I@	c #0C0816",
"J@	c #0B0916",
"K@	c #131319",
"L@	c #767C71",
"M@	c #ACB99F",
"N@	c #A5B199",
"O@	c #EAEEEA",
"P@	c #FDFDFD",
"Q@	c #C5CBBE",
"R@	c #ABB7A3",
"S@	c #855C50",
"T@	c #C74E3B",
"U@	c #CF5946",
"V@	c #BD4E3A",
"W@	c #AD4734",
"X@	c #B64D3A",
"Y@	c #A74331",
"Z@	c #C14F3B",
"`@	c #C8523B",
" #	c #CF553F",
".#	c #D55945",
"+#	c #C14936",
"@#	c #5B150D",
"##	c #250A11",
"$#	c #0C0916",
"%#	c #0B0915",
"&#	c #14121A",
"*#	c #777E72",
"=#	c #ACB9A1",
"-#	c #AAB69E",
";#	c #FBFBF9",
">#	c #C7CDC2",
",#	c #ADB69F",
"'#	c #996453",
")#	c #D65A45",
"!#	c #C95240",
"~#	c #C34E36",
"{#	c #C34C35",
"]#	c #CF543D",
"^#	c #BB4836",
"/#	c #CF5642",
"(#	c #C74D35",
"_#	c #CD533D",
":#	c #D75C49",
"<#	c #C34C39",
"[#	c #5B140C",
"}#	c #260B12",
"|#	c #0D0B17",
"1#	c #0C0C17",
"2#	c #15141B",
"3#	c #787F74",
"4#	c #ADB9A0",
"5#	c #E7EAE7",
"6#	c #F7F7F6",
"7#	c #F6F6F6",
"8#	c #FCFCFB",
"9#	c #C8CEC2",
"0#	c #986456",
"a#	c #D45942",
"b#	c #C14836",
"c#	c #C8523E",
"d#	c #D0553F",
"e#	c #BC4A37",
"f#	c #CF5741",
"g#	c #C84E34",
"h#	c #C4523F",
"i#	c #B8564E",
"j#	c #BD4C39",
"k#	c #58150D",
"l#	c #260B13",
"m#	c #0E0C17",
"n#	c #0D0C17",
"o#	c #15161C",
"p#	c #788176",
"q#	c #ADB9A2",
"r#	c #ADB8A2",
"s#	c #E4E7E3",
"t#	c #F7F7F7",
"u#	c #F6F6F5",
"v#	c #F9F9F8",
"w#	c #F8F8F8",
"x#	c #F8F8F7",
"y#	c #CBD1C5",
"z#	c #ACB7A1",
"A#	c #ADB8A5",
"B#	c #9B6759",
"C#	c #D0543D",
"D#	c #CA5541",
"E#	c #C24D3C",
"F#	c #CA5845",
"G#	c #D25842",
"H#	c #BB4935",
"I#	c #CE5640",
"J#	c #C84E35",
"K#	c #B34E41",
"L#	c #5C3E41",
"M#	c #AF4432",
"N#	c #57140F",
"O#	c #210C15",
"P#	c #0D0D18",
"Q#	c #0E0D18",
"R#	c #16181D",
"S#	c #798277",
"T#	c #A9B59F",
"U#	c #F6F5F5",
"V#	c #F7F6F5",
"W#	c #F8F8F6",
"X#	c #CFD3CA",
"Y#	c #ABB5A2",
"Z#	c #AFB8A5",
"`#	c #9C6C5F",
" $	c #CF5C44",
".$	c #D15E4A",
"+$	c #C04A38",
"@$	c #C2533E",
"#$	c #D5624E",
"$$	c #BC513F",
"%$	c #CE5742",
"&$	c #C9503A",
"*$	c #B85347",
"=$	c #86504C",
"-$	c #BB5343",
";$	c #551E1C",
">$	c #0F0F1A",
",$	c #100E1B",
"'$	c #181621",
")$	c #212228",
"!$	c #7E8679",
"~$	c #ADB7A4",
"{$	c #A9B49F",
"]$	c #EAEDE9",
"^$	c #FDFCFB",
"/$	c #D0D5CC",
"($	c #AEB7A5",
"_$	c #ADB6A4",
":$	c #AEB7A6",
"<$	c #9B7466",
"[$	c #D16853",
"}$	c #CB5B46",
"|$	c #C4503D",
"1$	c #C35946",
"2$	c #D96C59",
"3$	c #C05C4C",
"4$	c #D05B48",
"5$	c #CB5A46",
"6$	c #BB5A48",
"7$	c #844F46",
"8$	c #BF5D4F",
"9$	c #572524",
"0$	c #1B1922",
"a$	c #14131D",
"b$	c #25242D",
"c$	c #2B2A31",
"d$	c #808779",
"e$	c #AAB4A1",
"f$	c #ECEFEC",
"g$	c #FBFBFB",
"h$	c #F8F7F7",
"i$	c #F7F6F6",
"j$	c #FCFCFC",
"k$	c #D0D6CC",
"l$	c #AAB4A2",
"m$	c #ADB8A6",
"n$	c #997364",
"o$	c #D26753",
"p$	c #C65139",
"q$	c #C85741",
"r$	c #C55B49",
"s$	c #D5604F",
"t$	c #C15E4E",
"u$	c #D15E4C",
"v$	c #CD5F4D",
"w$	c #B44B3A",
"x$	c #73463C",
"y$	c #B75446",
"z$	c #5C2C2D",
"A$	c #1B1A25",
"B$	c #17151E",
"C$	c #2B2B32",
"D$	c #1D1D24",
"E$	c #7E8778",
"F$	c #ADB7A3",
"G$	c #A9B3A2",
"H$	c #D1D7CD",
"I$	c #A9B6A2",
"J$	c #ACB8A4",
"K$	c #9B7366",
"L$	c #D46755",
"M$	c #C7563E",
"N$	c #C85640",
"O$	c #C45541",
"P$	c #D46553",
"Q$	c #C15C4C",
"R$	c #CD5E48",
"S$	c #CC604A",
"T$	c #B54E3A",
"U$	c #824740",
"V$	c #B45142",
"W$	c #582E2D",
"X$	c #212229",
"Y$	c #24212C",
"Z$	c #28262F",
"`$	c #7D8677",
" %	c #ADB7A5",
".%	c #A8B29F",
"+%	c #F6F6F4",
"@%	c #FFFEFD",
"#%	c #FAF9F8",
"$%	c #D5DBD1",
"%%	c #AFB9A5",
"&%	c #997165",
"*%	c #D16653",
"=%	c #C9583F",
"-%	c #C7543C",
";%	c #C95843",
">%	c #D76855",
",%	c #C15945",
"'%	c #D15F4B",
")%	c #CA5941",
"!%	c #CF5D4B",
"~%	c #CA5B45",
"{%	c #572B2D",
"]%	c #23222A",
"^%	c #26262F",
"/%	c #212028",
"(%	c #1B1B22",
"_%	c #7E8678",
":%	c #AEB8A4",
"<%	c #F4F8F3",
"[%	c #FEFDFC",
"}%	c #FEFEFC",
"|%	c #D9DDD6",
"1%	c #AAB6A0",
"2%	c #976B5E",
"3%	c #D65D49",
"4%	c #C45038",
"5%	c #CA513A",
"6%	c #C94E3A",
"7%	c #D95D49",
"8%	c #C24F3A",
"9%	c #D45B46",
"0%	c #C94F39",
"a%	c #D75E47",
"b%	c #D1523E",
"c%	c #CA5640",
"d%	c #491619",
"e%	c #11121B",
"f%	c #14131C",
"g%	c #15131B",
"h%	c #1C1D21",
"i%	c #7D8778",
"j%	c #A8B29E",
"k%	c #F7FAF6",
"l%	c #FEFEFD",
"m%	c #DBDFD9",
"n%	c #AAB9A3",
"o%	c #96665A",
"p%	c #D75C48",
"q%	c #C54F3B",
"r%	c #CC513C",
"s%	c #CB5039",
"t%	c #D75C45",
"u%	c #C3513A",
"v%	c #D65B4A",
"w%	c #D15740",
"x%	c #D55843",
"y%	c #C9523B",
"z%	c #4B1719",
"A%	c #12131C",
"B%	c #15151E",
"C%	c #16151D",
"D%	c #1B1C22",
"E%	c #7B8375",
"F%	c #AEB9A4",
"G%	c #F8FBF8",
"H%	c #9CA791",
"I%	c #9BA792",
"J%	c #92A08E",
"K%	c #84655F",
"L%	c #D05D4A",
"M%	c #C5503C",
"N%	c #CE543E",
"O%	c #C8503A",
"P%	c #D35A43",
"Q%	c #C04D38",
"R%	c #D45845",
"S%	c #CB523C",
"T%	c #CD553D",
"U%	c #CC523E",
"V%	c #4E1719",
"W%	c #13141C",
"X%	c #16151E",
"Y%	c #16161E",
"Z%	c #6E7569",
"`%	c #9AA391",
" &	c #98A491",
".&	c #B0B9AA",
"+&	c #F9FBF8",
"@&	c #FAFAF8",
"#&	c #B0BCA7",
"$&	c #A4B09C",
"%&	c #9CAB99",
"&&	c #5E585F",
"*&	c #BB584A",
"=&	c #C7533C",
"-&	c #CE5540",
";&	c #C75441",
">&	c #D05843",
",&	c #BD4A36",
"'&	c #CC553F",
")&	c #CF5C46",
"!&	c #CC5541",
"~&	c #4D191A",
"{&	c #14161F",
"]&	c #18161F",
"^&	c #19161E",
"/&	c #252529",
"(&	c #9AA098",
"_&	c #B7C2B0",
":&	c #B8C3B2",
"<&	c #D4D8D1",
"[&	c #FBFCFA",
"}&	c #BBC4B6",
"|&	c #A5B0A0",
"1&	c #544D53",
"2&	c #B65144",
"3&	c #CC5540",
"4&	c #CE5842",
"5&	c #C3513C",
"6&	c #CF5841",
"7&	c #BB4833",
"8&	c #D25740",
"9&	c #CF5845",
"0&	c #D15D4A",
"a&	c #D25641",
"b&	c #BF4C38",
"c&	c #4A1819",
"d&	c #181820",
"e&	c #1B1720",
"f&	c #1B171F",
"g&	c #262428",
"h&	c #8B9287",
"i&	c #ACB6A2",
"j&	c #AAB7A2",
"k&	c #D1D6CC",
"l&	c #FBFCF8",
"m&	c #AFB9AA",
"n&	c #A5B19E",
"o&	c #4F4447",
"p&	c #AF4C3E",
"q&	c #D15944",
"r&	c #CF5A45",
"s&	c #BD4C36",
"t&	c #D15841",
"u&	c #BC4933",
"v&	c #D25741",
"w&	c #CE5948",
"x&	c #D05945",
"y&	c #B94733",
"z&	c #511614",
"A&	c #1E171F",
"B&	c #1C1820",
"C&	c #1B181F",
"D&	c #232225",
"E&	c #82897B",
"F&	c #A8B59D",
"G&	c #A8B59F",
"H&	c #A5AF9E",
"I&	c #D1D6CE",
"J&	c #F3F3F1",
"K&	c #DADED7",
"L&	c #BFC7BC",
"M&	c #899484",
"N&	c #8A9583",
"O&	c #879381",
"P&	c #513B36",
"Q&	c #B94F3E",
"R&	c #D45D49",
"S&	c #D15B47",
"T&	c #BE4D38",
"U&	c #D15741",
"V&	c #C24D3A",
"W&	c #D45A44",
"X&	c #CB5844",
"Y&	c #CE5743",
"Z&	c #D55A45",
"`&	c #541513",
" *	c #201921",
".*	c #1C1922",
"+*	c #1D1922",
"@*	c #212024",
"#*	c #6A7164",
"$*	c #85907C",
"%*	c #828D7B",
"&*	c #A6AD9F",
"**	c #D3D8CE",
"=*	c #E2E5DF",
"-*	c #DEE2DC",
";*	c #C4CCBA",
">*	c #B3BDA9",
",*	c #B2BEAB",
"'*	c #B9C4B1",
")*	c #856F64",
"!*	c #CB5B45",
"~*	c #D1614F",
"{*	c #CF5A48",
"]*	c #C14E3A",
"^*	c #CE5740",
"/*	c #C95743",
"(*	c #CA5641",
"_*	c #D55C49",
":*	c #BA4938",
"<*	c #541512",
"[*	c #211A20",
"}*	c #1E1B23",
"|*	c #1D1A23",
"1*	c #2B2C2E",
"2*	c #98A391",
"3*	c #AFBBA7",
"4*	c #B8C3B0",
"5*	c #BEC7B6",
"6*	c #BAC3B3",
"7*	c #C5CBBF",
"8*	c #DBE0D8",
"9*	c #ADB8A1",
"0*	c #868172",
"a*	c #A25449",
"b*	c #CE6455",
"c*	c #A5534D",
"d*	c #BC5544",
"e*	c #BB5B4D",
"f*	c #C65B47",
"g*	c #BA594C",
"h*	c #CC5542",
"i*	c #CD5D47",
"j*	c #BA4936",
"k*	c #511512",
"l*	c #241C22",
"m*	c #1F1C24",
"n*	c #313233",
"o*	c #A0AC9A",
"p*	c #AEBAA4",
"q*	c #BDC3B6",
"r*	c #DCE1D9",
"s*	c #AEB8A3",
"t*	c #ABB6A0",
"u*	c #7E8173",
"v*	c #986A5D",
"w*	c #A76F60",
"x*	c #885F52",
"y*	c #A56150",
"z*	c #AC5C49",
"A*	c #AE5948",
"B*	c #BC5648",
"C*	c #A84D3F",
"D*	c #C4553E",
"E*	c #A55A4D",
"F*	c #B14430",
"G*	c #502925",
"H*	c #4C4F49",
"I*	c #555A54",
"J*	c #555A53",
"K*	c #535950",
"L*	c #9EAA97",
"M*	c #BBC1B5",
"N*	c #E0E4DF",
"O*	c #ACB4A4",
"P*	c #A3AB99",
"Q*	c #9FA894",
"R*	c #9EA894",
"S*	c #9BA594",
"T*	c #8B9385",
"U*	c #8A9387",
"V*	c #869185",
"W*	c #858F83",
"X*	c #838A7D",
"Y*	c #8A8577",
"Z*	c #8B8372",
"`*	c #8C7C6D",
" =	c #8A7669",
".=	c #876E62",
"+=	c #96665C",
"@=	c #90584E",
"#=	c #5F6055",
"$=	c #727C6F",
"%=	c #757E72",
"&=	c #767D72",
"*=	c #9FA897",
"==	c #A7B19D",
"-=	c #A7B29E",
";=	c #A8B19F",
">=	c #C5CAC1",
"            . + @ # $ % & * = - ; > , ' ) ! ~ { ] ^ / ( .       _ _ _ ",
"          : < [ } | 1 2 3 4 5 6 7 8 9 0 0 a b c d e f g h i j   _ _ _ ",
"        . k l m n o p q r s t u s r v w x y z A B C D E F G H j j _ _ ",
"        I J K L M N O s r P Q R S T U V W X Y Z C `  ...8 +.@.j _ _ _ ",
"        i #.$.%.&.*.=.-.;.>.,.'.).!.~.{.].^./.(._.:.<.0 [.}.|._ _ _ _ ",
"        1.2.3.%._.4.5.6.7.8.9.0.a.b.c.d.e.f.g.h.i.j.k.3.%.l.m.j _ _ _ ",
"        i n.o.p.q.r.s.t.u.v.w.x.y.z.A.B.C.D.E.F.G.H.I.J.K.L.M._ _ _ _ ",
"        N.O.P.Q.R.S.T.U.V.W.X.Y.Z.`. +.+++@+#+$+%+&+*+=+-+;+>+  _ _ _ ",
"        ,+'+)+!+~+{+]+^+/+(+_+:+<+[+}+|+1+2+#+3+3+4+5+6+7+8+9+  _ _ _ ",
"        0+a+b+r c+d+e+f+g+h+i+j+k+l+m+n+o+p+q+r+3+s+t+u+v+w+x+        ",
"        0+y+z+r A+B+C+D+E+F+G+H+I+J+K+L+M+N+O+P+P+Q+R+_.v+S+T+        ",
"        1.a+U+V+W+X+Y+Z+`+ @.@+@@@#@$@%@&@*@=@-@;@>@,@_.v '@)@        ",
"        1.!@[.V+~@{@]@^@/@(@_@:@<@[@}@%@|@1@2@3@4@5@6@3.v 7@8@        ",
"j       1.a+s V+9@0@a@b@c@d@e@f@g@h@i@L+j@k@l@m@n@o@p@3.q@r@s@  j j   ",
"_ j     1.t@s r 9@u@v@w@x@y@z@A@B@C@D@E@F@G@H@I@J@K@L@3.M@N@O@  _ _   ",
"_ j     P@Q@w r R@S@T@U@V@W@X@Y@Z@`@ #.#+#@###$#%#&#*#$.=#-#k # ;#_   ",
"_ j     1.>#0 V+,#'#)#!#~#{#]#^#/#(#_#:#<#[#}#|#1#2#3#$.4#w+5#6#7#+   ",
"_ j   P@8#9#w V+r 0#a#b#w.c#d#e#f#g#h#i#j#k#l#m#n#o#p#q#r#0 s#t#u#v#  ",
"_ j I w#x#y#z#r A#B#C#D#E#F#G#H#I#J#K#L#M#N#O#P#Q#R#S#r#r T#5#U#V#0+_ ",
"_ 0+v#t#W#X#Y#$.Z#`# $.$+$@$#$$$%$&$*$=$-$;$>$,$'$)$!$~$3.{$]$6#^$8#+ ",
"N.6#6#t#W#/$($_$:$<$[$}$|$1$2$3$4$5$6$7$8$9$0$a$b$c$d$~$u+e$f$u#g$h$i$",
";#u#j$w#x#k$l$u+m$n$o$p$q$r$s$t$u$v$w$x$y$z$A$B$C$D$E$F$Y#G$f$^ + u#+ ",
"N.i$v#i$v#H$I$J$:$K$L$M$N$O$P$Q$R$S$T$U$V$W$X$Y$Z$D$`$$. %.%x++%+ u## ",
"@%#%U#v#N.$%0 V+%%&%*%=%-%;%>%,%'%)%I#!%~%{%]%^%/%(%_%:%($l.<%h$1.x#N.",
"_ _ [%@%}%|%1%r q 2%3%4%5%6%7%8%9%0%a%b%c%d%e%f%g%h%i%r r#j%k%}%l%_ _ ",
"_ _ _ @%I m%'@%.n%o%p%q%r%s%t%u%v%_#w%x%y%z%A%B%C%D%E%~$F$F%G%. _ _ _ ",
"_ _ _ _ . m.H%I%J%K%L%M%N%O%P%Q%R%S%T%E@U%V%W%X%Y%D%Z%`% &.&+&  _ _ _ ",
"j j _ _ @&f #&$&%&&&*&=&-&;&>&,&w%'&)&d#!&~&{&]&^&/&(&l _&:&<&  j j j ",
"  j _ _ [&}&J$s |&1&2&3&4&5&6&7&8&9&0&a&b&c&d&e&f&g&h&i&j&Z k&j       ",
"  j _ _ l&m&j&r n&o&p&q&r&s&t&u&v&w&x&C+y&z&A&B&C&D&E&F&G&H&I&_       ",
"  j _ J&K&L&M&N&O&P&Q&R&S&T&U&V&W&X&Y&Z&H#`& *.*+*@*#*$*%*&***=*1.    ",
"  j _ -*;*>*,*'*B )*!*~*{*]*^*/*>&(*/#_*:*<*[*}*|*1*2*3*4*5*6*7*/     ",
"    j 8*L 9*0 0 v+0*a*b*c*2&d*e*f*g*h*i*j*k*l*m*m*n*o*B p*%.9 q*/     ",
"      r*s*r#r#%.t*u*v*w*x*y*z*A*B*C*D*E*F*G*H*I*J*K*L*q q#%.r M*/     ",
"    j N*O*P*Q*R*S*T*U*V*W*X*Y*Z*`* =.=+=@=#=$=%=&=*#*===-=;=Y#>=@     "};
