/* XPM */
static char * plrD_xpm[] = {
"35 35 591 2",
"  	c #FFFFFF",
". 	c #FCFCFC",
"+ 	c #C1BABB",
"@ 	c #4E3031",
"# 	c #471214",
"$ 	c #837072",
"% 	c #8D8587",
"& 	c #D0CCCD",
"* 	c #E9E8E8",
"= 	c #B5AFAF",
"- 	c #7F6F70",
"; 	c #4E1F21",
"> 	c #CCC8C9",
", 	c #FEFDFD",
"' 	c #EDEBEB",
") 	c #A7A0A1",
"! 	c #4A2F30",
"~ 	c #5F1115",
"{ 	c #5C0A10",
"] 	c #460006",
"^ 	c #594647",
"/ 	c #645859",
"( 	c #533132",
"_ 	c #56090E",
": 	c #65161A",
"< 	c #7E6464",
"[ 	c #D7D3D3",
"} 	c #FDFDFD",
"| 	c #F7F6F6",
"1 	c #BAB4B4",
"2 	c #86797A",
"3 	c #53282A",
"4 	c #581317",
"5 	c #6E171B",
"6 	c #74191C",
"7 	c #611317",
"8 	c #540F13",
"9 	c #40090E",
"0 	c #621317",
"a 	c #791B1D",
"b 	c #71181B",
"c 	c #741E20",
"d 	c #745D5E",
"e 	c #A49697",
"f 	c #C4BABA",
"g 	c #FBFAFA",
"h 	c #FEFEFE",
"i 	c #D6D3D3",
"j 	c #5E494A",
"k 	c #52050B",
"l 	c #801E20",
"m 	c #821E20",
"n 	c #8C2223",
"o 	c #75191D",
"p 	c #7A1B1E",
"q 	c #631318",
"r 	c #6B171A",
"s 	c #801D1F",
"t 	c #75191C",
"u 	c #681316",
"v 	c #65080E",
"w 	c #8E7D7D",
"x 	c #F6F6F6",
"y 	c #ACA4A4",
"z 	c #4A2122",
"A 	c #550F13",
"B 	c #6F181B",
"C 	c #851F21",
"D 	c #932425",
"E 	c #851F20",
"F 	c #982627",
"G 	c #8A2122",
"H 	c #922425",
"I 	c #8F2324",
"J 	c #912424",
"K 	c #69292B",
"L 	c #B4ADAE",
"M 	c #EFEEEE",
"N 	c #9E9494",
"O 	c #5A2023",
"P 	c #771A1D",
"Q 	c #972526",
"R 	c #9C2727",
"S 	c #962526",
"T 	c #8E2224",
"U 	c #9F2828",
"V 	c #8B2123",
"W 	c #7C1C1E",
"X 	c #9B2627",
"Y 	c #8E2222",
"Z 	c #5D3B3D",
"` 	c #E8E7E8",
" .	c #F2F1F1",
"..	c #9C9494",
"+.	c #502728",
"@.	c #631418",
"#.	c #942425",
"$.	c #952525",
"%.	c #761A1D",
"&.	c #7E1D1F",
"*.	c #9C2728",
"=.	c #761B1D",
"-.	c #571014",
";.	c #811E20",
">.	c #8B2122",
",.	c #652E30",
"'.	c #C3BDBD",
").	c #FCFCFB",
"!.	c #E5E3E3",
"~.	c #490C10",
"{.	c #71191C",
"].	c #811D20",
"^.	c #72181C",
"/.	c #6D171B",
"(.	c #5D2A26",
"_.	c #67161A",
":.	c #912325",
"<.	c #682322",
"[.	c #573630",
"}.	c #6F1C1D",
"|.	c #892022",
"1.	c #591115",
"2.	c #6C171A",
"3.	c #72191C",
"4.	c #8A7F7F",
"5.	c #F8F8F7",
"6.	c #ACA6A6",
"7.	c #5B181B",
"8.	c #5F1216",
"9.	c #561014",
"0.	c #74483F",
"a.	c #BB9581",
"b.	c #7A5247",
"c.	c #6C181B",
"d.	c #7E5B50",
"e.	c #D2AC94",
"f.	c #8B6457",
"g.	c #741A1D",
"h.	c #6F181A",
"i.	c #3E080D",
"j.	c #661519",
"k.	c #806566",
"l.	c #E4E2E2",
"m.	c #FFFFFE",
"n.	c #E8E5E5",
"o.	c #857878",
"p.	c #471114",
"q.	c #33060B",
"r.	c #420B0F",
"s.	c #6D453D",
"t.	c #CFA991",
"u.	c #F8D0B3",
"v.	c #BE9B86",
"w.	c #5A2D28",
"x.	c #BB9681",
"y.	c #F9D1B4",
"z.	c #E6BFA4",
"A.	c #8A6355",
"B.	c #5F191A",
"C.	c #300B0E",
"D.	c #461013",
"E.	c #622325",
"F.	c #F6F5F5",
"G.	c #8C8484",
"H.	c #350004",
"I.	c #4E1818",
"J.	c #33070B",
"K.	c #643930",
"L.	c #CEAA94",
"M.	c #FAD8C0",
"N.	c #FDD6BA",
"O.	c #E8C2A6",
"P.	c #A37F6F",
"Q.	c #EDC6AA",
"R.	c #FDDAC0",
"S.	c #FBD7BC",
"T.	c #D9A588",
"U.	c #7E4E3C",
"V.	c #5E372F",
"W.	c #55332E",
"X.	c #4D1819",
"Y.	c #C6BDBD",
"Z.	c #F8F8F8",
"`.	c #B3ADAD",
" +	c #797071",
".+	c #78564C",
"++	c #683E32",
"@+	c #BE8264",
"#+	c #DDAA90",
"$+	c #D5AB9B",
"%+	c #EBBDA1",
"&+	c #FBD4B7",
"*+	c #F6CFB3",
"=+	c #F6CCAE",
"-+	c #DFB39D",
";+	c #D6A693",
">+	c #DF9E7A",
",+	c #CD8A68",
"'+	c #B48771",
")+	c #81675E",
"!+	c #786A6B",
"~+	c #C4BEBE",
"{+	c #CBC8C8",
"]+	c #B69989",
"^+	c #CB9C82",
"/+	c #DC9D7B",
"(+	c #9F9F9E",
"_+	c #5D464C",
":+	c #A6ADA9",
"<+	c #F1C8AB",
"[+	c #FCD2B3",
"}+	c #DDBFA9",
"|+	c #808184",
"1+	c #6B5A5C",
"2+	c #C0A598",
"3+	c #DC9675",
"4+	c #E4B799",
"5+	c #9A8882",
"6+	c #DBD8D8",
"7+	c #EAE9E8",
"8+	c #F3F2F2",
"9+	c #B6AEAC",
"0+	c #A98777",
"a+	c #CC9376",
"b+	c #CCB8AA",
"c+	c #505F6B",
"d+	c #CBD1D2",
"e+	c #FAD4B9",
"f+	c #FDD4B6",
"g+	c #F0D7C5",
"h+	c #96A4AB",
"i+	c #706C6D",
"j+	c #DCB6A0",
"k+	c #B07B64",
"l+	c #AC9488",
"m+	c #D8D5D4",
"n+	c #FDFCFC",
"o+	c #FBFBFB",
"p+	c #C8C7C8",
"q+	c #7F7C7E",
"r+	c #412D2E",
"s+	c #A77058",
"t+	c #E3B99E",
"u+	c #C0A897",
"v+	c #EBD0BD",
"w+	c #FDD7BA",
"x+	c #FDD5B7",
"y+	c #FAD7BD",
"z+	c #D4BBAA",
"A+	c #C7AC98",
"B+	c #DBA78A",
"C+	c #69443A",
"D+	c #9D9697",
"E+	c #FAF9F9",
"F+	c #C2C0C2",
"G+	c #676063",
"H+	c #564C4F",
"I+	c #40231F",
"J+	c #7B4334",
"K+	c #CE9076",
"L+	c #EDBB9D",
"M+	c #FDD5B6",
"N+	c #F8CBAB",
"O+	c #E3AD91",
"P+	c #B2735C",
"Q+	c #5D3627",
"R+	c #7D7273",
"S+	c #C7C5C6",
"T+	c #F7F7F7",
"U+	c #EEEDED",
"V+	c #6F6B6D",
"W+	c #70686C",
"X+	c #887F7F",
"Y+	c #56382E",
"Z+	c #6E4928",
"`+	c #713C2C",
" @	c #9D5D4A",
".@	c #C78973",
"+@	c #C98E7A",
"@@	c #C98E79",
"#@	c #BE7C66",
"$@	c #814437",
"%@	c #6F4229",
"&@	c #694528",
"*@	c #3F2B2B",
"=@	c #564E50",
"-@	c #AEACAD",
";@	c #BAB8B9",
">@	c #5A5256",
",@	c #756D70",
"'@	c #766C6E",
")@	c #533528",
"!@	c #886032",
"~@	c #825C30",
"{@	c #673F26",
"]@	c #5E2C20",
"^@	c #5F2B1F",
"/@	c #5E2F21",
"(@	c #714D2A",
"_@	c #8C6433",
":@	c #75502C",
"<@	c #604F4E",
"[@	c #776E71",
"}@	c #5D565A",
"|@	c #A8A5A6",
"1@	c #534B4F",
"2@	c #473D40",
"3@	c #4D2E1F",
"4@	c #8A6233",
"5@	c #996E37",
"6@	c #8E6534",
"7@	c #845C31",
"8@	c #835C30",
"9@	c #855E32",
"0@	c #956B36",
"a@	c #986D37",
"b@	c #76502D",
"c@	c #665555",
"d@	c #867D7F",
"e@	c #6F676B",
"f@	c #888486",
"g@	c #EFEEEF",
"h@	c #E1E0E1",
"i@	c #666163",
"j@	c #4C4346",
"k@	c #50484C",
"l@	c #3C3032",
"m@	c #875F32",
"n@	c #9A6F38",
"o@	c #9B7139",
"p@	c #9A6F37",
"q@	c #9B7037",
"r@	c #9C723A",
"s@	c #966C37",
"t@	c #744F2C",
"u@	c #544344",
"v@	c #817C7C",
"w@	c #6C6466",
"x@	c #474044",
"y@	c #DFDFDF",
"z@	c #D6D5D6",
"A@	c #2E2429",
"B@	c #3F3539",
"C@	c #412C2E",
"D@	c #341A1D",
"E@	c #422519",
"F@	c #714D29",
"G@	c #8F6736",
"H@	c #A07840",
"I@	c #9C7139",
"J@	c #9E753D",
"K@	c #9D753E",
"L@	c #845D31",
"M@	c #623F24",
"N@	c #4D3B3C",
"O@	c #60575B",
"P@	c #655C61",
"Q@	c #3E383D",
"R@	c #DAD7D7",
"S@	c #785447",
"T@	c #A67154",
"U@	c #AE7055",
"V@	c #89473A",
"W@	c #3F1B15",
"X@	c #533220",
"Y@	c #674529",
"Z@	c #8C6536",
"`@	c #9C7541",
" #	c #9E7641",
".#	c #9D7641",
"+#	c #9D7642",
"@#	c #98723F",
"##	c #7E5830",
"$#	c #5E3D27",
"%#	c #462619",
"&#	c #402E2F",
"*#	c #5F5457",
"=#	c #6E6668",
"-#	c #453E42",
";#	c #E0DFDF",
">#	c #DBD7D8",
",#	c #A06E5A",
"'#	c #E6A076",
")#	c #E79F75",
"!#	c #B46C54",
"~#	c #42201D",
"{#	c #393035",
"]#	c #463C3F",
"^#	c #563D30",
"/#	c #755B47",
"(#	c #8C7D64",
"_#	c #8F8267",
":#	c #86745D",
"<#	c #674D3B",
"[#	c #4F3831",
"}#	c #433B40",
"|#	c #302125",
"1#	c #301D20",
"2#	c #655B5D",
"3#	c #534C50",
"4#	c #E0DFE0",
"5#	c #DDDADB",
"6#	c #895951",
"7#	c #DB956F",
"8#	c #DD9671",
"9#	c #AF6550",
"0#	c #42211D",
"a#	c #292027",
"b#	c #312C36",
"c#	c #373641",
"d#	c #535559",
"e#	c #86958E",
"f#	c #79827C",
"g#	c #80908A",
"h#	c #42424B",
"i#	c #322F39",
"j#	c #29232C",
"k#	c #24181F",
"l#	c #341F1E",
"m#	c #4C3E3E",
"n#	c #5D5455",
"o#	c #494143",
"p#	c #F4F3F3",
"q#	c #B2A9A9",
"r#	c #AE7B65",
"s#	c #C3927A",
"t#	c #905448",
"u#	c #3E1916",
"v#	c #391D17",
"w#	c #291A20",
"x#	c #271B23",
"y#	c #42373A",
"z#	c #656266",
"A#	c #5B5055",
"B#	c #5D5E61",
"C#	c #2D2226",
"D#	c #291B1F",
"E#	c #2D1718",
"F#	c #351A19",
"G#	c #885E4E",
"H#	c #CCA690",
"I#	c #C9AF9E",
"J#	c #846B61",
"K#	c #E3E1E1",
"L#	c #F5F4F4",
"M#	c #B8B2B3",
"N#	c #A9A1A1",
"O#	c #978F90",
"P#	c #38292C",
"Q#	c #453435",
"R#	c #48393B",
"S#	c #52332A",
"T#	c #513225",
"U#	c #3F2420",
"V#	c #583822",
"W#	c #5A391D",
"X#	c #543219",
"Y#	c #462413",
"Z#	c #53322B",
"`#	c #CE987F",
" $	c #F9D7C0",
".$	c #F2C8AB",
"+$	c #957062",
"@$	c #E7E6E7",
"#$	c #454043",
"$$	c #5C5255",
"%$	c #5E555A",
"&$	c #665E62",
"*$	c #5D5152",
"=$	c #48302C",
"-$	c #3B1D18",
";$	c #654225",
">$	c #6B4728",
",$	c #56351D",
"'$	c #42251B",
")$	c #593D38",
"!$	c #C99078",
"~$	c #ECC2AD",
"{$	c #EBBEA3",
"]$	c #8D6054",
"^$	c #4B464A",
"/$	c #595054",
"($	c #746C6E",
"_$	c #716A6D",
":$	c #61585C",
"<$	c #60575A",
"[$	c #4F4142",
"}$	c #493432",
"|$	c #493533",
"1$	c #42302D",
"2$	c #2F2123",
"3$	c #513330",
"4$	c #BC7963",
"5$	c #E9B99D",
"6$	c #CF9D83",
"7$	c #927C7B",
"8$	c #EDECEC",
"9$	c #ECEAEA",
"0$	c #67595A",
"a$	c #443B40",
"b$	c #776F70",
"c$	c #6A6367",
"d$	c #584F53",
"e$	c #5D5558",
"f$	c #5E5457",
"g$	c #4E4549",
"h$	c #3F3439",
"i$	c #3F3133",
"j$	c #28181C",
"k$	c #422A29",
"l$	c #88685E",
"m$	c #9F857B",
"n$	c #9E8985",
"o$	c #E2E0DF",
"p$	c #FBFBFA",
"q$	c #BCB6B7",
"r$	c #301E22",
"s$	c #31282D",
"t$	c #2E252B",
"u$	c #393135",
"v$	c #767375",
"w$	c #757174",
"x$	c #372E32",
"y$	c #352021",
"z$	c #593735",
"A$	c #5E3A37",
"B$	c #442B2A",
"C$	c #8A8587",
"D$	c #DEDCDD",
"E$	c #EAEAEA",
"F$	c #918A8C",
"G$	c #312023",
"H$	c #3E2526",
"I$	c #3A2224",
"J$	c #5E5558",
"K$	c #EAE9E9",
"L$	c #524549",
"M$	c #5F3B37",
"N$	c #7E504B",
"O$	c #81524D",
"P$	c #6A4340",
"Q$	c #6D6465",
"R$	c #E1DFE0",
"S$	c #D2CFD0",
"T$	c #493C3E",
"U$	c #402725",
"V$	c #5D3937",
"W$	c #573531",
"X$	c #5A4E50",
"Y$	c #DBD9D9",
"Z$	c #EEECED",
"`$	c #7A6F71",
" %	c #704742",
".%	c #865550",
"+%	c #875650",
"@%	c #7F514C",
"#%	c #573938",
"$%	c #CECBCC",
"%%	c #F8F7F7",
"&%	c #8F8A8C",
"*%	c #6E4540",
"=%	c #80514C",
"-%	c #744944",
";%	c #45302F",
">%	c #A29E9F",
",%	c #F9F8F8",
"'%	c #DCD9DA",
")%	c #827172",
"!%	c #6E4C4B",
"~%	c #6F4C4A",
"{%	c #664847",
"]%	c #786C6D",
"^%	c #E2E0E0",
"/%	c #878183",
"(%	c #4C2F2C",
"_%	c #724844",
":%	c #7D4F4A",
"<%	c #764B46",
"[%	c #3F2927",
"}%	c #9B9798",
"|%	c #DFDDDE",
"1%	c #CAC7C9",
"2%	c #CAC7C8",
"3%	c #FAFAFA",
"4%	c #ACA8A9",
"5%	c #3C2D2E",
"6%	c #372323",
"7%	c #392424",
"8%	c #362222",
"9%	c #403537",
"0%	c #BAB6B7",
"              . + @ # $ % & * = - ; > ,                               ",
"              ' ) ! ~ { ] ^ / ( _ : < [ }                             ",
"          | 1 2 3 4 5 6 7 8 9 0 a b c d e f g                         ",
"        h i j k 6 l m n o p q r s m t u v w |                         ",
"          x y z A B C D E F G n H I J D K L g                         ",
"          M N O P Q R S T U V W X n F Y Z `                           ",
"         ...+.@.#.$.m %.&.*.=.-.I V ;.>.,.'.).                        ",
"        !.^ ~.{.].^./.(._.:.<.[.}.|.1.2.3.4.|                         ",
"        5.6.7.8.8 9.0.a.b.c.d.e.f.g.h.i.j.k.l.m.                      ",
"      m.n.o.p.q.r.s.t.u.v.w.x.y.z.A.B.C.D.E.'.h                       ",
"      F.G.H.I.J.K.L.M.N.O.P.Q.R.S.T.U.V.W.X.Y.h                       ",
"      Z.`. +.+++@+#+$+%+&+*+=+-+;+>+,+'+)+!+~+h                       ",
"        h {+]+^+/+(+_+:+<+[+}+|+1+2+3+4+5+6+7+m.                      ",
"          8+9+0+a+b+c+d+e+f+g+h+i+j+k+l+m+n+                          ",
"        o+p+q+r+s+t+u+v+w+x+y+z+A+B+C+D+E+                            ",
"      o+F+G+H+I+J+K+L+[+x+x+M+N+O+P+Q+R+S+T+                          ",
"      U+V+W+X+Y+Z+`+ @.@+@+@@@#@$@%@&@*@=@-@x                         ",
"    . ;@>@,@'@)@!@~@{@]@^@^@^@/@(@_@:@<@[@}@p+h                       ",
"    g |@1@>@2@3@4@5@6@7@8@8@8@9@0@a@b@c@d@e@f@g@                      ",
"    h@i@j@k@l@3@m@n@o@p@p@p@p@q@r@s@t@u@v@w@x@y@                      ",
"    z@A@B@C@D@E@F@G@H@I@p@p@p@J@K@L@M@N@O@P@Q@y@                      ",
"    R@S@T@U@V@W@X@Y@Z@`@ #.#+#@###$#%#&#*#=#-#;#                      ",
"    >#,#'#)#!#~#{#]#^#/#(#_#:#<#[#}#|#1#2#d@3#4#                      ",
"    5#6#7#8#9#0#a#b#c#d#e#f#g#h#i#j#k#l#m#n#o#4#                      ",
"    p#q#r#s#t#u#v#w#x#y#z#A#B#C#D#E#F#G#H#I#J#K#                      ",
"      L#M#N#O#P#Q#R#R#S#T#U#V#W#X#Y#Z#`# $.$+$K#                      ",
"            @$#$$$%$&$*$=$-$;$>$,$'$)$!$~${$]$K#                      ",
"            @$^$/$($_$:$<$[$}$|$1$2$3$4$5$6$7$8$                      ",
"            9$0$a$b$c$d$e$f$g$h$i$j$k$l$m$n$o$h                       ",
"            p$q$r$s$t$u$v$w$x$y$z$A$B$C$D$E$h                         ",
"            8+F$G$H$I$J$K$!.L$M$N$O$P$Q$R$                            ",
"          } S$T$U$V$W$X$Y$Z$`$ %.%+%@%#%$%                            ",
"          %%&%k$*%=%-%;%>%,%'%)%!%~%{%]%^%                            ",
"          | /%(%_%:%<%[%}%E+} |%1%2%1%|%}                             ",
"          3%4%5%6%7%8%9%0%.                                           "};
