/* XPM */
static char * plrL_xpm[] = {
"35 35 495 2",
"  	c #FFFFFF",
". 	c #FAF9F9",
"+ 	c #C6C0C0",
"@ 	c #928383",
"# 	c #C7C4C5",
"$ 	c #CECACA",
"% 	c #E7E5E5",
"& 	c #F9F9F9",
"* 	c #FAFAFA",
"= 	c #C2BDBD",
"- 	c #654344",
"; 	c #781E20",
"> 	c #54171B",
", 	c #4F1B1F",
"' 	c #7D6E6F",
") 	c #9B9393",
"! 	c #9B9394",
"~ 	c #A7A0A1",
"{ 	c #E7E4E5",
"] 	c #543D3E",
"^ 	c #66161A",
"/ 	c #8D2223",
"( 	c #851F21",
"_ 	c #7A1C1E",
": 	c #7A1D1F",
"< 	c #6C1A1E",
"[ 	c #581418",
"} 	c #451D1F",
"| 	c #604E4F",
"1 	c #BAB3B4",
"2 	c #E5E2E2",
"3 	c #FDFDFD",
"4 	c #C1BDBD",
"5 	c #543D3F",
"6 	c #671317",
"7 	c #8E2324",
"8 	c #9B2627",
"9 	c #9A2627",
"0 	c #942425",
"a 	c #952526",
"b 	c #771A1D",
"c 	c #5D1116",
"d 	c #510E12",
"e 	c #46080D",
"f 	c #50292A",
"g 	c #B4ADAD",
"h 	c #FBFBFB",
"i 	c #FFFEFE",
"j 	c #C5BFC0",
"k 	c #564243",
"l 	c #761B1E",
"m 	c #932425",
"n 	c #992627",
"o 	c #9D2728",
"p 	c #972526",
"q 	c #791B1D",
"r 	c #952425",
"s 	c #902324",
"t 	c #661418",
"u 	c #791B1E",
"v 	c #5D1115",
"w 	c #461618",
"x 	c #908686",
"y 	c #EFEDED",
"z 	c #FEFEFE",
"A 	c #E6E4E4",
"B 	c #B2ACAD",
"C 	c #573A3B",
"D 	c #6E1719",
"E 	c #7F1D1F",
"F 	c #7C1C1E",
"G 	c #821E20",
"H 	c #7A1B1E",
"I 	c #962526",
"J 	c #882022",
"K 	c #71181B",
"L 	c #761A1D",
"M 	c #651418",
"N 	c #462021",
"O 	c #C3BEBE",
"P 	c #E7E4E4",
"Q 	c #7C7374",
"R 	c #3C0F12",
"S 	c #811E20",
"T 	c #8B2122",
"U 	c #591014",
"V 	c #781B1D",
"W 	c #7D1C1E",
"X 	c #892122",
"Y 	c #6F181B",
"Z 	c #72181C",
"` 	c #6A1619",
" .	c #4F181B",
"..	c #BFBBBB",
"+.	c #DCD9D9",
"@.	c #4C3436",
"#.	c #6D1619",
"$.	c #612A28",
"%.	c #5E3C35",
"&.	c #704840",
"*.	c #732022",
"=.	c #73191C",
"-.	c #831E21",
";.	c #781A1D",
">.	c #7E1D1F",
",.	c #70181B",
"'.	c #5E1216",
").	c #5C4142",
"!.	c #CFCBCB",
"~.	c #EBE9E9",
"{.	c #5E4648",
"].	c #51181A",
"^.	c #B38F7C",
"/.	c #A98675",
"(.	c #C6A28C",
"_.	c #9B7869",
":.	c #591B1C",
"<.	c #861F21",
"[.	c #74191C",
"}.	c #831E20",
"|.	c #581014",
"1.	c #85797A",
"2.	c #F4F3F3",
"3.	c #BAB4B5",
"4.	c #654740",
"5.	c #E5BEA4",
"6.	c #F0C8AC",
"7.	c #F6CEB1",
"8.	c #EAC3A9",
"9.	c #7C5D52",
"0.	c #6E181B",
"a.	c #73191B",
"b.	c #721A1D",
"c.	c #420B0E",
"d.	c #8C2223",
"e.	c #7F1E20",
"f.	c #8A7F7F",
"g.	c #F7F6F6",
"h.	c #B7947F",
"i.	c #FAD2B4",
"j.	c #FDD5B7",
"k.	c #FBD4B6",
"l.	c #F4D4BF",
"m.	c #B59585",
"n.	c #5A2723",
"o.	c #4A0C10",
"p.	c #491414",
"q.	c #7C4F45",
"r.	c #4D2E2A",
"s.	c #6A1518",
"t.	c #6F2D2F",
"u.	c #BBB5B6",
"v.	c #D5D3D3",
"w.	c #B08773",
"x.	c #F6CDAE",
"y.	c #FBD3B4",
"z.	c #D8A487",
"A.	c #AD8277",
"B.	c #BF9784",
"C.	c #A9765D",
"D.	c #5A312B",
"E.	c #A36D56",
"F.	c #AB8573",
"G.	c #745248",
"H.	c #43070D",
"I.	c #5A3C3E",
"J.	c #E8E5E5",
"K.	c #F6F5F5",
"L.	c #A09697",
"M.	c #E4BFA6",
"N.	c #F4CEB1",
"O.	c #807373",
"P.	c #6C858D",
"Q.	c #AED0D5",
"R.	c #E3BBA1",
"S.	c #BB8D74",
"T.	c #E2AE8D",
"U.	c #E6B79A",
"V.	c #A9705A",
"W.	c #432324",
"X.	c #8D8383",
"Y.	c #F1F0F0",
"Z.	c #A19B9D",
"`.	c #E0BAA0",
" +	c #F4CFB4",
".+	c #878380",
"++	c #9F9D9D",
"@+	c #F1DED1",
"#+	c #F8CCAE",
"$+	c #EAAD89",
"%+	c #DE9C78",
"&+	c #B36F5B",
"*+	c #7A5451",
"=+	c #C3BEBF",
"-+	c #ECEAEA",
";+	c #BE927A",
">+	c #F0C3A6",
",+	c #EBC6AC",
"'+	c #EFCCB2",
")+	c #FCD6B9",
"!+	c #FCD3B5",
"~+	c #F4C2A0",
"{+	c #D79573",
"]+	c #874D3D",
"^+	c #4E4143",
"/+	c #EDEBEB",
"(+	c #F4F3F4",
"_+	c #ACA2A1",
":+	c #A77663",
"<+	c #E4AD8F",
"[+	c #F6C8AB",
"}+	c #F6C9AD",
"|+	c #F2C2A4",
"1+	c #DB9A79",
"2+	c #A65E49",
"3+	c #572925",
"4+	c #544446",
"5+	c #584A4E",
"6+	c #8B8788",
"7+	c #E7E6E6",
"8+	c #E0DCDC",
"9+	c #766763",
"0+	c #623B24",
"a+	c #8E4B3D",
"b+	c #9E5A4E",
"c+	c #9E5B4E",
"d+	c #9D574A",
"e+	c #90483A",
"f+	c #552420",
"g+	c #473638",
"h+	c #8B8487",
"i+	c #867E81",
"j+	c #5F595D",
"k+	c #8E8C8D",
"l+	c #F6F6F6",
"m+	c #FAF9FA",
"n+	c #A29A9A",
"o+	c #69472A",
"p+	c #896132",
"q+	c #674425",
"r+	c #5B3721",
"s+	c #5C3821",
"t+	c #6A4626",
"u+	c #644225",
"v+	c #695D5E",
"w+	c #877F82",
"x+	c #958D8E",
"y+	c #786E70",
"z+	c #5D595C",
"A+	c #D8D7D8",
"B+	c #9F9797",
"C+	c #76512E",
"D+	c #986D37",
"E+	c #906735",
"F+	c #7C562F",
"G+	c #7B552F",
"H+	c #825B31",
"I+	c #956B36",
"J+	c #865F30",
"K+	c #625353",
"L+	c #807779",
"M+	c #888183",
"N+	c #7D7478",
"O+	c #4D4448",
"P+	c #A8A6A8",
"Q+	c #F8F8F8",
"R+	c #986E37",
"S+	c #9A6F37",
"T+	c #976D36",
"U+	c #946B36",
"V+	c #875F30",
"W+	c #45291F",
"X+	c #604E50",
"Y+	c #776F72",
"Z+	c #81787C",
"`+	c #685F62",
" @	c #423B40",
".@	c #E1E1E1",
"+@	c #765330",
"@@	c #9E7540",
"#@	c #9C723A",
"$@	c #9C7139",
"%@	c #9D733B",
"&@	c #956E3D",
"*@	c #7E582F",
"=@	c #7C562D",
"-@	c #5F3E20",
";@	c #3F2523",
">@	c #5A4F53",
",@	c #81787B",
"'@	c #6E6569",
")@	c #494246",
"!@	c #DFDFDF",
"~@	c #F9F8F8",
"{@	c #9C9394",
"]@	c #614126",
"^@	c #9B7542",
"/@	c #A5804A",
"(@	c #A7814C",
"_@	c #A17A45",
":@	c #8A6335",
"<@	c #6E4A28",
"[@	c #54341A",
"}@	c #4C2C15",
"|@	c #422B2A",
"1@	c #5E5659",
"2@	c #665C60",
"3@	c #7C7476",
"4@	c #484247",
"5@	c #E0DFE0",
"6@	c #D7D3D4",
"7@	c #685D5E",
"8@	c #442B22",
"9@	c #73543B",
"0@	c #8D6B45",
"a@	c #916E48",
"b@	c #835F3B",
"c@	c #634226",
"d@	c #533520",
"e@	c #3D2219",
"f@	c #321D1B",
"g@	c #574C4E",
"h@	c #9D999B",
"i@	c #4C4347",
"j@	c #766E71",
"k@	c #4E464B",
"l@	c #D6D5D6",
"m@	c #FFFEFF",
"n@	c #EDECEC",
"o@	c #7F6767",
"p@	c #853D35",
"q@	c #442021",
"r@	c #474349",
"s@	c #89938B",
"t@	c #8E9A8F",
"u@	c #6A6C6A",
"v@	c #474448",
"w@	c #444147",
"x@	c #322C36",
"y@	c #282330",
"z@	c #544E53",
"A@	c #9F9C9E",
"B@	c #553E37",
"C@	c #6A5650",
"D@	c #4A3C3D",
"E@	c #858082",
"F@	c #EAE8E8",
"G@	c #7E5A55",
"H@	c #A45745",
"I@	c #4C1F1E",
"J@	c #2F2A30",
"K@	c #717779",
"L@	c #6E6F72",
"M@	c #4F5155",
"N@	c #2B2831",
"O@	c #2C262F",
"P@	c #36211F",
"Q@	c #2E1919",
"R@	c #3C3438",
"S@	c #907C77",
"T@	c #D0A286",
"U@	c #EDC6AA",
"V@	c #BC9A86",
"W@	c #7C7274",
"X@	c #F4F2F3",
"Y@	c #EAE8E9",
"Z@	c #7D5955",
"`@	c #A65444",
" #	c #7A302C",
".#	c #46281E",
"+#	c #4C362F",
"@#	c #4F3833",
"##	c #482D21",
"$#	c #422514",
"%#	c #3F2210",
"&#	c #432413",
"*#	c #331511",
"=#	c #1E0D11",
"-#	c #895D4C",
";#	c #EEBFA1",
">#	c #FBD7BD",
",#	c #D9AF9B",
"'#	c #867676",
")#	c #F2F1F1",
"!#	c #998B8B",
"~#	c #7E3E3B",
"{#	c #6C302F",
"]#	c #301716",
"^#	c #3A1D16",
"/#	c #563622",
"(#	c #5B3821",
"_#	c #5C3A1F",
":#	c #4F2F17",
"<#	c #3F2013",
"[#	c #311211",
"}#	c #1D0C11",
"|#	c #6C3A34",
"1#	c #D7A286",
"2#	c #EEC4A7",
"3#	c #BB8D78",
"4#	c #AEA6A6",
"5#	c #EDEBEC",
"6#	c #D1CDCE",
"7#	c #AFABAC",
"8#	c #28171B",
"9#	c #3E2022",
"0#	c #675153",
"a#	c #523D3D",
"b#	c #3E231A",
"c#	c #341916",
"d#	c #301311",
"e#	c #41393C",
"f#	c #968B8D",
"g#	c #84655E",
"h#	c #8E736B",
"i#	c #B4AAAA",
"j#	c #F3F2F3",
"k#	c #DBD7D8",
"l#	c #592021",
"m#	c #971F20",
"n#	c #983839",
"o#	c #54393D",
"p#	c #36282A",
"q#	c #372A2C",
"r#	c #3A2C2E",
"s#	c #2E2429",
"t#	c #565356",
"u#	c #E4E3E3",
"v#	c #EBE8E9",
"w#	c #4E2324",
"x#	c #6D1E20",
"y#	c #5B1216",
"z#	c #211217",
"A#	c #21181E",
"B#	c #281D21",
"C#	c #2E2327",
"D#	c #9D999A",
"E#	c #DCD9DA",
"F#	c #BBB7B8",
"G#	c #3E2A2B",
"H#	c #623D3B",
"I#	c #4F2B2A",
"J#	c #3F1215",
"K#	c #2F1214",
"L#	c #23161A",
"M#	c #27191B",
"N#	c #34201F",
"O#	c #7B6A69",
"P#	c #F0EFEF",
"Q#	c #D1CECE",
"R#	c #553F43",
"S#	c #614241",
"T#	c #67423E",
"U#	c #7A4E48",
"V#	c #593934",
"W#	c #2B1A1D",
"X#	c #2B1A1F",
"Y#	c #2D1D1E",
"Z#	c #251A17",
"`#	c #291B19",
" $	c #4D4040",
".$	c #FCFCFC",
"+$	c #D5D2D3",
"@$	c #544647",
"#$	c #714A45",
"$$	c #885852",
"%$	c #855650",
"&$	c #704743",
"*$	c #3B2526",
"=$	c #372323",
"-$	c #382422",
";$	c #271A19",
">$	c #231915",
",$	c #2E2221",
"'$	c #9E999B",
")$	c #F8F7F8",
"!$	c #B8B5B6",
"~$	c #564647",
"{$	c #6B4642",
"]$	c #81544E",
"^$	c #784E47",
"/$	c #493132",
"($	c #3D2B2D",
"_$	c #3C2B2D",
":$	c #332628",
"<$	c #302526",
"[$	c #4F4445",
"}$	c #BFBCBD",
"|$	c #D2D0D0",
"1$	c #8F898B",
"2$	c #483032",
"3$	c #4A3033",
"4$	c #A9A3A4",
"5$	c #CECBCC",
"6$	c #F8F7F7",
"                                  . + @ # $ % & . *                   ",
"                                . = - ; > , ' ) ! ~ { *               ",
"                              . + ] ^ / ( _ : < [ } | 1 2 3           ",
"                            . 4 5 6 7 8 9 0 a b c d e f g h           ",
"                        i . j k l m n o p q r s t u v w x y           ",
"                      z A B C D 0 E F G H a I r J K L M N O z         ",
"                        P Q R S T U V W c K X Y Z K M `  ...z         ",
"                        z +.@.#.$.%.&.*.=.-.;.>.E t ,.'.).!.z         ",
"                          ~.{.].^./.(._.:.<.[.K }.|.S u 1.2.          ",
"                          h 3.4.5.6.7.8.9.0.[.a.b.c.d.e.f.g.          ",
"                            $ h.i.j.k.l.m.n.o.p.q.r.s.t.u.h           ",
"                            v.w.x.y.z.A.B.C.D.E.F.G.H.I.J.            ",
"                            K.L.M.N.O.P.Q.R.S.T.U.V.W.X.Y.            ",
"                            . Z.`. +.+++@+#+$+%+&+*+=+-+z             ",
"                            h u.;+>+,+'+)+!+~+{+]+^+=+/+z             ",
"                              (+_+:+<+[+}+|+1+2+3+4+5+6+7+z           ",
"                            z 8+9+0+a+b+c+d+e+f+g+h+i+j+k+l+          ",
"                            m+n+o+p+q+r+r+s+t+u+v+w+x+y+z+A+z         ",
"                            . B+C+D+E+F+G+H+I+J+K+L+M+N+O+P+Q+        ",
"                            . B+C+R+S+T+T+I+U+V+W+X+Y+Z+`+ @.@        ",
"                            . B++@@@#@$@%@&@*@=@-@;@>@,@'@)@!@        ",
"                            ~@{@]@^@/@(@_@:@<@[@}@|@1@2@3@4@5@        ",
"                          3 6@7@8@9@0@a@b@c@d@e@f@g@h@i@j@k@l@m@      ",
"                          n@o@p@q@r@s@t@u@v@w@x@y@z@A@B@C@D@E@K.      ",
"                          F@G@H@I@J@K@L@M@N@O@P@Q@R@S@T@U@V@W@X@      ",
"                          Y@Z@`@ #.#+#@###$#%#&#*#=#-#;#>#,#'#X@      ",
"                          )#!#~#{#]#^#/#(#_#:#<#[#}#|#1#2#3#4#Q+      ",
"                          z 5#6#7#8#9#0#a#b#b#c#d#e#f#g#h#i#j#        ",
"                                k#l#m#n#o#p#q#r#s#t#u#~.v#g.          ",
"                                k#w#x#>.y#z#A#B#C#D#g.                ",
"                            j#E#F#G#H#I#J#K#L#M#N#O#P#                ",
"                            Q#R#S#T#U#V#W#X#Y#Z#`# $# .$              ",
"                            +$@$#$$$%$&$*$=$-$;$>$,$'$m+              ",
"                            )$!$~${$]$^$/$($_$:$<$[$}$.$              ",
"                              )$|$1$2$3$4$5$5$5$5$+$6$                "};
