/* XPM */
static char * plrR1_xpm[] = {
"35 35 477 2",
"  	c #FFFFFF",
". 	c #FBFBFB",
"+ 	c #E4E1E0",
"@ 	c #E0DFE0",
"# 	c #C5C1C2",
"$ 	c #ADA5A6",
"% 	c #F8F8F8",
"& 	c #FEFEFE",
"* 	c #D3D0D1",
"= 	c #B2AEAF",
"- 	c #B3AEAF",
"; 	c #A6A0A1",
"> 	c #4A292B",
", 	c #43181C",
"' 	c #621D1F",
") 	c #672223",
"! 	c #AAA2A3",
"~ 	c #F9F9F9",
"{ 	c #F7F6F6",
"] 	c #E0DEDE",
"^ 	c #8B7D7C",
"/ 	c #584243",
"( 	c #4B0A0F",
"_ 	c #5B1014",
": 	c #6A1519",
"< 	c #71181B",
"[ 	c #75191C",
"} 	c #902324",
"| 	c #771A1D",
"1 	c #401C1E",
"2 	c #A7A1A2",
"3 	c #634748",
"4 	c #490F13",
"5 	c #42090E",
"6 	c #571014",
"7 	c #651418",
"8 	c #882022",
"9 	c #992728",
"0 	c #992627",
"a 	c #962526",
"b 	c #932425",
"c 	c #6E171A",
"d 	c #471A1C",
"e 	c #FDFDFD",
"f 	c #CCC9CA",
"g 	c #594142",
"h 	c #480B10",
"i 	c #72181C",
"j 	c #671518",
"k 	c #781B1D",
"l 	c #9C2728",
"m 	c #841E21",
"n 	c #8B2123",
"o 	c #9E2829",
"p 	c #9F2828",
"q 	c #942425",
"r 	c #7C1C1E",
"s 	c #46191B",
"t 	c #A59FA0",
"u 	c #F8F7F7",
"v 	c #E9E5E4",
"w 	c #533D3F",
"x 	c #550F13",
"y 	c #70181B",
"z 	c #761A1D",
"A 	c #8D2223",
"B 	c #771B1D",
"C 	c #892022",
"D 	c #962627",
"E 	c #7A1B1E",
"F 	c #4D1D1F",
"G 	c #A39B9C",
"H 	c #DED9D8",
"I 	c #E4E3E3",
"J 	c #4B2022",
"K 	c #641417",
"L 	c #6C161A",
"M 	c #681519",
"N 	c #7E1C1F",
"O 	c #8E2324",
"P 	c #811E20",
"Q 	c #631417",
"R 	c #5A1214",
"S 	c #5F1216",
"T 	c #76181C",
"U 	c #982626",
"V 	c #520E13",
"W 	c #361A1D",
"X 	c #AAA5A6",
"Y 	c #FCFCFC",
"Z 	c #E8E7E8",
"` 	c #584143",
" .	c #560F14",
"..	c #6A1619",
"+.	c #851F21",
"@.	c #801D20",
"#.	c #6B171B",
"$.	c #732A28",
"%.	c #4C1C1C",
"&.	c #522625",
"*.	c #7B1C1E",
"=.	c #3D070C",
"-.	c #9E9798",
";.	c #F9F8F8",
">.	c #FEFDFD",
",.	c #B6B1B1",
"'.	c #862021",
").	c #621317",
"!.	c #562F2B",
"~.	c #BD9984",
"{.	c #7C5B4F",
"].	c #C19B85",
"^.	c #623632",
"/.	c #500E12",
"(.	c #B6B0B1",
"_.	c #BDB7B6",
":.	c #671519",
"<.	c #9A2627",
"[.	c #5E1417",
"}.	c #571114",
"|.	c #4F1817",
"1.	c #C59F89",
"2.	c #FAD3B6",
"3.	c #DCB69D",
"4.	c #F9D1B4",
"5.	c #8A6A5D",
"6.	c #6B5C5D",
"7.	c #E8E6E6",
"8.	c #D1CECE",
"9.	c #6B4243",
"0.	c #831E20",
"a.	c #440E11",
"b.	c #6E463F",
"c.	c #5F1518",
"d.	c #39080C",
"e.	c #601216",
"f.	c #71544C",
"g.	c #EBCDB9",
"h.	c #FDD9BF",
"i.	c #FDD5B8",
"j.	c #E0BAA0",
"k.	c #867979",
"l.	c #877C7E",
"m.	c #391518",
"n.	c #BA9581",
"o.	c #7B4D3F",
"p.	c #623429",
"q.	c #6E4131",
"r.	c #C49077",
"s.	c #C5988A",
"t.	c #D4A189",
"u.	c #F8CEB0",
"v.	c #FDD5B7",
"w.	c #DCAF93",
"x.	c #8F8384",
"y.	c #A0999A",
"z.	c #3D1416",
"A.	c #7D4A3B",
"B.	c #E4B193",
"C.	c #EABDA0",
"D.	c #9D6E5A",
"E.	c #DEAF92",
"F.	c #B7C4C3",
"G.	c #7EADB8",
"H.	c #48404A",
"I.	c #DDBBA4",
"J.	c #FCD4B6",
"K.	c #967A6D",
"L.	c #E0DEDD",
"M.	c #F5F4F5",
"N.	c #B4AFB0",
"O.	c #846A6B",
"P.	c #AF6753",
"Q.	c #D99879",
"R.	c #E8A67E",
"S.	c #F5C4A1",
"T.	c #F8DFCE",
"U.	c #CECCCA",
"V.	c #535D68",
"W.	c #DABFAC",
"X.	c #FBD3B5",
"Y.	c #8B736B",
"Z.	c #EDEBEB",
"`.	c #E4E1E2",
" +	c #868082",
".+	c #5B2E2A",
"++	c #CC8162",
"@+	c #F0BA97",
"#+	c #FACFAF",
"$+	c #F3D2BB",
"%+	c #DEBDA6",
"&+	c #F4CEB1",
"*+	c #E6B597",
"=+	c #8E726D",
"-+	c #F0EEEE",
";+	c #FEFDFE",
">+	c #BEBBBC",
",+	c #584748",
"'+	c #4C3A3B",
")+	c #43211F",
"!+	c #964D3F",
"~+	c #D8916F",
"{+	c #F4C2A1",
"]+	c #FCD3B6",
"^+	c #F6C8A8",
"/+	c #D19C82",
"(+	c #95786E",
"_+	c #DCDADA",
":+	c #C9C8C9",
"<+	c #4A4248",
"[+	c #877E81",
"}+	c #858085",
"|+	c #54494C",
"1+	c #461B18",
"2+	c #90473A",
"3+	c #AD6451",
"4+	c #B17060",
"5+	c #AC6652",
"6+	c #723D2A",
"7+	c #604A45",
"8+	c #CDC7C7",
"9+	c #FDFDFC",
"0+	c #8E8A8C",
"a+	c #5B5257",
"b+	c #8F8689",
"c+	c #91898B",
"d+	c #7C7476",
"e+	c #48291D",
"f+	c #5F3D23",
"g+	c #542D1E",
"h+	c #532F1D",
"i+	c #56311D",
"j+	c #7B552D",
"k+	c #7D562D",
"l+	c #5D4541",
"m+	c #EDECEC",
"n+	c #D9D8D9",
"o+	c #352B31",
"p+	c #73696B",
"q+	c #8C8286",
"r+	c #887F81",
"s+	c #796E70",
"t+	c #694627",
"u+	c #996E37",
"v+	c #876033",
"w+	c #78532E",
"x+	c #835C31",
"y+	c #976D37",
"z+	c #8B6233",
"A+	c #5C3E38",
"B+	c #ECEAEB",
"C+	c #737073",
"D+	c #514649",
"E+	c #7A7274",
"F+	c #888284",
"G+	c #6A5C5E",
"H+	c #46312F",
"I+	c #694625",
"J+	c #9A6F37",
"K+	c #936936",
"L+	c #966B36",
"M+	c #986E37",
"N+	c #5D4037",
"O+	c #FAFAFA",
"P+	c #686467",
"Q+	c #60585C",
"R+	c #857D7E",
"S+	c #655C60",
"T+	c #49383A",
"U+	c #4A2A16",
"V+	c #78522B",
"W+	c #845D31",
"X+	c #886134",
"Y+	c #9C733D",
"Z+	c #9B7038",
"`+	c #9C713A",
" @	c #8E683A",
".@	c #594036",
"+@	c #ECEAEA",
"@@	c #676467",
"#@	c #6D6669",
"$@	c #776F72",
"%@	c #50474A",
"&@	c #413334",
"*@	c #492914",
"=@	c #58351A",
"-@	c #694426",
";@	c #815B31",
">@	c #9F7742",
",@	c #A7814B",
"'@	c #A7824C",
")@	c #A57E48",
"!@	c #836037",
"~@	c #544035",
"{@	c #F9F8F9",
"]@	c #777071",
"^@	c #655E5F",
"/@	c #6D6B6D",
"(@	c #938C8E",
"_@	c #341E1A",
":@	c #3C2117",
"<@	c #4C2B16",
"[@	c #613F23",
"}@	c #7C5730",
"|@	c #926E40",
"1@	c #946F41",
"2@	c #876339",
"3@	c #5A4030",
"4@	c #3B2423",
"5@	c #BBB6B7",
"6@	c #BEBABB",
"7@	c #3B343A",
"8@	c #4F4143",
"9@	c #3F3233",
"0@	c #706D6F",
"a@	c #949193",
"b@	c #28242F",
"c@	c #2B2731",
"d@	c #423D42",
"e@	c #474245",
"f@	c #554D4B",
"g@	c #8E9587",
"h@	c #8F998B",
"i@	c #64615A",
"j@	c #6D2B27",
"k@	c #7D4945",
"l@	c #C9C5C6",
"m@	c #ABA5A7",
"n@	c #7E6A5E",
"o@	c #E6C0A6",
"p@	c #8F7369",
"q@	c #6F6B6D",
"r@	c #24161B",
"s@	c #301D1C",
"t@	c #2F2930",
"u@	c #2B2B35",
"v@	c #37353C",
"w@	c #798383",
"x@	c #727B7D",
"y@	c #4B4E50",
"z@	c #29151B",
"A@	c #863B32",
"B@	c #9F5D4B",
"C@	c #B8B3B5",
"D@	c #ACA6A7",
"E@	c #C2927B",
"F@	c #FBD9C2",
"G@	c #FAD0B2",
"H@	c #BD866A",
"I@	c #1F1217",
"J@	c #2E100E",
"K@	c #422212",
"L@	c #3D2113",
"M@	c #391D11",
"N@	c #3C2115",
"O@	c #513937",
"P@	c #513E3D",
"Q@	c #4E3128",
"R@	c #542421",
"S@	c #994138",
"T@	c #9D5C4B",
"U@	c #B8B4B5",
"V@	c #C2BDBE",
"W@	c #A47461",
"X@	c #F1C4A7",
"Y@	c #F5C5A5",
"Z@	c #975447",
"`@	c #1D0E14",
" #	c #2C0F0F",
".#	c #3B1C11",
"+#	c #4A2911",
"@#	c #5A371D",
"##	c #613E22",
"$#	c #5E3922",
"%#	c #482619",
"&#	c #331A19",
"*#	c #541F1E",
"=#	c #843630",
"-#	c #7F4F4C",
";#	c #CAC7C8",
">#	c #BEB7B6",
",#	c #8E6C60",
"'#	c #936B5F",
")#	c #7E6062",
"!#	c #656063",
"~#	c #2B1011",
"{#	c #301413",
"]#	c #3D2015",
"^#	c #472A18",
"/#	c #3C201C",
"(#	c #695759",
"_#	c #412E32",
":#	c #20131C",
"<#	c #636062",
"[#	c #B5B0B2",
"}#	c #CAC6C7",
"|#	c #FBFAFA",
"1#	c #E2E0E0",
"2#	c #EAE8E9",
"3#	c #939193",
"4#	c #2E2329",
"5#	c #34272B",
"6#	c #39292C",
"7#	c #372A2E",
"8#	c #3C3034",
"9#	c #795457",
"0#	c #9F514B",
"a#	c #641F21",
"b#	c #9A8C89",
"c#	c #C0BEBF",
"d#	c #4C4347",
"e#	c #261D23",
"f#	c #23191D",
"g#	c #282025",
"h#	c #310A0E",
"i#	c #741A1D",
"j#	c #601B1D",
"k#	c #431517",
"l#	c #9F8F90",
"m#	c #B3AFAF",
"n#	c #403132",
"o#	c #2C1B1B",
"p#	c #201418",
"q#	c #261216",
"r#	c #3E0E0F",
"s#	c #4A1E1F",
"t#	c #5E3B37",
"u#	c #3C2525",
"v#	c #8C8283",
"w#	c #E6E4E5",
"x#	c #7A7173",
"y#	c #301F1D",
"z#	c #251917",
"A#	c #2B1C1B",
"B#	c #2A1A1F",
"C#	c #2A171D",
"D#	c #392321",
"E#	c #754B45",
"F#	c #69423D",
"G#	c #593B39",
"H#	c #5A4041",
"I#	c #898284",
"J#	c #D1CFCF",
"K#	c #2F2122",
"L#	c #231816",
"M#	c #332120",
"N#	c #382424",
"O#	c #2F1C22",
"P#	c #573534",
"Q#	c #82524D",
"R#	c #855650",
"S#	c #875650",
"T#	c #5B3B39",
"U#	c #8B8486",
"V#	c #DEDBDC",
"W#	c #5A4E50",
"X#	c #251819",
"Y#	c #241717",
"Z#	c #322021",
"`#	c #362222",
" $	c #342021",
".$	c #6C4542",
"+$	c #82534D",
"@$	c #784B46",
"#$	c #583837",
"$$	c #756D6E",
"%$	c #E6E4E4",
"&$	c #D6D3D3",
"*$	c #B7B3B4",
"=$	c #B7B4B5",
"-$	c #B6B3B4",
";$	c #AFAAAC",
">$	c #5D494B",
",$	c #593E40",
"'$	c #53474A",
")$	c #B1ACAE",
"!$	c #E7E5E6",
"                      . + @ # $ %                                     ",
"              & * = - ; > , ' ) ! ~                                   ",
"          { ] ^ / ( _ : < [ } | 1 2 %                                 ",
"          * 3 4 5 6 7 8 9 0 a b c d ; %                               ",
"        e f g h i j k l m n o p q r s t u                             ",
"        v w x y z | 0 q 0 A B C r D E F G H e                         ",
"        I J K L M N y O P Q R A S T U V W X Y                         ",
"        Z `  .j ..| r +.y @.#.$.%.&.*.=.-.;.                          ",
"        >.,.7 P 7 | '.).A y !.~.{.].^./.(.                            ",
"          _.:.<.[.}.m j 8 |.1.2.3.4.5.6.7.                            ",
"          8.9.0.a.b.c.d.e.f.g.h.i.i.j.k.>.                            ",
"          & l.6 m.n.o.p.q.r.s.t.u.v.w.x.&                             ",
"            y.z.A.B.C.D.E.F.G.H.I.J.K.L.                              ",
"            M.N.O.P.Q.R.S.T.U.V.W.X.Y.Z.                              ",
"            Y `. +.+++@+#+i.$+%+&+*+=+-+                              ",
"          ;+>+,+'+)+!+~+{+]+]+^+/+(+_+&                               ",
"          :+<+[+}+|+1+2+3+4+4+5+6+7+8+9+                              ",
"        M.0+a+b+c+d+e+f+g+h+g+i+j+k+l+m+                              ",
"        n+o+p+q+r+s+t+u+v+w+w+x+y+z+A+B+                              ",
"      . C+D+E+F+G+H+I+J+K+L+L+M+J+z+N+Z.                              ",
"      O+P+Q+R+S+T+U+V+W+X+Y+Z+Z+`+ @.@+@                              ",
"      O+@@#@$@%@&@*@=@-@;@>@,@'@)@!@~@Z.                              ",
"      {@@@]@^@/@(@_@:@<@[@}@|@1@2@3@4@5@e                             ",
"      6@7@8@9@0@a@b@c@d@e@f@g@h@i@o+j@k@l@                            ",
"      m@n@o@E.p@q@r@s@t@u@v@w@x@y@z@A@B@C@                            ",
"      D@E@F@G@H@I@J@K@L@M@N@O@P@Q@R@S@T@U@                            ",
"      V@W@X@Y@Z@`@ #.#+#@###$#%#&#*#=#-#;#                            ",
"      Y >#,#'#)#!#~#{#]#^#/#(#_#:#<#[#}#e                             ",
"        |#`.1#2#3#4#5#6#7#8#9#0#a#b#                                  ",
"                c#d#e#f#g#h#i#j#k#l#                                  ",
"                m#n#o#p#q#r#s#t#u#v#w#m+                              ",
"              Z.x#y#z#A#B#C#D#E#F#G#H#I#&                             ",
"              J#K#L#L#M#N#O#P#Q#R#S#T#U#&                             ",
"              V#W#X#Y#Z#`# $.$+$@$#$$$%$                              ",
"                &$*$*$=$-$;$>$,$'$)$!$                                "};
