/* XPM */
static char * plrU2_xpm[] = {
"35 35 541 2",
"  	c #FFFFFF",
". 	c #FBFAFA",
"+ 	c #FAF9F9",
"@ 	c #F9F9F9",
"# 	c #FEFEFE",
"$ 	c #EEEDED",
"% 	c #E0DFE0",
"& 	c #E2DEDF",
"* 	c #928484",
"= 	c #7F5F60",
"- 	c #7C6566",
"; 	c #D3CDCD",
"> 	c #E1DFE0",
", 	c #E5E4E4",
"' 	c #FDFDFD",
") 	c #F6F5F5",
"! 	c #BBB6B7",
"~ 	c #756A6B",
"{ 	c #36181A",
"] 	c #522020",
"^ 	c #591418",
"/ 	c #7B1B1E",
"( 	c #7A1B1E",
"_ 	c #702425",
": 	c #632022",
"< 	c #603C3D",
"[ 	c #B1A9A9",
"} 	c #E6E4E4",
"| 	c #D2D0D1",
"1 	c #796A68",
"2 	c #441619",
"3 	c #5B1115",
"4 	c #480B10",
"5 	c #75191C",
"6 	c #992627",
"7 	c #8E2224",
"8 	c #851E20",
"9 	c #942426",
"0 	c #791B1E",
"a 	c #601216",
"b 	c #786566",
"c 	c #E4E3E3",
"d 	c #F8F7F7",
"e 	c #7A7374",
"f 	c #3D080D",
"g 	c #6E171A",
"h 	c #8A2122",
"i 	c #902324",
"j 	c #781A1D",
"k 	c #952526",
"l 	c #8F2223",
"m 	c #9B2728",
"n 	c #7C1C1E",
"o 	c #5D1216",
"p 	c #631417",
"q 	c #561115",
"r 	c #847D7E",
"s 	c #CECACA",
"t 	c #5C4243",
"u 	c #73191C",
"v 	c #8C2123",
"w 	c #861F21",
"x 	c #962526",
"y 	c #912325",
"z 	c #982627",
"A 	c #9C2728",
"B 	c #73181B",
"C 	c #6D171A",
"D 	c #8E2022",
"E 	c #7A1A1D",
"F 	c #5A3E40",
"G 	c #CAC5C6",
"H 	c #E8E7E7",
"I 	c #583B3C",
"J 	c #6B161A",
"K 	c #4D0D11",
"L 	c #6F171A",
"M 	c #882022",
"N 	c #9A2727",
"O 	c #942425",
"P 	c #761A1D",
"Q 	c #892022",
"R 	c #611317",
"S 	c #570F14",
"T 	c #580F14",
"U 	c #573536",
"V 	c #CAC6C7",
"W 	c #FDFCFC",
"X 	c #ADA4A5",
"Y 	c #56181A",
"Z 	c #540F13",
"` 	c #430A0F",
" .	c #510E13",
"..	c #681519",
"+.	c #490C10",
"@.	c #8A2022",
"#.	c #9B2627",
"$.	c #550F13",
"%.	c #661519",
"&.	c #751A1D",
"*.	c #3A070C",
"=.	c #530E13",
"-.	c #490B10",
";.	c #58393B",
">.	c #C9C6C7",
",.	c #FBFBFB",
"'.	c #827879",
").	c #3E0C10",
"!.	c #3C080C",
"~.	c #440A0E",
"{.	c #510D12",
"].	c #38070C",
"^.	c #470B0F",
"/.	c #581114",
"(.	c #831E20",
"_.	c #892123",
":.	c #661518",
"<.	c #3E080D",
"[.	c #5C1115",
"}.	c #2E060A",
"|.	c #2F0509",
"1.	c #480A0E",
"2.	c #A49896",
"3.	c #E0DCDA",
"4.	c #422024",
"5.	c #4B0D11",
"6.	c #34070B",
"7.	c #36060B",
"8.	c #4A0B10",
"9.	c #41090E",
"0.	c #641417",
"a.	c #751A1C",
"b.	c #75191B",
"c.	c #4D0C11",
"d.	c #42090E",
"e.	c #33060A",
"f.	c #31060B",
"g.	c #4E3435",
"h.	c #C5C2C3",
"i.	c #F7F7F7",
"j.	c #9E9597",
"k.	c #895947",
"l.	c #522721",
"m.	c #38070B",
"n.	c #35060B",
"o.	c #5F1316",
"p.	c #5F1216",
"q.	c #450A0F",
"r.	c #591014",
"s.	c #7B4A3B",
"t.	c #784B3E",
"u.	c #C0BCBD",
"v.	c #BEBABC",
"w.	c #BC8F77",
"x.	c #C18C72",
"y.	c #380B0E",
"z.	c #32050A",
"A.	c #270408",
"B.	c #35070B",
"C.	c #54201E",
"D.	c #DCA484",
"E.	c #937162",
"F.	c #E3E1E2",
"G.	c #9D8580",
"H.	c #B7917D",
"I.	c #784B37",
"J.	c #572C20",
"K.	c #240307",
"L.	c #2D0409",
"M.	c #2C0409",
"N.	c #3B070C",
"O.	c #32060A",
"P.	c #280408",
"Q.	c #3D1211",
"R.	c #8D5446",
"S.	c #C79E88",
"T.	c #A99A97",
"U.	c #F5F3F3",
"V.	c #E8E6E5",
"W.	c #8B7474",
"X.	c #B37459",
"Y.	c #BD7E5F",
"Z.	c #50251E",
"`.	c #441B17",
" +	c #37060B",
".+	c #35050A",
"++	c #5B2621",
"@+	c #C88665",
"#+	c #9E5D4C",
"$+	c #A49998",
"%+	c #D3D2D3",
"&+	c #979596",
"*+	c #83483A",
"=+	c #C87D5E",
"-+	c #BD7D5D",
";+	c #B07055",
">+	c #441615",
",+	c #420C10",
"'+	c #572E1F",
")+	c #A2684D",
"!+	c #AA6F52",
"~+	c #C67C5E",
"{+	c #693B34",
"]+	c #B1AAAA",
"^+	c #F7F6F6",
"/+	c #D4D2D3",
"(+	c #60595C",
"_+	c #524749",
":+	c #3B1E18",
"<+	c #552C1B",
"[+	c #8E483A",
"}+	c #C2795C",
"|+	c #E59F76",
"1+	c #CF8D69",
"2+	c #8E5C41",
"3+	c #C48463",
"4+	c #E6A077",
"5+	c #AF634D",
"6+	c #7D3A30",
"7+	c #472214",
"8+	c #3D2A2B",
"9+	c #5E595C",
"0+	c #D0CFD0",
"a+	c #6D696C",
"b+	c #776E71",
"c+	c #8A8181",
"d+	c #58382C",
"e+	c #79532D",
"f+	c #5D3921",
"g+	c #7A4C37",
"h+	c #A77054",
"i+	c #A47051",
"j+	c #9E684B",
"k+	c #A46F52",
"l+	c #A06D52",
"m+	c #593324",
"n+	c #462510",
"o+	c #55341B",
"p+	c #433132",
"q+	c #6F6568",
"r+	c #524C50",
"s+	c #CECCCE",
"t+	c #B9B7B9",
"u+	c #524B4F",
"v+	c #7D7578",
"w+	c #827979",
"x+	c #5C3C2A",
"y+	c #946B38",
"z+	c #936A38",
"A+	c #7F592F",
"B+	c #54311A",
"C+	c #472713",
"D+	c #432413",
"E+	c #442512",
"F+	c #442412",
"G+	c #4E2D17",
"H+	c #5C3A1E",
"I+	c #6C4728",
"J+	c #584546",
"K+	c #928889",
"L+	c #6D6567",
"M+	c #8D8B8D",
"N+	c #9F9D9E",
"O+	c #51494D",
"P+	c #564F53",
"Q+	c #63585B",
"R+	c #533524",
"S+	c #99713D",
"T+	c #A67F49",
"U+	c #9C733C",
"V+	c #865E32",
"W+	c #6B4727",
"X+	c #5C3A1D",
"Y+	c #704B29",
"Z+	c #7A552E",
"`+	c #674326",
" @	c #5B4744",
".@	c #807678",
"+@	c #7C7578",
"@@	c #383136",
"#@	c #D5D4D5",
"$@	c #A3A2A3",
"%@	c #3C373B",
"&@	c #544B4F",
"*@	c #493F42",
"=@	c #492A1F",
"-@	c #875F33",
";@	c #9E7641",
">@	c #A6804A",
",@	c #9B723C",
"'@	c #8F6635",
")@	c #8E6534",
"!@	c #8D6434",
"~@	c #896133",
"{@	c #7C562E",
"]@	c #56351B",
"^@	c #3A2726",
"/@	c #655D5F",
"(@	c #6A6165",
"_@	c #4E484C",
":@	c #C7C6C7",
"<@	c #A2A0A2",
"[@	c #3C3539",
"}@	c #453635",
"|@	c #4D2622",
"1@	c #3B1B12",
"2@	c #623F22",
"3@	c #7D572E",
"4@	c #926A37",
"5@	c #A17943",
"6@	c #A07841",
"7@	c #9A6F37",
"8@	c #926835",
"9@	c #835C31",
"0@	c #714D29",
"a@	c #613E20",
"b@	c #42220E",
"c@	c #2A140F",
"d@	c #423B3F",
"e@	c #817B7C",
"f@	c #665D60",
"g@	c #5A5457",
"h@	c #F2F1F2",
"i@	c #A8A3A5",
"j@	c #805541",
"k@	c #B97F63",
"l@	c #C17B5B",
"m@	c #482723",
"n@	c #472C24",
"o@	c #58361B",
"p@	c #684425",
"q@	c #805930",
"r@	c #835C30",
"s@	c #724D2A",
"t@	c #5F3D1F",
"u@	c #502F17",
"v@	c #452410",
"w@	c #462E28",
"x@	c #2A1715",
"y@	c #393136",
"z@	c #7D7477",
"A@	c #6C6363",
"B@	c #464246",
"C@	c #F0EFF0",
"D@	c #BAB4B6",
"E@	c #975E51",
"F@	c #E2AD91",
"G@	c #CF9072",
"H@	c #362124",
"I@	c #3E3C44",
"J@	c #464043",
"K@	c #482E22",
"L@	c #533726",
"M@	c #533827",
"N@	c #563928",
"O@	c #543827",
"P@	c #472E22",
"Q@	c #462E27",
"R@	c #464348",
"S@	c #36323B",
"T@	c #545153",
"U@	c #676265",
"V@	c #7D7577",
"W@	c #888183",
"X@	c #544E51",
"Y@	c #AFA6A6",
"Z@	c #78403D",
"`@	c #6E3733",
" #	c #291316",
".#	c #272028",
"+#	c #3B3D47",
"@#	c #414048",
"##	c #3E4049",
"$#	c #3F4049",
"%#	c #3B3F49",
"&#	c #3D3F49",
"*#	c #3D404A",
"=#	c #373842",
"-#	c #231B23",
";#	c #241419",
">#	c #603E3A",
",#	c #4B3E41",
"'#	c #575052",
")#	c #454045",
"!#	c #F1F0F0",
"~#	c #F9F8F8",
"{#	c #D7D4D5",
"]#	c #C8C3C4",
"^#	c #483131",
"/#	c #2C1517",
"(#	c #281B1F",
"_#	c #261D25",
":#	c #271D25",
"<#	c #261D24",
"[#	c #281E25",
"}#	c #281E24",
"|#	c #261D23",
"1#	c #291D23",
"2#	c #271A20",
"3#	c #291416",
"4#	c #522C28",
"5#	c #CB9881",
"6#	c #D2BDB1",
"7#	c #C2A08F",
"8#	c #6C5551",
"9#	c #F2F0F1",
"0#	c #EFEEEE",
"a#	c #533C3B",
"b#	c #442C26",
"c#	c #453435",
"d#	c #432B26",
"e#	c #3C1D0F",
"f#	c #47260F",
"g#	c #522C15",
"h#	c #522E15",
"i#	c #4E2B13",
"j#	c #46240D",
"k#	c #381A14",
"l#	c #785548",
"m#	c #F5C7A8",
"n#	c #FDD6BA",
"o#	c #DFAB8E",
"p#	c #6F5252",
"q#	c #F2F1F1",
"r#	c #EDEDED",
"s#	c #43393C",
"t#	c #6C6261",
"u#	c #62595D",
"v#	c #5E5558",
"w#	c #37201F",
"x#	c #4B2A16",
"y#	c #644023",
"z#	c #6E4826",
"A#	c #6E4829",
"B#	c #59361D",
"C#	c #432415",
"D#	c #341612",
"E#	c #62413B",
"F#	c #D2997E",
"G#	c #E7BB9E",
"H#	c #A67664",
"I#	c #B5AEAF",
"J#	c #FAFAFA",
"K#	c #EEECEB",
"L#	c #423C40",
"M#	c #6C6467",
"N#	c #7E7577",
"O#	c #655D61",
"P#	c #574D52",
"Q#	c #493637",
"R#	c #46322F",
"S#	c #462B29",
"T#	c #4A3432",
"U#	c #402928",
"V#	c #2A1211",
"W#	c #1C0A0F",
"X#	c #301C20",
"Y#	c #69595B",
"Z#	c #877B7D",
"`#	c #B9B3B2",
" $	c #9A9697",
".$	c #4E454B",
"+$	c #7B7273",
"@$	c #61595C",
"#$	c #5B5357",
"$$	c #645A5E",
"%$	c #615659",
"&$	c #4D464C",
"*$	c #41393D",
"=$	c #433636",
"-$	c #201318",
";$	c #2F1D1F",
">$	c #352122",
",$	c #B6B2B4",
"'$	c #D1CCCD",
")$	c #301518",
"!$	c #351E22",
"~$	c #361A1F",
"{$	c #2E1E22",
"]$	c #585356",
"^$	c #5D585C",
"/$	c #4F4A4E",
"($	c #26191C",
"_$	c #472E28",
":$	c #432C26",
"<$	c #352221",
"[$	c #362122",
"}$	c #B8B3B5",
"|$	c #F5F4F4",
"1$	c #9B9293",
"2$	c #351E1D",
"3$	c #50191A",
"4$	c #57191C",
"5$	c #5E3636",
"6$	c #E7E6E7",
"7$	c #F8F7F8",
"8$	c #D0CDCE",
"9$	c #2E2124",
"0$	c #5F3C37",
"a$	c #6F4942",
"b$	c #4E312D",
"c$	c #322022",
"d$	c #B9B5B6",
"e$	c #A39D9F",
"f$	c #3D2B2B",
"g$	c #4A2E2A",
"h$	c #6B4441",
"i$	c #613C39",
"j$	c #534143",
"k$	c #EFEDEE",
"l$	c #DBD8D9",
"m$	c #46393C",
"n$	c #5B3A34",
"o$	c #794D49",
"p$	c #563635",
"q$	c #80787A",
"r$	c #ECEBEB",
"s$	c #898385",
"t$	c #2E1E1C",
"u$	c #5D3B37",
"v$	c #885650",
"w$	c #69423F",
"x$	c #4F4245",
"y$	c #FCFCFC",
"z$	c #C2BDBE",
"A$	c #938C8F",
"B$	c #948D8F",
"C$	c #9B9597",
"D$	c #918C8D",
"E$	c #301F1E",
"F$	c #66413D",
"G$	c #82564C",
"H$	c #4D302C",
"I$	c #493F43",
"J$	c #E9E7E7",
"K$	c #7A7274",
"L$	c #472C2B",
"M$	c #4C2F2C",
"N$	c #311F1E",
"O$	c #7C7375",
"P$	c #F4F3F3",
"                      . + @ #                                         ",
"                $ % & * = - ; > , '                                   ",
"          # ) ! ~ { ] ^ / ( _ : < [ }                                 ",
"          | 1 2 3 4 4 5 6 7 8 9 0 a b c                               ",
"          d e f g h i j k l m n o p q r #                             ",
"        ' s t u v w x y z 6 A B C D E F G '                           ",
"        H I J 5 K L M n N O P Q R S 5 T U V '                         ",
"      W X Y Z `  ...+.K @.#.$.%.&.*.=.-.3 ;.>.                        ",
"      ,.'.).!.~.{.].^./.(._.:.<.[.o }.|.!.1.2.                        ",
"        3.4.5.6.7.8.9.R 0.a.b.c.d.c.e.f.6.g.h.                        ",
"        i.j.k.l.<.m.n.[.9.o.p.q.r.f f s.t.u.'                         ",
"          v.w.x.y.f 7.z.A.q.<.B.K ^.C.D.E.F.                          ",
"          , G.H.I.J.n.K.L.M.N.O.P.Q.R.S.T.U.                          ",
"            V.W.X.Y.Z.`. +7.d..+++@+#+$+U.                            ",
"        # %+&+'.*+=+-+;+>+,+'+)+!+~+{+]+^+#                           ",
"      # /+(+_+:+<+[+}+|+1+2+3+4+5+6+7+8+9+0+#                         ",
"      @ a+b+c+d+e+f+g+h+i+j+k+l+m+n+o+p+q+r+s+                        ",
"      t+u+v+w+x+y+z+A+B+C+D+E+F+G+H+I+J+K+L+M+@                       ",
"      N+O+P+Q+R+S+T+U+V+W+X+X+H+Y+Z+`+ @.@+@@@#@                      ",
"      $@%@&@*@=@-@;@>@,@'@)@!@!@~@{@]@^@/@(@_@:@#                     ",
"      <@[@}@|@1@2@3@4@5@6@7@8@9@0@a@b@c@d@e@f@g@h@                    ",
"      i@j@k@l@m@n@o@p@q@V+r@s@t@u@v@w@x@y@z@A@B@C@                    ",
"      D@E@F@G@H@I@J@K@L@M@N@O@P@Q@R@S@T@U@V@W@X@C@                    ",
"      + Y@Z@`@ #.#+#@###$#%#&#*#$#=#-#;#>#,#'#)#!#                    ",
"        ~#{#]#^#/#(#_#:#<#[#}#|#1#2#3#4#5#6#7#8#9#                    ",
"            0#a#b#c#d#e#f#g#h#g#i#j#k#l#m#n#o#p#q#                    ",
"            r#s#t#u#v#w#x#y#z#A#B#C#D#E#F#G#H#I#J#                    ",
"            K#L#M#N#O#P#Q#R#S#T#U#V#W#X#Y#Z#`#J#                      ",
"            i. $.$+$@$#$$$%$&$*$=$-$;$>$,$' #                         ",
"              '$)$!$~${$]$^$/$($_$:$<$[$}$                            ",
"            |$1$2$3$4$5$6$7$8$9$0$a$b$c$d$                            ",
"            e$f$g$h$i$j$k$  l$m$n$o$p$q$r$                            ",
"          # s$t$u$v$w$x$0#  y$z$A$B$C$r$                              ",
"            D$E$F$G$H$I$0#                                            ",
"            J$K$L$M$N$O$P$                                            "};
