/* XPM */
static char * wall_xpm[] = {
"35 35 368 2",
"  	c None",
". 	c #3E3630",
"+ 	c #5B4F47",
"@ 	c #66594F",
"# 	c #5E5249",
"$ 	c #65594F",
"% 	c #4E443C",
"& 	c #63574D",
"* 	c #6C5E54",
"= 	c #685A51",
"- 	c #62554D",
"; 	c #60554B",
"> 	c #6F6357",
", 	c #6A5D53",
"' 	c #6B5E54",
") 	c #5C4F47",
"! 	c #322B27",
"~ 	c #534841",
"{ 	c #6A5E53",
"] 	c #3F352F",
"^ 	c #554A42",
"/ 	c #362F2A",
"( 	c #554B42",
"_ 	c #675B50",
": 	c #6F6257",
"< 	c #60544B",
"[ 	c #524840",
"} 	c #574C43",
"| 	c #51463E",
"1 	c #564B43",
"2 	c #5A4E46",
"3 	c #5E5149",
"4 	c #726459",
"5 	c #695C52",
"6 	c #6D5F55",
"7 	c #6D5E55",
"8 	c #6A5C53",
"9 	c #61534B",
"0 	c #5A4D45",
"a 	c #584C45",
"b 	c #706258",
"c 	c #5B4F46",
"d 	c #50433C",
"e 	c #61544B",
"f 	c #74665B",
"g 	c #665950",
"h 	c #7D6F63",
"i 	c #5F524A",
"j 	c #544941",
"k 	c #5F534B",
"l 	c #5E5148",
"m 	c #6F6057",
"n 	c #6B5D53",
"o 	c #63564D",
"p 	c #554942",
"q 	c #372F29",
"r 	c #3D332E",
"s 	c #716358",
"t 	c #716259",
"u 	c #65584F",
"v 	c #4D4039",
"w 	c #4B3F38",
"x 	c #493E37",
"y 	c #473D36",
"z 	c #544840",
"A 	c #4E423A",
"B 	c #4E413A",
"C 	c #7E7063",
"D 	c #4A3E38",
"E 	c #675950",
"F 	c #4E433C",
"G 	c #5D5048",
"H 	c #6E5F56",
"I 	c #76695D",
"J 	c #77695D",
"K 	c #61544C",
"L 	c #63554C",
"M 	c #5A4D46",
"N 	c #3A302B",
"O 	c #483E36",
"P 	c #554941",
"Q 	c #5B4E46",
"R 	c #3B312C",
"S 	c #473C35",
"T 	c #53473F",
"U 	c #574B42",
"V 	c #685A52",
"W 	c #695A52",
"X 	c #65574E",
"Y 	c #7B6D61",
"Z 	c #726359",
"` 	c #463C35",
" .	c #40352F",
"..	c #403630",
"+.	c #3E342E",
"@.	c #5C4E46",
"#.	c #695A51",
"$.	c #675850",
"%.	c #5F5149",
"&.	c #584B43",
"*.	c #574A42",
"=.	c #433933",
"-.	c #473E37",
";.	c #463B35",
">.	c #4A3E37",
",.	c #3B322C",
"'.	c #62544C",
").	c #73655A",
"!.	c #65574F",
"~.	c #52463E",
"{.	c #584B44",
"].	c #3B322D",
"^.	c #675A50",
"/.	c #382F2A",
"(.	c #4C413A",
"_.	c #574A43",
":.	c #5F5249",
"<.	c #4E423B",
"[.	c #695B52",
"}.	c #4C4039",
"|.	c #40362F",
"1.	c #695D53",
"2.	c #584D45",
"3.	c #493E38",
"4.	c #443933",
"5.	c #413731",
"6.	c #76675D",
"7.	c #7C6E61",
"8.	c #716359",
"9.	c #423832",
"0.	c #423730",
"a.	c #332C27",
"b.	c #574B43",
"c.	c #50443D",
"d.	c #3E352F",
"e.	c #5E5048",
"f.	c #564942",
"g.	c #453A33",
"h.	c #4F443C",
"i.	c #5A4F46",
"j.	c #483D36",
"k.	c #665850",
"l.	c #786A5E",
"m.	c #423933",
"n.	c #685B51",
"o.	c #6D5E56",
"p.	c #706158",
"q.	c #60534A",
"r.	c #594C44",
"s.	c #51453E",
"t.	c #534840",
"u.	c #534940",
"v.	c #62574D",
"w.	c #4D423B",
"x.	c #4C423B",
"y.	c #4B4039",
"z.	c #423932",
"A.	c #544841",
"B.	c #4F433D",
"C.	c #655950",
"D.	c #5F5349",
"E.	c #3D342E",
"F.	c #473B35",
"G.	c #39302B",
"H.	c #5D5148",
"I.	c #716459",
"J.	c #473C36",
"K.	c #39302A",
"L.	c #61554B",
"M.	c #77695E",
"N.	c #6E6056",
"O.	c #64574E",
"P.	c #6D6055",
"Q.	c #685951",
"R.	c #3C322C",
"S.	c #4F443D",
"T.	c #76685D",
"U.	c #75685C",
"V.	c #574C44",
"W.	c #62554C",
"X.	c #473D37",
"Y.	c #493D36",
"Z.	c #4F433C",
"`.	c #544740",
" +	c #312924",
".+	c #4D413A",
"++	c #594D45",
"@+	c #61554C",
"#+	c #7D6E62",
"$+	c #554840",
"%+	c #453B35",
"&+	c #4A3F38",
"*+	c #3A312C",
"=+	c #423731",
"-+	c #443A34",
";+	c #382F29",
">+	c #483C35",
",+	c #594D44",
"'+	c #39312C",
")+	c #453A34",
"!+	c #413630",
"~+	c #554841",
"{+	c #6B5C53",
"]+	c #3D332D",
"^+	c #5C5148",
"/+	c #786A5F",
"(+	c #4B3F39",
"_+	c #4C4139",
":+	c #4E433B",
"<+	c #776A5E",
"[+	c #66584F",
"}+	c #52463F",
"|+	c #4A3D37",
"1+	c #463A34",
"2+	c #6B5E53",
"3+	c #4D423C",
"4+	c #6F6157",
"5+	c #7C6E62",
"6+	c #4E423C",
"7+	c #302824",
"8+	c #5F534A",
"9+	c #73665A",
"0+	c #6C5D55",
"a+	c #6D5F56",
"b+	c #483C36",
"c+	c #423831",
"d+	c #483F38",
"e+	c #483E37",
"f+	c #413730",
"g+	c #5E524A",
"h+	c #706358",
"i+	c #50443E",
"j+	c #584C44",
"k+	c #534740",
"l+	c #665A50",
"m+	c #7D6F62",
"n+	c #5C5048",
"o+	c #52453E",
"p+	c #3C332D",
"q+	c #493F38",
"r+	c #453C35",
"s+	c #3F342E",
"t+	c #52473F",
"u+	c #685C51",
"v+	c #443A33",
"w+	c #796B5F",
"x+	c #7A6B60",
"y+	c #7F7164",
"z+	c #77685D",
"A+	c #3F3630",
"B+	c #7A6C60",
"C+	c #6C5D54",
"D+	c #60534B",
"E+	c #76675C",
"F+	c #796C60",
"G+	c #5B5047",
"H+	c #4C403A",
"I+	c #60524A",
"J+	c #5C5047",
"K+	c #74675B",
"L+	c #75675C",
"M+	c #493D37",
"N+	c #66584E",
"O+	c #675B51",
"P+	c #564A42",
"Q+	c #433832",
"R+	c #312925",
"S+	c #4A4039",
"T+	c #4D423A",
"U+	c #4D413B",
"V+	c #483D37",
"W+	c #564A43",
"X+	c #5D5149",
"Y+	c #38302A",
"Z+	c #5A4E45",
"`+	c #5D5049",
" @	c #4F423C",
".@	c #433932",
"+@	c #342B26",
"@@	c #6B5D54",
"#@	c #5B4E47",
"$@	c #453C36",
"%@	c #473B34",
"&@	c #51463F",
"*@	c #796A5F",
"=@	c #64594F",
"-@	c #372E28",
";@	c #50443C",
">@	c #463B34",
",@	c #63564E",
"'@	c #564A41",
")@	c #6C5F54",
"!@	c #413631",
"~@	c #4A3F39",
"{@	c #50453E",
"]@	c #413832",
"^@	c #7E6F63",
"/@	c #74655B",
"(@	c #7A6C61",
"_@	c #64564E",
":@	c #51473F",
"<@	c #453B34",
"[@	c #6E6157",
"}@	c #463C36",
"|@	c #7E7064",
"1@	c #6B5C54",
"2@	c #60524B",
"3@	c #6C5E55",
"4@	c #433A33",
"5@	c #362E29",
"6@	c #362D28",
"7@	c #54483F",
"8@	c #6A5B53",
"9@	c #53463E",
"0@	c #403731",
"a@	c #3A322C",
"b@	c #3F342F",
"c@	c #4A403A",
"d@	c #4F453D",
"e@	c #5E5349",
"f@	c #4C413B",
"g@	c #706357",
"h@	c #4B4038",
"i@	c #6F6158",
"j@	c #2D2A27",
"k@	c #75665C",
"l@	c #63564C",
"m@	c #7C6E63",
"n@	c #4D433C",
"o@	c #2C2825",
"p@	c #64574F",
"q@	c #4B413B",
"r@	c #433831",
"s@	c #5C4F46",
"t@	c #302924",
"u@	c #2E2722",
"v@	c #6C6055",
"w@	c #564B42",
"x@	c #483E38",
"y@	c #51453D",
"z@	c #443B35",
"A@	c #3E342F",
"B@	c #78695E",
"C@	c #51443D",
"D@	c #4B413A",
"E@	c #726559",
"F@	c #63554D",
"G@	c #7B6C60",
"H@	c #594C45",
"I@	c #4B403A",
"J@	c #50453D",
"K@	c #6E6055",
"L@	c #5A4C45",
"M@	c #7B6D60",
"N@	c #74665C",
"O@	c #6C5F55",
"P@	c #574B44",
"Q@	c #403730",
"R@	c #62564D",
"S@	c #3F352E",
"T@	c #3C322D",
"U@	c #796C5F",
"V@	c #554940",
"W@	c #372D28",
"X@	c #3A312B",
"Y@	c #352C27",
"Z@	c #372E29",
"`@	c #332A26",
"  . + @ # $ % & * = -   ; > , ' ) ! ~ { % ] ^   / ( _ : { < [ } | 1   ",
"2 3 2 4 , 5 6 7 8 9 0 a b c d e f 2 g h 7 i j k 5 l = m n # o ) p 0 q ",
"  r i s t u 2 v w x y = z A B , C 8 D E = F G H H 9 7 7 I J K L M N O ",
"2 F x P Q A R S T U p e V W X s Y Z `  ...+.@.#.o $.%.&.*.E $.) =.[ -.",
"o g ;.>.>.>.,.'.).Y m ^ E H !.Q ~.{.].8 ^./.(._.:.<.G [.<.}.w |.}.' 1.",
"2.!.5 3.4.S 5.m 6.7.8.K 9.D S 0.x 5.a.o s b.c.d.4.>.e.f.g.h.c i.j.}.2 ",
"  k.l.6 m.n.P o.p.q.r.s.d.t.u.v.: i.^ X b o.'.w.x.y.z.A.B.C.D.8.E.F.G.",
"R }.Q '.H.I.' J._.w >.K.L.M.Z N.O.P.F Q.7 &.R.S.T.U.V.= W.3 Q.A.X.a   ",
"  j.>.Y.(.Z.`.,.K.] +. +.+{.++(.@+#++ }.$+%+G (.T &+J.P c.*+>.=+d q.A.",
"-+X.S Y.;+R.>+S ,+b.G '+y &+)+!+~+{+'.5.]+y & t.^+/+_ j.(+3 b.F _+E :+",
",.E.;.y.r.] | ).l.6.u h.<+[+3 }+ .>.|+=+5.1+ .h.T.2+l 3+o 4+l.5+' 6+7+",
"  8+9+* 0+` e a+%.s.b+c+d+y.(.e+4.f+9.g+h+w._.i+M w >.)+v .+h.j+< {.  ",
"2.7.Y k+) P 5.d.e+l+4+w.x.n.m+I.W.n * n+' 8 e b.= o+w p+q+) r+]+s+~.t+",
"~ M.u+Y..+# v+=+n+Y [+&+9 ) w+x+h y+z+t+<.$+A+6 B+C+D+n+E+5+n+G @ F+G+",
"  Z..+>.<.X x W.S.1 -+x K H+I+!.@ N.* 3+-+++k+J+= l ..H.K+, ++L+w+=   ",
"1 y M+>..+&+&+l.N+( O+D G S.5.>.Y.>.<.3.l+l.P+Y.Q+R+S+T+U+V+;.&.W+j.  ",
"X+[.J.)+]+F ).w+K 5+f / ;.Y.p+] >+b+>+U+E !.(+Y+t.t.X (.5 M.Z+4.x `+j+",
";. @.@+@4.Z.r.2 @@N.#@G.p+(.D+$@y... .N ;.Y.%@j L+&@P E *@/+2 =@L+).K ",
"  -@_+;@>@!+b+c+h.}..@V+U 8.5+a++ = i ,@p )+5.6 m++ 4.k+'@.+O.C )@w.e+",
"!@W.l.8.'.p ~@i.{@]@| b.*.l.^@/@W.(@b ) E j+_@c.J w+:@S Y.] D++ <@o [@",
"}@U.|@N.1@2@u Y * !.k+U o+3@8.p.&@l b.>.&+Q e+<.O.).).K S.++4@5@h.8 @@",
"  S.^.o+=.6@(.7@*.8@}+.@>+c.9@3 0@|.>@R ] }./.Q+>.w P A.n 8 ,@)+T+y.j ",
"a@k+{@+ ++-+j.%@}.y -+b@Z.] =+4.Y.>@=+c@}+M+d@s.|.f+] ] Z.j.e@I.4 D+` ",
"  d 8.h M.y.4+8+f@] w :.g@D <.0 3 q.h@) T.).8+i@f.{.r.]@v+0 %.q.P &+  ",
"j@+.P [.'@t+L+4+[+y.e.k@L+&@i B+^@J # }.q.l@l+m@p.B+J n@f.j.=+ .x j F ",
"o@d.J.b+| Y.Z..+J.r _@4 p@W.p P n+u q@r@x )+)@L+E L+@@&+s@8@V.k+f@)+t@",
"u@8+v@w@Y 8+.@z k+-+f.P+}..+^ W.h.x@D+s.&+V+~+P y@0 z@A@Q+Z.k+*@B+3 a.",
"  j.& u 6 j+K 8.B@n C@x Y.S 5 E+++D@!.7 6 {+D x J.3 E@I n.F@V+) e c.  ",
"S+t+s.- u ) _@8.h G@n++.Y+x $ c I+<.~@H@).^@X+6@*+D+b l.Z H W.!+c+j.  ",
"/...Z.y.s.p I@w.# o &@M k.H+Y.1+q.>.J@6+q.K@t+~ G ..;@0 L@) H@~@%.N.b.",
"  E.Z+u n+w.P+h.S F.}+!.4+2 p <@r.I+z 3.b@+...) ).A.g.Y.>.Y..@* M@B@<@",
"r Q N@E O.,@4.O@, h.P@*.o ' N.[+` <.;.A.U+n.p }.q.S.g + y Q@Q.x+|@R@4.",
"S@<.X+4 5+' -+@+p.{+n+Q p p A B A.K.T@!.7 U@t.>.c+v+Z.V@2 m.o+e ^.(.W@",
"  =+>.c.) y.c+Q+~+}.G.(.!+N 1+>.<@s.] >.;@P+<@1+X@1+>.>.w =.>@>.>.4.  ",
"    ..9.  (.6+  =+Y@          Z@  <@`@]+,.=+s+      R./. +    R.|.+.  "};
