/* XPM */
static char * prs0_xpm[] = {
"50 50 661 2",
"  	c #95B9BE",
". 	c #8EB0B6",
"+ 	c #8EAFB5",
"@ 	c #8AA9B1",
"# 	c #79929D",
"$ 	c #403875",
"% 	c #3C2D72",
"& 	c #3C2F73",
"* 	c #79919C",
"= 	c #90B2B8",
"- 	c #96BABF",
"; 	c #6B7D8B",
"> 	c #586183",
", 	c #3E3880",
"' 	c #3F4190",
") 	c #3F4191",
"! 	c #3D4191",
"~ 	c #633474",
"{ 	c #A02341",
"] 	c #AE6B73",
"^ 	c #A98F95",
"/ 	c #6D7F8D",
"( 	c #3F3F8C",
"_ 	c #3F4090",
": 	c #533F8C",
"< 	c #A92E57",
"[ 	c #BB273A",
"} 	c #BE2633",
"| 	c #BD2D38",
"1 	c #A89196",
"2 	c #8AAAB1",
"3 	c #596385",
"4 	c #3F408F",
"5 	c #573F8B",
"6 	c #A72F5A",
"7 	c #B42534",
"8 	c #95346B",
"9 	c #953061",
"0 	c #976D77",
"a 	c #96B3B8",
"b 	c #7C95A0",
"c 	c #3E377E",
"d 	c #633C84",
"e 	c #AA2434",
"f 	c #7D3571",
"g 	c #3D4091",
"h 	c #B77491",
"i 	c #3E3F8D",
"j 	c #572B68",
"k 	c #8FABB2",
"l 	c #90B3B8",
"m 	c #3E3271",
"n 	c #404191",
"o 	c #444090",
"p 	c #564891",
"q 	c #C17991",
"r 	c #ED9E9B",
"s 	c #766A9A",
"t 	c #47416C",
"u 	c #95BABF",
"v 	c #3B2C70",
"w 	c #414191",
"x 	c #C37A91",
"y 	c #F1A6A0",
"z 	c #F8D1C0",
"A 	c #D6BAB7",
"B 	c #413366",
"C 	c #819DA6",
"D 	c #657387",
"E 	c #3E3D8A",
"F 	c #3E4191",
"G 	c #BA7691",
"H 	c #F0A29D",
"I 	c #F8D0BF",
"J 	c #F9D6C4",
"K 	c #E89D9C",
"L 	c #996591",
"M 	c #3E3B85",
"N 	c #677586",
"O 	c #4E4D6E",
"P 	c #3E367D",
"Q 	c #3B2155",
"R 	c #BA717B",
"S 	c #E3BFB2",
"T 	c #F8D5C4",
"U 	c #B56D78",
"V 	c #40367A",
"W 	c #3D3579",
"X 	c #3D3A83",
"Y 	c #883962",
"Z 	c #893960",
"` 	c #883960",
" .	c #6B3D5F",
"..	c #DAADA5",
"+.	c #A96072",
"@.	c #894072",
"#.	c #51418C",
"$.	c #4E4D6F",
"%.	c #3D3478",
"&.	c #552959",
"*.	c #A4476D",
"=.	c #704488",
"-.	c #3E4090",
";.	c #5A3244",
">.	c #683042",
",.	c #742F45",
"'.	c #B3757F",
").	c #EECDBD",
"!.	c #F8D5C3",
"~.	c #AC5266",
"{.	c #65273A",
"].	c #2D1D44",
"^.	c #677686",
"/.	c #6D808E",
"(.	c #3D3173",
"_.	c #392055",
":.	c #B55A71",
"<.	c #F1A19C",
"[.	c #9C6691",
"}.	c #5B428C",
"|.	c #8C8391",
"1.	c #CDE6F2",
"2.	c #98ACB6",
"3.	c #090605",
"4.	c #BD9D92",
"5.	c #F9D7C5",
"6.	c #F7D6C4",
"7.	c #8C8184",
"8.	c #000000",
"9.	c #371E4E",
"0.	c #8AA9B0",
"a.	c #575C74",
"b.	c #3C2155",
"c.	c #B66778",
"d.	c #F7CDBD",
"e.	c #D5B0B0",
"f.	c #4A4A93",
"g.	c #834480",
"h.	c #EBDCDF",
"i.	c #FFFFFF",
"j.	c #BEBEBE",
"k.	c #090706",
"l.	c #F8D6C4",
"m.	c #F9D8C7",
"n.	c #D9D9D9",
"o.	c #93B6BB",
"p.	c #4C4C78",
"q.	c #3D2F6F",
"r.	c #B36576",
"s.	c #F7D4C2",
"t.	c #F8D4C3",
"u.	c #D08594",
"v.	c #AA6B8E",
"w.	c #F4C9BE",
"x.	c #FFFDFC",
"y.	c #C1BFBE",
"z.	c #CBAFA0",
"A.	c #EFC1C1",
"B.	c #A8A4A4",
"C.	c #391E4E",
"D.	c #819CA6",
"E.	c #3C3075",
"F.	c #3D2C6A",
"G.	c #4C2556",
"H.	c #953A61",
"I.	c #B76776",
"J.	c #CB7981",
"K.	c #E5878B",
"L.	c #F3B5AB",
"M.	c #F6C5B7",
"N.	c #D1707D",
"O.	c #5F325C",
"P.	c #7A929D",
"Q.	c #545772",
"R.	c #3C2055",
"S.	c #4C2457",
"T.	c #AA566D",
"U.	c #E5888B",
"V.	c #F7CEBE",
"W.	c #EBB1AA",
"X.	c #F5D0C0",
"Y.	c #E9A29E",
"Z.	c #52395F",
"`.	c #758C98",
" +	c #414187",
".+	c #3C2156",
"++	c #3C2359",
"@+	c #4F455C",
"#+	c #626164",
"$+	c #57545C",
"%+	c #83395F",
"&+	c #B7516D",
"*+	c #EDA5A0",
"=+	c #F8D3C2",
"-+	c #F7D0C0",
";+	c #F2C9BB",
">+	c #C48389",
",+	c #9F4967",
"'+	c #492456",
")+	c #4D4968",
"!+	c #708491",
"~+	c #3E3478",
"{+	c #515782",
"]+	c #6B7C8B",
"^+	c #443861",
"/+	c #3D3071",
"(+	c #4A3F58",
"_+	c #77747C",
":+	c #9E9E9E",
"<+	c #797979",
"[+	c #7C5861",
"}+	c #AA4B68",
"|+	c #BA556F",
"1+	c #D97A82",
"2+	c #DEA4A0",
"3+	c #CA717C",
"4+	c #964E63",
"5+	c #582F58",
"6+	c #3A2155",
"7+	c #585E75",
"8+	c #90B1B7",
"9+	c #88A7AE",
"0+	c #85A3AB",
"a+	c #4D4A68",
"b+	c #3B1C54",
"c+	c #493F57",
"d+	c #915C94",
"e+	c #8A6B8C",
"f+	c #929292",
"g+	c #9A9A9A",
"h+	c #777777",
"i+	c #7C5961",
"j+	c #B04869",
"k+	c #9E4F66",
"l+	c #865762",
"m+	c #A58E93",
"n+	c #878887",
"o+	c #443457",
"p+	c #555972",
"q+	c #768D99",
"r+	c #8BAAB1",
"s+	c #7F9199",
"t+	c #8E5F90",
"u+	c #AEA6AE",
"v+	c #BCBABC",
"w+	c #969696",
"x+	c #858585",
"y+	c #5E5E5E",
"z+	c #B6536D",
"A+	c #905464",
"B+	c #9A5F9C",
"C+	c #8B618C",
"D+	c #817184",
"E+	c #8EAFB4",
"F+	c #849BA1",
"G+	c #906791",
"H+	c #9F91A0",
"I+	c #BBBBBB",
"J+	c #939393",
"K+	c #656565",
"L+	c #767676",
"M+	c #5D5E5E",
"N+	c #E68A8C",
"O+	c #A4676E",
"P+	c #9B5D9D",
"Q+	c #7E7D7E",
"R+	c #8B5B8D",
"S+	c #CDC4CE",
"T+	c #728284",
"U+	c #849FA3",
"V+	c #69636C",
"W+	c #A379A5",
"X+	c #9D9D9D",
"Y+	c #A1A1A1",
"Z+	c #C8C8C8",
"`+	c #8C8D8E",
" @	c #4B4E50",
".@	c #5D5E5D",
"+@	c #A27372",
"@@	c #876969",
"#@	c #755B76",
"$@	c #5D5C5D",
"%@	c #715D72",
"&@	c #8B878F",
"*@	c #728385",
"=@	c #95BABE",
"-@	c #97B5BA",
";@	c #898FB0",
">@	c #6C77B3",
",@	c #7B7984",
"'@	c #959595",
")@	c #B4B4B4",
"!@	c #9D9EA2",
"~@	c #66709E",
"{@	c #3E4865",
"]@	c #59515D",
"^@	c #965998",
"/@	c #A074A2",
"(@	c #9B9B9B",
"_@	c #B3B3B3",
":@	c #C3C3C3",
"<@	c #A7A7A7",
"[@	c #5A5567",
"}@	c #513776",
"|@	c #767FB2",
"1@	c #889FC3",
"2@	c #94B7BF",
"3@	c #A09AA4",
"4@	c #B48894",
"5@	c #C05B71",
"6@	c #93669A",
"7@	c #6876AD",
"8@	c #646C92",
"9@	c #636B92",
"0@	c #5E6893",
"a@	c #455073",
"b@	c #4E5053",
"c@	c #865B87",
"d@	c #A373A5",
"e@	c #B2B2B2",
"f@	c #B9B9B9",
"g@	c #707072",
"h@	c #5E5D89",
"i@	c #4C2372",
"j@	c #4F2F77",
"k@	c #8190C6",
"l@	c #8DA9C1",
"m@	c #A09BA5",
"n@	c #D67F87",
"o@	c #E4868A",
"p@	c #CE6F7C",
"q@	c #B04A6C",
"r@	c #8E699F",
"s@	c #6B7BBB",
"t@	c #6878B6",
"u@	c #444F71",
"v@	c #343C43",
"w@	c #685C69",
"x@	c #9D58A0",
"y@	c #A08CA1",
"z@	c #BABABA",
"A@	c #D0D0D0",
"B@	c #878EB0",
"C@	c #636AA9",
"D@	c #503078",
"E@	c #8191C6",
"F@	c #A898A1",
"G@	c #DA7D85",
"H@	c #EE9191",
"I@	c #E78C8F",
"J@	c #C36679",
"K@	c #AC6A7F",
"L@	c #997A9B",
"M@	c #758BBC",
"N@	c #8BACB6",
"O@	c #403C55",
"P@	c #655265",
"Q@	c #A357A6",
"R@	c #A27DA4",
"S@	c #9F9F9F",
"T@	c #ADADAD",
"U@	c #999998",
"V@	c #7B6FA0",
"W@	c #9F436D",
"X@	c #5C2871",
"Y@	c #645E97",
"Z@	c #8190C5",
"`@	c #93B5BF",
" #	c #96B7BD",
".#	c #C76577",
"+#	c #EF9191",
"@#	c #C27485",
"##	c #9C5B7D",
"$#	c #752C6E",
"%#	c #94B0B7",
"&#	c #90AFB5",
"*#	c #682241",
"=#	c #883C74",
"-#	c #914585",
";#	c #8E6081",
">#	c #8B777D",
",#	c #927E84",
"'#	c #98868B",
")#	c #9C8F93",
"!#	c #60667E",
"~#	c #A55174",
"{#	c #A7446A",
"]#	c #6F2F70",
"^#	c #635D96",
"/#	c #95B8BE",
"(#	c #7F96A6",
"_#	c #67688B",
":#	c #7C3E74",
"<#	c #90537B",
"[#	c #5852A7",
"}#	c #4E2371",
"|#	c #728098",
"1#	c #93B6BC",
"2#	c #788DB3",
"3#	c #655358",
"4#	c #703D50",
"5#	c #752A49",
"6#	c #752949",
"7#	c #694C56",
"8#	c #665E75",
"9#	c #646E95",
"0#	c #A34F6E",
"a#	c #81356E",
"b#	c #9F416B",
"c#	c #602971",
"d#	c #8AA8B2",
"e#	c #563C77",
"f#	c #838096",
"g#	c #9599A9",
"h#	c #7485C4",
"i#	c #5C72C3",
"j#	c #935494",
"k#	c #AA7486",
"l#	c #9EA0A9",
"m#	c #91B2B7",
"n#	c #7F818F",
"o#	c #62616D",
"p#	c #6874A9",
"q#	c #6874A8",
"r#	c #656F9A",
"s#	c #A24D67",
"t#	c #77326F",
"u#	c #B24869",
"v#	c #662C71",
"w#	c #66688B",
"x#	c #87818F",
"y#	c #979AA8",
"z#	c #7080C0",
"A#	c #415EC2",
"B#	c #6280C1",
"C#	c #7798C0",
"D#	c #93B7BB",
"E#	c #818092",
"F#	c #99749B",
"G#	c #66636E",
"H#	c #626883",
"I#	c #7C5B7E",
"J#	c #838283",
"K#	c #838383",
"L#	c #A6A6A6",
"M#	c #ABABAB",
"N#	c #80426B",
"O#	c #6D2A6A",
"P#	c #933863",
"Q#	c #5A2771",
"R#	c #8CABB5",
"S#	c #8793BD",
"T#	c #7482BC",
"U#	c #4B65C0",
"V#	c #607EC1",
"W#	c #8FB3BE",
"X#	c #788189",
"Y#	c #9D749E",
"Z#	c #A8A3A8",
"`#	c #706467",
" $	c #824F63",
".$	c #6C5D6C",
"+$	c #9D9C9D",
"@$	c #A3A3A3",
"#$	c #AAAAAA",
"$$	c #B6B6B6",
"%$	c #B5B5B5",
"&$	c #5F5D5D",
"*$	c #51366E",
"=$	c #51236F",
"-$	c #54236E",
";$	c #97B1B5",
">$	c #96A6B0",
",$	c #7C89BE",
"'$	c #687BC4",
")$	c #5572C1",
"!$	c #8DAFBF",
"~$	c #798E90",
"{$	c #9D759F",
"]$	c #A1A2A1",
"^$	c #877778",
"/$	c #95293E",
"($	c #93233F",
"_$	c #87454B",
":$	c #6B5D6A",
"<$	c #955997",
"[$	c #9D7F9E",
"}$	c #B0B0B0",
"|$	c #80474C",
"1$	c #632369",
"2$	c #9A9CA3",
"3$	c #7D89BC",
"4$	c #4C66C2",
"5$	c #5370C1",
"6$	c #88AABF",
"7$	c #788E91",
"8$	c #A0A0A0",
"9$	c #897678",
"0$	c #95323E",
"a$	c #C56C72",
"b$	c #CB7074",
"c$	c #CF7073",
"d$	c #88474E",
"e$	c #774551",
"f$	c #81557A",
"g$	c #887F89",
"h$	c #A08EA1",
"i$	c #908889",
"j$	c #713654",
"k$	c #818FC5",
"l$	c #97AEB3",
"m$	c #9BA1A5",
"n$	c #7C8ABF",
"o$	c #4963C2",
"p$	c #4764C2",
"q$	c #8EB1BF",
"r$	c #968288",
"s$	c #7C6768",
"t$	c #9C313E",
"u$	c #CE6E71",
"v$	c #ED9090",
"w$	c #EB8E8E",
"x$	c #E08385",
"y$	c #BF676F",
"z$	c #883149",
"A$	c #8F3E4C",
"B$	c #70636C",
"C$	c #6F6A6A",
"D$	c #755557",
"E$	c #7B2F5F",
"F$	c #4C2472",
"G$	c #646099",
"H$	c #8BA5C2",
"I$	c #97B3B7",
"J$	c #96ACB4",
"K$	c #7F8CBE",
"L$	c #7081C4",
"M$	c #4C69C2",
"N$	c #6887C1",
"O$	c #8CAEBF",
"P$	c #99989D",
"Q$	c #9F3643",
"R$	c #C36266",
"S$	c #D37577",
"T$	c #9D1F33",
"U$	c #9E2134",
"V$	c #BB585D",
"W$	c #A94B55",
"X$	c #9F2436",
"Y$	c #9F2336",
"Z$	c #9F2537",
"`$	c #9A8B91",
" %	c #77889D",
".%	c #4C2272",
"+%	c #615A94",
"@%	c #8496C5",
"#%	c #90AFC0",
"$%	c #91A4B9",
"%%	c #757EB4",
"&%	c #768BB9",
"*%	c #7A9BC0",
"=%	c #80A2BF",
"-%	c #99979D",
";%	c #AB9CA1",
">%	c #C58689",
",%	c #A32D3C",
"'%	c #902439",
")%	c #D07275",
"!%	c #D17275",
"~%	c #D17376",
"{%	c #96B9BE",
"]%	c #76879D",
"^%	c #4B1F70",
"/%	c #7A85BA",
"(%	c #88A0C3",
"_%	c #98B0B4",
":%	c #7484B8",
"<%	c #8CAFBF",
"[%	c #91B5BE",
"}%	c #94AEB3",
"|%	c #7D4C5E",
"1%	c #7E3A50",
"2%	c #9A2539",
"3%	c #9C2438",
"4%	c #9E2437",
"5%	c #BA565C",
"6%	c #E78C8D",
"7%	c #E89394",
"8%	c #92B4BB",
"9%	c #65668A",
"0%	c #55427A",
"a%	c #6D72A3",
"b%	c #8394C3",
"c%	c #94B6BF",
"d%	c #9E4B55",
"e%	c #A02436",
"f%	c #892640",
"g%	c #7F2744",
"h%	c #872641",
"i%	c #93253C",
"j%	c #97243A",
"k%	c #732445",
"l%	c #8CA3A9",
"m%	c #9E4D56",
"n%	c #992539",
"o%	c #7C5685",
"p%	c #76344E",
"q%	c #7D4E51",
"r%	c #842742",
"s%	c #752445",
"t%	c #8DA2A9",
"u%	c #9E4751",
"v%	c #9D2D44",
"w%	c #736B9E",
"x%	c #5E5E5D",
"y%	c #605B5C",
"z%	c #7C8E92",
"A%	c #94B7BC",
"B%	c #9A858B",
"C%	c #9F2134",
"D%	c #9D676F",
"E%	c #96B0B5",
"F%	c #9D656C",
"G%	c #9B2C39",
"H%	c #754C52",
"I%	c #694C55",
"J%	c #7D9397",
"K%	c #95B7BC",
"L%	c #99999F",
"M%	c #96AEB3",
"N%	c #97ADB2",
"O%	c #8D636E",
"P%	c #862742",
"Q%	c #7E2744",
"R%	c #752847",
"S%	c #735F68",
"T%	c #8DADB2",
"U%	c #93B3B9",
"V%	c #7F6E7A",
"W%	c #752746",
"X%	c #93B4B9",
"Y%	c #889299",
"Z%	c #71394D",
"`%	c #7E767F",
" &	c #95B8BD",
".&	c #93B2B8",
"+&	c #7B5968",
"@&	c #6B4752",
"#&	c #87A4A8",
"$&	c #92B1B7",
"%&	c #794D5F",
"&&	c #715280",
"*&	c #6C79B6",
"=&	c #8EB0BD",
"-&	c #8FA7AD",
";&	c #752747",
">&	c #725180",
",&	c #79799C",
"'&	c #90ABB1",
")&	c #8EA3A9",
"!&	c #8FA8AE",
"                                                                                                    ",
"                                                . + + + + +                                         ",
"                                            @ # $ % % % % & * * =                                   ",
"                                        - ; > , ' ) ) ) ) ! ~ { ] ^                                 ",
"                                        / ( _ ) ) ) ) ) : < [ } } | 1                               ",
"                                      2 3 4 ) ) ) ) ) 5 6 7 8 8 8 9 0 a                             ",
"                                      b c ) ) ) ) ) ) d e f ) g h i j k                             ",
"                                    l m ) ) ) ) ) ) ) n o n p q r s ) t u                           ",
"                                    l v ) ) ) ) ) ) ) ) ) w x y z A ) B C                           ",
"                                  u D E ) ) ) ) ) ) ) ) F G H I J K L M N                           ",
"                                  - O ) ) ) ) ) ) ) ) P Q R S I T U V 4 N                           ",
"                                  - O ) ) W X ) ) ) ) Y Z `  ...T +.@.#.N                           ",
"                                    $.) %.&.*.=.) ) -.;.>.,.'.).!.~.{.].^.                          ",
"                                  /.c (._.:.<.[.) }.|.1.2.3.4.5.6.7.8.9.^.                          ",
"                                0.a.b.b._.c.d.e.f.g.h.i.j.k.l.5.m.n.8.9.^.                          ",
"                              o.p.q.b.b._.r.s.t.u.v.w.x.y.z.5.5.J A.B.C.^.                          ",
"                              D.E.F.b.b.b.G.H.I.J.K.L.J 5.5.5.5.5.M.N.O.P.                          ",
"                            - Q., b.b.b.b.b.R.R.S.T.U.J 5.5.V.W.X.Y.T.Z.u                           ",
"                            `. +, b..+++b.b.@+#+$+%+&+*+=+J -+;+>+,+'+)+u                           ",
"                            !+~+{+]+^+/+R.(+_+:+<+[+}+|+1+2+3+4+5+6+7+8+                            ",
"                            9+b 0+- a+b+c+d+e+f+g+h+i+j+k+l+m+n+o+p+2                               ",
"                                  q+r+s+t+u+v+f+w+x+y+z+A+B+f+C+D+E+                                ",
"                                  - F+G+H+:+I+J+K+L+M+N+O+P+Q+R+S+T+                                ",
"                                  U+V+W+X+Y+Z+`+ @y+.@+@@@#@$@%@&@*@=@                              ",
"                                -@;@>@,@'@)@!@~@{@]@^@/@(@_@:@<@y+[@}@|@1@2@                        ",
"                              3@4@5@6@7@8@9@0@a@b@c@d@X+X+X+e@f@g@h@i@j@k@l@                        ",
"                            m@n@o@p@q@r@s@t@u@v@w@x@y@X+X+X+z@A@B@C@i@D@E@l@                        ",
"                          F@G@H@I@J@K@L@M@N@O@P@Q@R@X+X+S@T@z@U@V@W@X@i@Y@Z@`@                      ",
"                         #.#+#@###$#%#    &#*#=#-#;#>#>#,#'#)#!#~#{#]#i@^#Z@`@                      ",
"                    /#(#_#:#<#[#}#|#1#    2#3#4#5#5#5#5#6#7#8#9#0#a#b#c#^#Z@`@                      ",
"                  d#e#f#g#h#i#j#k#l#  m#n#o#p#q#q#q#q#q#q#q#r#M+s#t#u#v#^#Z@`@                      ",
"                  w#x#y#z#A#B#C#    D#E#F#G#H#I#J#K#K#'@L#M#X+y+N#O#P#Q#^#Z@`@                      ",
"                  R#S#T#U#V#W#      X#Y#Z#`# $.$/@+$X+@$#$$$%$&$*$=$-$i@^#Z@`@                      ",
"              ;$>$,$'$)$!$        ~${$]$^$/$($_$:$<$[$X+X+X+}$|$1$i@i@i@^#Z@`@                      ",
"              2$3$4$5$6$          7$8$9$0$a$b$c$d$e$f$g$h$X+i$j$-$i@i@i@^#k$`@                      ",
"          l$m$n$o$p$q$            r$s$t$u$v$w$w$x$y$z$A$B$C$D$E$i@i@i@F$G$H$/#                      ",
"      I$J$K$L$M$N$O$              P$Q$R$H@S$T$U$U$V$W$X$Y$Z$`$ %i@i@.%+%@%#%                        ",
"      $%%%&%*%=%                    -%;%>%,%X$X$X$X$'%)%!%~%{%]%.%i@^%/%(%                          ",
"    _%:%<%[%                        }%|%1%2%3%4%X$X$X$5%6%7%{%8%9%0%a%b%c%                          ",
"      =@                          u d%X$e%f%g%h%i%X$X$j%k%l%    =@- =@                              ",
"                                  u m%X$X$X$n%o%p%q%q%r%s%t%                                        ",
"                                  u m%X$Y$u%Y$v%w%x%y+y%z%A%                                        ",
"                                    B%C%D%E%F%X$G%H%I%y+J%                                          ",
"                                    K%L%M%  N%O%P%Q%R%S%T%                                          ",
"                                            U%V%R%R%W%X%                                            ",
"                                            Y%W%R%Z%`% &                                            ",
"                                          .&+&R%R%@&#&                                              ",
"                                          $&%&R%R%&&*&=&                                            ",
"                                            -&+&;&W%>&,&                                            ",
"                                              '&)&)&)&!&                                            "};
